%TF.GenerationSoftware,KiCad,Pcbnew,10.0.6*%
%TF.CreationDate,2026-09-12T01:24:18+02:00*%
%TF.ProjectId,Panel,50616e65-6c2e-46b6-9963-61645f706362,rev?*%
%TF.SameCoordinates,Original*%
%TF.FileFunction,Profile,NP*%
%FSLAX46Y46*%
G04 Gerber Fmt 4.6, Leading zero omitted, Abs format (unit mm)*
G04 Created by KiCad (PCBNEW 10.0.6) date 2026-09-12 01:24:18*
%MOMM*%
%LPD*%
G01*
G04 APERTURE LIST*
%TA.AperFunction,Profile*%
%ADD10C,0.050000*%
%TD*%
G04 APERTURE END LIST*
D10*
X0Y-1000000D02*
X0Y-138000000D01*
X0Y-138000000D02*
X4815Y-138098017D01*
X4815Y-901982D02*
X0Y-1000000D01*
X4815Y-138098017D02*
X19214Y-138195090D01*
X19214Y-804909D02*
X4815Y-901982D01*
X19214Y-138195090D02*
X43059Y-138290284D01*
X43059Y-709715D02*
X19214Y-804909D01*
X43059Y-138290284D02*
X76120Y-138382683D01*
X76120Y-617316D02*
X43059Y-709715D01*
X76120Y-138382683D02*
X118078Y-138471396D01*
X118078Y-528603D02*
X76120Y-617316D01*
X118078Y-138471396D02*
X168530Y-138555570D01*
X168530Y-444429D02*
X118078Y-528603D01*
X168530Y-138555570D02*
X226989Y-138634393D01*
X226989Y-365606D02*
X168530Y-444429D01*
X226989Y-138634393D02*
X292893Y-138707106D01*
X292893Y-292893D02*
X226989Y-365606D01*
X292893Y-138707106D02*
X365606Y-138773010D01*
X365606Y-226989D02*
X292893Y-292893D01*
X365606Y-138773010D02*
X444429Y-138831469D01*
X444429Y-168530D02*
X365606Y-226989D01*
X444429Y-138831469D02*
X528603Y-138881921D01*
X528603Y-118078D02*
X444429Y-168530D01*
X528603Y-138881921D02*
X617316Y-138923879D01*
X617316Y-76120D02*
X528603Y-118078D01*
X617316Y-138923879D02*
X709715Y-138956940D01*
X709715Y-43059D02*
X617316Y-76120D01*
X709715Y-138956940D02*
X804909Y-138980785D01*
X804909Y-19214D02*
X709715Y-43059D01*
X804909Y-138980785D02*
X901982Y-138995184D01*
X901982Y-4815D02*
X804909Y-19214D01*
X901982Y-138995184D02*
X1000000Y-139000000D01*
X1000000Y0D02*
X901982Y-4815D01*
X1000000Y-139000000D02*
X150000000Y-139000000D01*
X10028945Y-116307430D02*
X7960945Y-112252801D01*
X10037685Y-116323808D02*
X10028945Y-116307430D01*
X10096452Y-116429171D02*
X10037685Y-116323808D01*
X10115720Y-116460888D02*
X10096452Y-116429171D01*
X10182142Y-116561601D02*
X10115720Y-116460888D01*
X10192648Y-116576905D02*
X10182142Y-116561601D01*
X10259260Y-51185200D02*
X9438660Y-53872100D01*
X10427527Y-44304877D02*
X11686607Y-40583779D01*
X104500000Y-5000000D02*
X104500000Y-7000000D01*
X104500000Y-67000000D02*
X129500000Y-67000000D01*
X104500000Y-69000000D02*
X104500000Y-67000000D01*
X104500000Y-7000000D02*
X89000000Y-7000000D01*
X105987727Y-100000000D02*
X92012272Y-100000000D01*
X105987727Y-78000000D02*
X106012257Y-78000602D01*
X106000000Y-80000000D02*
X92000000Y-80000000D01*
X106000000Y-80500000D02*
X106000000Y-80000000D01*
X106000000Y-85500000D02*
X108000000Y-85500000D01*
X106000000Y-98000000D02*
X106000000Y-85500000D01*
X106012257Y-78000602D02*
X106171515Y-78008426D01*
X106012257Y-99999397D02*
X105987727Y-100000000D01*
X106171515Y-78008426D02*
X106220317Y-78013232D01*
X106171515Y-99991573D02*
X106012257Y-99999397D01*
X106220317Y-78013232D02*
X106365897Y-78034827D01*
X106220317Y-99986767D02*
X106171515Y-99991573D01*
X106365897Y-78034827D02*
X106413993Y-78044394D01*
X106365897Y-99965172D02*
X106220317Y-99986767D01*
X106413993Y-78044394D02*
X106556756Y-78080154D01*
X106413993Y-99955605D02*
X106365897Y-99965172D01*
X106556756Y-78080154D02*
X106603682Y-78094389D01*
X106556756Y-99919845D02*
X106413993Y-99955605D01*
X106603682Y-78094389D02*
X106742253Y-78143970D01*
X106603682Y-99905610D02*
X106556756Y-99919845D01*
X106742253Y-78143970D02*
X106787558Y-78162736D01*
X106742253Y-99856029D02*
X106603682Y-99905610D01*
X106787558Y-78162736D02*
X106920601Y-78225661D01*
X106787558Y-99837263D02*
X106742253Y-99856029D01*
X106920601Y-78225661D02*
X106963849Y-78248777D01*
X106920601Y-99774338D02*
X106787558Y-99837263D01*
X106963849Y-78248777D02*
X107090084Y-78324440D01*
X106963849Y-99751222D02*
X106920601Y-99774338D01*
X107090084Y-78324440D02*
X107130858Y-78351684D01*
X107090084Y-99675559D02*
X106963849Y-99751222D01*
X107130858Y-78351684D02*
X107249068Y-78439355D01*
X107130858Y-99648315D02*
X107090084Y-99675559D01*
X107249068Y-78439355D02*
X107286975Y-78470464D01*
X107249068Y-99560644D02*
X107130858Y-99648315D01*
X107286975Y-78470464D02*
X107396024Y-78569300D01*
X107286975Y-99529535D02*
X107249068Y-99560644D01*
X107396024Y-78569300D02*
X107430699Y-78603975D01*
X107396024Y-99430699D02*
X107286975Y-99529535D01*
X107430699Y-78603975D02*
X107529535Y-78713024D01*
X107430699Y-99396024D02*
X107396024Y-99430699D01*
X107529535Y-78713024D02*
X107560644Y-78750931D01*
X107529535Y-99286975D02*
X107430699Y-99396024D01*
X107560644Y-78750931D02*
X107648315Y-78869141D01*
X107560644Y-99249068D02*
X107529535Y-99286975D01*
X107648315Y-78869141D02*
X107675559Y-78909915D01*
X107648315Y-99130858D02*
X107560644Y-99249068D01*
X107675559Y-78909915D02*
X107751222Y-79036150D01*
X107675559Y-99090084D02*
X107648315Y-99130858D01*
X107751222Y-79036150D02*
X107774338Y-79079398D01*
X107751222Y-98963849D02*
X107675559Y-99090084D01*
X107774338Y-79079398D02*
X107837263Y-79212441D01*
X107774338Y-98920601D02*
X107751222Y-98963849D01*
X107837263Y-79212441D02*
X107856029Y-79257746D01*
X107837263Y-98787558D02*
X107774338Y-98920601D01*
X107856029Y-79257746D02*
X107905610Y-79396317D01*
X107856029Y-98742253D02*
X107837263Y-98787558D01*
X107905610Y-79396317D02*
X107919845Y-79443243D01*
X107905610Y-98603682D02*
X107856029Y-98742253D01*
X107919845Y-79443243D02*
X107955605Y-79586006D01*
X107919845Y-98556756D02*
X107905610Y-98603682D01*
X107955605Y-79586006D02*
X107965172Y-79634102D01*
X107955605Y-98413993D02*
X107919845Y-98556756D01*
X107965172Y-79634102D02*
X107986767Y-79779682D01*
X107965172Y-98365897D02*
X107955605Y-98413993D01*
X107986767Y-79779682D02*
X107991573Y-79828484D01*
X107986767Y-98220317D02*
X107965172Y-98365897D01*
X107991573Y-79828484D02*
X107999397Y-79987742D01*
X107991573Y-98171515D02*
X107986767Y-98220317D01*
X107999397Y-79987742D02*
X108000000Y-80012272D01*
X107999397Y-98012257D02*
X107991573Y-98171515D01*
X108000000Y-80012272D02*
X108000000Y-80500000D01*
X108000000Y-80500000D02*
X106000000Y-80500000D01*
X108000000Y-85500000D02*
X108000000Y-97987727D01*
X108000000Y-97987727D02*
X107999397Y-98012257D01*
X109500000Y-5000000D02*
X143987727Y-5000000D01*
X109500000Y-7000000D02*
X109500000Y-5000000D01*
X11218750Y-48234400D02*
X10259260Y-51185200D01*
X11686607Y-40583779D02*
X11687328Y-40581640D01*
X11687328Y-40581640D02*
X13063201Y-36484937D01*
X11814810Y-115407000D02*
X14450810Y-119098000D01*
X12324069Y-44939800D02*
X11218750Y-48234400D01*
X12817830Y-120252757D02*
X10192648Y-116576905D01*
X12828956Y-120267736D02*
X12817830Y-120252757D01*
X12903063Y-120363718D02*
X12828956Y-120267736D01*
X12926945Y-120392371D02*
X12903063Y-120363718D01*
X129500000Y-67000000D02*
X129500000Y-69000000D01*
X129500000Y-69000000D02*
X104500000Y-69000000D01*
X13008003Y-120482559D02*
X12926945Y-120392371D01*
X13020733Y-120496201D02*
X13008003Y-120482559D01*
X13063201Y-36484937D02*
X13086932Y-36402799D01*
X13086932Y-36402799D02*
X14013834Y-32590210D01*
X13582180Y-41221600D02*
X12324069Y-44939800D01*
X134500000Y-67000000D02*
X144000000Y-67000000D01*
X134500000Y-69000000D02*
X134500000Y-67000000D01*
X14013834Y-32590210D02*
X14016071Y-32580812D01*
X14016071Y-32580812D02*
X14902508Y-28774865D01*
X14450810Y-119098000D02*
X17625000Y-122375000D01*
X14902508Y-28774865D02*
X14903483Y-28770636D01*
X14903483Y-28770636D02*
X15737503Y-25118075D01*
X143987727Y-5000000D02*
X144012257Y-5000602D01*
X143987727Y-69000000D02*
X134500000Y-69000000D01*
X144000000Y-12500000D02*
X146000000Y-12500000D01*
X144000000Y-67000000D02*
X144000000Y-12500000D01*
X144000000Y-7000000D02*
X109500000Y-7000000D01*
X144000000Y-7500000D02*
X144000000Y-7000000D01*
X144012257Y-5000602D02*
X144171515Y-5008426D01*
X144012257Y-68999397D02*
X143987727Y-69000000D01*
X144171515Y-5008426D02*
X144220317Y-5013232D01*
X144171515Y-68991573D02*
X144012257Y-68999397D01*
X144220317Y-5013232D02*
X144365897Y-5034827D01*
X144220317Y-68986767D02*
X144171515Y-68991573D01*
X144365897Y-5034827D02*
X144413993Y-5044394D01*
X144365897Y-68965172D02*
X144220317Y-68986767D01*
X144413993Y-5044394D02*
X144556756Y-5080154D01*
X144413993Y-68955605D02*
X144365897Y-68965172D01*
X144556756Y-5080154D02*
X144603682Y-5094389D01*
X144556756Y-68919845D02*
X144413993Y-68955605D01*
X144603682Y-5094389D02*
X144742253Y-5143970D01*
X144603682Y-68905610D02*
X144556756Y-68919845D01*
X144742253Y-5143970D02*
X144787558Y-5162736D01*
X144742253Y-68856029D02*
X144603682Y-68905610D01*
X144787558Y-5162736D02*
X144920601Y-5225661D01*
X144787558Y-68837263D02*
X144742253Y-68856029D01*
X144920601Y-5225661D02*
X144963849Y-5248777D01*
X144920601Y-68774338D02*
X144787558Y-68837263D01*
X144963849Y-5248777D02*
X145090084Y-5324440D01*
X144963849Y-68751222D02*
X144920601Y-68774338D01*
X145090084Y-5324440D02*
X145130858Y-5351684D01*
X145090084Y-68675559D02*
X144963849Y-68751222D01*
X145130858Y-5351684D02*
X145249068Y-5439355D01*
X145130858Y-68648315D02*
X145090084Y-68675559D01*
X145249068Y-5439355D02*
X145286975Y-5470464D01*
X145249068Y-68560644D02*
X145130858Y-68648315D01*
X145286975Y-5470464D02*
X145396024Y-5569300D01*
X145286975Y-68529535D02*
X145249068Y-68560644D01*
X145396024Y-5569300D02*
X145430699Y-5603975D01*
X145396024Y-68430699D02*
X145286975Y-68529535D01*
X145430699Y-5603975D02*
X145529535Y-5713024D01*
X145430699Y-68396024D02*
X145396024Y-68430699D01*
X145529535Y-5713024D02*
X145560644Y-5750931D01*
X145529535Y-68286975D02*
X145430699Y-68396024D01*
X145560644Y-5750931D02*
X145648315Y-5869141D01*
X145560644Y-68249068D02*
X145529535Y-68286975D01*
X145648315Y-5869141D02*
X145675559Y-5909915D01*
X145648315Y-68130858D02*
X145560644Y-68249068D01*
X145675559Y-5909915D02*
X145751222Y-6036150D01*
X145675559Y-68090084D02*
X145648315Y-68130858D01*
X145751222Y-6036150D02*
X145774338Y-6079398D01*
X145751222Y-67963849D02*
X145675559Y-68090084D01*
X145774338Y-6079398D02*
X145837263Y-6212441D01*
X145774338Y-67920601D02*
X145751222Y-67963849D01*
X145837263Y-6212441D02*
X145856029Y-6257746D01*
X145837263Y-67787558D02*
X145774338Y-67920601D01*
X145856029Y-6257746D02*
X145905610Y-6396317D01*
X145856029Y-67742253D02*
X145837263Y-67787558D01*
X145905610Y-6396317D02*
X145919845Y-6443243D01*
X145905610Y-67603682D02*
X145856029Y-67742253D01*
X145919845Y-6443243D02*
X145955605Y-6586006D01*
X145919845Y-67556756D02*
X145905610Y-67603682D01*
X145955605Y-6586006D02*
X145965172Y-6634102D01*
X145955605Y-67413993D02*
X145919845Y-67556756D01*
X145965172Y-6634102D02*
X145986767Y-6779682D01*
X145965172Y-67365897D02*
X145955605Y-67413993D01*
X145986767Y-6779682D02*
X145991573Y-6828484D01*
X145986767Y-67220317D02*
X145965172Y-67365897D01*
X145991573Y-6828484D02*
X145999397Y-6987742D01*
X145991573Y-67171515D02*
X145986767Y-67220317D01*
X145999397Y-6987742D02*
X146000000Y-7012272D01*
X145999397Y-67012257D02*
X145991573Y-67171515D01*
X146000000Y-12500000D02*
X146000000Y-66987727D01*
X146000000Y-66987727D02*
X145999397Y-67012257D01*
X146000000Y-7012272D02*
X146000000Y-7500000D01*
X146000000Y-7500000D02*
X144000000Y-7500000D01*
X15000000Y-37000000D02*
X13582180Y-41221600D01*
X15737503Y-25118075D02*
X16531967Y-21664637D01*
X15960650Y-33048600D02*
X15000000Y-37000000D01*
X150000000Y0D02*
X1000000Y0D01*
X150000000Y-139000000D02*
X150098017Y-138995184D01*
X150098017Y-4815D02*
X150000000Y0D01*
X150098017Y-138995184D02*
X150195090Y-138980785D01*
X150195090Y-19214D02*
X150098017Y-4815D01*
X150195090Y-138980785D02*
X150290284Y-138956940D01*
X150290284Y-43059D02*
X150195090Y-19214D01*
X150290284Y-138956940D02*
X150382683Y-138923879D01*
X150382683Y-76120D02*
X150290284Y-43059D01*
X150382683Y-138923879D02*
X150471396Y-138881921D01*
X150471396Y-118078D02*
X150382683Y-76120D01*
X150471396Y-138881921D02*
X150555570Y-138831469D01*
X150555570Y-168530D02*
X150471396Y-118078D01*
X150555570Y-138831469D02*
X150634393Y-138773010D01*
X150634393Y-226989D02*
X150555570Y-168530D01*
X150634393Y-138773010D02*
X150707106Y-138707106D01*
X150707106Y-292893D02*
X150634393Y-226989D01*
X150707106Y-138707106D02*
X150773010Y-138634393D01*
X150773010Y-365606D02*
X150707106Y-292893D01*
X150773010Y-138634393D02*
X150831469Y-138555570D01*
X150831469Y-444429D02*
X150773010Y-365606D01*
X150831469Y-138555570D02*
X150881921Y-138471396D01*
X150881921Y-528603D02*
X150831469Y-444429D01*
X150881921Y-138471396D02*
X150923879Y-138382683D01*
X150923879Y-617316D02*
X150881921Y-528603D01*
X150923879Y-138382683D02*
X150956940Y-138290284D01*
X150956940Y-709715D02*
X150923879Y-617316D01*
X150956940Y-138290284D02*
X150980785Y-138195090D01*
X150980785Y-804909D02*
X150956940Y-709715D01*
X150980785Y-138195090D02*
X150995184Y-138098017D01*
X150995184Y-901982D02*
X150980785Y-804909D01*
X150995184Y-138098017D02*
X151000000Y-138000000D01*
X151000000Y-1000000D02*
X150995184Y-901982D01*
X151000000Y-138000000D02*
X151000000Y-1000000D01*
X16175729Y-123753386D02*
X13020733Y-120496201D01*
X16202055Y-123778650D02*
X16175729Y-123753386D01*
X16392576Y-123948575D02*
X16202055Y-123778650D01*
X16420675Y-123971851D02*
X16392576Y-123948575D01*
X16531967Y-21664637D02*
X16535980Y-21647506D01*
X16535980Y-21647506D02*
X17301684Y-18448139D01*
X16851850Y-29222200D02*
X15960650Y-33048600D01*
X17301684Y-18448139D02*
X17310394Y-18413009D01*
X17310394Y-18413009D02*
X18062701Y-15503120D01*
X17625000Y-122375000D02*
X21320000Y-125215000D01*
X17687500Y-25562500D02*
X16851850Y-29222200D01*
X18062701Y-15503120D02*
X18064703Y-15495617D01*
X18064703Y-15495617D02*
X18079139Y-15443161D01*
X18079139Y-15443161D02*
X18081260Y-15435683D01*
X18081260Y-15435683D02*
X18830689Y-12869124D01*
X18481500Y-22111100D02*
X17687500Y-25562500D01*
X18830689Y-12869124D02*
X18834406Y-12856971D01*
X18834406Y-12856971D02*
X18861503Y-12772239D01*
X18861503Y-12772239D02*
X18865528Y-12760184D01*
X18865528Y-12760184D02*
X19626201Y-10574672D01*
X19247700Y-18909700D02*
X18481500Y-22111100D01*
X19626201Y-10574672D02*
X19633486Y-10555072D01*
X19633486Y-10555072D02*
X19687330Y-10418990D01*
X19687330Y-10418990D02*
X19695428Y-10399712D01*
X19695428Y-10399712D02*
X20477878Y-8640952D01*
X20000000Y-16000000D02*
X19247700Y-18909700D01*
X20087328Y-126790063D02*
X16420675Y-123971851D01*
X20115785Y-126810392D02*
X20087328Y-126790063D01*
X20319751Y-126945582D02*
X20115785Y-126810392D01*
X20349560Y-126963871D02*
X20319751Y-126945582D01*
X20477878Y-8640952D02*
X20493634Y-8608707D01*
X20493634Y-8608707D02*
X20611902Y-8387196D01*
X20611902Y-8387196D02*
X20629931Y-8356164D01*
X20629931Y-8356164D02*
X21450266Y-7054162D01*
X20752300Y-13423610D02*
X20000000Y-16000000D01*
X21320000Y-125215000D02*
X25518500Y-127593000D01*
X21450266Y-7054162D02*
X21462247Y-7036031D01*
X21462247Y-7036031D02*
X21542651Y-6919930D01*
X21518500Y-11222220D02*
X20752300Y-13423610D01*
X21542651Y-6919930D02*
X21568910Y-6885328D01*
X21568910Y-6885328D02*
X21652151Y-6785013D01*
X21652151Y-6785013D02*
X21681315Y-6752822D01*
X21681315Y-6752822D02*
X21780594Y-6652383D01*
X21780594Y-6652383D02*
X21796203Y-6637263D01*
X21796203Y-6637263D02*
X22670909Y-5826077D01*
X22312500Y-9437500D02*
X21518500Y-11222220D01*
X22670909Y-5826077D02*
X22688110Y-5810845D01*
X22688110Y-5810845D02*
X22802135Y-5714456D01*
X22802135Y-5714456D02*
X22838530Y-5686453D01*
X22838530Y-5686453D02*
X22951499Y-5607521D01*
X22951499Y-5607521D02*
X22990311Y-5582977D01*
X22990311Y-5582977D02*
X23110049Y-5514748D01*
X23110049Y-5514748D02*
X23150950Y-5493871D01*
X23148200Y-8111110D02*
X22312500Y-9437500D01*
X23150950Y-5493871D02*
X23276446Y-5436921D01*
X23276446Y-5436921D02*
X23319090Y-5419886D01*
X23319090Y-5419886D02*
X23460142Y-5370928D01*
X23460142Y-5370928D02*
X23482015Y-5363895D01*
X23482015Y-5363895D02*
X24420187Y-5085852D01*
X24039300Y-7284720D02*
X23148200Y-8111110D01*
X24420187Y-5085852D02*
X24443359Y-5079585D01*
X24443359Y-5079585D02*
X24594871Y-5042492D01*
X24518511Y-129325135D02*
X20349560Y-126963871D01*
X24547662Y-129340401D02*
X24518511Y-129325135D01*
X24594871Y-5042492D02*
X24641962Y-5033333D01*
X24641962Y-5033333D02*
X24784448Y-5012664D01*
X24755039Y-129440448D02*
X24547662Y-129340401D01*
X24784448Y-5012664D02*
X24832201Y-5008063D01*
X24785130Y-129453763D02*
X24755039Y-129440448D01*
X24832201Y-5008063D02*
X24988008Y-5000576D01*
X24988008Y-5000576D02*
X25012005Y-5000000D01*
X25000000Y-7000000D02*
X24039300Y-7284720D01*
X25012005Y-5000000D02*
X28500000Y-5000000D01*
X25518500Y-127593000D02*
X30203100Y-129483999D01*
X28500000Y-5000000D02*
X28500000Y-7000000D01*
X28500000Y-7000000D02*
X25000000Y-7000000D01*
X29440363Y-131332909D02*
X24785130Y-129453763D01*
X29468887Y-131343426D02*
X29440363Y-131332909D01*
X29670637Y-131410919D02*
X29468887Y-131343426D01*
X29699748Y-131419682D02*
X29670637Y-131410919D01*
X30203100Y-129483999D02*
X35356500Y-130865999D01*
X33500000Y-5000000D02*
X61500000Y-5000000D01*
X33500000Y-7000000D02*
X33500000Y-5000000D01*
X34824912Y-132794110D02*
X29699748Y-131419682D01*
X34852188Y-132800611D02*
X34824912Y-132794110D01*
X35044263Y-132840730D02*
X34852188Y-132800611D01*
X35071860Y-132845691D02*
X35044263Y-132840730D01*
X35356500Y-130865999D02*
X40961200Y-131711999D01*
X40650064Y-133687691D02*
X35071860Y-132845691D01*
X40675400Y-133690856D02*
X40650064Y-133687691D01*
X40853216Y-133708470D02*
X40675400Y-133690856D01*
X40878681Y-133710337D02*
X40853216Y-133708470D01*
X40961200Y-131711999D02*
X47000000Y-132000000D01*
X46892824Y-133997161D02*
X40878681Y-133710337D01*
X46916639Y-133997729D02*
X46892824Y-133997161D01*
X47000000Y-132000000D02*
X53038800Y-131711999D01*
X47083360Y-133997729D02*
X46916639Y-133997729D01*
X47107175Y-133997161D02*
X47083360Y-133997729D01*
X5000000Y-72003132D02*
X5000174Y-71975287D01*
X5000000Y-79500000D02*
X5000000Y-72003132D01*
X5000000Y-84500000D02*
X7000000Y-84500000D01*
X5000000Y-96992420D02*
X5000000Y-84500000D01*
X5000174Y-71975287D02*
X5042954Y-68900594D01*
X5000229Y-97007575D02*
X5000000Y-96992420D01*
X5003445Y-97113614D02*
X5000229Y-97007575D01*
X5004134Y-97128755D02*
X5003445Y-97113614D01*
X5042954Y-68900594D02*
X5043144Y-68892122D01*
X5043144Y-68892122D02*
X5044976Y-68832808D01*
X5044976Y-68832808D02*
X5045310Y-68824336D01*
X5045310Y-68824336D02*
X5177968Y-66053078D01*
X5177968Y-66053078D02*
X5178575Y-66042669D01*
X5178575Y-66042669D02*
X5183584Y-65969861D01*
X5183584Y-65969861D02*
X5184408Y-65959468D01*
X5184408Y-65959468D02*
X5413733Y-63405144D01*
X5312309Y-102205219D02*
X5004134Y-97128755D01*
X5315292Y-102237264D02*
X5312309Y-102205219D01*
X5343376Y-102460712D02*
X5315292Y-102237264D01*
X5348415Y-102492499D02*
X5343376Y-102460712D01*
X5413733Y-63405144D02*
X5414929Y-63393391D01*
X5414929Y-63393391D02*
X5424266Y-63311229D01*
X5424266Y-63311229D02*
X5425739Y-63299508D01*
X5425739Y-63299508D02*
X5758593Y-60881491D01*
X5758593Y-60881491D02*
X5760400Y-60869450D01*
X5760400Y-60869450D02*
X5774075Y-60785327D01*
X5774075Y-60785327D02*
X5776175Y-60773334D01*
X5776175Y-60773334D02*
X6219608Y-58410382D01*
X53038800Y-131711999D02*
X58643500Y-130865999D01*
X53121318Y-133710337D02*
X47107175Y-133997161D01*
X53146783Y-133708470D02*
X53121318Y-133710337D01*
X53324599Y-133690856D02*
X53146783Y-133708470D01*
X53349935Y-133687691D02*
X53324599Y-133690856D01*
X58643500Y-130865999D02*
X63796900Y-129483999D01*
X58928139Y-132845691D02*
X53349935Y-133687691D01*
X58955736Y-132840730D02*
X58928139Y-132845691D01*
X59147811Y-132800611D02*
X58955736Y-132840730D01*
X59175087Y-132794110D02*
X59147811Y-132800611D01*
X6219608Y-58410382D02*
X6221822Y-58399278D01*
X6221822Y-58399278D02*
X6238201Y-58321730D01*
X6238201Y-58321730D02*
X6240667Y-58310678D01*
X6240667Y-58310678D02*
X6801953Y-55922078D01*
X6259384Y-107243987D02*
X5348415Y-102492499D01*
X6267018Y-107277523D02*
X6259384Y-107243987D01*
X6328478Y-107510197D02*
X6267018Y-107277523D01*
X6338400Y-107543128D02*
X6328478Y-107510197D01*
X6801953Y-55922078D02*
X6804196Y-55912923D01*
X6804196Y-55912923D02*
X6820496Y-55848994D01*
X6820496Y-55848994D02*
X6822910Y-55839883D01*
X6822910Y-55839883D02*
X7509395Y-53344891D01*
X61500000Y-5000000D02*
X61500000Y-7000000D01*
X61500000Y-7000000D02*
X33500000Y-7000000D01*
X63796900Y-129483999D02*
X68481500Y-127593000D01*
X64300251Y-131419682D02*
X59175087Y-132794110D01*
X64329362Y-131410919D02*
X64300251Y-131419682D01*
X64531112Y-131343426D02*
X64329362Y-131410919D01*
X64559636Y-131332909D02*
X64531112Y-131343426D01*
X66500000Y-5000000D02*
X68987994Y-5000000D01*
X66500000Y-7000000D02*
X66500000Y-5000000D01*
X68481500Y-127593000D02*
X72680000Y-125215000D01*
X68987994Y-5000000D02*
X69011991Y-5000576D01*
X69000000Y-7000000D02*
X66500000Y-7000000D01*
X69011991Y-5000576D02*
X69167798Y-5008063D01*
X69167798Y-5008063D02*
X69215551Y-5012664D01*
X69214869Y-129453763D02*
X64559636Y-131332909D01*
X69215551Y-5012664D02*
X69358037Y-5033333D01*
X69244960Y-129440448D02*
X69214869Y-129453763D01*
X69358037Y-5033333D02*
X69405128Y-5042492D01*
X69405128Y-5042492D02*
X69556640Y-5079585D01*
X69452337Y-129340401D02*
X69244960Y-129440448D01*
X69481488Y-129325135D02*
X69452337Y-129340401D01*
X69556640Y-5079585D02*
X69579812Y-5085852D01*
X69579812Y-5085852D02*
X70517984Y-5363895D01*
X69960700Y-7284720D02*
X69000000Y-7000000D01*
X7000000Y-72000000D02*
X7000000Y-73389500D01*
X7000000Y-73389500D02*
X7000000Y-75032400D01*
X7000000Y-75032400D02*
X7000000Y-76890600D01*
X7000000Y-76890600D02*
X7000000Y-78925900D01*
X7000000Y-78925900D02*
X7000000Y-79500000D01*
X7000000Y-79500000D02*
X5000000Y-79500000D01*
X7000000Y-84500000D02*
X7000000Y-85712400D01*
X7000000Y-85712400D02*
X7000000Y-88074100D01*
X7000000Y-88074100D02*
X7000000Y-90421900D01*
X7000000Y-90421900D02*
X7000000Y-92717600D01*
X7000000Y-92717600D02*
X7000000Y-94923000D01*
X7000000Y-94923000D02*
X7000000Y-97000000D01*
X7000000Y-97000000D02*
X7309610Y-102100100D01*
X7042820Y-68924200D02*
X7000000Y-72000000D01*
X7175930Y-66143500D02*
X7042820Y-68924200D01*
X7309610Y-102100100D02*
X8226850Y-106884300D01*
X7406250Y-63578100D02*
X7175930Y-66143500D01*
X7509395Y-53344891D02*
X7511292Y-53338176D01*
X7511292Y-53338176D02*
X7524905Y-53291272D01*
X7524905Y-53291272D02*
X7526896Y-53284584D01*
X7526896Y-53284584D02*
X8345296Y-50604888D01*
X7740740Y-61148200D02*
X7406250Y-63578100D01*
X7834596Y-111953418D02*
X6338400Y-107543128D01*
X7847430Y-111987185D02*
X7834596Y-111953418D01*
X7945706Y-112220048D02*
X7847430Y-111987185D01*
X7960945Y-112252801D02*
X7945706Y-112220048D01*
X70517984Y-5363895D02*
X70539857Y-5370928D01*
X70539857Y-5370928D02*
X70680909Y-5419886D01*
X70680909Y-5419886D02*
X70723553Y-5436921D01*
X70723553Y-5436921D02*
X70849049Y-5493871D01*
X70849049Y-5493871D02*
X70889950Y-5514748D01*
X70851800Y-8111110D02*
X69960700Y-7284720D01*
X70889950Y-5514748D02*
X71009688Y-5582977D01*
X71009688Y-5582977D02*
X71048500Y-5607521D01*
X71048500Y-5607521D02*
X71161469Y-5686453D01*
X71161469Y-5686453D02*
X71197864Y-5714456D01*
X71197864Y-5714456D02*
X71311889Y-5810845D01*
X71311889Y-5810845D02*
X71329090Y-5826077D01*
X71329090Y-5826077D02*
X72203796Y-6637263D01*
X71687500Y-9437500D02*
X70851800Y-8111110D01*
X72203796Y-6637263D02*
X72219405Y-6652383D01*
X72219405Y-6652383D02*
X72318684Y-6752822D01*
X72318684Y-6752822D02*
X72347848Y-6785013D01*
X72347848Y-6785013D02*
X72431089Y-6885328D01*
X72431089Y-6885328D02*
X72457348Y-6919930D01*
X72457348Y-6919930D02*
X72537752Y-7036031D01*
X72481500Y-11222220D02*
X71687500Y-9437500D01*
X72537752Y-7036031D02*
X72549733Y-7054162D01*
X72549733Y-7054162D02*
X73370068Y-8356164D01*
X72680000Y-125215000D02*
X76375000Y-122375000D01*
X73247700Y-13423610D02*
X72481500Y-11222220D01*
X73370068Y-8356164D02*
X73388097Y-8387196D01*
X73388097Y-8387196D02*
X73506365Y-8608707D01*
X73506365Y-8608707D02*
X73522121Y-8640952D01*
X73522121Y-8640952D02*
X74304571Y-10399712D01*
X73650439Y-126963871D02*
X69481488Y-129325135D01*
X73680248Y-126945582D02*
X73650439Y-126963871D01*
X73884214Y-126810392D02*
X73680248Y-126945582D01*
X73912671Y-126790063D02*
X73884214Y-126810392D01*
X74000000Y-16000000D02*
X73247700Y-13423610D01*
X74304571Y-10399712D02*
X74312669Y-10418990D01*
X74312669Y-10418990D02*
X74366513Y-10555072D01*
X74366513Y-10555072D02*
X74373798Y-10574672D01*
X74373798Y-10574672D02*
X75134471Y-12760184D01*
X74752300Y-18909700D02*
X74000000Y-16000000D01*
X75134471Y-12760184D02*
X75138496Y-12772239D01*
X75138496Y-12772239D02*
X75165593Y-12856971D01*
X75165593Y-12856971D02*
X75169310Y-12869124D01*
X75169310Y-12869124D02*
X75918739Y-15435683D01*
X75518500Y-22111100D02*
X74752300Y-18909700D01*
X75918739Y-15435683D02*
X75920860Y-15443161D01*
X75920860Y-15443161D02*
X75935296Y-15495617D01*
X75935296Y-15495617D02*
X75937300Y-15503127D01*
X75937300Y-15503127D02*
X76687608Y-18405122D01*
X76312500Y-25562500D02*
X75518500Y-22111100D01*
X76375000Y-122375000D02*
X79549200Y-119098000D01*
X76687608Y-18405122D02*
X76696382Y-18440237D01*
X76696382Y-18440237D02*
X77463109Y-21643662D01*
X77148200Y-29222200D02*
X76312500Y-25562500D01*
X77463109Y-21643662D02*
X77467135Y-21660783D01*
X77467135Y-21660783D02*
X78261407Y-25113324D01*
X77579325Y-123971851D02*
X73912671Y-126790063D01*
X77607423Y-123948575D02*
X77579325Y-123971851D01*
X77797942Y-123778652D02*
X77607423Y-123948575D01*
X77824268Y-123753388D02*
X77797942Y-123778652D01*
X78039300Y-33048600D02*
X77148200Y-29222200D01*
X78261407Y-25113324D02*
X79096573Y-28770667D01*
X79000000Y-37000000D02*
X78039300Y-33048600D01*
X79096573Y-28770667D02*
X79097540Y-28774858D01*
X79097540Y-28774858D02*
X79983877Y-32580807D01*
X79549200Y-119098000D02*
X82185200Y-115407000D01*
X79983877Y-32580807D02*
X79986122Y-32590241D01*
X79986122Y-32590241D02*
X80913066Y-36402800D01*
X8186339Y-58773700D02*
X7740740Y-61148200D01*
X8226850Y-106884300D02*
X9734380Y-111328000D01*
X8345296Y-50604888D02*
X8356073Y-50570598D01*
X8356073Y-50570598D02*
X9316126Y-47617935D01*
X8750000Y-56375000D02*
X8186339Y-58773700D01*
X80417800Y-41221600D02*
X79000000Y-37000000D01*
X80913066Y-36402800D02*
X80936792Y-36484922D01*
X80936792Y-36484922D02*
X82312653Y-40581645D01*
X80979274Y-120496203D02*
X77824268Y-123753388D01*
X80992004Y-120482561D02*
X80979274Y-120496203D01*
X81073063Y-120392373D02*
X80992004Y-120482561D01*
X81096945Y-120363719D02*
X81073063Y-120392373D01*
X81171053Y-120267736D02*
X81096945Y-120363719D01*
X81182179Y-120252757D02*
X81171053Y-120267736D01*
X81675900Y-44939800D02*
X80417800Y-41221600D01*
X82185200Y-115407000D02*
X84265600Y-111328000D01*
X82312653Y-40581645D02*
X82313376Y-40583788D01*
X82313376Y-40583788D02*
X83569975Y-44297554D01*
X82781200Y-48234400D02*
X81675900Y-44939800D01*
X83569975Y-44297554D02*
X84676671Y-47596284D01*
X83740700Y-51185200D02*
X82781200Y-48234400D01*
X83807360Y-116576906D02*
X81182179Y-120252757D01*
X83817867Y-116561601D02*
X83807360Y-116576906D01*
X83884292Y-116460884D02*
X83817867Y-116561601D01*
X83903560Y-116429165D02*
X83884292Y-116460884D01*
X83962329Y-116323798D02*
X83903560Y-116429165D01*
X83971069Y-116307420D02*
X83962329Y-116323798D01*
X84265600Y-111328000D02*
X85773200Y-106884300D01*
X84561300Y-53872100D02*
X83740700Y-51185200D01*
X84676671Y-47596284D02*
X84682518Y-47613958D01*
X84682518Y-47613958D02*
X85049015Y-48741028D01*
X85049015Y-48741028D02*
X85083630Y-48832124D01*
X85083630Y-48832124D02*
X85126948Y-48919418D01*
X85126948Y-48919418D02*
X85178557Y-49002082D01*
X85178557Y-49002082D02*
X85237967Y-49079329D01*
X85237967Y-49079329D02*
X85304614Y-49150427D01*
X85250000Y-56375000D02*
X84561300Y-53872100D01*
X85304614Y-49150427D02*
X85377864Y-49214700D01*
X85377864Y-49214700D02*
X85457023Y-49271539D01*
X85457023Y-49271539D02*
X85541339Y-49320402D01*
X85541339Y-49320402D02*
X85630010Y-49360826D01*
X85630010Y-49360826D02*
X85722195Y-49392428D01*
X85722195Y-49392428D02*
X85817018Y-49414907D01*
X85773200Y-106884300D02*
X86690400Y-102100100D01*
X85813700Y-58773700D02*
X85250000Y-56375000D01*
X85817018Y-49414907D02*
X85913579Y-49428049D01*
X85913579Y-49428049D02*
X86010960Y-49431730D01*
X86010960Y-49431730D02*
X86108238Y-49425916D01*
X86039040Y-112252788D02*
X83971069Y-116307420D01*
X86054278Y-112220040D02*
X86039040Y-112252788D01*
X86108238Y-49425916D02*
X86204487Y-49410660D01*
X86152541Y-111987210D02*
X86054278Y-112220040D01*
X86165374Y-111953447D02*
X86152541Y-111987210D01*
X86204487Y-49410660D02*
X86298795Y-49386108D01*
X86259300Y-61148200D02*
X85813700Y-58773700D01*
X86298795Y-49386108D02*
X86390265Y-49352493D01*
X86390265Y-49352493D02*
X86478029Y-49310134D01*
X86478029Y-49310134D02*
X86561253Y-49259435D01*
X86561253Y-49259435D02*
X86639147Y-49200875D01*
X86593800Y-63578100D02*
X86259300Y-61148200D01*
X86639147Y-49200875D02*
X86710971Y-49135011D01*
X86690400Y-102100100D02*
X87000000Y-97000000D01*
X86710971Y-49135011D02*
X86776043Y-49062470D01*
X86776043Y-49062470D02*
X86833746Y-48983938D01*
X86824100Y-66143500D02*
X86593800Y-63578100D01*
X86833746Y-48983938D02*
X86883530Y-48900164D01*
X86883530Y-48900164D02*
X86924924Y-48811941D01*
X86924924Y-48811941D02*
X86957534Y-48720108D01*
X86957200Y-68924200D02*
X86824100Y-66143500D01*
X86957534Y-48720108D02*
X86981051Y-48625537D01*
X86981051Y-48625537D02*
X86995251Y-48529126D01*
X86995251Y-48529126D02*
X87000000Y-48431791D01*
X87000000Y-48431791D02*
X87000000Y-7012272D01*
X87000000Y-7012272D02*
X87000602Y-6987742D01*
X87000000Y-72000000D02*
X86957200Y-68924200D01*
X87000000Y-73389500D02*
X87000000Y-72000000D01*
X87000000Y-75032400D02*
X87000000Y-73389500D01*
X87000000Y-76890600D02*
X87000000Y-75032400D01*
X87000000Y-78925900D02*
X87000000Y-76890600D01*
X87000000Y-81100100D02*
X87000000Y-78925900D01*
X87000000Y-83375000D02*
X87000000Y-81100100D01*
X87000000Y-85712400D02*
X87000000Y-83375000D01*
X87000000Y-88074100D02*
X87000000Y-85712400D01*
X87000000Y-90421900D02*
X87000000Y-88074100D01*
X87000000Y-90500000D02*
X87000000Y-90421900D01*
X87000000Y-95500000D02*
X89100000Y-95500000D01*
X87000000Y-97000000D02*
X87000000Y-95500000D01*
X87000602Y-6987742D02*
X87008426Y-6828484D01*
X87008426Y-6828484D02*
X87013232Y-6779682D01*
X87013232Y-6779682D02*
X87034827Y-6634102D01*
X87034827Y-6634102D02*
X87044394Y-6586006D01*
X87044394Y-6586006D02*
X87080154Y-6443243D01*
X87080154Y-6443243D02*
X87094389Y-6396317D01*
X87094389Y-6396317D02*
X87143970Y-6257746D01*
X87143970Y-6257746D02*
X87162736Y-6212441D01*
X87162736Y-6212441D02*
X87225661Y-6079398D01*
X87225661Y-6079398D02*
X87248777Y-6036150D01*
X87248777Y-6036150D02*
X87324440Y-5909915D01*
X87324440Y-5909915D02*
X87351684Y-5869141D01*
X87351684Y-5869141D02*
X87439355Y-5750931D01*
X87439355Y-5750931D02*
X87470464Y-5713024D01*
X87470464Y-5713024D02*
X87569300Y-5603975D01*
X87569300Y-5603975D02*
X87603975Y-5569300D01*
X87603975Y-5569300D02*
X87713024Y-5470464D01*
X87661639Y-107543158D02*
X86165374Y-111953447D01*
X87671563Y-107510221D02*
X87661639Y-107543158D01*
X87713024Y-5470464D02*
X87750931Y-5439355D01*
X87733033Y-107277510D02*
X87671563Y-107510221D01*
X87740669Y-107243968D02*
X87733033Y-107277510D01*
X87750931Y-5439355D02*
X87869141Y-5351684D01*
X87869141Y-5351684D02*
X87909915Y-5324440D01*
X87909915Y-5324440D02*
X88036150Y-5248777D01*
X88036150Y-5248777D02*
X88079398Y-5225661D01*
X88079398Y-5225661D02*
X88212441Y-5162736D01*
X88212441Y-5162736D02*
X88257746Y-5143970D01*
X88257746Y-5143970D02*
X88396317Y-5094389D01*
X88396317Y-5094389D02*
X88443243Y-5080154D01*
X88443243Y-5080154D02*
X88586006Y-5044394D01*
X88586006Y-5044394D02*
X88634102Y-5034827D01*
X88634102Y-5034827D02*
X88779682Y-5013232D01*
X88651597Y-102492482D02*
X87740669Y-107243968D01*
X88656636Y-102460696D02*
X88651597Y-102492482D01*
X88684717Y-102237260D02*
X88656636Y-102460696D01*
X88687700Y-102205216D02*
X88684717Y-102237260D01*
X88779682Y-5013232D02*
X88828484Y-5008426D01*
X88821710Y-99997638D02*
X88687700Y-102205216D01*
X88828484Y-5008426D02*
X88987742Y-5000602D01*
X88832380Y-99900567D02*
X88821710Y-99997638D01*
X88852467Y-99805001D02*
X88832380Y-99900567D01*
X88881780Y-99711849D02*
X88852467Y-99805001D01*
X88920038Y-99622000D02*
X88881780Y-99711849D01*
X88966878Y-99536312D02*
X88920038Y-99622000D01*
X88972557Y-70013913D02*
X88999762Y-71969042D01*
X88976081Y-69914972D02*
X88972557Y-70013913D01*
X88987742Y-5000602D02*
X89012272Y-5000000D01*
X88989372Y-69816864D02*
X88976081Y-69914972D01*
X88999762Y-71969042D02*
X88999975Y-71996871D01*
X88999975Y-71996871D02*
X89000000Y-77767099D01*
X89000000Y-67000000D02*
X99500000Y-67000000D01*
X89000000Y-7000000D02*
X89000000Y-67000000D01*
X89000000Y-77767099D02*
X89005027Y-77867240D01*
X89005027Y-77867240D02*
X89020057Y-77966374D01*
X89012272Y-5000000D02*
X104500000Y-5000000D01*
X89012299Y-69720552D02*
X88989372Y-69816864D01*
X89020057Y-77966374D02*
X89044938Y-78063504D01*
X89021853Y-99455601D02*
X88966878Y-99536312D01*
X89044637Y-69626978D02*
X89012299Y-69720552D01*
X89044938Y-78063504D02*
X89079422Y-78157655D01*
X89079422Y-78157655D02*
X89123160Y-78247879D01*
X89084437Y-99380636D02*
X89021853Y-99455601D01*
X89086070Y-69537061D02*
X89044637Y-69626978D01*
X89100000Y-90500000D02*
X87000000Y-90500000D01*
X89100000Y-95500000D02*
X89100000Y-90500000D01*
X89123160Y-78247879D02*
X89175714Y-78333269D01*
X89136190Y-69451681D02*
X89086070Y-69537061D01*
X89154036Y-99312134D02*
X89084437Y-99380636D01*
X89175714Y-78333269D02*
X89236554Y-78412968D01*
X89194508Y-69371676D02*
X89136190Y-69451681D01*
X89229984Y-99250747D02*
X89154036Y-99312134D01*
X89236554Y-78412968D02*
X89305070Y-78486173D01*
X89260451Y-69297829D02*
X89194508Y-69371676D01*
X89305070Y-78486173D02*
X89380572Y-78552149D01*
X89311557Y-99197060D02*
X89229984Y-99250747D01*
X89333373Y-69230865D02*
X89260451Y-69297829D01*
X89380572Y-78552149D02*
X89462302Y-78610233D01*
X89397978Y-99151586D02*
X89311557Y-99197060D01*
X89412559Y-69171440D02*
X89333373Y-69230865D01*
X89462302Y-78610233D02*
X89549437Y-78659840D01*
X89488423Y-99114758D02*
X89397978Y-99151586D01*
X89497233Y-69120136D02*
X89412559Y-69171440D01*
X89549437Y-78659840D02*
X89641102Y-78700472D01*
X89582028Y-99086928D02*
X89488423Y-99114758D01*
X89586565Y-69077457D02*
X89497233Y-69120136D01*
X89641102Y-78700472D02*
X89736375Y-78731721D01*
X89677902Y-99068360D02*
X89582028Y-99086928D01*
X89679680Y-69043820D02*
X89586565Y-69077457D01*
X89736375Y-78731721D02*
X89834299Y-78753271D01*
X89775129Y-99059232D02*
X89677902Y-99068360D01*
X89775664Y-69019555D02*
X89679680Y-69043820D01*
X89834299Y-78753271D02*
X89933888Y-78764907D01*
X89872783Y-99059632D02*
X89775129Y-99059232D01*
X89873577Y-69004900D02*
X89775664Y-69019555D01*
X89900000Y-80500000D02*
X89900000Y-85500000D01*
X89900000Y-85500000D02*
X92000000Y-85500000D01*
X89933888Y-78764907D02*
X90034142Y-78766512D01*
X89969933Y-99069554D02*
X89872783Y-99059632D01*
X89972460Y-69000000D02*
X89873577Y-69004900D01*
X9316126Y-47617935D02*
X9321960Y-47600246D01*
X9321960Y-47600246D02*
X10427527Y-44304877D01*
X9438660Y-53872100D02*
X8750000Y-56375000D01*
X9734380Y-111328000D02*
X11814810Y-115407000D01*
X90034142Y-78766512D02*
X90134053Y-78758069D01*
X90065651Y-99088905D02*
X89969933Y-99069554D01*
X90134053Y-78758069D02*
X90232616Y-78739664D01*
X90159026Y-99117500D02*
X90065651Y-99088905D01*
X90232616Y-78739664D02*
X90328840Y-78711481D01*
X90249166Y-99155066D02*
X90159026Y-99117500D01*
X90328840Y-78711481D02*
X90421758Y-78673803D01*
X90335213Y-99201245D02*
X90249166Y-99155066D01*
X90416345Y-99255597D02*
X90335213Y-99201245D01*
X90421758Y-78673803D02*
X90510437Y-78627010D01*
X90491788Y-99317603D02*
X90416345Y-99255597D01*
X90510437Y-78627010D02*
X90593983Y-78571572D01*
X90560824Y-99386672D02*
X90491788Y-99317603D01*
X90569300Y-99396024D02*
X90560824Y-99386672D01*
X90593983Y-78571572D02*
X90671558Y-78508046D01*
X90603975Y-99430699D02*
X90569300Y-99396024D01*
X90671558Y-78508046D02*
X90713024Y-78470464D01*
X90713024Y-78470464D02*
X90750931Y-78439355D01*
X90713024Y-99529535D02*
X90603975Y-99430699D01*
X90750931Y-78439355D02*
X90869141Y-78351684D01*
X90750931Y-99560644D02*
X90713024Y-99529535D01*
X90869141Y-78351684D02*
X90909915Y-78324440D01*
X90869141Y-99648315D02*
X90750931Y-99560644D01*
X90909915Y-78324440D02*
X91036150Y-78248777D01*
X90909915Y-99675559D02*
X90869141Y-99648315D01*
X91036150Y-78248777D02*
X91079398Y-78225661D01*
X91036150Y-99751222D02*
X90909915Y-99675559D01*
X91079398Y-78225661D02*
X91212441Y-78162736D01*
X91079398Y-99774338D02*
X91036150Y-99751222D01*
X91212441Y-78162736D02*
X91257746Y-78143970D01*
X91212441Y-99837263D02*
X91079398Y-99774338D01*
X91257746Y-78143970D02*
X91396317Y-78094389D01*
X91257746Y-99856029D02*
X91212441Y-99837263D01*
X91396317Y-78094389D02*
X91443243Y-78080154D01*
X91396317Y-99905610D02*
X91257746Y-99856029D01*
X91443243Y-78080154D02*
X91586006Y-78044394D01*
X91443243Y-99919845D02*
X91396317Y-99905610D01*
X91586006Y-78044394D02*
X91634102Y-78034827D01*
X91586006Y-99955605D02*
X91443243Y-99919845D01*
X91634102Y-78034827D02*
X91779682Y-78013232D01*
X91634102Y-99965172D02*
X91586006Y-99955605D01*
X91779682Y-78013232D02*
X91828484Y-78008426D01*
X91779682Y-99986767D02*
X91634102Y-99965172D01*
X91828484Y-78008426D02*
X91987742Y-78000602D01*
X91828484Y-99991573D02*
X91779682Y-99986767D01*
X91987742Y-78000602D02*
X92012272Y-78000000D01*
X91987742Y-99999397D02*
X91828484Y-99991573D01*
X92000000Y-80000000D02*
X92000000Y-80500000D01*
X92000000Y-80500000D02*
X89900000Y-80500000D01*
X92000000Y-85500000D02*
X92000000Y-98000000D01*
X92000000Y-98000000D02*
X106000000Y-98000000D01*
X92012272Y-100000000D02*
X91987742Y-99999397D01*
X92012272Y-78000000D02*
X105987727Y-78000000D01*
X99500000Y-67000000D02*
X99500000Y-69000000D01*
X99500000Y-69000000D02*
X89972460Y-69000000D01*
M02*
