%TF.GenerationSoftware,KiCad,Pcbnew,10.0.6*%
%TF.CreationDate,2026-09-12T01:24:18+02:00*%
%TF.ProjectId,Panel,50616e65-6c2e-46b6-9963-61645f706362,rev?*%
%TF.SameCoordinates,Original*%
%TF.FileFunction,Legend,Top*%
%TF.FilePolarity,Positive*%
%FSLAX46Y46*%
G04 Gerber Fmt 4.6, Leading zero omitted, Abs format (unit mm)*
G04 Created by KiCad (PCBNEW 10.0.6) date 2026-09-12 01:24:18*
%MOMM*%
%LPD*%
G01*
G04 APERTURE LIST*
%ADD10C,0.100000*%
%ADD11C,0.120000*%
%ADD12C,0.150000*%
G04 APERTURE END LIST*
D10*
X94228571Y-91164895D02*
X93771428Y-91164895D01*
X94000000Y-91164895D02*
X94000000Y-90364895D01*
X94000000Y-90364895D02*
X93923809Y-90479180D01*
X93923809Y-90479180D02*
X93847619Y-90555371D01*
X93847619Y-90555371D02*
X93771428Y-90593466D01*
X95552380Y-89945847D02*
X95819046Y-89945847D01*
X95933332Y-90364895D02*
X95552380Y-90364895D01*
X95552380Y-90364895D02*
X95552380Y-89564895D01*
X95552380Y-89564895D02*
X95933332Y-89564895D01*
X96276190Y-89831561D02*
X96276190Y-90364895D01*
X96276190Y-89907752D02*
X96314285Y-89869657D01*
X96314285Y-89869657D02*
X96390475Y-89831561D01*
X96390475Y-89831561D02*
X96504761Y-89831561D01*
X96504761Y-89831561D02*
X96580952Y-89869657D01*
X96580952Y-89869657D02*
X96619047Y-89945847D01*
X96619047Y-89945847D02*
X96619047Y-90364895D01*
X97342857Y-90326800D02*
X97266666Y-90364895D01*
X97266666Y-90364895D02*
X97114285Y-90364895D01*
X97114285Y-90364895D02*
X97038095Y-90326800D01*
X97038095Y-90326800D02*
X97000000Y-90288704D01*
X97000000Y-90288704D02*
X96961904Y-90212514D01*
X96961904Y-90212514D02*
X96961904Y-89983942D01*
X96961904Y-89983942D02*
X97000000Y-89907752D01*
X97000000Y-89907752D02*
X97038095Y-89869657D01*
X97038095Y-89869657D02*
X97114285Y-89831561D01*
X97114285Y-89831561D02*
X97266666Y-89831561D01*
X97266666Y-89831561D02*
X97342857Y-89869657D01*
X97799999Y-90364895D02*
X97723809Y-90326800D01*
X97723809Y-90326800D02*
X97685714Y-90288704D01*
X97685714Y-90288704D02*
X97647618Y-90212514D01*
X97647618Y-90212514D02*
X97647618Y-89983942D01*
X97647618Y-89983942D02*
X97685714Y-89907752D01*
X97685714Y-89907752D02*
X97723809Y-89869657D01*
X97723809Y-89869657D02*
X97799999Y-89831561D01*
X97799999Y-89831561D02*
X97914285Y-89831561D01*
X97914285Y-89831561D02*
X97990476Y-89869657D01*
X97990476Y-89869657D02*
X98028571Y-89907752D01*
X98028571Y-89907752D02*
X98066666Y-89983942D01*
X98066666Y-89983942D02*
X98066666Y-90212514D01*
X98066666Y-90212514D02*
X98028571Y-90288704D01*
X98028571Y-90288704D02*
X97990476Y-90326800D01*
X97990476Y-90326800D02*
X97914285Y-90364895D01*
X97914285Y-90364895D02*
X97799999Y-90364895D01*
X98752381Y-90364895D02*
X98752381Y-89564895D01*
X98752381Y-90326800D02*
X98676190Y-90364895D01*
X98676190Y-90364895D02*
X98523809Y-90364895D01*
X98523809Y-90364895D02*
X98447619Y-90326800D01*
X98447619Y-90326800D02*
X98409524Y-90288704D01*
X98409524Y-90288704D02*
X98371428Y-90212514D01*
X98371428Y-90212514D02*
X98371428Y-89983942D01*
X98371428Y-89983942D02*
X98409524Y-89907752D01*
X98409524Y-89907752D02*
X98447619Y-89869657D01*
X98447619Y-89869657D02*
X98523809Y-89831561D01*
X98523809Y-89831561D02*
X98676190Y-89831561D01*
X98676190Y-89831561D02*
X98752381Y-89869657D01*
X99438096Y-90326800D02*
X99361905Y-90364895D01*
X99361905Y-90364895D02*
X99209524Y-90364895D01*
X99209524Y-90364895D02*
X99133334Y-90326800D01*
X99133334Y-90326800D02*
X99095238Y-90250609D01*
X99095238Y-90250609D02*
X99095238Y-89945847D01*
X99095238Y-89945847D02*
X99133334Y-89869657D01*
X99133334Y-89869657D02*
X99209524Y-89831561D01*
X99209524Y-89831561D02*
X99361905Y-89831561D01*
X99361905Y-89831561D02*
X99438096Y-89869657D01*
X99438096Y-89869657D02*
X99476191Y-89945847D01*
X99476191Y-89945847D02*
X99476191Y-90022038D01*
X99476191Y-90022038D02*
X99095238Y-90098228D01*
X99819048Y-90364895D02*
X99819048Y-89831561D01*
X99819048Y-89983942D02*
X99857143Y-89907752D01*
X99857143Y-89907752D02*
X99895238Y-89869657D01*
X99895238Y-89869657D02*
X99971429Y-89831561D01*
X99971429Y-89831561D02*
X100047619Y-89831561D01*
X101076191Y-89564895D02*
X101152381Y-89564895D01*
X101152381Y-89564895D02*
X101228572Y-89602990D01*
X101228572Y-89602990D02*
X101266667Y-89641085D01*
X101266667Y-89641085D02*
X101304762Y-89717276D01*
X101304762Y-89717276D02*
X101342857Y-89869657D01*
X101342857Y-89869657D02*
X101342857Y-90060133D01*
X101342857Y-90060133D02*
X101304762Y-90212514D01*
X101304762Y-90212514D02*
X101266667Y-90288704D01*
X101266667Y-90288704D02*
X101228572Y-90326800D01*
X101228572Y-90326800D02*
X101152381Y-90364895D01*
X101152381Y-90364895D02*
X101076191Y-90364895D01*
X101076191Y-90364895D02*
X101000000Y-90326800D01*
X101000000Y-90326800D02*
X100961905Y-90288704D01*
X100961905Y-90288704D02*
X100923810Y-90212514D01*
X100923810Y-90212514D02*
X100885714Y-90060133D01*
X100885714Y-90060133D02*
X100885714Y-89869657D01*
X100885714Y-89869657D02*
X100923810Y-89717276D01*
X100923810Y-89717276D02*
X100961905Y-89641085D01*
X100961905Y-89641085D02*
X101000000Y-89602990D01*
X101000000Y-89602990D02*
X101076191Y-89564895D01*
X101685715Y-90288704D02*
X101723810Y-90326800D01*
X101723810Y-90326800D02*
X101685715Y-90364895D01*
X101685715Y-90364895D02*
X101647619Y-90326800D01*
X101647619Y-90326800D02*
X101685715Y-90288704D01*
X101685715Y-90288704D02*
X101685715Y-90364895D01*
X102485714Y-90364895D02*
X102028571Y-90364895D01*
X102257143Y-90364895D02*
X102257143Y-89564895D01*
X102257143Y-89564895D02*
X102180952Y-89679180D01*
X102180952Y-89679180D02*
X102104762Y-89755371D01*
X102104762Y-89755371D02*
X102028571Y-89793466D01*
X95304762Y-88364895D02*
X95304762Y-87564895D01*
X95304762Y-87564895D02*
X95571428Y-88136323D01*
X95571428Y-88136323D02*
X95838095Y-87564895D01*
X95838095Y-87564895D02*
X95838095Y-88364895D01*
X96180952Y-88136323D02*
X96561905Y-88136323D01*
X96104762Y-88364895D02*
X96371429Y-87564895D01*
X96371429Y-87564895D02*
X96638095Y-88364895D01*
X97323809Y-87602990D02*
X97247619Y-87564895D01*
X97247619Y-87564895D02*
X97133333Y-87564895D01*
X97133333Y-87564895D02*
X97019047Y-87602990D01*
X97019047Y-87602990D02*
X96942857Y-87679180D01*
X96942857Y-87679180D02*
X96904762Y-87755371D01*
X96904762Y-87755371D02*
X96866666Y-87907752D01*
X96866666Y-87907752D02*
X96866666Y-88022038D01*
X96866666Y-88022038D02*
X96904762Y-88174419D01*
X96904762Y-88174419D02*
X96942857Y-88250609D01*
X96942857Y-88250609D02*
X97019047Y-88326800D01*
X97019047Y-88326800D02*
X97133333Y-88364895D01*
X97133333Y-88364895D02*
X97209524Y-88364895D01*
X97209524Y-88364895D02*
X97323809Y-88326800D01*
X97323809Y-88326800D02*
X97361905Y-88288704D01*
X97361905Y-88288704D02*
X97361905Y-88022038D01*
X97361905Y-88022038D02*
X97209524Y-88022038D01*
X97704762Y-88364895D02*
X97704762Y-87564895D01*
X97704762Y-87564895D02*
X98161905Y-88364895D01*
X98161905Y-88364895D02*
X98161905Y-87564895D01*
X98542857Y-87945847D02*
X98809523Y-87945847D01*
X98923809Y-88364895D02*
X98542857Y-88364895D01*
X98542857Y-88364895D02*
X98542857Y-87564895D01*
X98542857Y-87564895D02*
X98923809Y-87564895D01*
X99152381Y-87564895D02*
X99609524Y-87564895D01*
X99380952Y-88364895D02*
X99380952Y-87564895D01*
X100447619Y-88136323D02*
X100828572Y-88136323D01*
X100371429Y-88364895D02*
X100638096Y-87564895D01*
X100638096Y-87564895D02*
X100904762Y-88364895D01*
X101095238Y-87564895D02*
X101628572Y-88364895D01*
X101628572Y-87564895D02*
X101095238Y-88364895D01*
X101933334Y-88364895D02*
X101933334Y-87564895D01*
X102276190Y-88326800D02*
X102390476Y-88364895D01*
X102390476Y-88364895D02*
X102580952Y-88364895D01*
X102580952Y-88364895D02*
X102657143Y-88326800D01*
X102657143Y-88326800D02*
X102695238Y-88288704D01*
X102695238Y-88288704D02*
X102733333Y-88212514D01*
X102733333Y-88212514D02*
X102733333Y-88136323D01*
X102733333Y-88136323D02*
X102695238Y-88060133D01*
X102695238Y-88060133D02*
X102657143Y-88022038D01*
X102657143Y-88022038D02*
X102580952Y-87983942D01*
X102580952Y-87983942D02*
X102428571Y-87945847D01*
X102428571Y-87945847D02*
X102352381Y-87907752D01*
X102352381Y-87907752D02*
X102314286Y-87869657D01*
X102314286Y-87869657D02*
X102276190Y-87793466D01*
X102276190Y-87793466D02*
X102276190Y-87717276D01*
X102276190Y-87717276D02*
X102314286Y-87641085D01*
X102314286Y-87641085D02*
X102352381Y-87602990D01*
X102352381Y-87602990D02*
X102428571Y-87564895D01*
X102428571Y-87564895D02*
X102619048Y-87564895D01*
X102619048Y-87564895D02*
X102733333Y-87602990D01*
D11*
X37266666Y-127363855D02*
X37266666Y-126563855D01*
X37266666Y-126563855D02*
X37533332Y-127135283D01*
X37533332Y-127135283D02*
X37799999Y-126563855D01*
X37799999Y-126563855D02*
X37799999Y-127363855D01*
X38523809Y-127363855D02*
X38523809Y-126944807D01*
X38523809Y-126944807D02*
X38485714Y-126868617D01*
X38485714Y-126868617D02*
X38409523Y-126830521D01*
X38409523Y-126830521D02*
X38257142Y-126830521D01*
X38257142Y-126830521D02*
X38180952Y-126868617D01*
X38523809Y-127325760D02*
X38447618Y-127363855D01*
X38447618Y-127363855D02*
X38257142Y-127363855D01*
X38257142Y-127363855D02*
X38180952Y-127325760D01*
X38180952Y-127325760D02*
X38142856Y-127249569D01*
X38142856Y-127249569D02*
X38142856Y-127173379D01*
X38142856Y-127173379D02*
X38180952Y-127097188D01*
X38180952Y-127097188D02*
X38257142Y-127059093D01*
X38257142Y-127059093D02*
X38447618Y-127059093D01*
X38447618Y-127059093D02*
X38523809Y-127020998D01*
X38904762Y-127363855D02*
X38904762Y-126830521D01*
X38904762Y-126563855D02*
X38866666Y-126601950D01*
X38866666Y-126601950D02*
X38904762Y-126640045D01*
X38904762Y-126640045D02*
X38942857Y-126601950D01*
X38942857Y-126601950D02*
X38904762Y-126563855D01*
X38904762Y-126563855D02*
X38904762Y-126640045D01*
X39285714Y-126830521D02*
X39285714Y-127363855D01*
X39285714Y-126906712D02*
X39323809Y-126868617D01*
X39323809Y-126868617D02*
X39399999Y-126830521D01*
X39399999Y-126830521D02*
X39514285Y-126830521D01*
X39514285Y-126830521D02*
X39590476Y-126868617D01*
X39590476Y-126868617D02*
X39628571Y-126944807D01*
X39628571Y-126944807D02*
X39628571Y-127363855D01*
X40771429Y-126563855D02*
X40847619Y-126563855D01*
X40847619Y-126563855D02*
X40923810Y-126601950D01*
X40923810Y-126601950D02*
X40961905Y-126640045D01*
X40961905Y-126640045D02*
X41000000Y-126716236D01*
X41000000Y-126716236D02*
X41038095Y-126868617D01*
X41038095Y-126868617D02*
X41038095Y-127059093D01*
X41038095Y-127059093D02*
X41000000Y-127211474D01*
X41000000Y-127211474D02*
X40961905Y-127287664D01*
X40961905Y-127287664D02*
X40923810Y-127325760D01*
X40923810Y-127325760D02*
X40847619Y-127363855D01*
X40847619Y-127363855D02*
X40771429Y-127363855D01*
X40771429Y-127363855D02*
X40695238Y-127325760D01*
X40695238Y-127325760D02*
X40657143Y-127287664D01*
X40657143Y-127287664D02*
X40619048Y-127211474D01*
X40619048Y-127211474D02*
X40580952Y-127059093D01*
X40580952Y-127059093D02*
X40580952Y-126868617D01*
X40580952Y-126868617D02*
X40619048Y-126716236D01*
X40619048Y-126716236D02*
X40657143Y-126640045D01*
X40657143Y-126640045D02*
X40695238Y-126601950D01*
X40695238Y-126601950D02*
X40771429Y-126563855D01*
X41380953Y-127287664D02*
X41419048Y-127325760D01*
X41419048Y-127325760D02*
X41380953Y-127363855D01*
X41380953Y-127363855D02*
X41342857Y-127325760D01*
X41342857Y-127325760D02*
X41380953Y-127287664D01*
X41380953Y-127287664D02*
X41380953Y-127363855D01*
X41685714Y-126563855D02*
X42180952Y-126563855D01*
X42180952Y-126563855D02*
X41914286Y-126868617D01*
X41914286Y-126868617D02*
X42028571Y-126868617D01*
X42028571Y-126868617D02*
X42104762Y-126906712D01*
X42104762Y-126906712D02*
X42142857Y-126944807D01*
X42142857Y-126944807D02*
X42180952Y-127020998D01*
X42180952Y-127020998D02*
X42180952Y-127211474D01*
X42180952Y-127211474D02*
X42142857Y-127287664D01*
X42142857Y-127287664D02*
X42104762Y-127325760D01*
X42104762Y-127325760D02*
X42028571Y-127363855D01*
X42028571Y-127363855D02*
X41800000Y-127363855D01*
X41800000Y-127363855D02*
X41723809Y-127325760D01*
X41723809Y-127325760D02*
X41685714Y-127287664D01*
X43704762Y-126525760D02*
X43019048Y-127554331D01*
X44580953Y-127363855D02*
X44580953Y-126563855D01*
X44580953Y-126563855D02*
X44847619Y-127135283D01*
X44847619Y-127135283D02*
X45114286Y-126563855D01*
X45114286Y-126563855D02*
X45114286Y-127363855D01*
X45495239Y-126944807D02*
X45761905Y-126944807D01*
X45876191Y-127363855D02*
X45495239Y-127363855D01*
X45495239Y-127363855D02*
X45495239Y-126563855D01*
X45495239Y-126563855D02*
X45876191Y-126563855D01*
X46676192Y-127287664D02*
X46638096Y-127325760D01*
X46638096Y-127325760D02*
X46523811Y-127363855D01*
X46523811Y-127363855D02*
X46447620Y-127363855D01*
X46447620Y-127363855D02*
X46333334Y-127325760D01*
X46333334Y-127325760D02*
X46257144Y-127249569D01*
X46257144Y-127249569D02*
X46219049Y-127173379D01*
X46219049Y-127173379D02*
X46180953Y-127020998D01*
X46180953Y-127020998D02*
X46180953Y-126906712D01*
X46180953Y-126906712D02*
X46219049Y-126754331D01*
X46219049Y-126754331D02*
X46257144Y-126678140D01*
X46257144Y-126678140D02*
X46333334Y-126601950D01*
X46333334Y-126601950D02*
X46447620Y-126563855D01*
X46447620Y-126563855D02*
X46523811Y-126563855D01*
X46523811Y-126563855D02*
X46638096Y-126601950D01*
X46638096Y-126601950D02*
X46676192Y-126640045D01*
X47019049Y-127363855D02*
X47019049Y-126563855D01*
X47019049Y-126944807D02*
X47476192Y-126944807D01*
X47476192Y-127363855D02*
X47476192Y-126563855D01*
X47819048Y-127135283D02*
X48200001Y-127135283D01*
X47742858Y-127363855D02*
X48009525Y-126563855D01*
X48009525Y-126563855D02*
X48276191Y-127363855D01*
X48542858Y-127363855D02*
X48542858Y-126563855D01*
X48542858Y-126563855D02*
X49000001Y-127363855D01*
X49000001Y-127363855D02*
X49000001Y-126563855D01*
X49380953Y-127363855D02*
X49380953Y-126563855D01*
X50219048Y-127287664D02*
X50180952Y-127325760D01*
X50180952Y-127325760D02*
X50066667Y-127363855D01*
X50066667Y-127363855D02*
X49990476Y-127363855D01*
X49990476Y-127363855D02*
X49876190Y-127325760D01*
X49876190Y-127325760D02*
X49800000Y-127249569D01*
X49800000Y-127249569D02*
X49761905Y-127173379D01*
X49761905Y-127173379D02*
X49723809Y-127020998D01*
X49723809Y-127020998D02*
X49723809Y-126906712D01*
X49723809Y-126906712D02*
X49761905Y-126754331D01*
X49761905Y-126754331D02*
X49800000Y-126678140D01*
X49800000Y-126678140D02*
X49876190Y-126601950D01*
X49876190Y-126601950D02*
X49990476Y-126563855D01*
X49990476Y-126563855D02*
X50066667Y-126563855D01*
X50066667Y-126563855D02*
X50180952Y-126601950D01*
X50180952Y-126601950D02*
X50219048Y-126640045D01*
X50523809Y-127325760D02*
X50638095Y-127363855D01*
X50638095Y-127363855D02*
X50828571Y-127363855D01*
X50828571Y-127363855D02*
X50904762Y-127325760D01*
X50904762Y-127325760D02*
X50942857Y-127287664D01*
X50942857Y-127287664D02*
X50980952Y-127211474D01*
X50980952Y-127211474D02*
X50980952Y-127135283D01*
X50980952Y-127135283D02*
X50942857Y-127059093D01*
X50942857Y-127059093D02*
X50904762Y-127020998D01*
X50904762Y-127020998D02*
X50828571Y-126982902D01*
X50828571Y-126982902D02*
X50676190Y-126944807D01*
X50676190Y-126944807D02*
X50600000Y-126906712D01*
X50600000Y-126906712D02*
X50561905Y-126868617D01*
X50561905Y-126868617D02*
X50523809Y-126792426D01*
X50523809Y-126792426D02*
X50523809Y-126716236D01*
X50523809Y-126716236D02*
X50561905Y-126640045D01*
X50561905Y-126640045D02*
X50600000Y-126601950D01*
X50600000Y-126601950D02*
X50676190Y-126563855D01*
X50676190Y-126563855D02*
X50866667Y-126563855D01*
X50866667Y-126563855D02*
X50980952Y-126601950D01*
X51933334Y-127363855D02*
X51933334Y-126563855D01*
X51933334Y-126563855D02*
X52238096Y-126563855D01*
X52238096Y-126563855D02*
X52314286Y-126601950D01*
X52314286Y-126601950D02*
X52352381Y-126640045D01*
X52352381Y-126640045D02*
X52390477Y-126716236D01*
X52390477Y-126716236D02*
X52390477Y-126830521D01*
X52390477Y-126830521D02*
X52352381Y-126906712D01*
X52352381Y-126906712D02*
X52314286Y-126944807D01*
X52314286Y-126944807D02*
X52238096Y-126982902D01*
X52238096Y-126982902D02*
X51933334Y-126982902D01*
X52733334Y-126944807D02*
X53000000Y-126944807D01*
X53114286Y-127363855D02*
X52733334Y-127363855D01*
X52733334Y-127363855D02*
X52733334Y-126563855D01*
X52733334Y-126563855D02*
X53114286Y-126563855D01*
X53457144Y-127363855D02*
X53457144Y-126563855D01*
X53457144Y-126563855D02*
X53914287Y-127363855D01*
X53914287Y-127363855D02*
X53914287Y-126563855D01*
X54295239Y-127363855D02*
X54295239Y-126563855D01*
X54295239Y-126563855D02*
X54485715Y-126563855D01*
X54485715Y-126563855D02*
X54600001Y-126601950D01*
X54600001Y-126601950D02*
X54676191Y-126678140D01*
X54676191Y-126678140D02*
X54714286Y-126754331D01*
X54714286Y-126754331D02*
X54752382Y-126906712D01*
X54752382Y-126906712D02*
X54752382Y-127020998D01*
X54752382Y-127020998D02*
X54714286Y-127173379D01*
X54714286Y-127173379D02*
X54676191Y-127249569D01*
X54676191Y-127249569D02*
X54600001Y-127325760D01*
X54600001Y-127325760D02*
X54485715Y-127363855D01*
X54485715Y-127363855D02*
X54295239Y-127363855D01*
X55095239Y-127363855D02*
X55095239Y-126563855D01*
X55476191Y-127363855D02*
X55476191Y-126563855D01*
X55476191Y-126563855D02*
X55933334Y-127363855D01*
X55933334Y-127363855D02*
X55933334Y-126563855D01*
X56733333Y-126601950D02*
X56657143Y-126563855D01*
X56657143Y-126563855D02*
X56542857Y-126563855D01*
X56542857Y-126563855D02*
X56428571Y-126601950D01*
X56428571Y-126601950D02*
X56352381Y-126678140D01*
X56352381Y-126678140D02*
X56314286Y-126754331D01*
X56314286Y-126754331D02*
X56276190Y-126906712D01*
X56276190Y-126906712D02*
X56276190Y-127020998D01*
X56276190Y-127020998D02*
X56314286Y-127173379D01*
X56314286Y-127173379D02*
X56352381Y-127249569D01*
X56352381Y-127249569D02*
X56428571Y-127325760D01*
X56428571Y-127325760D02*
X56542857Y-127363855D01*
X56542857Y-127363855D02*
X56619048Y-127363855D01*
X56619048Y-127363855D02*
X56733333Y-127325760D01*
X56733333Y-127325760D02*
X56771429Y-127287664D01*
X56771429Y-127287664D02*
X56771429Y-127020998D01*
X56771429Y-127020998D02*
X56619048Y-127020998D01*
X130247619Y-63363855D02*
X130247619Y-62563855D01*
X130247619Y-62563855D02*
X130552381Y-62563855D01*
X130552381Y-62563855D02*
X130628571Y-62601950D01*
X130628571Y-62601950D02*
X130666666Y-62640045D01*
X130666666Y-62640045D02*
X130704762Y-62716236D01*
X130704762Y-62716236D02*
X130704762Y-62830521D01*
X130704762Y-62830521D02*
X130666666Y-62906712D01*
X130666666Y-62906712D02*
X130628571Y-62944807D01*
X130628571Y-62944807D02*
X130552381Y-62982902D01*
X130552381Y-62982902D02*
X130247619Y-62982902D01*
X131504762Y-63363855D02*
X131238095Y-62982902D01*
X131047619Y-63363855D02*
X131047619Y-62563855D01*
X131047619Y-62563855D02*
X131352381Y-62563855D01*
X131352381Y-62563855D02*
X131428571Y-62601950D01*
X131428571Y-62601950D02*
X131466666Y-62640045D01*
X131466666Y-62640045D02*
X131504762Y-62716236D01*
X131504762Y-62716236D02*
X131504762Y-62830521D01*
X131504762Y-62830521D02*
X131466666Y-62906712D01*
X131466666Y-62906712D02*
X131428571Y-62944807D01*
X131428571Y-62944807D02*
X131352381Y-62982902D01*
X131352381Y-62982902D02*
X131047619Y-62982902D01*
X132000000Y-62563855D02*
X132152381Y-62563855D01*
X132152381Y-62563855D02*
X132228571Y-62601950D01*
X132228571Y-62601950D02*
X132304762Y-62678140D01*
X132304762Y-62678140D02*
X132342857Y-62830521D01*
X132342857Y-62830521D02*
X132342857Y-63097188D01*
X132342857Y-63097188D02*
X132304762Y-63249569D01*
X132304762Y-63249569D02*
X132228571Y-63325760D01*
X132228571Y-63325760D02*
X132152381Y-63363855D01*
X132152381Y-63363855D02*
X132000000Y-63363855D01*
X132000000Y-63363855D02*
X131923809Y-63325760D01*
X131923809Y-63325760D02*
X131847619Y-63249569D01*
X131847619Y-63249569D02*
X131809523Y-63097188D01*
X131809523Y-63097188D02*
X131809523Y-62830521D01*
X131809523Y-62830521D02*
X131847619Y-62678140D01*
X131847619Y-62678140D02*
X131923809Y-62601950D01*
X131923809Y-62601950D02*
X132000000Y-62563855D01*
X132571428Y-62563855D02*
X133028571Y-62563855D01*
X132799999Y-63363855D02*
X132799999Y-62563855D01*
X133447619Y-62563855D02*
X133600000Y-62563855D01*
X133600000Y-62563855D02*
X133676190Y-62601950D01*
X133676190Y-62601950D02*
X133752381Y-62678140D01*
X133752381Y-62678140D02*
X133790476Y-62830521D01*
X133790476Y-62830521D02*
X133790476Y-63097188D01*
X133790476Y-63097188D02*
X133752381Y-63249569D01*
X133752381Y-63249569D02*
X133676190Y-63325760D01*
X133676190Y-63325760D02*
X133600000Y-63363855D01*
X133600000Y-63363855D02*
X133447619Y-63363855D01*
X133447619Y-63363855D02*
X133371428Y-63325760D01*
X133371428Y-63325760D02*
X133295238Y-63249569D01*
X133295238Y-63249569D02*
X133257142Y-63097188D01*
X133257142Y-63097188D02*
X133257142Y-62830521D01*
X133257142Y-62830521D02*
X133295238Y-62678140D01*
X133295238Y-62678140D02*
X133371428Y-62601950D01*
X133371428Y-62601950D02*
X133447619Y-62563855D01*
X128428571Y-60456379D02*
X128666666Y-61456379D01*
X128666666Y-61456379D02*
X128857142Y-60742093D01*
X128857142Y-60742093D02*
X129047618Y-61456379D01*
X129047618Y-61456379D02*
X129285714Y-60456379D01*
X129666666Y-61456379D02*
X129666666Y-60456379D01*
X130095237Y-61456379D02*
X130095237Y-60932569D01*
X130095237Y-60932569D02*
X130047618Y-60837331D01*
X130047618Y-60837331D02*
X129952380Y-60789712D01*
X129952380Y-60789712D02*
X129809523Y-60789712D01*
X129809523Y-60789712D02*
X129714285Y-60837331D01*
X129714285Y-60837331D02*
X129666666Y-60884950D01*
X130952380Y-61408760D02*
X130857142Y-61456379D01*
X130857142Y-61456379D02*
X130666666Y-61456379D01*
X130666666Y-61456379D02*
X130571428Y-61408760D01*
X130571428Y-61408760D02*
X130523809Y-61313521D01*
X130523809Y-61313521D02*
X130523809Y-60932569D01*
X130523809Y-60932569D02*
X130571428Y-60837331D01*
X130571428Y-60837331D02*
X130666666Y-60789712D01*
X130666666Y-60789712D02*
X130857142Y-60789712D01*
X130857142Y-60789712D02*
X130952380Y-60837331D01*
X130952380Y-60837331D02*
X130999999Y-60932569D01*
X130999999Y-60932569D02*
X130999999Y-61027807D01*
X130999999Y-61027807D02*
X130523809Y-61123045D01*
X131809523Y-61408760D02*
X131714285Y-61456379D01*
X131714285Y-61456379D02*
X131523809Y-61456379D01*
X131523809Y-61456379D02*
X131428571Y-61408760D01*
X131428571Y-61408760D02*
X131380952Y-61313521D01*
X131380952Y-61313521D02*
X131380952Y-60932569D01*
X131380952Y-60932569D02*
X131428571Y-60837331D01*
X131428571Y-60837331D02*
X131523809Y-60789712D01*
X131523809Y-60789712D02*
X131714285Y-60789712D01*
X131714285Y-60789712D02*
X131809523Y-60837331D01*
X131809523Y-60837331D02*
X131857142Y-60932569D01*
X131857142Y-60932569D02*
X131857142Y-61027807D01*
X131857142Y-61027807D02*
X131380952Y-61123045D01*
X132428571Y-61456379D02*
X132333333Y-61408760D01*
X132333333Y-61408760D02*
X132285714Y-61313521D01*
X132285714Y-61313521D02*
X132285714Y-60456379D01*
X133761905Y-60456379D02*
X133857143Y-60456379D01*
X133857143Y-60456379D02*
X133952381Y-60503998D01*
X133952381Y-60503998D02*
X134000000Y-60551617D01*
X134000000Y-60551617D02*
X134047619Y-60646855D01*
X134047619Y-60646855D02*
X134095238Y-60837331D01*
X134095238Y-60837331D02*
X134095238Y-61075426D01*
X134095238Y-61075426D02*
X134047619Y-61265902D01*
X134047619Y-61265902D02*
X134000000Y-61361140D01*
X134000000Y-61361140D02*
X133952381Y-61408760D01*
X133952381Y-61408760D02*
X133857143Y-61456379D01*
X133857143Y-61456379D02*
X133761905Y-61456379D01*
X133761905Y-61456379D02*
X133666667Y-61408760D01*
X133666667Y-61408760D02*
X133619048Y-61361140D01*
X133619048Y-61361140D02*
X133571429Y-61265902D01*
X133571429Y-61265902D02*
X133523810Y-61075426D01*
X133523810Y-61075426D02*
X133523810Y-60837331D01*
X133523810Y-60837331D02*
X133571429Y-60646855D01*
X133571429Y-60646855D02*
X133619048Y-60551617D01*
X133619048Y-60551617D02*
X133666667Y-60503998D01*
X133666667Y-60503998D02*
X133761905Y-60456379D01*
X134523810Y-61361140D02*
X134571429Y-61408760D01*
X134571429Y-61408760D02*
X134523810Y-61456379D01*
X134523810Y-61456379D02*
X134476191Y-61408760D01*
X134476191Y-61408760D02*
X134523810Y-61361140D01*
X134523810Y-61361140D02*
X134523810Y-61456379D01*
X134904762Y-60456379D02*
X135523809Y-60456379D01*
X135523809Y-60456379D02*
X135190476Y-60837331D01*
X135190476Y-60837331D02*
X135333333Y-60837331D01*
X135333333Y-60837331D02*
X135428571Y-60884950D01*
X135428571Y-60884950D02*
X135476190Y-60932569D01*
X135476190Y-60932569D02*
X135523809Y-61027807D01*
X135523809Y-61027807D02*
X135523809Y-61265902D01*
X135523809Y-61265902D02*
X135476190Y-61361140D01*
X135476190Y-61361140D02*
X135428571Y-61408760D01*
X135428571Y-61408760D02*
X135333333Y-61456379D01*
X135333333Y-61456379D02*
X135047619Y-61456379D01*
X135047619Y-61456379D02*
X134952381Y-61408760D01*
X134952381Y-61408760D02*
X134904762Y-61361140D01*
X80228571Y-101663855D02*
X79771428Y-101663855D01*
X80000000Y-101663855D02*
X80000000Y-100863855D01*
X80000000Y-100863855D02*
X79923809Y-100978140D01*
X79923809Y-100978140D02*
X79847619Y-101054331D01*
X79847619Y-101054331D02*
X79771428Y-101092426D01*
X98228571Y-19663855D02*
X97771428Y-19663855D01*
X98000000Y-19663855D02*
X98000000Y-18863855D01*
X98000000Y-18863855D02*
X97923809Y-18978140D01*
X97923809Y-18978140D02*
X97847619Y-19054331D01*
X97847619Y-19054331D02*
X97771428Y-19092426D01*
%TO.C,M_SW1*%
X63400000Y-89850000D02*
X67600000Y-89850000D01*
X63400000Y-90240000D02*
X63400000Y-89850000D01*
X63400000Y-92760000D02*
X63400000Y-93150000D01*
X63400000Y-93150000D02*
X67600000Y-93150000D01*
X67600000Y-89850000D02*
X67600000Y-90240000D01*
X67600000Y-93150000D02*
X67600000Y-92760000D01*
%TO.C,M_SW2*%
X63400000Y-94350000D02*
X67600000Y-94350000D01*
X63400000Y-94740000D02*
X63400000Y-94350000D01*
X63400000Y-97260000D02*
X63400000Y-97650000D01*
X63400000Y-97650000D02*
X67600000Y-97650000D01*
X67600000Y-94350000D02*
X67600000Y-94740000D01*
X67600000Y-97650000D02*
X67600000Y-97260000D01*
%TO.C,W_C90*%
X92562500Y-26152500D02*
X93350000Y-26152500D01*
X92956250Y-25758750D02*
X92956250Y-26546250D01*
X93590000Y-25654437D02*
X93590000Y-26940000D01*
X93590000Y-25654437D02*
X94654437Y-24590000D01*
X93590000Y-30345563D02*
X93590000Y-29060000D01*
X93590000Y-30345563D02*
X94654437Y-31410000D01*
X94654437Y-24590000D02*
X100410000Y-24590000D01*
X94654437Y-31410000D02*
X100410000Y-31410000D01*
X100410000Y-24590000D02*
X100410000Y-26940000D01*
X100410000Y-31410000D02*
X100410000Y-29060000D01*
%TO.C,M_C27*%
X64859420Y-109490000D02*
X65140580Y-109490000D01*
X64859420Y-110510000D02*
X65140580Y-110510000D01*
%TO.C,M_C80*%
X43659420Y-59090000D02*
X43940580Y-59090000D01*
X43659420Y-60110000D02*
X43940580Y-60110000D01*
%TO.C,M_C83*%
X55659420Y-79310000D02*
X55940580Y-79310000D01*
X55659420Y-80330000D02*
X55940580Y-80330000D01*
%TO.C,M_C82*%
X32990000Y-75640580D02*
X32990000Y-75359420D01*
X34010000Y-75640580D02*
X34010000Y-75359420D01*
%TO.C,M_C29*%
X23140580Y-91890000D02*
X22859420Y-91890000D01*
X23140580Y-92910000D02*
X22859420Y-92910000D01*
%TO.C,M_C18*%
X66859420Y-47990000D02*
X67140580Y-47990000D01*
X66859420Y-49010000D02*
X67140580Y-49010000D01*
%TO.C,W_C48*%
X121490000Y-36640580D02*
X121490000Y-36359420D01*
X122510000Y-36640580D02*
X122510000Y-36359420D01*
%TO.C,W_C58*%
X114490000Y-19140580D02*
X114490000Y-18859420D01*
X115510000Y-19140580D02*
X115510000Y-18859420D01*
%TO.C,M_C89*%
X67490000Y-61140580D02*
X67490000Y-60859420D01*
X68510000Y-61140580D02*
X68510000Y-60859420D01*
%TO.C,W_C41*%
X112140580Y-36090000D02*
X111859420Y-36090000D01*
X112140580Y-37110000D02*
X111859420Y-37110000D01*
%TO.C,M_C7*%
X26490000Y-52140580D02*
X26490000Y-51859420D01*
X27510000Y-52140580D02*
X27510000Y-51859420D01*
%TO.C,M_C36*%
X60859420Y-55490000D02*
X61140580Y-55490000D01*
X60859420Y-56510000D02*
X61140580Y-56510000D01*
%TO.C,W_C59*%
X112140580Y-25990000D02*
X111859420Y-25990000D01*
X112140580Y-27010000D02*
X111859420Y-27010000D01*
%TO.C,W_C46*%
X108990000Y-33140580D02*
X108990000Y-32859420D01*
X110010000Y-33140580D02*
X110010000Y-32859420D01*
%TO.C,W_C47*%
X111490000Y-34390580D02*
X111490000Y-34109420D01*
X112510000Y-34390580D02*
X112510000Y-34109420D01*
%TO.C,M_C53*%
X54109420Y-59490000D02*
X54390580Y-59490000D01*
X54109420Y-60510000D02*
X54390580Y-60510000D01*
%TO.C,M_C85*%
X55659420Y-81090000D02*
X55940580Y-81090000D01*
X55659420Y-82110000D02*
X55940580Y-82110000D01*
%TO.C,W_C51*%
X123490000Y-41140580D02*
X123490000Y-40859420D01*
X124510000Y-41140580D02*
X124510000Y-40859420D01*
%TO.C,M_C6*%
X56490000Y-108140580D02*
X56490000Y-107859420D01*
X57510000Y-108140580D02*
X57510000Y-107859420D01*
%TO.C,M_C75*%
X68859420Y-23740000D02*
X69140580Y-23740000D01*
X68859420Y-24760000D02*
X69140580Y-24760000D01*
%TO.C,M_C34*%
X36609420Y-41740000D02*
X36890580Y-41740000D01*
X36609420Y-42760000D02*
X36890580Y-42760000D01*
%TO.C,M_C86*%
X55659420Y-77530000D02*
X55940580Y-77530000D01*
X55659420Y-78550000D02*
X55940580Y-78550000D01*
%TO.C,M_C25*%
X30740000Y-36390580D02*
X30740000Y-36109420D01*
X31760000Y-36390580D02*
X31760000Y-36109420D01*
%TO.C,W_C43*%
X112140580Y-39490000D02*
X111859420Y-39490000D01*
X112140580Y-40510000D02*
X111859420Y-40510000D01*
%TO.C,M_C72*%
X48240000Y-90890580D02*
X48240000Y-90609420D01*
X49260000Y-90890580D02*
X49260000Y-90609420D01*
%TO.C,M_C32*%
X28240000Y-51890580D02*
X28240000Y-51609420D01*
X29260000Y-51890580D02*
X29260000Y-51609420D01*
%TO.C,M_C4*%
X59490000Y-96140580D02*
X59490000Y-95859420D01*
X60510000Y-96140580D02*
X60510000Y-95859420D01*
%TO.C,M_C35*%
X59490000Y-48140580D02*
X59490000Y-47859420D01*
X60510000Y-48140580D02*
X60510000Y-47859420D01*
%TO.C,M_C87*%
X53359420Y-61290000D02*
X53640580Y-61290000D01*
X53359420Y-62310000D02*
X53640580Y-62310000D01*
%TO.C,M_C13*%
X72490000Y-52140580D02*
X72490000Y-51859420D01*
X73510000Y-52140580D02*
X73510000Y-51859420D01*
%TO.C,W_C67*%
X103490000Y-41940580D02*
X103490000Y-41659420D01*
X104510000Y-41940580D02*
X104510000Y-41659420D01*
%TO.C,M_C19*%
X53490000Y-53140580D02*
X53490000Y-52859420D01*
X54510000Y-53140580D02*
X54510000Y-52859420D01*
%TO.C,M_C16*%
X20859420Y-47990000D02*
X21140580Y-47990000D01*
X20859420Y-49010000D02*
X21140580Y-49010000D01*
%TO.C,M_C28*%
X67990000Y-108140580D02*
X67990000Y-107859420D01*
X69010000Y-108140580D02*
X69010000Y-107859420D01*
%TO.C,M_C81*%
X36109420Y-76740000D02*
X36390580Y-76740000D01*
X36109420Y-77760000D02*
X36390580Y-77760000D01*
%TO.C,M_C71*%
X55490000Y-92390580D02*
X55490000Y-92109420D01*
X56510000Y-92390580D02*
X56510000Y-92109420D01*
%TO.C,M_C21*%
X57640580Y-55990000D02*
X57359420Y-55990000D01*
X57640580Y-57010000D02*
X57359420Y-57010000D01*
%TO.C,W_C65*%
X105490000Y-42140580D02*
X105490000Y-41859420D01*
X106510000Y-42140580D02*
X106510000Y-41859420D01*
%TO.C,M_C55*%
X39390580Y-46490000D02*
X39109420Y-46490000D01*
X39390580Y-47510000D02*
X39109420Y-47510000D01*
%TO.C,M_C10*%
X26490000Y-60640580D02*
X26490000Y-60359420D01*
X27510000Y-60640580D02*
X27510000Y-60359420D01*
%TO.C,W_C57*%
X110490000Y-20640580D02*
X110490000Y-20359420D01*
X111510000Y-20640580D02*
X111510000Y-20359420D01*
%TO.C,M_C63*%
X26490000Y-47640580D02*
X26490000Y-47359420D01*
X27510000Y-47640580D02*
X27510000Y-47359420D01*
%TO.C,M_C15*%
X69859420Y-54490000D02*
X70140580Y-54490000D01*
X69859420Y-55510000D02*
X70140580Y-55510000D01*
%TO.C,M_C33*%
X55859420Y-48990000D02*
X56140580Y-48990000D01*
X55859420Y-50010000D02*
X56140580Y-50010000D01*
%TO.C,M_C76*%
X50740000Y-33390580D02*
X50740000Y-33109420D01*
X51760000Y-33390580D02*
X51760000Y-33109420D01*
%TO.C,W_C42*%
X112140580Y-37790000D02*
X111859420Y-37790000D01*
X112140580Y-38810000D02*
X111859420Y-38810000D01*
%TO.C,M_C22*%
X60190000Y-28940580D02*
X60190000Y-28659420D01*
X61210000Y-28940580D02*
X61210000Y-28659420D01*
%TO.C,M_C84*%
X55659420Y-82890000D02*
X55940580Y-82890000D01*
X55659420Y-83910000D02*
X55940580Y-83910000D01*
%TO.C,M_C24*%
X27440000Y-29609420D02*
X27440000Y-29890580D01*
X28460000Y-29609420D02*
X28460000Y-29890580D01*
%TO.C,M_C26*%
X70359420Y-66740000D02*
X70640580Y-66740000D01*
X70359420Y-67760000D02*
X70640580Y-67760000D01*
%TO.C,M_C70*%
X53740000Y-90890580D02*
X53740000Y-90609420D01*
X54760000Y-90890580D02*
X54760000Y-90609420D01*
%TO.C,M_C30*%
X22859420Y-99490000D02*
X23140580Y-99490000D01*
X22859420Y-100510000D02*
X23140580Y-100510000D01*
%TO.C,W_C60*%
X114859420Y-25990000D02*
X115140580Y-25990000D01*
X114859420Y-27010000D02*
X115140580Y-27010000D01*
%TO.C,W_C52*%
X134359420Y-25990000D02*
X134640580Y-25990000D01*
X134359420Y-27010000D02*
X134640580Y-27010000D01*
%TO.C,M_C79*%
X34359420Y-84490000D02*
X34640580Y-84490000D01*
X34359420Y-85510000D02*
X34640580Y-85510000D01*
%TO.C,M_C9*%
X23859420Y-54490000D02*
X24140580Y-54490000D01*
X23859420Y-55510000D02*
X24140580Y-55510000D01*
%TO.C,M_C64*%
X29490000Y-41890580D02*
X29490000Y-41609420D01*
X30510000Y-41890580D02*
X30510000Y-41609420D01*
%TO.C,W_C54*%
X131359420Y-15990000D02*
X131640580Y-15990000D01*
X131359420Y-17010000D02*
X131640580Y-17010000D01*
%TO.C,W_C49*%
X119890000Y-36640580D02*
X119890000Y-36359420D01*
X120910000Y-36640580D02*
X120910000Y-36359420D01*
%TO.C,E_C62*%
X98290000Y-82340580D02*
X98290000Y-82059420D01*
X99310000Y-82340580D02*
X99310000Y-82059420D01*
%TO.C,W_C61*%
X117859420Y-25990000D02*
X118140580Y-25990000D01*
X117859420Y-27010000D02*
X118140580Y-27010000D01*
%TO.C,M_C17*%
X30859420Y-69490000D02*
X31140580Y-69490000D01*
X30859420Y-70510000D02*
X31140580Y-70510000D01*
%TO.C,M_C12*%
X30359420Y-63490000D02*
X30640580Y-63490000D01*
X30359420Y-64510000D02*
X30640580Y-64510000D01*
%TO.C,M_C20*%
X60490000Y-53140580D02*
X60490000Y-52859420D01*
X61510000Y-53140580D02*
X61510000Y-52859420D01*
%TO.C,W_C66*%
X94359420Y-42990000D02*
X94640580Y-42990000D01*
X94359420Y-44010000D02*
X94640580Y-44010000D01*
%TO.C,W_C56*%
X110990000Y-23640580D02*
X110990000Y-23359420D01*
X112010000Y-23640580D02*
X112010000Y-23359420D01*
%TO.C,M_C31*%
X60359420Y-97990000D02*
X60640580Y-97990000D01*
X60359420Y-99010000D02*
X60640580Y-99010000D01*
%TO.C,M_C23*%
X66911252Y-35465000D02*
X66388748Y-35465000D01*
X66911252Y-36935000D02*
X66388748Y-36935000D01*
%TO.C,M_C78*%
X35988748Y-74265000D02*
X36511252Y-74265000D01*
X35988748Y-75735000D02*
X36511252Y-75735000D01*
%TO.C,M_C88*%
X33338748Y-29165000D02*
X33861252Y-29165000D01*
X33338748Y-30635000D02*
X33861252Y-30635000D01*
%TO.C,M_C77*%
X34488748Y-82265000D02*
X35011252Y-82265000D01*
X34488748Y-83735000D02*
X35011252Y-83735000D01*
%TO.C,W_C69*%
X105265000Y-49261252D02*
X105265000Y-48738748D01*
X106735000Y-49261252D02*
X106735000Y-48738748D01*
%TO.C,M_C40*%
X66938748Y-66165000D02*
X67461252Y-66165000D01*
X66938748Y-67635000D02*
X67461252Y-67635000D01*
%TO.C,W_C68*%
X94265000Y-48261252D02*
X94265000Y-47738748D01*
X95735000Y-48261252D02*
X95735000Y-47738748D01*
%TO.C,W_C45*%
X108265000Y-40761252D02*
X108265000Y-40238748D01*
X109735000Y-40761252D02*
X109735000Y-40238748D01*
%TO.C,M_C74*%
X57988748Y-28265000D02*
X58511252Y-28265000D01*
X57988748Y-29735000D02*
X58511252Y-29735000D01*
%TO.C,M_C2*%
X73965000Y-32238748D02*
X73965000Y-32761252D01*
X75435000Y-32238748D02*
X75435000Y-32761252D01*
%TO.C,W_C50*%
X107765000Y-29761252D02*
X107765000Y-29238748D01*
X109235000Y-29761252D02*
X109235000Y-29238748D01*
%TO.C,M_C73*%
X54238748Y-28265000D02*
X54761252Y-28265000D01*
X54238748Y-29735000D02*
X54761252Y-29735000D01*
%TO.C,M_C38*%
X23738748Y-71765000D02*
X24261252Y-71765000D01*
X23738748Y-73235000D02*
X24261252Y-73235000D01*
%TO.C,M_C39*%
X27738748Y-71765000D02*
X28261252Y-71765000D01*
X27738748Y-73235000D02*
X28261252Y-73235000D01*
%TO.C,M_C11*%
X29765000Y-61261252D02*
X29765000Y-60738748D01*
X31235000Y-61261252D02*
X31235000Y-60738748D01*
%TO.C,M_C5*%
X56265000Y-104761252D02*
X56265000Y-104238748D01*
X57735000Y-104761252D02*
X57735000Y-104238748D01*
%TO.C,W_C44*%
X105265000Y-34761252D02*
X105265000Y-34238748D01*
X106735000Y-34761252D02*
X106735000Y-34238748D01*
%TO.C,M_C3*%
X71238748Y-34965000D02*
X71761252Y-34965000D01*
X71238748Y-36435000D02*
X71761252Y-36435000D01*
%TO.C,M_C14*%
X72265000Y-55761252D02*
X72265000Y-55238748D01*
X73735000Y-55761252D02*
X73735000Y-55238748D01*
%TO.C,M_C8*%
X26265000Y-55761252D02*
X26265000Y-55238748D01*
X27735000Y-55761252D02*
X27735000Y-55238748D01*
%TO.C,M_C37*%
X19738748Y-71765000D02*
X20261252Y-71765000D01*
X19738748Y-73235000D02*
X20261252Y-73235000D01*
%TO.C,M_C1*%
X64165000Y-32761252D02*
X64165000Y-32238748D01*
X65635000Y-32761252D02*
X65635000Y-32238748D01*
%TO.C,M_J8*%
X60850000Y-75700000D02*
X60850000Y-77040000D01*
X60850000Y-79760000D02*
X60850000Y-81500000D01*
X60850000Y-81500000D02*
X79150000Y-81500000D01*
X62340000Y-75700000D02*
X60850000Y-75700000D01*
X62340000Y-75700000D02*
X62340000Y-74500000D01*
X77660000Y-75700000D02*
X79150000Y-75700000D01*
X79150000Y-75700000D02*
X79150000Y-77040000D01*
X79150000Y-81500000D02*
X79150000Y-79760000D01*
%TO.C,W_J9*%
X117850000Y-7500000D02*
X117850000Y-9240000D01*
X117850000Y-13300000D02*
X117850000Y-11960000D01*
X119340000Y-13300000D02*
X117850000Y-13300000D01*
X134660000Y-13300000D02*
X134660000Y-14500000D01*
X134660000Y-13300000D02*
X136150000Y-13300000D01*
X136150000Y-7500000D02*
X117850000Y-7500000D01*
X136150000Y-9240000D02*
X136150000Y-7500000D01*
X136150000Y-13300000D02*
X136150000Y-11960000D01*
%TO.C,M_J4*%
X65915000Y-37640000D02*
X74085000Y-37640000D01*
X65915000Y-38490000D02*
X65915000Y-37640000D01*
X65915000Y-42010000D02*
X65915000Y-42860000D01*
X65915000Y-42860000D02*
X68240000Y-42860000D01*
X68240000Y-42860000D02*
X68240000Y-45250000D01*
X74085000Y-37640000D02*
X74085000Y-38490000D01*
X74085000Y-42010000D02*
X74085000Y-42860000D01*
X74085000Y-42860000D02*
X71760000Y-42860000D01*
%TO.C,M_J3*%
X19915000Y-62640000D02*
X28085000Y-62640000D01*
X19915000Y-63490000D02*
X19915000Y-62640000D01*
X19915000Y-67010000D02*
X19915000Y-67860000D01*
X19915000Y-67860000D02*
X22240000Y-67860000D01*
X22240000Y-67860000D02*
X22240000Y-70250000D01*
X28085000Y-62640000D02*
X28085000Y-63490000D01*
X28085000Y-67010000D02*
X28085000Y-67860000D01*
X28085000Y-67860000D02*
X25760000Y-67860000D01*
%TO.C,M_J2*%
X19915000Y-37640000D02*
X28085000Y-37640000D01*
X19915000Y-38490000D02*
X19915000Y-37640000D01*
X19915000Y-42010000D02*
X19915000Y-42860000D01*
X19915000Y-42860000D02*
X22240000Y-42860000D01*
X22240000Y-42860000D02*
X22240000Y-45250000D01*
X28085000Y-37640000D02*
X28085000Y-38490000D01*
X28085000Y-42010000D02*
X28085000Y-42860000D01*
X28085000Y-42860000D02*
X25760000Y-42860000D01*
%TO.C,M_J6*%
X29890000Y-24785000D02*
X29890000Y-27285000D01*
X29890000Y-27285000D02*
X30940000Y-27285000D01*
X38940000Y-22815000D02*
X31060000Y-22815000D01*
X39060000Y-27285000D02*
X39060000Y-28275000D01*
X40110000Y-24785000D02*
X40110000Y-27285000D01*
X40110000Y-27285000D02*
X39060000Y-27285000D01*
%TO.C,E_J7*%
X93890000Y-92715000D02*
X94940000Y-92715000D01*
X93890000Y-95215000D02*
X93890000Y-92715000D01*
X94940000Y-92715000D02*
X94940000Y-91725000D01*
X95060000Y-97185000D02*
X102940000Y-97185000D01*
X104110000Y-92715000D02*
X103060000Y-92715000D01*
X104110000Y-95215000D02*
X104110000Y-92715000D01*
%TO.C,M_J1*%
X42300000Y-9000000D02*
X42300000Y-7100000D01*
X42300000Y-12900000D02*
X42300000Y-10900000D01*
X51700000Y-7100000D02*
X42300000Y-7100000D01*
X51700000Y-9000000D02*
X51700000Y-7100000D01*
X51700000Y-12900000D02*
X51700000Y-10900000D01*
%TO.C,M_D1*%
X27660000Y-23850000D02*
X21850000Y-23850000D01*
X27660000Y-28150000D02*
X21850000Y-28150000D01*
X27660000Y-28150000D02*
X27660000Y-23850000D01*
%TO.C,M_D2*%
X20340000Y-74350000D02*
X20340000Y-78650000D01*
X20340000Y-74350000D02*
X26150000Y-74350000D01*
X20340000Y-78650000D02*
X26150000Y-78650000D01*
%TO.C,W_D6*%
X103850000Y-18660000D02*
X103850000Y-12850000D01*
X103850000Y-18660000D02*
X108150000Y-18660000D01*
X108150000Y-18660000D02*
X108150000Y-12850000D01*
%TO.C,M_L1*%
X69290000Y-28140000D02*
X73510000Y-28140000D01*
X73510000Y-32360000D02*
X69290000Y-32360000D01*
%TO.C,E_U27*%
D12*
X97425000Y-85100000D02*
G75*
G02*
X97275000Y-85100000I-75000J0D01*
G01*
X97275000Y-85100000D02*
G75*
G02*
X97425000Y-85100000I75000J0D01*
G01*
%TO.C,M_D5*%
D10*
X48250000Y-34650000D02*
G75*
G02*
X48050000Y-34650000I-100000J0D01*
G01*
X48050000Y-34650000D02*
G75*
G02*
X48250000Y-34650000I100000J0D01*
G01*
%TO.C,W_U21*%
D12*
X113575000Y-32250000D02*
G75*
G02*
X113425000Y-32250000I-75000J0D01*
G01*
X113425000Y-32250000D02*
G75*
G02*
X113575000Y-32250000I75000J0D01*
G01*
%TO.C,M_U13*%
X66675000Y-62350000D02*
G75*
G02*
X66525000Y-62350000I-75000J0D01*
G01*
X66525000Y-62350000D02*
G75*
G02*
X66675000Y-62350000I75000J0D01*
G01*
%TO.C,M_U12*%
X28925000Y-30350000D02*
G75*
G02*
X28775000Y-30350000I-75000J0D01*
G01*
X28775000Y-30350000D02*
G75*
G02*
X28925000Y-30350000I75000J0D01*
G01*
%TO.C,M_J10*%
D11*
X74880000Y-89930000D02*
X74880000Y-92500000D01*
X74880000Y-89930000D02*
X83120000Y-89930000D01*
X83120000Y-89930000D02*
X83120000Y-92500000D01*
%TO.C,W_J11*%
X92880000Y-7930000D02*
X92880000Y-10500000D01*
X92880000Y-7930000D02*
X101120000Y-7930000D01*
X101120000Y-7930000D02*
X101120000Y-10500000D01*
%TO.C,M_U11*%
X59040000Y-32910000D02*
X59040000Y-32560000D01*
X60960000Y-31090000D02*
X60960000Y-31440000D01*
X60960000Y-32560000D02*
X60960000Y-32910000D01*
X58950000Y-31430000D02*
X58810000Y-31240000D01*
X59090000Y-31240000D01*
X58950000Y-31430000D01*
G36*
X58950000Y-31430000D02*
G01*
X58810000Y-31240000D01*
X59090000Y-31240000D01*
X58950000Y-31430000D01*
G37*
%TO.C,W_U23*%
X113390000Y-21390000D02*
X113865000Y-21390000D01*
X113390000Y-21865000D02*
X113390000Y-21390000D01*
X113390000Y-24610000D02*
X113390000Y-24135000D01*
X113865000Y-24610000D02*
X113390000Y-24610000D01*
X116135000Y-21390000D02*
X116610000Y-21390000D01*
X116610000Y-21390000D02*
X116610000Y-21865000D01*
X116610000Y-24135000D02*
X116610000Y-24610000D01*
X116610000Y-24610000D02*
X116135000Y-24610000D01*
X117140000Y-23750000D02*
X117470000Y-23510000D01*
X117470000Y-23990000D01*
X117140000Y-23750000D01*
G36*
X117470000Y-23990000D02*
G01*
X117140000Y-23750000D01*
X117470000Y-23510000D01*
X117470000Y-23990000D01*
G37*
%TO.C,M_U10*%
X55890000Y-51390000D02*
X56365000Y-51390000D01*
X55890000Y-51865000D02*
X55890000Y-51390000D01*
X55890000Y-54610000D02*
X55890000Y-54135000D01*
X56365000Y-54610000D02*
X55890000Y-54610000D01*
X58635000Y-51390000D02*
X59110000Y-51390000D01*
X59110000Y-51390000D02*
X59110000Y-51865000D01*
X59110000Y-54135000D02*
X59110000Y-54610000D01*
X59110000Y-54610000D02*
X58635000Y-54610000D01*
X55360000Y-52250000D02*
X55030000Y-52490000D01*
X55030000Y-52010000D01*
X55360000Y-52250000D01*
G36*
X55360000Y-52250000D02*
G01*
X55030000Y-52490000D01*
X55030000Y-52010000D01*
X55360000Y-52250000D01*
G37*
%TO.C,M_U32*%
X49890000Y-89390000D02*
X50565000Y-89390000D01*
X49890000Y-89565000D02*
X49890000Y-89390000D01*
X49890000Y-92110000D02*
X49890000Y-91935000D01*
X50565000Y-92110000D02*
X49890000Y-92110000D01*
X52435000Y-89390000D02*
X53110000Y-89390000D01*
X53110000Y-89390000D02*
X53110000Y-89565000D01*
X53110000Y-91935000D02*
X53110000Y-92110000D01*
X53110000Y-92110000D02*
X52435000Y-92110000D01*
X49760000Y-90000000D02*
X49430000Y-90240000D01*
X49430000Y-89760000D01*
X49760000Y-90000000D01*
G36*
X49760000Y-90000000D02*
G01*
X49430000Y-90240000D01*
X49430000Y-89760000D01*
X49760000Y-90000000D01*
G37*
%TO.C,M_U25*%
X56140000Y-61690000D02*
X56340000Y-61690000D01*
X56140000Y-66310000D02*
X56140000Y-61690000D01*
X56340000Y-66310000D02*
X56140000Y-66310000D01*
X61160000Y-61690000D02*
X61360000Y-61690000D01*
X61360000Y-61690000D02*
X61360000Y-66310000D01*
X61360000Y-66310000D02*
X61160000Y-66310000D01*
X56340000Y-66950000D02*
X55870000Y-67290000D01*
X55870000Y-66610000D01*
X56340000Y-66950000D01*
G36*
X56340000Y-66950000D02*
G01*
X55870000Y-67290000D01*
X55870000Y-66610000D01*
X56340000Y-66950000D01*
G37*
%TO.C,M_U17*%
X20690000Y-101390000D02*
X25310000Y-101390000D01*
X20690000Y-101590000D02*
X20690000Y-101390000D01*
X20690000Y-106610000D02*
X20690000Y-106410000D01*
X25310000Y-101390000D02*
X25310000Y-101590000D01*
X25310000Y-106410000D02*
X25310000Y-106610000D01*
X25310000Y-106610000D02*
X20690000Y-106610000D01*
X20050000Y-101590000D02*
X19710000Y-101120000D01*
X20390000Y-101120000D01*
X20050000Y-101590000D01*
G36*
X20050000Y-101590000D02*
G01*
X19710000Y-101120000D01*
X20390000Y-101120000D01*
X20050000Y-101590000D01*
G37*
%TO.C,M_U16*%
X20690000Y-93390000D02*
X25310000Y-93390000D01*
X20690000Y-93590000D02*
X20690000Y-93390000D01*
X20690000Y-98610000D02*
X20690000Y-98410000D01*
X25310000Y-93390000D02*
X25310000Y-93590000D01*
X25310000Y-98410000D02*
X25310000Y-98610000D01*
X25310000Y-98610000D02*
X20690000Y-98610000D01*
X20050000Y-93590000D02*
X19710000Y-93120000D01*
X20390000Y-93120000D01*
X20050000Y-93590000D01*
G36*
X20050000Y-93590000D02*
G01*
X19710000Y-93120000D01*
X20390000Y-93120000D01*
X20050000Y-93590000D01*
G37*
%TO.C,W_U22*%
X126390000Y-42690000D02*
X126590000Y-42690000D01*
X126390000Y-47310000D02*
X126390000Y-42690000D01*
X126590000Y-47310000D02*
X126390000Y-47310000D01*
X131410000Y-42690000D02*
X131610000Y-42690000D01*
X131610000Y-42690000D02*
X131610000Y-47310000D01*
X131610000Y-47310000D02*
X131410000Y-47310000D01*
X126590000Y-47950000D02*
X126120000Y-48290000D01*
X126120000Y-47610000D01*
X126590000Y-47950000D01*
G36*
X126590000Y-47950000D02*
G01*
X126120000Y-48290000D01*
X126120000Y-47610000D01*
X126590000Y-47950000D01*
G37*
%TO.C,W_U26*%
X124690000Y-18390000D02*
X129310000Y-18390000D01*
X124690000Y-18590000D02*
X124690000Y-18390000D01*
X124690000Y-23610000D02*
X124690000Y-23410000D01*
X129310000Y-18390000D02*
X129310000Y-18590000D01*
X129310000Y-23410000D02*
X129310000Y-23610000D01*
X129310000Y-23610000D02*
X124690000Y-23610000D01*
X124050000Y-18590000D02*
X123710000Y-18120000D01*
X124390000Y-18120000D01*
X124050000Y-18590000D01*
G36*
X124050000Y-18590000D02*
G01*
X123710000Y-18120000D01*
X124390000Y-18120000D01*
X124050000Y-18590000D01*
G37*
%TO.C,W_U24*%
X126690000Y-28390000D02*
X131310000Y-28390000D01*
X126690000Y-28590000D02*
X126690000Y-28390000D01*
X126690000Y-33610000D02*
X126690000Y-33410000D01*
X131310000Y-28390000D02*
X131310000Y-28590000D01*
X131310000Y-33410000D02*
X131310000Y-33610000D01*
X131310000Y-33610000D02*
X126690000Y-33610000D01*
X126050000Y-28590000D02*
X125710000Y-28120000D01*
X126390000Y-28120000D01*
X126050000Y-28590000D01*
G36*
X126050000Y-28590000D02*
G01*
X125710000Y-28120000D01*
X126390000Y-28120000D01*
X126050000Y-28590000D01*
G37*
%TO.C,M_U37*%
X45190000Y-61390000D02*
X49810000Y-61390000D01*
X45190000Y-61590000D02*
X45190000Y-61390000D01*
X45190000Y-66610000D02*
X45190000Y-66410000D01*
X49810000Y-61390000D02*
X49810000Y-61590000D01*
X49810000Y-66410000D02*
X49810000Y-66610000D01*
X49810000Y-66610000D02*
X45190000Y-66610000D01*
X44550000Y-61590000D02*
X44210000Y-61120000D01*
X44890000Y-61120000D01*
X44550000Y-61590000D01*
G36*
X44550000Y-61590000D02*
G01*
X44210000Y-61120000D01*
X44890000Y-61120000D01*
X44550000Y-61590000D01*
G37*
%TO.C,M_U18*%
X62690000Y-99390000D02*
X67310000Y-99390000D01*
X62690000Y-99590000D02*
X62690000Y-99390000D01*
X62690000Y-104610000D02*
X62690000Y-104410000D01*
X67310000Y-99390000D02*
X67310000Y-99590000D01*
X67310000Y-104410000D02*
X67310000Y-104610000D01*
X67310000Y-104610000D02*
X62690000Y-104610000D01*
X62050000Y-99590000D02*
X61710000Y-99120000D01*
X62390000Y-99120000D01*
X62050000Y-99590000D01*
G36*
X62050000Y-99590000D02*
G01*
X61710000Y-99120000D01*
X62390000Y-99120000D01*
X62050000Y-99590000D01*
G37*
%TO.C,M_U29*%
X30390000Y-44940000D02*
X30590000Y-44940000D01*
X30390000Y-49560000D02*
X30390000Y-44940000D01*
X30590000Y-49560000D02*
X30390000Y-49560000D01*
X35410000Y-44940000D02*
X35610000Y-44940000D01*
X35610000Y-44940000D02*
X35610000Y-49560000D01*
X35610000Y-49560000D02*
X35410000Y-49560000D01*
X30590000Y-50200000D02*
X30120000Y-50540000D01*
X30120000Y-49860000D01*
X30590000Y-50200000D01*
G36*
X30590000Y-50200000D02*
G01*
X30120000Y-50540000D01*
X30120000Y-49860000D01*
X30590000Y-50200000D01*
G37*
%TO.C,M_U15*%
X63894432Y-106815000D02*
X66260000Y-106815000D01*
X66260000Y-109185000D02*
X63740000Y-109185000D01*
X63600000Y-106810000D02*
X63460000Y-106620000D01*
X63740000Y-106620000D01*
X63600000Y-106810000D01*
G36*
X63600000Y-106810000D02*
G01*
X63460000Y-106620000D01*
X63740000Y-106620000D01*
X63600000Y-106810000D01*
G37*
%TO.C,M_U5*%
X23304432Y-59865000D02*
X25110000Y-59865000D01*
X25110000Y-62135000D02*
X22890000Y-62135000D01*
X23010000Y-59860000D02*
X22870000Y-59670000D01*
X23150000Y-59670000D01*
X23010000Y-59860000D01*
G36*
X23010000Y-59860000D02*
G01*
X22870000Y-59670000D01*
X23150000Y-59670000D01*
X23010000Y-59860000D01*
G37*
%TO.C,M_U4*%
X23304432Y-50865000D02*
X25110000Y-50865000D01*
X25110000Y-53135000D02*
X22890000Y-53135000D01*
X23010000Y-50860000D02*
X22870000Y-50670000D01*
X23150000Y-50670000D01*
X23010000Y-50860000D01*
G36*
X23010000Y-50860000D02*
G01*
X22870000Y-50670000D01*
X23150000Y-50670000D01*
X23010000Y-50860000D01*
G37*
%TO.C,M_U2*%
X66804432Y-31865000D02*
X68610000Y-31865000D01*
X68610000Y-34135000D02*
X66390000Y-34135000D01*
X66510000Y-31860000D02*
X66370000Y-31670000D01*
X66650000Y-31670000D01*
X66510000Y-31860000D01*
G36*
X66510000Y-31860000D02*
G01*
X66370000Y-31670000D01*
X66650000Y-31670000D01*
X66510000Y-31860000D01*
G37*
%TO.C,M_U6*%
X69304432Y-50865000D02*
X71110000Y-50865000D01*
X71110000Y-53135000D02*
X68890000Y-53135000D01*
X69010000Y-50860000D02*
X68870000Y-50670000D01*
X69150000Y-50670000D01*
X69010000Y-50860000D01*
G36*
X69010000Y-50860000D02*
G01*
X68870000Y-50670000D01*
X69150000Y-50670000D01*
X69010000Y-50860000D01*
G37*
%TO.C,M_U7*%
X23340000Y-49310000D02*
X23340000Y-47862853D01*
X23365000Y-49310000D02*
X23340000Y-49310000D01*
X24635000Y-47690000D02*
X24660000Y-47690000D01*
X24660000Y-47690000D02*
X24660000Y-49310000D01*
X24660000Y-49310000D02*
X24635000Y-49310000D01*
X23360000Y-47550000D02*
X23170000Y-47690000D01*
X23170000Y-47410000D01*
X23360000Y-47550000D01*
G36*
X23360000Y-47550000D02*
G01*
X23170000Y-47690000D01*
X23170000Y-47410000D01*
X23360000Y-47550000D01*
G37*
%TO.C,M_U9*%
X69340000Y-49310000D02*
X69340000Y-47862853D01*
X69365000Y-49310000D02*
X69340000Y-49310000D01*
X70635000Y-47690000D02*
X70660000Y-47690000D01*
X70660000Y-47690000D02*
X70660000Y-49310000D01*
X70660000Y-49310000D02*
X70635000Y-49310000D01*
X69360000Y-47550000D02*
X69170000Y-47690000D01*
X69170000Y-47410000D01*
X69360000Y-47550000D01*
G36*
X69360000Y-47550000D02*
G01*
X69170000Y-47690000D01*
X69170000Y-47410000D01*
X69360000Y-47550000D01*
G37*
%TO.C,M_U8*%
X30340000Y-67810000D02*
X30340000Y-66362853D01*
X30365000Y-67810000D02*
X30340000Y-67810000D01*
X31635000Y-66190000D02*
X31660000Y-66190000D01*
X31660000Y-66190000D02*
X31660000Y-67810000D01*
X31660000Y-67810000D02*
X31635000Y-67810000D01*
X30360000Y-66050000D02*
X30170000Y-66190000D01*
X30170000Y-65910000D01*
X30360000Y-66050000D01*
G36*
X30360000Y-66050000D02*
G01*
X30170000Y-66190000D01*
X30170000Y-65910000D01*
X30360000Y-66050000D01*
G37*
%TO.C,M_Q3*%
X62240000Y-46440000D02*
X63760000Y-46440000D01*
X62240000Y-46490000D02*
X62240000Y-46440000D01*
X62240000Y-48390000D02*
X62240000Y-47610000D01*
X62240000Y-49560000D02*
X62240000Y-49510000D01*
X63760000Y-46440000D02*
X63760000Y-47440000D01*
X63760000Y-48560000D02*
X63760000Y-49560000D01*
X63760000Y-49560000D02*
X62240000Y-49560000D01*
X61700000Y-47620000D02*
X61940000Y-47950000D01*
X61460000Y-47950000D01*
X61700000Y-47620000D01*
G36*
X61940000Y-47950000D02*
G01*
X61460000Y-47950000D01*
X61700000Y-47620000D01*
X61940000Y-47950000D01*
G37*
%TO.C,W_Q5*%
X100240000Y-49440000D02*
X101760000Y-49440000D01*
X100240000Y-49490000D02*
X100240000Y-49440000D01*
X100240000Y-51390000D02*
X100240000Y-50610000D01*
X100240000Y-52560000D02*
X100240000Y-52510000D01*
X101760000Y-49440000D02*
X101760000Y-50440000D01*
X101760000Y-51560000D02*
X101760000Y-52560000D01*
X101760000Y-52560000D02*
X100240000Y-52560000D01*
X99700000Y-50620000D02*
X99940000Y-50950000D01*
X99460000Y-50950000D01*
X99700000Y-50620000D01*
G36*
X99940000Y-50950000D02*
G01*
X99460000Y-50950000D01*
X99700000Y-50620000D01*
X99940000Y-50950000D01*
G37*
%TO.C,M_D4*%
X59240000Y-68240000D02*
X60760000Y-68240000D01*
X59240000Y-68290000D02*
X59240000Y-68240000D01*
X59240000Y-70190000D02*
X59240000Y-69410000D01*
X59240000Y-71360000D02*
X59240000Y-71310000D01*
X60760000Y-68240000D02*
X60760000Y-69240000D01*
X60760000Y-70360000D02*
X60760000Y-71360000D01*
X60760000Y-71360000D02*
X59240000Y-71360000D01*
X58700000Y-69420000D02*
X58940000Y-69750000D01*
X58460000Y-69750000D01*
X58700000Y-69420000D01*
G36*
X58940000Y-69750000D02*
G01*
X58460000Y-69750000D01*
X58700000Y-69420000D01*
X58940000Y-69750000D01*
G37*
%TO.C,M_Q2*%
X37240000Y-38190000D02*
X38760000Y-38190000D01*
X37240000Y-39190000D02*
X37240000Y-38190000D01*
X37240000Y-41310000D02*
X37240000Y-40310000D01*
X38760000Y-38190000D02*
X38760000Y-38240000D01*
X38760000Y-39360000D02*
X38760000Y-40140000D01*
X38760000Y-41260000D02*
X38760000Y-41310000D01*
X38760000Y-41310000D02*
X37240000Y-41310000D01*
X39300000Y-40130000D02*
X39060000Y-39800000D01*
X39540000Y-39800000D01*
X39300000Y-40130000D01*
G36*
X39300000Y-40130000D02*
G01*
X39060000Y-39800000D01*
X39540000Y-39800000D01*
X39300000Y-40130000D01*
G37*
%TO.C,W_U31*%
X95240000Y-38440000D02*
X96760000Y-38440000D01*
X95240000Y-38490000D02*
X95240000Y-38440000D01*
X95240000Y-40390000D02*
X95240000Y-39610000D01*
X95240000Y-41560000D02*
X95240000Y-41510000D01*
X96760000Y-38440000D02*
X96760000Y-39440000D01*
X96760000Y-40560000D02*
X96760000Y-41560000D01*
X96760000Y-41560000D02*
X95240000Y-41560000D01*
X94700000Y-39620000D02*
X94940000Y-39950000D01*
X94460000Y-39950000D01*
X94700000Y-39620000D01*
G36*
X94940000Y-39950000D02*
G01*
X94460000Y-39950000D01*
X94700000Y-39620000D01*
X94940000Y-39950000D01*
G37*
%TO.C,M_D3*%
X72240000Y-66340000D02*
X73240000Y-66340000D01*
X72240000Y-67860000D02*
X72240000Y-66340000D01*
X72290000Y-67860000D02*
X72240000Y-67860000D01*
X74190000Y-67860000D02*
X73410000Y-67860000D01*
X74360000Y-66340000D02*
X75360000Y-66340000D01*
X75360000Y-66340000D02*
X75360000Y-67860000D01*
X75360000Y-67860000D02*
X75310000Y-67860000D01*
X73420000Y-68400000D02*
X73750000Y-68160000D01*
X73750000Y-68640000D01*
X73420000Y-68400000D01*
G36*
X73750000Y-68640000D02*
G01*
X73420000Y-68400000D01*
X73750000Y-68160000D01*
X73750000Y-68640000D01*
G37*
%TO.C,M_Q1*%
X33240000Y-35940000D02*
X34760000Y-35940000D01*
X33240000Y-35990000D02*
X33240000Y-35940000D01*
X33240000Y-37890000D02*
X33240000Y-37110000D01*
X33240000Y-39060000D02*
X33240000Y-39010000D01*
X34760000Y-35940000D02*
X34760000Y-36940000D01*
X34760000Y-38060000D02*
X34760000Y-39060000D01*
X34760000Y-39060000D02*
X33240000Y-39060000D01*
X32700000Y-37120000D02*
X32940000Y-37450000D01*
X32460000Y-37450000D01*
X32700000Y-37120000D01*
G36*
X32940000Y-37450000D02*
G01*
X32460000Y-37450000D01*
X32700000Y-37120000D01*
X32940000Y-37450000D01*
G37*
%TO.C,W_Q4*%
X120240000Y-45440000D02*
X121760000Y-45440000D01*
X120240000Y-45490000D02*
X120240000Y-45440000D01*
X120240000Y-47390000D02*
X120240000Y-46610000D01*
X120240000Y-48560000D02*
X120240000Y-48510000D01*
X121760000Y-45440000D02*
X121760000Y-46440000D01*
X121760000Y-47560000D02*
X121760000Y-48560000D01*
X121760000Y-48560000D02*
X120240000Y-48560000D01*
X119700000Y-46620000D02*
X119940000Y-46950000D01*
X119460000Y-46950000D01*
X119700000Y-46620000D01*
G36*
X119940000Y-46950000D02*
G01*
X119460000Y-46950000D01*
X119700000Y-46620000D01*
X119940000Y-46950000D01*
G37*
%TO.C,M_U34*%
X70940000Y-24590000D02*
X70990000Y-24590000D01*
X70940000Y-26410000D02*
X70940000Y-24590000D01*
X70990000Y-26410000D02*
X70940000Y-26410000D01*
X72110000Y-24590000D02*
X72890000Y-24590000D01*
X74010000Y-24590000D02*
X74060000Y-24590000D01*
X74060000Y-24590000D02*
X74060000Y-26410000D01*
X74060000Y-26410000D02*
X74010000Y-26410000D01*
X70990000Y-26950000D02*
X70660000Y-27190000D01*
X70660000Y-26710000D01*
X70990000Y-26950000D01*
G36*
X70990000Y-26950000D02*
G01*
X70660000Y-27190000D01*
X70660000Y-26710000D01*
X70990000Y-26950000D01*
G37*
%TO.C,M_U39*%
X39590000Y-61040000D02*
X41410000Y-61040000D01*
X39590000Y-61090000D02*
X39590000Y-61040000D01*
X39590000Y-64160000D02*
X39590000Y-64110000D01*
X41410000Y-61040000D02*
X41410000Y-61090000D01*
X41410000Y-62210000D02*
X41410000Y-62990000D01*
X41410000Y-64110000D02*
X41410000Y-64160000D01*
X41410000Y-64160000D02*
X39590000Y-64160000D01*
X39050000Y-61090000D02*
X38810000Y-60760000D01*
X39290000Y-60760000D01*
X39050000Y-61090000D01*
G36*
X39050000Y-61090000D02*
G01*
X38810000Y-60760000D01*
X39290000Y-60760000D01*
X39050000Y-61090000D01*
G37*
%TO.C,M_U33*%
X53440000Y-24590000D02*
X53490000Y-24590000D01*
X53440000Y-26410000D02*
X53440000Y-24590000D01*
X53490000Y-26410000D02*
X53440000Y-26410000D01*
X54610000Y-24590000D02*
X55390000Y-24590000D01*
X56510000Y-24590000D02*
X56560000Y-24590000D01*
X56560000Y-24590000D02*
X56560000Y-26410000D01*
X56560000Y-26410000D02*
X56510000Y-26410000D01*
X53490000Y-26950000D02*
X53160000Y-27190000D01*
X53160000Y-26710000D01*
X53490000Y-26950000D01*
G36*
X53490000Y-26950000D02*
G01*
X53160000Y-27190000D01*
X53160000Y-26710000D01*
X53490000Y-26950000D01*
G37*
%TO.C,M_U36*%
X34090000Y-70440000D02*
X35910000Y-70440000D01*
X34090000Y-70490000D02*
X34090000Y-70440000D01*
X34090000Y-72390000D02*
X34090000Y-71610000D01*
X34090000Y-73560000D02*
X34090000Y-73510000D01*
X35910000Y-70440000D02*
X35910000Y-70490000D01*
X35910000Y-73510000D02*
X35910000Y-73560000D01*
X35910000Y-73560000D02*
X34090000Y-73560000D01*
X36450000Y-73510000D02*
X36690000Y-73840000D01*
X36210000Y-73840000D01*
X36450000Y-73510000D01*
G36*
X36690000Y-73840000D02*
G01*
X36210000Y-73840000D01*
X36450000Y-73510000D01*
X36690000Y-73840000D01*
G37*
%TO.C,M_U19*%
X32090000Y-39440000D02*
X33910000Y-39440000D01*
X32090000Y-39490000D02*
X32090000Y-39440000D01*
X32090000Y-41390000D02*
X32090000Y-40610000D01*
X32090000Y-42560000D02*
X32090000Y-42510000D01*
X33910000Y-39440000D02*
X33910000Y-39490000D01*
X33910000Y-42510000D02*
X33910000Y-42560000D01*
X33910000Y-42560000D02*
X32090000Y-42560000D01*
X34450000Y-42510000D02*
X34690000Y-42840000D01*
X34210000Y-42840000D01*
X34450000Y-42510000D01*
G36*
X34690000Y-42840000D02*
G01*
X34210000Y-42840000D01*
X34450000Y-42510000D01*
X34690000Y-42840000D01*
G37*
%TO.C,W_U30*%
X100090000Y-41440000D02*
X101910000Y-41440000D01*
X100090000Y-41490000D02*
X100090000Y-41440000D01*
X100090000Y-43390000D02*
X100090000Y-42610000D01*
X100090000Y-44560000D02*
X100090000Y-44510000D01*
X101910000Y-41440000D02*
X101910000Y-41490000D01*
X101910000Y-44510000D02*
X101910000Y-44560000D01*
X101910000Y-44560000D02*
X100090000Y-44560000D01*
X102450000Y-44510000D02*
X102690000Y-44840000D01*
X102210000Y-44840000D01*
X102450000Y-44510000D01*
G36*
X102690000Y-44840000D02*
G01*
X102210000Y-44840000D01*
X102450000Y-44510000D01*
X102690000Y-44840000D01*
G37*
%TO.C,M_U38*%
X34340000Y-78440000D02*
X36160000Y-78440000D01*
X34340000Y-78490000D02*
X34340000Y-78440000D01*
X34340000Y-81560000D02*
X34340000Y-81510000D01*
X36160000Y-78440000D02*
X36160000Y-78490000D01*
X36160000Y-81510000D02*
X36160000Y-81560000D01*
X36160000Y-81560000D02*
X34340000Y-81560000D01*
X33800000Y-78490000D02*
X33560000Y-78160000D01*
X34040000Y-78160000D01*
X33800000Y-78490000D01*
G36*
X33800000Y-78490000D02*
G01*
X33560000Y-78160000D01*
X34040000Y-78160000D01*
X33800000Y-78490000D01*
G37*
%TO.C,M_U20*%
X57965000Y-25365000D02*
X59435000Y-25365000D01*
X57965000Y-26665000D02*
X57965000Y-26335000D01*
X59435000Y-25365000D02*
X59435000Y-26015000D01*
X59435000Y-26985000D02*
X59435000Y-27635000D01*
X59435000Y-27635000D02*
X57965000Y-27635000D01*
X57520000Y-26340000D02*
X57660000Y-26530000D01*
X57380000Y-26530000D01*
X57520000Y-26340000D01*
G36*
X57660000Y-26530000D02*
G01*
X57380000Y-26530000D01*
X57520000Y-26340000D01*
X57660000Y-26530000D01*
G37*
%TO.C,M_U14*%
X30515000Y-51390000D02*
X31985000Y-51390000D01*
X30515000Y-51415000D02*
X30515000Y-51390000D01*
X30515000Y-53610000D02*
X30515000Y-53585000D01*
X31985000Y-51390000D02*
X31985000Y-51415000D01*
X31985000Y-53585000D02*
X31985000Y-53610000D01*
X31985000Y-53610000D02*
X30515000Y-53610000D01*
X30070000Y-51410000D02*
X29930000Y-51220000D01*
X30210000Y-51220000D01*
X30070000Y-51410000D01*
G36*
X30070000Y-51410000D02*
G01*
X29930000Y-51220000D01*
X30210000Y-51220000D01*
X30070000Y-51410000D01*
G37*
%TO.C,M_U28*%
X27890000Y-46765000D02*
X27915000Y-46765000D01*
X27890000Y-48235000D02*
X27890000Y-46765000D01*
X27915000Y-48235000D02*
X27890000Y-48235000D01*
X30085000Y-46765000D02*
X30110000Y-46765000D01*
X30110000Y-46765000D02*
X30110000Y-48235000D01*
X30110000Y-48235000D02*
X30085000Y-48235000D01*
X27910000Y-48680000D02*
X27720000Y-48820000D01*
X27720000Y-48540000D01*
X27910000Y-48680000D01*
G36*
X27910000Y-48680000D02*
G01*
X27720000Y-48820000D01*
X27720000Y-48540000D01*
X27910000Y-48680000D01*
G37*
%TO.C,M_U1*%
X46350000Y-31450000D02*
X46550000Y-31450000D01*
X46350000Y-32000000D02*
X46350000Y-31450000D01*
X47650000Y-31450000D02*
X47450000Y-31450000D01*
X47650000Y-32000000D02*
X47650000Y-31450000D01*
X46240000Y-32430000D02*
X46240000Y-32710000D01*
X45960000Y-32430000D01*
X46240000Y-32430000D01*
G36*
X46240000Y-32710000D02*
G01*
X45960000Y-32430000D01*
X46240000Y-32430000D01*
X46240000Y-32710000D01*
G37*
%TO.C,M_U3*%
X39200000Y-95650000D02*
X54800000Y-95650000D01*
X39200000Y-116350000D02*
X39200000Y-95650000D01*
X54800000Y-95650000D02*
X54800000Y-116350000D01*
X54800000Y-116350000D02*
X39200000Y-116350000D01*
X55075000Y-116600000D02*
X52625000Y-116600000D01*
X55075000Y-116600000D02*
X55075000Y-114150000D01*
X54975000Y-109400000D02*
X55311000Y-109160000D01*
X55311000Y-109640000D01*
X54975000Y-109400000D01*
G36*
X55311000Y-109640000D02*
G01*
X54975000Y-109400000D01*
X55311000Y-109160000D01*
X55311000Y-109640000D01*
G37*
%TO.C,M_R24*%
X71477500Y-47737258D02*
X71477500Y-47262742D01*
X72522500Y-47737258D02*
X72522500Y-47262742D01*
%TO.C,M_R37*%
X63977500Y-59737258D02*
X63977500Y-59262742D01*
X65022500Y-59737258D02*
X65022500Y-59262742D01*
%TO.C,M_R16*%
X33012742Y-59477500D02*
X33487258Y-59477500D01*
X33012742Y-60522500D02*
X33487258Y-60522500D01*
%TO.C,M_R131*%
X38677500Y-66237258D02*
X38677500Y-65762742D01*
X39722500Y-66237258D02*
X39722500Y-65762742D01*
%TO.C,W_R106*%
X119262742Y-18977500D02*
X119737258Y-18977500D01*
X119262742Y-20022500D02*
X119737258Y-20022500D01*
%TO.C,M_R54*%
X69262742Y-104977500D02*
X69737258Y-104977500D01*
X69262742Y-106022500D02*
X69737258Y-106022500D01*
%TO.C,W_R95*%
X122477500Y-32737258D02*
X122477500Y-32262742D01*
X123522500Y-32737258D02*
X123522500Y-32262742D01*
%TO.C,M_R26*%
X62262742Y-37577500D02*
X62737258Y-37577500D01*
X62262742Y-38622500D02*
X62737258Y-38622500D01*
%TO.C,W_R84*%
X120477500Y-41237258D02*
X120477500Y-40762742D01*
X121522500Y-41237258D02*
X121522500Y-40762742D01*
%TO.C,M_R58*%
X38962742Y-31127500D02*
X39437258Y-31127500D01*
X38962742Y-32172500D02*
X39437258Y-32172500D01*
%TO.C,M_R5*%
X47527500Y-93987258D02*
X47527500Y-93512742D01*
X48572500Y-93987258D02*
X48572500Y-93512742D01*
%TO.C,M_R61*%
X38727500Y-36262742D02*
X38727500Y-36737258D01*
X39772500Y-36262742D02*
X39772500Y-36737258D01*
%TO.C,M_R6*%
X45877500Y-93987258D02*
X45877500Y-93512742D01*
X46922500Y-93987258D02*
X46922500Y-93512742D01*
%TO.C,M_R76*%
X44237258Y-93977500D02*
X43762742Y-93977500D01*
X44237258Y-95022500D02*
X43762742Y-95022500D01*
%TO.C,W_R108*%
X107477500Y-25237258D02*
X107477500Y-24762742D01*
X108522500Y-25237258D02*
X108522500Y-24762742D01*
%TO.C,M_R51*%
X22762742Y-108477500D02*
X23237258Y-108477500D01*
X22762742Y-109522500D02*
X23237258Y-109522500D01*
%TO.C,W_R86*%
X133477500Y-30737258D02*
X133477500Y-30262742D01*
X134522500Y-30737258D02*
X134522500Y-30262742D01*
%TO.C,M_R80*%
X53477500Y-94237258D02*
X53477500Y-93762742D01*
X54522500Y-94237258D02*
X54522500Y-93762742D01*
%TO.C,M_R70*%
X59737258Y-106477500D02*
X59262742Y-106477500D01*
X59737258Y-107522500D02*
X59262742Y-107522500D01*
%TO.C,W_R120*%
X102477500Y-47237258D02*
X102477500Y-46762742D01*
X103522500Y-47237258D02*
X103522500Y-46762742D01*
%TO.C,M_R67*%
X54477500Y-65237258D02*
X54477500Y-64762742D01*
X55522500Y-65237258D02*
X55522500Y-64762742D01*
%TO.C,M_R63*%
X38977500Y-43237258D02*
X38977500Y-42762742D01*
X40022500Y-43237258D02*
X40022500Y-42762742D01*
%TO.C,M_R45*%
X63477500Y-67987258D02*
X63477500Y-67512742D01*
X64522500Y-67987258D02*
X64522500Y-67512742D01*
%TO.C,W_R115*%
X105762742Y-44277500D02*
X106237258Y-44277500D01*
X105762742Y-45322500D02*
X106237258Y-45322500D01*
%TO.C,M_R48*%
X35262742Y-92477500D02*
X35737258Y-92477500D01*
X35262742Y-93522500D02*
X35737258Y-93522500D01*
%TO.C,M_R12*%
X29762742Y-56977500D02*
X30237258Y-56977500D01*
X29762742Y-58022500D02*
X30237258Y-58022500D01*
%TO.C,M_R20*%
X66477500Y-52237258D02*
X66477500Y-51762742D01*
X67522500Y-52237258D02*
X67522500Y-51762742D01*
%TO.C,M_R30*%
X23262742Y-30477500D02*
X23737258Y-30477500D01*
X23262742Y-31522500D02*
X23737258Y-31522500D01*
%TO.C,W_R140*%
X135762742Y-45477500D02*
X136237258Y-45477500D01*
X135762742Y-46522500D02*
X136237258Y-46522500D01*
%TO.C,M_R9*%
X20477500Y-55737258D02*
X20477500Y-55262742D01*
X21522500Y-55737258D02*
X21522500Y-55262742D01*
%TO.C,M_R79*%
X51477500Y-94237258D02*
X51477500Y-93762742D01*
X52522500Y-94237258D02*
X52522500Y-93762742D01*
%TO.C,M_R46*%
X69062742Y-109977500D02*
X69537258Y-109977500D01*
X69062742Y-111022500D02*
X69537258Y-111022500D01*
%TO.C,M_R18*%
X31977500Y-57237258D02*
X31977500Y-56762742D01*
X33022500Y-57237258D02*
X33022500Y-56762742D01*
%TO.C,W_R112*%
X98762742Y-35477500D02*
X99237258Y-35477500D01*
X98762742Y-36522500D02*
X99237258Y-36522500D01*
%TO.C,M_R73*%
X32762742Y-87477500D02*
X33237258Y-87477500D01*
X32762742Y-88522500D02*
X33237258Y-88522500D01*
%TO.C,W_R104*%
X115777500Y-29237258D02*
X115777500Y-28762742D01*
X116822500Y-29237258D02*
X116822500Y-28762742D01*
%TO.C,M_R56*%
X33212742Y-31627500D02*
X33687258Y-31627500D01*
X33212742Y-32672500D02*
X33687258Y-32672500D01*
%TO.C,M_R44*%
X27762742Y-35477500D02*
X28237258Y-35477500D01*
X27762742Y-36522500D02*
X28237258Y-36522500D01*
%TO.C,W_R83*%
X123477500Y-46237258D02*
X123477500Y-45762742D01*
X124522500Y-46237258D02*
X124522500Y-45762742D01*
%TO.C,M_R143*%
X75477500Y-71237258D02*
X75477500Y-70762742D01*
X76522500Y-71237258D02*
X76522500Y-70762742D01*
%TO.C,M_R15*%
X20977500Y-60737258D02*
X20977500Y-60262742D01*
X22022500Y-60737258D02*
X22022500Y-60262742D01*
%TO.C,W_R117*%
X105477500Y-39237258D02*
X105477500Y-38762742D01*
X106522500Y-39237258D02*
X106522500Y-38762742D01*
%TO.C,W_R103*%
X113977500Y-29237258D02*
X113977500Y-28762742D01*
X115022500Y-29237258D02*
X115022500Y-28762742D01*
%TO.C,M_R141*%
X70477500Y-71237258D02*
X70477500Y-70762742D01*
X71522500Y-71237258D02*
X71522500Y-70762742D01*
%TO.C,M_R130*%
X53477500Y-36737258D02*
X53477500Y-36262742D01*
X54522500Y-36737258D02*
X54522500Y-36262742D01*
%TO.C,W_R94*%
X121977500Y-29737258D02*
X121977500Y-29262742D01*
X123022500Y-29737258D02*
X123022500Y-29262742D01*
%TO.C,W_R97*%
X118762742Y-15977500D02*
X119237258Y-15977500D01*
X118762742Y-17022500D02*
X119237258Y-17022500D01*
%TO.C,W_R144*%
X135477500Y-30237258D02*
X135477500Y-29762742D01*
X136522500Y-30237258D02*
X136522500Y-29762742D01*
%TO.C,W_R116*%
X109262742Y-44277500D02*
X109737258Y-44277500D01*
X109262742Y-45322500D02*
X109737258Y-45322500D01*
%TO.C,M_R99*%
X39762742Y-29477500D02*
X40237258Y-29477500D01*
X39762742Y-30522500D02*
X40237258Y-30522500D01*
%TO.C,M_R36*%
X61977500Y-59737258D02*
X61977500Y-59262742D01*
X63022500Y-59737258D02*
X63022500Y-59262742D01*
%TO.C,M_R4*%
X36977500Y-88987258D02*
X36977500Y-88512742D01*
X38022500Y-88987258D02*
X38022500Y-88512742D01*
%TO.C,W_R114*%
X101977500Y-39237258D02*
X101977500Y-38762742D01*
X103022500Y-39237258D02*
X103022500Y-38762742D01*
%TO.C,M_R29*%
X19762742Y-30477500D02*
X20237258Y-30477500D01*
X19762742Y-31522500D02*
X20237258Y-31522500D01*
%TO.C,M_R11*%
X24262742Y-57977500D02*
X24737258Y-57977500D01*
X24262742Y-59022500D02*
X24737258Y-59022500D01*
%TO.C,M_R17*%
X32977500Y-62762742D02*
X32977500Y-63237258D01*
X34022500Y-62762742D02*
X34022500Y-63237258D01*
%TO.C,W_R113*%
X98762742Y-37977500D02*
X99237258Y-37977500D01*
X98762742Y-39022500D02*
X99237258Y-39022500D01*
%TO.C,M_R39*%
X69977500Y-61237258D02*
X69977500Y-60762742D01*
X71022500Y-61237258D02*
X71022500Y-60762742D01*
%TO.C,M_R110*%
X21262742Y-46227500D02*
X21737258Y-46227500D01*
X21262742Y-47272500D02*
X21737258Y-47272500D01*
%TO.C,M_R22*%
X66762742Y-57477500D02*
X67237258Y-57477500D01*
X66762742Y-58522500D02*
X67237258Y-58522500D01*
%TO.C,M_R68*%
X63762742Y-63477500D02*
X64237258Y-63477500D01*
X63762742Y-64522500D02*
X64237258Y-64522500D01*
%TO.C,W_R139*%
X135762742Y-43477500D02*
X136237258Y-43477500D01*
X135762742Y-44522500D02*
X136237258Y-44522500D01*
%TO.C,M_R77*%
X44237258Y-91477500D02*
X43762742Y-91477500D01*
X44237258Y-92522500D02*
X43762742Y-92522500D01*
%TO.C,M_R127*%
X40512742Y-92477500D02*
X40987258Y-92477500D01*
X40512742Y-93522500D02*
X40987258Y-93522500D01*
%TO.C,M_R10*%
X20762742Y-57477500D02*
X21237258Y-57477500D01*
X20762742Y-58522500D02*
X21237258Y-58522500D01*
%TO.C,M_R40*%
X74977500Y-61237258D02*
X74977500Y-60762742D01*
X76022500Y-61237258D02*
X76022500Y-60762742D01*
%TO.C,W_R82*%
X120762742Y-43277500D02*
X121237258Y-43277500D01*
X120762742Y-44322500D02*
X121237258Y-44322500D01*
%TO.C,W_R107*%
X107477500Y-22237258D02*
X107477500Y-21762742D01*
X108522500Y-22237258D02*
X108522500Y-21762742D01*
%TO.C,W_R111*%
X93477500Y-36237258D02*
X93477500Y-35762742D01*
X94522500Y-36237258D02*
X94522500Y-35762742D01*
%TO.C,M_R133*%
X39077500Y-73037258D02*
X39077500Y-72562742D01*
X40122500Y-73037258D02*
X40122500Y-72562742D01*
%TO.C,W_R92*%
X129477500Y-37237258D02*
X129477500Y-36762742D01*
X130522500Y-37237258D02*
X130522500Y-36762742D01*
%TO.C,M_R52*%
X26262742Y-108477500D02*
X26737258Y-108477500D01*
X26262742Y-109522500D02*
X26737258Y-109522500D01*
%TO.C,M_R72*%
X35227500Y-88987258D02*
X35227500Y-88512742D01*
X36272500Y-88987258D02*
X36272500Y-88512742D01*
%TO.C,M_R33*%
X22777500Y-33737258D02*
X22777500Y-33262742D01*
X23822500Y-33737258D02*
X23822500Y-33262742D01*
%TO.C,M_R101*%
X56012742Y-70227500D02*
X56487258Y-70227500D01*
X56012742Y-71272500D02*
X56487258Y-71272500D01*
%TO.C,M_R47*%
X31762742Y-92477500D02*
X32237258Y-92477500D01*
X31762742Y-93522500D02*
X32237258Y-93522500D01*
%TO.C,M_R132*%
X31827500Y-80687258D02*
X31827500Y-80212742D01*
X32872500Y-80687258D02*
X32872500Y-80212742D01*
%TO.C,W_R96*%
X121762742Y-15977500D02*
X122237258Y-15977500D01*
X121762742Y-17022500D02*
X122237258Y-17022500D01*
%TO.C,M_R126*%
X57227500Y-92487258D02*
X57227500Y-92012742D01*
X58272500Y-92487258D02*
X58272500Y-92012742D01*
%TO.C,W_R88*%
X135762742Y-34477500D02*
X136237258Y-34477500D01*
X135762742Y-35522500D02*
X136237258Y-35522500D01*
%TO.C,W_R119*%
X99762742Y-46977500D02*
X100237258Y-46977500D01*
X99762742Y-48022500D02*
X100237258Y-48022500D01*
%TO.C,M_R41*%
X69977500Y-65237258D02*
X69977500Y-64762742D01*
X71022500Y-65237258D02*
X71022500Y-64762742D01*
%TO.C,M_R62*%
X28977500Y-38737258D02*
X28977500Y-38262742D01*
X30022500Y-38737258D02*
X30022500Y-38262742D01*
%TO.C,M_R25*%
X60262742Y-35177500D02*
X60737258Y-35177500D01*
X60262742Y-36222500D02*
X60737258Y-36222500D01*
%TO.C,M_R136*%
X39077500Y-69737258D02*
X39077500Y-69262742D01*
X40122500Y-69737258D02*
X40122500Y-69262742D01*
%TO.C,W_R102*%
X112177500Y-29237258D02*
X112177500Y-28762742D01*
X113222500Y-29237258D02*
X113222500Y-28762742D01*
%TO.C,M_R50*%
X19262742Y-108477500D02*
X19737258Y-108477500D01*
X19262742Y-109522500D02*
X19737258Y-109522500D01*
%TO.C,M_R27*%
X62477500Y-35237258D02*
X62477500Y-34762742D01*
X63522500Y-35237258D02*
X63522500Y-34762742D01*
%TO.C,M_R55*%
X60262742Y-92977500D02*
X60737258Y-92977500D01*
X60262742Y-94022500D02*
X60737258Y-94022500D01*
%TO.C,M_R60*%
X36977500Y-34512742D02*
X36977500Y-34987258D01*
X38022500Y-34512742D02*
X38022500Y-34987258D01*
%TO.C,M_R125*%
X28262742Y-43977500D02*
X28737258Y-43977500D01*
X28262742Y-45022500D02*
X28737258Y-45022500D01*
%TO.C,W_R91*%
X127477500Y-37237258D02*
X127477500Y-36762742D01*
X128522500Y-37237258D02*
X128522500Y-36762742D01*
%TO.C,M_R78*%
X49477500Y-94237258D02*
X49477500Y-93762742D01*
X50522500Y-94237258D02*
X50522500Y-93762742D01*
%TO.C,M_R74*%
X33477500Y-90737258D02*
X33477500Y-90262742D01*
X34522500Y-90737258D02*
X34522500Y-90262742D01*
%TO.C,W_R87*%
X131977500Y-37237258D02*
X131977500Y-36762742D01*
X133022500Y-37237258D02*
X133022500Y-36762742D01*
%TO.C,W_R137*%
X132477500Y-51237258D02*
X132477500Y-50762742D01*
X133522500Y-51237258D02*
X133522500Y-50762742D01*
%TO.C,W_R90*%
X125477500Y-37237258D02*
X125477500Y-36762742D01*
X126522500Y-37237258D02*
X126522500Y-36762742D01*
%TO.C,W_R100*%
X119977500Y-25237258D02*
X119977500Y-24762742D01*
X121022500Y-25237258D02*
X121022500Y-24762742D01*
%TO.C,M_R134*%
X39077500Y-76337258D02*
X39077500Y-75862742D01*
X40122500Y-76337258D02*
X40122500Y-75862742D01*
%TO.C,W_R105*%
X119262742Y-20977500D02*
X119737258Y-20977500D01*
X119262742Y-22022500D02*
X119737258Y-22022500D01*
%TO.C,M_R34*%
X24677500Y-33737258D02*
X24677500Y-33262742D01*
X25722500Y-33737258D02*
X25722500Y-33262742D01*
%TO.C,M_R49*%
X58477500Y-101237258D02*
X58477500Y-100762742D01*
X59522500Y-101237258D02*
X59522500Y-100762742D01*
%TO.C,M_R32*%
X20877500Y-33737258D02*
X20877500Y-33262742D01*
X21922500Y-33737258D02*
X21922500Y-33262742D01*
%TO.C,W_R89*%
X137262742Y-32477500D02*
X137737258Y-32477500D01*
X137262742Y-33522500D02*
X137737258Y-33522500D01*
%TO.C,M_R75*%
X40477500Y-90737258D02*
X40477500Y-90262742D01*
X41522500Y-90737258D02*
X41522500Y-90262742D01*
%TO.C,M_R7*%
X37512742Y-85727500D02*
X37987258Y-85727500D01*
X37512742Y-86772500D02*
X37987258Y-86772500D01*
%TO.C,M_R65*%
X62477500Y-44237258D02*
X62477500Y-43762742D01*
X63522500Y-44237258D02*
X63522500Y-43762742D01*
%TO.C,W_R81*%
X110477500Y-30237258D02*
X110477500Y-29762742D01*
X111522500Y-30237258D02*
X111522500Y-29762742D01*
%TO.C,M_R23*%
X70262742Y-57977500D02*
X70737258Y-57977500D01*
X70262742Y-59022500D02*
X70737258Y-59022500D01*
%TO.C,M_R35*%
X26577500Y-33737258D02*
X26577500Y-33262742D01*
X27622500Y-33737258D02*
X27622500Y-33262742D01*
%TO.C,W_R145*%
X133477500Y-21237258D02*
X133477500Y-20762742D01*
X134522500Y-21237258D02*
X134522500Y-20762742D01*
%TO.C,M_R59*%
X34762742Y-33727500D02*
X35237258Y-33727500D01*
X34762742Y-34772500D02*
X35237258Y-34772500D01*
%TO.C,M_R21*%
X66477500Y-55737258D02*
X66477500Y-55262742D01*
X67522500Y-55737258D02*
X67522500Y-55262742D01*
%TO.C,M_R142*%
X72977500Y-71237258D02*
X72977500Y-70762742D01*
X74022500Y-71237258D02*
X74022500Y-70762742D01*
%TO.C,M_R64*%
X55762742Y-46977500D02*
X56237258Y-46977500D01*
X55762742Y-48022500D02*
X56237258Y-48022500D01*
%TO.C,M_R31*%
X18977500Y-33737258D02*
X18977500Y-33262742D01*
X20022500Y-33737258D02*
X20022500Y-33262742D01*
%TO.C,M_R42*%
X72762742Y-59577500D02*
X73237258Y-59577500D01*
X72762742Y-60622500D02*
X73237258Y-60622500D01*
%TO.C,M_R66*%
X62477500Y-52237258D02*
X62477500Y-51762742D01*
X63522500Y-52237258D02*
X63522500Y-51762742D01*
%TO.C,M_R69*%
X23762742Y-79477500D02*
X24237258Y-79477500D01*
X23762742Y-80522500D02*
X24237258Y-80522500D01*
%TO.C,W_R138*%
X135762742Y-41477500D02*
X136237258Y-41477500D01*
X135762742Y-42522500D02*
X136237258Y-42522500D01*
%TO.C,M_R129*%
X54227500Y-32737258D02*
X54227500Y-32262742D01*
X55272500Y-32737258D02*
X55272500Y-32262742D01*
%TO.C,W_R146*%
X102477500Y-28237258D02*
X102477500Y-27762742D01*
X103522500Y-28237258D02*
X103522500Y-27762742D01*
%TO.C,M_R135*%
X39077500Y-79637258D02*
X39077500Y-79162742D01*
X40122500Y-79637258D02*
X40122500Y-79162742D01*
%TO.C,M_R57*%
X35677500Y-31887258D02*
X35677500Y-31412742D01*
X36722500Y-31887258D02*
X36722500Y-31412742D01*
%TO.C,M_R8*%
X20477500Y-52237258D02*
X20477500Y-51762742D01*
X21522500Y-52237258D02*
X21522500Y-51762742D01*
%TO.C,M_R14*%
X17977500Y-59737258D02*
X17977500Y-59262742D01*
X19022500Y-59737258D02*
X19022500Y-59262742D01*
%TO.C,M_R28*%
X74727500Y-27737258D02*
X74727500Y-27262742D01*
X75772500Y-27737258D02*
X75772500Y-27262742D01*
%TO.C,M_R43*%
X72762742Y-63877500D02*
X73237258Y-63877500D01*
X72762742Y-64922500D02*
X73237258Y-64922500D01*
%TO.C,M_R53*%
X59762742Y-104977500D02*
X60237258Y-104977500D01*
X59762742Y-106022500D02*
X60237258Y-106022500D01*
%TO.C,M_R128*%
X56977500Y-31987258D02*
X56977500Y-31512742D01*
X58022500Y-31987258D02*
X58022500Y-31512742D01*
%TO.C,W_R109*%
X110762742Y-16477500D02*
X111237258Y-16477500D01*
X110762742Y-17522500D02*
X111237258Y-17522500D01*
%TO.C,M_R3*%
X56477500Y-96237258D02*
X56477500Y-95762742D01*
X57522500Y-96237258D02*
X57522500Y-95762742D01*
%TO.C,M_R71*%
X59477500Y-44237258D02*
X59477500Y-43762742D01*
X60522500Y-44237258D02*
X60522500Y-43762742D01*
%TO.C,M_R38*%
X65977500Y-60737258D02*
X65977500Y-60262742D01*
X67022500Y-60737258D02*
X67022500Y-60262742D01*
%TO.C,W_R98*%
X122477500Y-25737258D02*
X122477500Y-25262742D01*
X123522500Y-25737258D02*
X123522500Y-25262742D01*
%TO.C,W_R121*%
X93822936Y-54290000D02*
X98177064Y-54290000D01*
X93822936Y-57710000D02*
X98177064Y-57710000D01*
%TO.C,W_R122*%
X103822936Y-54290000D02*
X108177064Y-54290000D01*
X103822936Y-57710000D02*
X108177064Y-57710000D01*
%TO.C,W_R124*%
X103822936Y-60290000D02*
X108177064Y-60290000D01*
X103822936Y-63710000D02*
X108177064Y-63710000D01*
%TO.C,W_R123*%
X93822936Y-60290000D02*
X98177064Y-60290000D01*
X93822936Y-63710000D02*
X98177064Y-63710000D01*
%TO.C,M_TP38*%
X56700000Y-35250000D02*
G75*
G02*
X55300000Y-35250000I-700000J0D01*
G01*
X55300000Y-35250000D02*
G75*
G02*
X56700000Y-35250000I700000J0D01*
G01*
%TO.C,W_TP34*%
X92700000Y-31000000D02*
G75*
G02*
X91300000Y-31000000I-700000J0D01*
G01*
X91300000Y-31000000D02*
G75*
G02*
X92700000Y-31000000I700000J0D01*
G01*
%TO.C,W_TP35*%
X92700000Y-41000000D02*
G75*
G02*
X91300000Y-41000000I-700000J0D01*
G01*
X91300000Y-41000000D02*
G75*
G02*
X92700000Y-41000000I700000J0D01*
G01*
%TO.C,M_TP39*%
X56700000Y-37750000D02*
G75*
G02*
X55300000Y-37750000I-700000J0D01*
G01*
X55300000Y-37750000D02*
G75*
G02*
X56700000Y-37750000I700000J0D01*
G01*
%TO.C,W_TP36*%
X109700000Y-48000000D02*
G75*
G02*
X108300000Y-48000000I-700000J0D01*
G01*
X108300000Y-48000000D02*
G75*
G02*
X109700000Y-48000000I700000J0D01*
G01*
%TO.C,W_TP37*%
X92700000Y-51000000D02*
G75*
G02*
X91300000Y-51000000I-700000J0D01*
G01*
X91300000Y-51000000D02*
G75*
G02*
X92700000Y-51000000I700000J0D01*
G01*
%TD*%
M02*
