M48
; DRILL file KiCad 10.0.6 date 2026-09-12T15:14:30
; FORMAT={-:-/ absolute / metric / decimal}
; #@! TF.CreationDate,2026-09-12T15:14:30+02:00
; #@! TF.GenerationSoftware,Kicad,Pcbnew,10.0.6
; #@! TF.FileFunction,Plated,1,4,PTH
FMAT,2
METRIC
; #@! TA.AperFunction,Plated,PTH,ViaDrill
T1C0.200
; #@! TA.AperFunction,Plated,PTH,ViaDrill
T2C0.300
; #@! TA.AperFunction,Plated,PTH,ViaDrill
T3C0.400
; #@! TA.AperFunction,Plated,PTH,ComponentDrill
T4C0.600
; #@! TA.AperFunction,Plated,PTH,ComponentDrill
T5C0.700
; #@! TA.AperFunction,Plated,PTH,ComponentDrill
T6C0.800
; #@! TA.AperFunction,Plated,PTH,ComponentDrill
T7C1.000
; #@! TA.AperFunction,Plated,PTH,ComponentDrill
T8C1.100
%
G90
G05
T1
X18.5Y-58.65
X19.9Y-91.55
X19.95Y-72.3
X20.4Y-94.75
X20.9Y-93.45
X22.3Y-51.1
X22.65Y-97.5
X22.8Y-98.1
X22.95Y-59.7
X23.0Y-91.7
X24.75Y-47.35
X24.957Y-48.123
X26.2Y-90.05
X26.55Y-84.95
X27.2Y-46.3
X27.4Y-92.6
X27.9Y-26.1
X28.3Y-56.95
X28.3Y-90.7
X28.35Y-77.6
X28.35Y-94.25
X28.4Y-50.1
X28.4Y-85.45
X28.6Y-39.15
X28.85Y-84.05
X28.95Y-51.85
X29.45Y-52.35
X29.5Y-56.05
X29.5Y-76.45
X29.5Y-83.4
X29.7Y-64.9
X29.75Y-56.65
X29.8Y-96.9
X29.85Y-91.7
X29.95Y-58.65
X29.95Y-68.85
X30.0Y-63.1
X30.0Y-99.95
X30.2Y-47.35
X30.2Y-67.8
X30.3Y-98.1
X30.4Y-53.15
X30.6Y-96.9
X30.65Y-85.45
X30.653Y-49.04
X30.75Y-83.0
X31.1Y-56.95
X31.15Y-90.8
X31.5Y-99.1
X31.65Y-92.95
X31.7Y-58.95
X31.7Y-60.75
X31.7Y-68.25
X31.75Y-52.55
X31.75Y-54.15
X31.8Y-67.0
X31.85Y-82.45
X31.85Y-86.25
X32.05Y-85.65
X32.05Y-101.2
X32.3Y-49.95
X32.4Y-77.15
X32.4Y-82.1
X32.5Y-27.5
X32.75Y-73.4
X32.75Y-75.55
X32.75Y-83.45
X32.85Y-60.8
X33.0Y-50.612
X33.15Y-93.0
X33.2Y-48.35
X33.25Y-47.35
X33.25Y-57.15
X33.25Y-89.0
X33.3Y-66.2
X33.4Y-56.15
X33.45Y-106.5
X33.6Y-91.975
X33.65Y-51.7
X33.7Y-99.832
X33.8Y-27.8
X33.85Y-42.65
X33.85Y-72.25
X33.9Y-82.3
X34.0Y-63.25
X34.0Y-83.6
X34.05Y-79.3
X34.1Y-45.55
X34.116Y-47.85
X34.15Y-93.5
X34.2Y-97.05
X34.25Y-75.45
X34.3Y-50.1
X34.3Y-58.75
X34.3Y-88.85
X34.35Y-52.65
X34.4Y-74.85
X34.5Y-42.75
X34.55Y-99.9
X34.7Y-86.45
X34.7Y-98.1
X34.75Y-48.15
X34.75Y-88.4
X34.8Y-74.15
X34.866Y-89.416
X35.2Y-80.0
X35.3Y-79.05
X35.3Y-81.35
X35.35Y-96.4
X35.426Y-98.143
X35.5Y-78.15
X35.5Y-83.45
X35.55Y-99.75
X35.6Y-43.15
X35.7Y-50.1
X35.7Y-55.55
X35.75Y-58.6
X35.75Y-87.9
X35.75Y-90.05
X35.95Y-73.65
X36.0Y-28.6
X36.1Y-91.35
X36.1Y-94.55
X36.15Y-72.0
X36.15Y-85.0
X36.3Y-93.0
X36.4Y-97.75
X36.4Y-100.0
X36.55Y-58.6
X36.8Y-27.4
X37.0Y-78.15
X37.0Y-100.2
X37.0Y-108.5
X37.1Y-73.85
X37.2Y-93.45
X37.5Y-28.7
X37.55Y-78.9
X37.55Y-88.7
X37.6Y-47.0
X37.6Y-78.25
X37.7Y-59.6
X37.9Y-90.9
X37.95Y-63.4
X38.0Y-101.95
X38.034Y-85.334
X38.15Y-71.55
X38.15Y-75.4
X38.2Y-68.8
X38.35Y-30.25
X38.35Y-33.4
X38.35Y-72.375
X38.55Y-100.75
X38.55Y-103.05
X38.6Y-27.45
X38.6Y-85.9
X38.65Y-97.3
X38.65Y-98.55
X39.0Y-95.0
X39.1Y-59.5
X39.2Y-100.85
X39.25Y-46.3
X39.25Y-97.15
X39.35Y-64.25
X39.35Y-90.05
X39.35Y-109.6
X39.4Y-71.15
X39.5Y-60.0
X39.6Y-72.375
X39.6Y-76.1
X39.65Y-83.3
X39.65Y-102.45
X39.8Y-79.4
X39.9Y-67.85
X40.0Y-30.25
X40.15Y-76.4
X40.3Y-29.134
X40.4Y-36.4
X40.4Y-66.1
X40.55Y-58.65
X40.637Y-62.7
X40.7Y-76.0
X40.7Y-77.6
X40.75Y-90.5
X40.75Y-92.5
X40.8Y-30.0
X40.8Y-99.35
X40.8Y-100.35
X41.0Y-95.5
X41.05Y-104.45
X41.1Y-79.15
X41.1Y-79.95
X41.15Y-68.8
X41.2Y-36.4
X41.25Y-96.85
X41.4Y-94.85
X41.55Y-99.6
X41.637Y-61.65
X41.65Y-66.1
X41.7Y-103.1
X41.9Y-94.5
X41.95Y-96.7
X41.95Y-98.3
X42.1Y-99.85
X42.15Y-69.95
X42.2Y-67.0
X42.25Y-65.265
X42.5Y-93.85
X42.7Y-63.2
X42.9Y-68.65
X43.45Y-58.65
X43.5Y-32.3
X43.5Y-63.1
X43.5Y-66.4
X43.6Y-100.35
X43.65Y-70.05
X43.8Y-60.3
X43.85Y-66.9
X43.85Y-103.35
X43.85Y-104.3
X44.0Y-92.5
X44.036Y-98.549
X44.05Y-91.1
X44.35Y-103.95
X44.45Y-96.45
X44.6Y-62.65
X44.65Y-63.4
X44.65Y-66.55
X44.75Y-69.95
X44.8Y-95.7
X44.95Y-98.15
X45.175Y-92.2
X45.2Y-62.7
X45.2Y-64.0
X45.35Y-17.0
X45.45Y-59.4
X45.7Y-64.4
X45.865Y-104.825
X45.9Y-70.05
X46.15Y-99.7
X46.3Y-67.1
X46.6Y-88.2
X46.75Y-61.45
X47.0Y-31.575
X47.15Y-62.3
X47.15Y-69.05
X47.15Y-93.9
X47.388Y-70.056
X47.45Y-63.413
X47.7Y-89.6
X48.1Y-67.4
X48.2Y-68.6
X48.5Y-95.65
X48.532Y-63.582
X48.7Y-96.75
X48.75Y-31.7
X48.75Y-89.975
X48.75Y-97.75
X48.85Y-59.35
X48.85Y-65.35
X49.0Y-67.7
X49.15Y-64.8
X49.15Y-93.75
X49.25Y-62.4
X49.35Y-69.9
X49.45Y-96.6
X49.65Y-68.35
X49.65Y-91.75
X49.9Y-101.45
X50.0Y-31.7
X50.0Y-92.375
X50.0Y-94.85
X50.05Y-59.35
X50.05Y-103.0
X50.15Y-66.65
X50.15Y-69.9
X50.2Y-106.25
X50.3Y-65.35
X50.35Y-64.65
X50.45Y-58.657
X50.6Y-106.943
X50.8Y-92.162
X50.85Y-101.5
X50.95Y-67.85
X51.05Y-96.85
X51.1Y-90.75
X51.2Y-99.0
X51.3Y-31.7
X51.35Y-92.8
X51.65Y-101.5
X51.7Y-89.037
X51.7Y-90.95
X51.85Y-97.4
X52.0Y-64.2
X52.134Y-87.216
X52.15Y-93.85
X52.4Y-100.8
X52.55Y-104.7
X52.6Y-67.35
X52.7Y-86.65
X52.75Y-91.6
X52.85Y-31.65
X52.85Y-108.4
X52.95Y-95.65
X52.95Y-105.393
X53.1Y-98.8
X53.15Y-96.45
X53.15Y-97.55
X53.2Y-98.2
X53.2Y-99.4
X53.2Y-107.8
X53.3Y-66.0
X53.3Y-67.5
X53.35Y-90.25
X53.35Y-92.05
X53.35Y-104.1
X53.5Y-31.7
X53.5Y-101.95
X53.6Y-53.775
X53.6Y-54.35
X53.6Y-56.95
X53.7Y-87.9
X53.75Y-64.8
X53.75Y-91.5
X53.95Y-30.5
X54.0Y-35.65
X54.0Y-37.3
X54.0Y-51.35
X54.0Y-92.525
X54.0Y-97.5
X54.0Y-100.05
X54.05Y-24.35
X54.05Y-29.0
X54.1Y-56.45
X54.25Y-62.7
X54.3Y-81.6
X54.3Y-95.2
X54.6Y-55.5
X54.6Y-67.35
X54.6Y-89.1
X54.65Y-74.616
X54.65Y-78.95
X54.7Y-51.45
X54.75Y-31.7
X54.95Y-35.325
X55.1Y-91.15
X55.15Y-73.75
X55.2Y-54.55
X55.2Y-88.05
X55.25Y-24.0
X55.25Y-25.8
X55.3Y-55.2
X55.45Y-29.35
X55.45Y-86.9
X55.65Y-48.6
X55.65Y-70.75
X55.7Y-35.55
X55.75Y-62.5
X55.75Y-97.15
X55.75Y-102.3
X55.8Y-92.35
X55.85Y-56.7
X55.85Y-63.7
X55.9Y-64.7
X55.9Y-68.85
X55.9Y-110.95
X56.2Y-54.25
X56.223Y-87.107
X56.25Y-30.65
X56.25Y-35.35
X56.25Y-65.75
X56.45Y-93.5
X56.5Y-69.75
X56.6Y-90.05
X56.65Y-48.4
X56.7Y-92.25
X56.8Y-55.6
X56.832Y-63.577
X56.85Y-82.5
X56.9Y-27.35
X56.9Y-72.35
X57.0Y-50.75
X57.0Y-90.75
X57.1Y-68.35
X57.15Y-105.35
X57.25Y-28.35
X57.25Y-30.15
X57.45Y-48.4
X57.45Y-50.3
X57.45Y-78.05
X57.45Y-83.4
X57.5Y-53.0
X57.5Y-69.043
X57.55Y-81.8
X57.55Y-82.45
X57.55Y-85.55
X57.75Y-55.107
X57.75Y-90.6
X57.85Y-77.4
X57.9Y-28.35
X57.95Y-71.15
X57.95Y-99.7
X58.0Y-71.85
X58.05Y-73.75
X58.05Y-80.0
X58.05Y-93.9
X58.1Y-61.137
X58.1Y-66.85
X58.3Y-51.6
X58.3Y-103.65
X58.5Y-59.25
X58.55Y-85.1
X58.6Y-95.55
X58.7Y-76.05
X58.7Y-94.95
X58.75Y-66.85
X58.75Y-101.65
X58.8Y-60.9
X58.95Y-52.2
X59.0Y-86.0
X59.0Y-90.1
X59.2Y-55.8
X59.3Y-75.85
X59.307Y-55.15
X59.35Y-83.1
X59.4Y-66.862
X59.6Y-91.0
X59.607Y-52.75
X59.758Y-53.45
X59.85Y-99.7
X59.9Y-64.3
X59.9Y-65.1
X59.95Y-36.7
X60.0Y-54.75
X60.0Y-105.75
X60.05Y-66.462
X60.1Y-41.4
X60.1Y-100.3
X60.182Y-59.218
X60.2Y-42.0
X60.361Y-76.911
X60.4Y-104.05
X60.45Y-35.15
X60.5Y-90.75
X60.65Y-68.4
X60.7Y-61.15
X60.75Y-53.25
X60.75Y-64.25
X60.9Y-73.95
X61.0Y-51.35
X61.0Y-71.6
X61.0Y-76.5
X61.05Y-31.7
X61.05Y-55.2
X61.25Y-68.7
X61.25Y-88.45
X61.323Y-72.807
X61.5Y-79.9
X61.5Y-80.7
X61.95Y-67.1
X62.016Y-56.466
X62.1Y-71.35
X62.15Y-101.3
X62.25Y-29.7
X62.334Y-62.534
X62.35Y-64.45
X62.6Y-45.65
X62.6Y-89.45
X62.7Y-107.75
X62.75Y-93.25
X62.8Y-78.4
X62.9Y-57.35
X62.9Y-63.1
X63.05Y-29.45
X63.1Y-45.35
X63.15Y-97.95
X63.3Y-30.6
X63.45Y-97.4
X63.8Y-80.15
X63.8Y-82.55
X63.95Y-70.75
X63.95Y-90.1
X64.2Y-103.55
X64.25Y-72.35
X64.3Y-95.55
X64.5Y-83.1
X64.55Y-54.9
X64.55Y-55.7
X64.7Y-69.451
X64.7Y-101.5
X64.75Y-95.1
X64.8Y-64.9
X65.15Y-100.4
X65.2Y-103.35
X65.5Y-102.3
X65.6Y-74.1
X65.65Y-98.15
X65.686Y-73.014
X65.75Y-72.4
X65.75Y-84.1
X65.75Y-90.95
X65.891Y-93.959
X66.05Y-66.15
X66.05Y-91.5
X66.2Y-94.75
X66.216Y-98.716
X66.25Y-74.1
X66.6Y-95.8
X66.7Y-91.0
X66.75Y-74.65
X66.8Y-104.35
X66.95Y-74.1
X67.1Y-71.6
X67.2Y-85.6
X67.7Y-72.55
X67.7Y-86.8
X67.775Y-48.5
X67.8Y-49.4
X67.8Y-50.35
X67.85Y-103.95
X67.95Y-74.1
X68.0Y-85.6
X68.1Y-57.1
X68.15Y-62.3
X68.15Y-91.9
X68.15Y-96.1
X68.2Y-24.25
X68.3Y-98.25
X68.35Y-51.0
X68.4Y-74.45
X68.45Y-54.3
X68.6Y-88.95
X68.65Y-46.25
X69.2Y-56.3
X69.35Y-48.5
X69.55Y-49.275
X69.55Y-71.65
X69.8Y-24.25
X69.85Y-103.95
X70.05Y-85.65
X70.05Y-88.55
X70.2Y-87.05
X70.55Y-88.2
X70.6Y-97.45
X70.606Y-73.388
X70.8Y-48.7
X70.85Y-84.4
X71.0Y-87.75
X71.15Y-47.3
X71.2Y-73.25
X71.2Y-74.9
X71.2Y-87.15
X71.2Y-97.55
X71.25Y-75.95
X71.45Y-46.65
X71.65Y-54.7
X71.8Y-73.05
X72.1Y-86.4
X72.15Y-63.25
X72.65Y-74.1
X73.0Y-64.45
X73.1Y-72.3
X73.45Y-26.65
X73.5Y-70.15
X73.65Y-71.25
X73.7Y-59.05
X73.7Y-95.1
X73.95Y-88.25
X74.25Y-72.6
X74.25Y-76.15
X74.3Y-59.2
X74.65Y-59.7
X74.75Y-73.05
X74.75Y-81.25
X74.8Y-72.3
X74.8Y-74.1
X75.85Y-68.15
X75.85Y-74.65
X76.0Y-70.15
X76.25Y-66.95
X76.35Y-67.8
X76.35Y-71.45
X76.4Y-61.65
X76.45Y-86.85
X76.85Y-30.95
X76.95Y-73.95
X77.15Y-58.55
X77.25Y-65.25
X77.65Y-59.45
X77.75Y-58.45
X77.8Y-60.05
X77.9Y-62.05
X78.0Y-79.25
X78.3Y-69.5
X112.6Y-23.75
X113.4Y-23.25
X113.775Y-22.75
X113.85Y-24.457
X114.75Y-24.25
X115.25Y-21.75
X115.75Y-21.1
X116.25Y-31.75
X116.7Y-22.25
X116.75Y-30.85
X117.05Y-14.4
X117.25Y-30.0
X117.75Y-31.75
X117.95Y-14.65
X118.25Y-30.8
X118.75Y-32.75
X118.75Y-33.75
X118.75Y-34.75
X118.75Y-35.75
X118.75Y-37.25
X119.4Y-36.75
X119.5Y-15.6
X119.7Y-32.25
X119.7Y-33.25
X119.7Y-34.25
X120.05Y-14.05
X121.0Y-16.65
X121.6Y-13.55
X123.25Y-14.8
X123.9Y-13.55
X124.137Y-19.05
X124.9Y-41.3
X126.25Y-13.85
X126.637Y-29.05
X127.05Y-42.15
X129.0Y-47.85
X129.3Y-36.0
X129.3Y-38.5
X129.8Y-45.9
X130.3Y-13.95
X130.7Y-21.6
X131.862Y-30.35
X131.862Y-31.65
X132.5Y-26.3
X132.8Y-14.1
X133.75Y-14.1
X134.25Y-14.8
X134.75Y-14.4
T2
X18.9Y-61.2
X19.0Y-94.05
X19.0Y-97.95
X19.0Y-102.7
X19.0Y-104.65
X19.175Y-29.8
X20.0Y-47.55
X20.1Y-106.6
X20.5Y-59.7
X20.8Y-49.5
X20.9Y-106.7
X21.0Y-27.7
X21.0Y-50.3
X21.0Y-53.8
X21.2Y-109.0
X21.4Y-92.4
X21.4Y-102.5
X21.6Y-70.3
X21.7Y-55.5
X21.8Y-50.2
X21.9Y-72.5
X22.0Y-27.7
X22.0Y-44.8
X22.0Y-56.3
X22.1Y-95.9
X22.3Y-51.8
X22.3Y-62.1
X23.0Y-27.7
X23.6Y-50.45
X23.6Y-53.55
X23.6Y-59.45
X23.6Y-62.55
X24.0Y-65.2
X24.2Y-106.0
X24.4Y-50.45
X24.4Y-53.55
X24.4Y-59.45
X24.4Y-62.55
X24.5Y-110.0
X24.6Y-102.0
X24.65Y-95.8
X24.7Y-100.4
X24.7Y-109.0
X24.9Y-93.3
X24.95Y-92.65
X25.0Y-31.0
X25.0Y-97.3
X25.6Y-106.6
X25.7Y-80.0
X25.8Y-54.4
X25.8Y-56.1
X25.9Y-52.05
X25.9Y-61.05
X25.9Y-72.5
X25.95Y-62.4
X26.0Y-65.2
X26.05Y-60.25
X26.1Y-48.6
X26.1Y-53.4
X26.2Y-74.9
X26.75Y-97.95
X27.0Y-30.525
X27.0Y-58.8
X27.0Y-95.8
X27.0Y-102.7
X27.0Y-104.65
X27.2Y-90.4
X27.5Y-102.1
X27.75Y-62.7
X27.8Y-49.05
X27.9Y-50.6
X28.05Y-55.6
X28.1Y-98.9
X28.2Y-32.675
X28.2Y-109.2
X28.35Y-86.3
X28.85Y-38.5
X29.15Y-29.25
X29.25Y-40.15
X29.4Y-88.2
X29.65Y-36.25
X29.7Y-34.45
X29.8Y-71.0
X29.9Y-54.2
X29.9Y-72.5
X30.0Y-29.25
X30.1Y-66.9
X30.25Y-40.1
X30.25Y-48.35
X30.4Y-37.75
X30.5Y-34.45
X30.5Y-59.1
X30.85Y-29.25
X31.2Y-51.35
X31.3Y-34.45
X31.35Y-81.85
X31.9Y-33.0
X32.25Y-46.45
X32.3Y-33.9
X32.6Y-96.1
X32.65Y-31.2
X32.95Y-42.05
X32.95Y-51.45
X33.0Y-40.45
X33.05Y-39.2
X33.05Y-52.25
X33.15Y-54.35
X33.45Y-43.2
X33.5Y-102.1
X33.55Y-37.35
X33.7Y-65.4
X34.4Y-70.2
X34.55Y-30.9
X34.8Y-48.85
X35.85Y-41.35
X37.1Y-50.4
X37.55Y-41.35
X38.3Y-37.25
X38.3Y-60.8
X38.3Y-106.1
X38.4Y-96.0
X38.5Y-34.1
X38.7Y-101.95
X38.95Y-39.55
X39.1Y-106.8
X39.1Y-110.4
X39.15Y-33.45
X40.0Y-32.55
X40.0Y-41.35
X40.0Y-95.6
X40.35Y-55.0
X40.8Y-107.3
X41.0Y-109.6
X41.6Y-107.4
X41.8Y-9.95
X41.8Y-14.13
X41.9Y-109.6
X42.1Y-31.0
X42.35Y-92.0
X42.8Y-104.8
X42.8Y-109.6
X43.45Y-31.5
X43.6Y-109.6
X43.75Y-16.3
X43.8Y-95.55
X44.4Y-109.6
X44.55Y-16.7
X44.55Y-17.5
X45.3Y-109.6
X45.35Y-100.3
X45.8Y-106.6
X46.2Y-109.6
X47.0Y-109.6
X47.8Y-109.6
X48.7Y-109.6
X49.45Y-16.7
X49.45Y-17.5
X49.5Y-109.6
X49.55Y-90.8
X50.0Y-104.6
X50.25Y-16.3
X50.4Y-109.6
X50.6Y-102.6
X51.2Y-109.6
X52.0Y-103.4
X52.1Y-109.6
X52.2Y-9.95
X52.2Y-14.13
X52.9Y-109.6
X53.1Y-100.9
X53.1Y-102.6
X53.1Y-103.4
X53.2Y-109.0
X53.4Y-62.7
X54.4Y-68.7
X54.8Y-27.8
X54.9Y-96.4
X54.9Y-110.4
X55.1Y-102.1
X55.35Y-105.55
X55.6Y-103.9
X55.7Y-32.2
X55.7Y-88.6
X56.0Y-60.0
X56.0Y-107.2
X56.3Y-38.85
X56.4Y-102.1
X56.8Y-99.55
X57.0Y-102.6
X57.1Y-71.7
X57.2Y-76.4
X57.2Y-98.75
X57.4Y-59.9
X58.0Y-99.0
X58.2Y-105.85
X58.6Y-35.5
X59.0Y-30.6
X59.4Y-107.75
X60.0Y-25.5
X60.0Y-30.5
X60.0Y-46.35
X60.0Y-103.5
X60.65Y-44.0
X60.7Y-27.2
X60.75Y-63.55
X61.0Y-95.225
X61.0Y-96.775
X61.0Y-100.7
X61.2Y-31.1
X61.3Y-92.5
X61.3Y-106.8
X61.4Y-66.7
X61.6Y-29.45
X61.6Y-32.2
X61.675Y-39.0
X61.7Y-105.5
X61.85Y-59.5
X62.05Y-48.2
X62.1Y-75.2
X62.1Y-104.6
X62.2Y-31.55
X62.2Y-98.5
X62.3Y-91.5
X62.75Y-76.8
X62.75Y-99.05
X63.0Y-50.35
X63.0Y-94.1
X63.15Y-65.15
X63.3Y-109.4
X63.325Y-37.3
X63.4Y-101.7
X63.6Y-106.6
X63.75Y-57.3
X63.75Y-76.8
X63.9Y-34.9
X64.05Y-31.55
X64.15Y-100.9
X64.35Y-97.35
X64.45Y-70.25
X64.45Y-85.85
X64.55Y-36.2
X64.6Y-52.2
X64.6Y-57.3
X64.7Y-108.2
X64.75Y-76.8
X64.9Y-34.9
X65.4Y-62.3
X65.7Y-34.9
X65.75Y-76.8
X66.1Y-64.3
X66.35Y-63.05
X66.4Y-70.7
X66.4Y-106.6
X66.5Y-30.8
X66.6Y-100.2
X66.65Y-109.35
X66.7Y-68.1
X66.7Y-101.0
X66.75Y-76.8
X67.1Y-50.3
X67.1Y-53.8
X67.5Y-31.65
X67.5Y-34.5
X67.5Y-68.9
X67.6Y-110.4
X67.75Y-76.8
X68.0Y-35.0
X68.15Y-59.4
X68.15Y-67.95
X68.3Y-68.9
X68.45Y-31.4
X68.75Y-76.8
X69.0Y-102.65
X69.4Y-61.825
X69.4Y-108.2
X69.5Y-69.4
X69.5Y-107.2
X69.5Y-108.9
X69.6Y-50.45
X69.6Y-53.55
X69.6Y-60.175
X69.7Y-64.2
X69.75Y-76.8
X70.0Y-44.8
X70.4Y-50.45
X70.4Y-53.55
X70.75Y-76.8
X71.2Y-105.5
X71.275Y-68.15
X71.6Y-65.825
X71.75Y-76.8
X71.8Y-56.9
X71.9Y-52.05
X72.0Y-44.8
X72.05Y-51.25
X72.1Y-72.4
X72.45Y-36.75
X72.75Y-76.8
X72.85Y-69.2
X73.0Y-50.3
X73.1Y-33.45
X73.7Y-77.7
X73.75Y-76.8
X74.0Y-61.05
X74.2Y-54.6
X74.45Y-77.8
X74.7Y-64.4
X75.25Y-29.4
X75.25Y-36.6
X75.5Y-62.7
X75.75Y-76.8
X75.9Y-31.55
X76.35Y-60.175
X76.75Y-76.8
X77.2Y-101.5
X78.0Y-101.5
X78.8Y-101.5
X92.237Y-58.0
X92.237Y-64.0
X93.037Y-58.0
X93.037Y-64.0
X93.5Y-25.5
X93.837Y-58.0
X93.837Y-64.0
X94.0Y-82.0
X94.0Y-88.0
X94.3Y-25.5
X94.6Y-19.0
X95.0Y-46.1
X95.05Y-40.2
X95.1Y-25.5
X95.4Y-19.0
X96.0Y-95.5
X96.15Y-43.5
X96.2Y-19.0
X96.4Y-50.7
X96.5Y-90.8
X97.0Y-86.2
X97.2Y-50.7
X97.25Y-84.0
X97.8Y-81.425
X97.8Y-87.6
X98.0Y-19.0
X98.0Y-50.7
X98.5Y-90.8
X98.8Y-19.0
X98.8Y-87.8
X99.5Y-90.3
X99.6Y-19.0
X100.5Y-28.0
X100.95Y-43.65
X101.2Y-88.6
X101.3Y-28.0
X101.5Y-90.8
X101.6Y-38.2
X102.1Y-28.0
X102.137Y-43.0
X102.237Y-58.0
X102.237Y-64.0
X102.5Y-90.8
X103.0Y-45.35
X103.037Y-58.0
X103.037Y-64.0
X103.837Y-58.0
X103.837Y-64.0
X104.0Y-40.15
X104.0Y-82.0
X104.0Y-88.0
X104.6Y-54.45
X105.2Y-10.9
X105.2Y-19.5
X105.7Y-50.9
X106.0Y-10.9
X106.0Y-19.5
X106.0Y-32.6
X106.0Y-41.225
X106.0Y-47.1
X106.8Y-19.5
X107.0Y-36.2
X107.8Y-36.2
X107.85Y-39.35
X107.85Y-40.85
X108.5Y-27.6
X108.85Y-25.2
X110.35Y-26.5
X110.35Y-36.6
X110.35Y-37.8
X110.6Y-22.7
X111.0Y-17.65
X111.0Y-18.85
X111.5Y-41.7
X111.8Y-25.15
X111.9Y-21.2
X111.95Y-39.2
X112.3Y-41.7
X112.65Y-22.0
X113.1Y-41.7
X113.35Y-32.05
X113.55Y-21.7
X114.1Y-38.3
X115.0Y-17.35
X115.0Y-23.0
X115.75Y-37.25
X115.8Y-34.3
X115.8Y-35.0
X115.8Y-35.7
X115.85Y-25.6
X116.15Y-20.05
X116.5Y-34.3
X116.5Y-35.0
X116.5Y-35.7
X117.2Y-34.3
X117.2Y-35.0
X117.2Y-35.7
X117.25Y-28.55
X117.25Y-37.25
X117.6Y-24.95
X118.1Y-35.25
X118.75Y-25.6
X120.05Y-42.9
X120.35Y-33.05
X120.35Y-34.05
X120.4Y-34.85
X120.45Y-38.15
X120.65Y-18.2
X120.75Y-39.25
X121.2Y-36.5
X121.25Y-15.55
X121.65Y-42.65
X121.75Y-29.45
X121.9Y-15.0
X122.0Y-19.85
X122.0Y-34.85
X122.1Y-24.95
X122.85Y-18.2
X122.95Y-20.7
X122.95Y-21.5
X122.95Y-22.65
X123.9Y-33.15
X124.25Y-18.35
X124.9Y-42.05
X124.95Y-30.0
X124.95Y-31.95
X126.15Y-14.95
X126.4Y-47.4
X126.95Y-40.7
X127.05Y-37.6
X127.35Y-30.45
X127.35Y-32.15
X128.2Y-24.05
X128.65Y-20.9
X129.3Y-14.95
X129.35Y-40.6
X129.4Y-43.7
X130.1Y-14.95
X130.7Y-32.7
X131.2Y-44.8
X131.25Y-14.95
X131.8Y-21.7
X131.8Y-23.1
X131.8Y-28.4
X132.3Y-42.7
X132.95Y-27.25
X133.5Y-14.95
X134.25Y-32.15
X134.35Y-42.5
X134.35Y-45.75
X134.85Y-34.0
X135.7Y-36.5
X135.85Y-33.0
X136.0Y-33.8
X137.5Y-34.2
T3
X74.9Y-51.15
T5
X42.15Y-71.81
X42.15Y-73.59
X42.15Y-75.37
X42.15Y-77.15
X42.15Y-78.93
X42.15Y-80.71
X42.15Y-82.49
X42.15Y-84.27
X52.85Y-72.7
X52.85Y-74.48
X52.85Y-76.26
X52.85Y-78.04
X52.85Y-79.82
X52.85Y-81.6
X52.85Y-83.38
X52.85Y-85.16
T6
X31.19Y-21.73
X31.19Y-24.27
X33.73Y-21.73
X33.73Y-24.27
X36.27Y-21.73
X36.27Y-24.27
X38.81Y-21.73
X38.81Y-24.27
X79.23Y-52.72
X79.23Y-55.26
X79.23Y-57.8
X79.23Y-60.34
X79.23Y-62.88
X79.23Y-65.42
X79.23Y-67.96
X79.23Y-70.5
X79.23Y-73.04
X79.23Y-75.58
X79.23Y-78.12
X79.23Y-80.66
X79.23Y-83.2
X79.23Y-85.74
X79.23Y-88.28
X81.77Y-52.72
X81.77Y-55.26
X81.77Y-57.8
X81.77Y-60.34
X81.77Y-62.88
X81.77Y-65.42
X81.77Y-67.96
X81.77Y-70.5
X81.77Y-73.04
X81.77Y-75.58
X81.77Y-78.12
X81.77Y-80.66
X81.77Y-83.2
X81.77Y-85.74
X81.77Y-88.28
X95.19Y-93.23
X95.19Y-95.77
X97.73Y-93.23
X97.73Y-95.77
X100.27Y-93.23
X100.27Y-95.77
X102.81Y-93.23
X102.81Y-95.77
X106.72Y-9.73
X106.72Y-12.27
X109.26Y-9.73
X109.26Y-12.27
X111.8Y-9.73
X111.8Y-12.27
X114.34Y-9.73
X114.34Y-12.27
X116.88Y-9.73
X116.88Y-12.27
X119.42Y-9.73
X119.42Y-12.27
X121.96Y-9.73
X121.96Y-12.27
X124.5Y-9.73
X124.5Y-12.27
X127.04Y-9.73
X127.04Y-12.27
X129.58Y-9.73
X129.58Y-12.27
X132.12Y-9.73
X132.12Y-12.27
X134.66Y-9.73
X134.66Y-12.27
X137.2Y-9.73
X137.2Y-12.27
X139.74Y-9.73
X139.74Y-12.27
X142.28Y-9.73
X142.28Y-12.27
T7
X114.46Y-60.0
X117.0Y-60.0
X119.54Y-60.0
T8
X22.73Y-42.5
X22.73Y-67.5
X25.27Y-42.5
X25.27Y-67.5
X68.73Y-42.5
X71.27Y-42.5
X76.73Y-49.0
X79.27Y-49.0
X95.73Y-17.35
X98.27Y-17.35
T4
X42.68Y-10.25G85X42.68Y-9.65
G05
X42.68Y-14.68G85X42.68Y-13.58
G05
X51.32Y-10.25G85X51.32Y-9.65
G05
X51.32Y-14.68G85X51.32Y-13.58
G05
M30
