%TF.GenerationSoftware,KiCad,Pcbnew,10.0.6*%
%TF.CreationDate,2026-09-12T15:14:29+02:00*%
%TF.ProjectId,Panel,50616e65-6c2e-46b6-9963-61645f706362,rev?*%
%TF.SameCoordinates,Original*%
%TF.FileFunction,Legend,Bot*%
%TF.FilePolarity,Positive*%
%FSLAX46Y46*%
G04 Gerber Fmt 4.6, Leading zero omitted, Abs format (unit mm)*
G04 Created by KiCad (PCBNEW 10.0.6) date 2026-09-12 15:14:29*
%MOMM*%
%LPD*%
G01*
G04 APERTURE LIST*
%ADD10C,0.120000*%
G04 APERTURE END LIST*
%TO.C,M_TP3*%
D10*
X35100000Y-91000000D02*
G75*
G02*
X33700000Y-91000000I-700000J0D01*
G01*
X33700000Y-91000000D02*
G75*
G02*
X35100000Y-91000000I700000J0D01*
G01*
%TO.C,M_TP43*%
X61200000Y-67500000D02*
G75*
G02*
X59800000Y-67500000I-700000J0D01*
G01*
X59800000Y-67500000D02*
G75*
G02*
X61200000Y-67500000I700000J0D01*
G01*
%TO.C,M_TP7*%
X52400000Y-107800000D02*
G75*
G02*
X51000000Y-107800000I-700000J0D01*
G01*
X51000000Y-107800000D02*
G75*
G02*
X52400000Y-107800000I700000J0D01*
G01*
%TO.C,M_TP11*%
X68700000Y-91000000D02*
G75*
G02*
X67300000Y-91000000I-700000J0D01*
G01*
X67300000Y-91000000D02*
G75*
G02*
X68700000Y-91000000I700000J0D01*
G01*
%TO.C,M_TP17*%
X65400000Y-85850000D02*
G75*
G02*
X64000000Y-85850000I-700000J0D01*
G01*
X64000000Y-85850000D02*
G75*
G02*
X65400000Y-85850000I700000J0D01*
G01*
%TO.C,M_TP26*%
X39300000Y-99000000D02*
G75*
G02*
X37900000Y-99000000I-700000J0D01*
G01*
X37900000Y-99000000D02*
G75*
G02*
X39300000Y-99000000I700000J0D01*
G01*
%TO.C,M_TP20*%
X60300000Y-95000000D02*
G75*
G02*
X58900000Y-95000000I-700000J0D01*
G01*
X58900000Y-95000000D02*
G75*
G02*
X60300000Y-95000000I700000J0D01*
G01*
%TO.C,M_TP24*%
X40200000Y-61400000D02*
G75*
G02*
X38800000Y-61400000I-700000J0D01*
G01*
X38800000Y-61400000D02*
G75*
G02*
X40200000Y-61400000I700000J0D01*
G01*
%TO.C,M_TP8*%
X60169700Y-102969700D02*
G75*
G02*
X58769700Y-102969700I-700000J0D01*
G01*
X58769700Y-102969700D02*
G75*
G02*
X60169700Y-102969700I700000J0D01*
G01*
%TO.C,M_TP29*%
X51900000Y-99000000D02*
G75*
G02*
X50500000Y-99000000I-700000J0D01*
G01*
X50500000Y-99000000D02*
G75*
G02*
X51900000Y-99000000I700000J0D01*
G01*
%TO.C,M_TP22*%
X68700000Y-95000000D02*
G75*
G02*
X67300000Y-95000000I-700000J0D01*
G01*
X67300000Y-95000000D02*
G75*
G02*
X68700000Y-95000000I700000J0D01*
G01*
%TO.C,M_TP14*%
X33700000Y-35500000D02*
G75*
G02*
X32300000Y-35500000I-700000J0D01*
G01*
X32300000Y-35500000D02*
G75*
G02*
X33700000Y-35500000I700000J0D01*
G01*
%TO.C,M_TP1*%
X77100000Y-69125000D02*
G75*
G02*
X75700000Y-69125000I-700000J0D01*
G01*
X75700000Y-69125000D02*
G75*
G02*
X77100000Y-69125000I700000J0D01*
G01*
%TO.C,M_TP12*%
X26700000Y-95000000D02*
G75*
G02*
X25300000Y-95000000I-700000J0D01*
G01*
X25300000Y-95000000D02*
G75*
G02*
X26700000Y-95000000I700000J0D01*
G01*
%TO.C,M_TP13*%
X61330300Y-100830300D02*
G75*
G02*
X59930300Y-100830300I-700000J0D01*
G01*
X59930300Y-100830300D02*
G75*
G02*
X61330300Y-100830300I700000J0D01*
G01*
%TO.C,M_TP40*%
X69500000Y-82000000D02*
G75*
G02*
X68100000Y-82000000I-700000J0D01*
G01*
X68100000Y-82000000D02*
G75*
G02*
X69500000Y-82000000I700000J0D01*
G01*
%TO.C,M_TP31*%
X60300000Y-99000000D02*
G75*
G02*
X58900000Y-99000000I-700000J0D01*
G01*
X58900000Y-99000000D02*
G75*
G02*
X60300000Y-99000000I700000J0D01*
G01*
%TO.C,M_TP33*%
X68700000Y-99000000D02*
G75*
G02*
X67300000Y-99000000I-700000J0D01*
G01*
X67300000Y-99000000D02*
G75*
G02*
X68700000Y-99000000I700000J0D01*
G01*
%TO.C,M_TP21*%
X64500000Y-95000000D02*
G75*
G02*
X63100000Y-95000000I-700000J0D01*
G01*
X63100000Y-95000000D02*
G75*
G02*
X64500000Y-95000000I700000J0D01*
G01*
%TO.C,M_TP2*%
X70350000Y-87600000D02*
G75*
G02*
X68950000Y-87600000I-700000J0D01*
G01*
X68950000Y-87600000D02*
G75*
G02*
X70350000Y-87600000I700000J0D01*
G01*
%TO.C,M_TP28*%
X47700000Y-99000000D02*
G75*
G02*
X46300000Y-99000000I-700000J0D01*
G01*
X46300000Y-99000000D02*
G75*
G02*
X47700000Y-99000000I700000J0D01*
G01*
%TO.C,M_TP23*%
X42408300Y-93000000D02*
G75*
G02*
X41008300Y-93000000I-700000J0D01*
G01*
X41008300Y-93000000D02*
G75*
G02*
X42408300Y-93000000I700000J0D01*
G01*
%TO.C,M_TP41*%
X65500000Y-82000000D02*
G75*
G02*
X64100000Y-82000000I-700000J0D01*
G01*
X64100000Y-82000000D02*
G75*
G02*
X65500000Y-82000000I700000J0D01*
G01*
%TO.C,M_TP27*%
X43500000Y-99000000D02*
G75*
G02*
X42100000Y-99000000I-700000J0D01*
G01*
X42100000Y-99000000D02*
G75*
G02*
X43500000Y-99000000I700000J0D01*
G01*
%TO.C,M_TP30*%
X56100000Y-99000000D02*
G75*
G02*
X54700000Y-99000000I-700000J0D01*
G01*
X54700000Y-99000000D02*
G75*
G02*
X56100000Y-99000000I700000J0D01*
G01*
%TO.C,M_TP16*%
X36450000Y-87900000D02*
G75*
G02*
X35050000Y-87900000I-700000J0D01*
G01*
X35050000Y-87900000D02*
G75*
G02*
X36450000Y-87900000I700000J0D01*
G01*
%TO.C,M_TP9*%
X60300000Y-91000000D02*
G75*
G02*
X58900000Y-91000000I-700000J0D01*
G01*
X58900000Y-91000000D02*
G75*
G02*
X60300000Y-91000000I700000J0D01*
G01*
%TO.C,M_TP19*%
X56100000Y-95000000D02*
G75*
G02*
X54700000Y-95000000I-700000J0D01*
G01*
X54700000Y-95000000D02*
G75*
G02*
X56100000Y-95000000I700000J0D01*
G01*
%TO.C,M_TP4*%
X38455300Y-103030300D02*
G75*
G02*
X37055300Y-103030300I-700000J0D01*
G01*
X37055300Y-103030300D02*
G75*
G02*
X38455300Y-103030300I700000J0D01*
G01*
%TO.C,M_TP15*%
X39300000Y-95000000D02*
G75*
G02*
X37900000Y-95000000I-700000J0D01*
G01*
X37900000Y-95000000D02*
G75*
G02*
X39300000Y-95000000I700000J0D01*
G01*
%TO.C,M_TP10*%
X60650000Y-36700000D02*
G75*
G02*
X59250000Y-36700000I-700000J0D01*
G01*
X59250000Y-36700000D02*
G75*
G02*
X60650000Y-36700000I700000J0D01*
G01*
%TO.C,M_TP18*%
X48050000Y-96700000D02*
G75*
G02*
X46650000Y-96700000I-700000J0D01*
G01*
X46650000Y-96700000D02*
G75*
G02*
X48050000Y-96700000I700000J0D01*
G01*
%TO.C,M_TP42*%
X59700000Y-86000000D02*
G75*
G02*
X58300000Y-86000000I-700000J0D01*
G01*
X58300000Y-86000000D02*
G75*
G02*
X59700000Y-86000000I700000J0D01*
G01*
%TO.C,M_TP6*%
X69700000Y-102650000D02*
G75*
G02*
X68300000Y-102650000I-700000J0D01*
G01*
X68300000Y-102650000D02*
G75*
G02*
X69700000Y-102650000I700000J0D01*
G01*
%TO.C,M_TP32*%
X64500000Y-99000000D02*
G75*
G02*
X63100000Y-99000000I-700000J0D01*
G01*
X63100000Y-99000000D02*
G75*
G02*
X64500000Y-99000000I700000J0D01*
G01*
%TO.C,M_TP25*%
X35100000Y-99000000D02*
G75*
G02*
X33700000Y-99000000I-700000J0D01*
G01*
X33700000Y-99000000D02*
G75*
G02*
X35100000Y-99000000I700000J0D01*
G01*
%TO.C,M_TP5*%
X43500000Y-91000000D02*
G75*
G02*
X42100000Y-91000000I-700000J0D01*
G01*
X42100000Y-91000000D02*
G75*
G02*
X43500000Y-91000000I700000J0D01*
G01*
%TD*%
M02*
