%TF.GenerationSoftware,KiCad,Pcbnew,10.0.6*%
%TF.CreationDate,2026-09-12T15:14:29+02:00*%
%TF.ProjectId,Panel,50616e65-6c2e-46b6-9963-61645f706362,rev?*%
%TF.SameCoordinates,Original*%
%TF.FileFunction,Soldermask,Top*%
%TF.FilePolarity,Negative*%
%FSLAX46Y46*%
G04 Gerber Fmt 4.6, Leading zero omitted, Abs format (unit mm)*
G04 Created by KiCad (PCBNEW 10.0.6) date 2026-09-12 15:14:29*
%MOMM*%
%LPD*%
G01*
G04 APERTURE LIST*
G04 Aperture macros list*
%AMRoundRect*
0 Rectangle with rounded corners*
0 $1 Rounding radius*
0 $2 $3 $4 $5 $6 $7 $8 $9 X,Y pos of 4 corners*
0 Add a 4 corners polygon primitive as box body*
4,1,4,$2,$3,$4,$5,$6,$7,$8,$9,$2,$3,0*
0 Add four circle primitives for the rounded corners*
1,1,$1+$1,$2,$3*
1,1,$1+$1,$4,$5*
1,1,$1+$1,$6,$7*
1,1,$1+$1,$8,$9*
0 Add four rect primitives between the rounded corners*
20,1,$1+$1,$2,$3,$4,$5,0*
20,1,$1+$1,$4,$5,$6,$7,0*
20,1,$1+$1,$6,$7,$8,$9,0*
20,1,$1+$1,$8,$9,$2,$3,0*%
%AMOutline5P*
0 Free polygon, 5 corners , with rotation*
0 The origin of the aperture is its center*
0 number of corners: always 5*
0 $1 to $10 corner X, Y*
0 $11 Rotation angle, in degrees counterclockwise*
0 create outline with 5 corners*
4,1,5,$1,$2,$3,$4,$5,$6,$7,$8,$9,$10,$1,$2,$11*%
%AMOutline6P*
0 Free polygon, 6 corners , with rotation*
0 The origin of the aperture is its center*
0 number of corners: always 6*
0 $1 to $12 corner X, Y*
0 $13 Rotation angle, in degrees counterclockwise*
0 create outline with 6 corners*
4,1,6,$1,$2,$3,$4,$5,$6,$7,$8,$9,$10,$11,$12,$1,$2,$13*%
%AMOutline7P*
0 Free polygon, 7 corners , with rotation*
0 The origin of the aperture is its center*
0 number of corners: always 7*
0 $1 to $14 corner X, Y*
0 $15 Rotation angle, in degrees counterclockwise*
0 create outline with 7 corners*
4,1,7,$1,$2,$3,$4,$5,$6,$7,$8,$9,$10,$11,$12,$13,$14,$1,$2,$15*%
%AMOutline8P*
0 Free polygon, 8 corners , with rotation*
0 The origin of the aperture is its center*
0 number of corners: always 8*
0 $1 to $16 corner X, Y*
0 $17 Rotation angle, in degrees counterclockwise*
0 create outline with 8 corners*
4,1,8,$1,$2,$3,$4,$5,$6,$7,$8,$9,$10,$11,$12,$13,$14,$15,$16,$1,$2,$17*%
G04 Aperture macros list end*
%ADD10RoundRect,0.250000X-0.275000X-0.750000X0.275000X-0.750000X0.275000X0.750000X-0.275000X0.750000X0*%
%ADD11RoundRect,0.250000X-1.500000X-0.550000X1.500000X-0.550000X1.500000X0.550000X-1.500000X0.550000X0*%
%ADD12RoundRect,0.225000X-0.225000X-0.250000X0.225000X-0.250000X0.225000X0.250000X-0.225000X0.250000X0*%
%ADD13RoundRect,0.225000X0.250000X-0.225000X0.250000X0.225000X-0.250000X0.225000X-0.250000X-0.225000X0*%
%ADD14RoundRect,0.225000X0.225000X0.250000X-0.225000X0.250000X-0.225000X-0.250000X0.225000X-0.250000X0*%
%ADD15RoundRect,0.225000X-0.250000X0.225000X-0.250000X-0.225000X0.250000X-0.225000X0.250000X0.225000X0*%
%ADD16RoundRect,0.250000X0.250000X0.475000X-0.250000X0.475000X-0.250000X-0.475000X0.250000X-0.475000X0*%
%ADD17RoundRect,0.250000X-0.250000X-0.475000X0.250000X-0.475000X0.250000X0.475000X-0.250000X0.475000X0*%
%ADD18RoundRect,0.250000X0.475000X-0.250000X0.475000X0.250000X-0.475000X0.250000X-0.475000X-0.250000X0*%
%ADD19RoundRect,0.250000X-0.475000X0.250000X-0.475000X-0.250000X0.475000X-0.250000X0.475000X0.250000X0*%
%ADD20C,0.650000*%
%ADD21RoundRect,0.150000X0.150000X0.575000X-0.150000X0.575000X-0.150000X-0.575000X0.150000X-0.575000X0*%
%ADD22RoundRect,0.075000X0.075000X0.650000X-0.075000X0.650000X-0.075000X-0.650000X0.075000X-0.650000X0*%
%ADD23O,1.000000X2.100000*%
%ADD24O,1.000000X1.600000*%
%ADD25RoundRect,0.250000X1.000000X0.900000X-1.000000X0.900000X-1.000000X-0.900000X1.000000X-0.900000X0*%
%ADD26RoundRect,0.250000X-1.000000X-0.900000X1.000000X-0.900000X1.000000X0.900000X-1.000000X0.900000X0*%
%ADD27RoundRect,0.250000X0.900000X-1.000000X0.900000X1.000000X-0.900000X1.000000X-0.900000X-1.000000X0*%
%ADD28Outline5P,-0.375000X0.100000X0.275000X0.100000X0.375000X0.000000X0.375000X-0.100000X-0.375000X-0.100000X0.000000*%
%ADD29R,0.700000X0.200000*%
%ADD30Outline5P,-0.350000X0.100000X0.350000X0.100000X0.350000X0.000000X0.250000X-0.100000X-0.350000X-0.100000X0.000000*%
%ADD31Outline5P,-0.100000X0.250000X0.000000X0.350000X0.100000X0.350000X0.100000X-0.350000X-0.100000X-0.350000X0.000000*%
%ADD32R,0.200000X0.700000*%
%ADD33Outline5P,-0.100000X0.350000X0.000000X0.350000X0.100000X0.250000X0.100000X-0.350000X-0.100000X-0.350000X0.000000*%
%ADD34Outline5P,-0.350000X0.100000X0.350000X0.100000X0.350000X-0.100000X-0.250000X-0.100000X-0.350000X0.000000X0.000000*%
%ADD35Outline5P,-0.350000X0.000000X-0.250000X0.100000X0.350000X0.100000X0.350000X-0.100000X-0.350000X-0.100000X0.000000*%
%ADD36Outline5P,-0.100000X0.350000X0.100000X0.350000X0.100000X-0.250000X0.000000X-0.350000X-0.100000X-0.350000X0.000000*%
%ADD37Outline5P,-0.100000X0.350000X0.100000X0.350000X0.100000X-0.350000X0.000000X-0.350000X-0.100000X-0.250000X0.000000*%
%ADD38R,2.000000X2.000000*%
%ADD39C,2.000000*%
%ADD40R,0.550000X0.550000*%
%ADD41R,1.300000X1.300000*%
%ADD42C,1.300000*%
%ADD43RoundRect,0.050000X-0.250000X-0.075000X0.250000X-0.075000X0.250000X0.075000X-0.250000X0.075000X0*%
%ADD44RoundRect,0.050000X-0.075000X-0.250000X0.075000X-0.250000X0.075000X0.250000X-0.075000X0.250000X0*%
%ADD45RoundRect,0.050000X-1.800000X-2.800000X1.800000X-2.800000X1.800000X2.800000X-1.800000X2.800000X0*%
%ADD46RoundRect,0.050000X-0.250000X-0.100000X0.250000X-0.100000X0.250000X0.100000X-0.250000X0.100000X0*%
%ADD47RoundRect,0.050000X-0.075000X-0.275000X0.075000X-0.275000X0.075000X0.275000X-0.075000X0.275000X0*%
%ADD48RoundRect,0.050000X-0.100000X-1.150000X0.100000X-1.150000X0.100000X1.150000X-0.100000X1.150000X0*%
%ADD49RoundRect,0.150000X1.050000X-0.600000X1.050000X0.600000X-1.050000X0.600000X-1.050000X-0.600000X0*%
%ADD50R,2.200000X2.200000*%
%ADD51C,2.200000*%
%ADD52R,1.800000X1.800000*%
%ADD53C,1.800000*%
%ADD54RoundRect,0.050000X-0.375000X-0.050000X0.375000X-0.050000X0.375000X0.050000X-0.375000X0.050000X0*%
%ADD55RoundRect,0.050000X-0.050000X-0.275000X0.050000X-0.275000X0.050000X0.275000X-0.050000X0.275000X0*%
%ADD56RoundRect,0.062500X0.355000X0.062500X-0.355000X0.062500X-0.355000X-0.062500X0.355000X-0.062500X0*%
%ADD57RoundRect,0.062500X0.062500X0.355000X-0.062500X0.355000X-0.062500X-0.355000X0.062500X-0.355000X0*%
%ADD58R,1.680000X1.680000*%
%ADD59RoundRect,0.062500X-0.355000X-0.062500X0.355000X-0.062500X0.355000X0.062500X-0.355000X0.062500X0*%
%ADD60RoundRect,0.062500X-0.062500X-0.355000X0.062500X-0.355000X0.062500X0.355000X-0.062500X0.355000X0*%
%ADD61RoundRect,0.087500X-0.225000X-0.087500X0.225000X-0.087500X0.225000X0.087500X-0.225000X0.087500X0*%
%ADD62RoundRect,0.087500X-0.087500X-0.225000X0.087500X-0.225000X0.087500X0.225000X-0.087500X0.225000X0*%
%ADD63RoundRect,0.100000X0.100000X-0.637500X0.100000X0.637500X-0.100000X0.637500X-0.100000X-0.637500X0*%
%ADD64RoundRect,0.100000X-0.637500X-0.100000X0.637500X-0.100000X0.637500X0.100000X-0.637500X0.100000X0*%
%ADD65RoundRect,0.087500X-0.537500X-0.087500X0.537500X-0.087500X0.537500X0.087500X-0.537500X0.087500X0*%
%ADD66RoundRect,0.062500X-0.237500X-0.062500X0.237500X-0.062500X0.237500X0.062500X-0.237500X0.062500X0*%
%ADD67R,0.900000X1.600000*%
%ADD68RoundRect,0.062500X-0.062500X-0.212500X0.062500X-0.212500X0.062500X0.212500X-0.062500X0.212500X0*%
%ADD69R,0.800000X0.600000*%
%ADD70RoundRect,0.150000X-0.587500X-0.150000X0.587500X-0.150000X0.587500X0.150000X-0.587500X0.150000X0*%
%ADD71RoundRect,0.150000X0.587500X0.150000X-0.587500X0.150000X-0.587500X-0.150000X0.587500X-0.150000X0*%
%ADD72RoundRect,0.150000X0.150000X-0.587500X0.150000X0.587500X-0.150000X0.587500X-0.150000X-0.587500X0*%
%ADD73RoundRect,0.150000X0.150000X-0.512500X0.150000X0.512500X-0.150000X0.512500X-0.150000X-0.512500X0*%
%ADD74RoundRect,0.150000X-0.512500X-0.150000X0.512500X-0.150000X0.512500X0.150000X-0.512500X0.150000X0*%
%ADD75RoundRect,0.150000X0.512500X0.150000X-0.512500X0.150000X-0.512500X-0.150000X0.512500X-0.150000X0*%
%ADD76RoundRect,0.112500X-0.350000X-0.112500X0.350000X-0.112500X0.350000X0.112500X-0.350000X0.112500X0*%
%ADD77RoundRect,0.087500X-0.425000X-0.087500X0.425000X-0.087500X0.425000X0.087500X-0.425000X0.087500X0*%
%ADD78RoundRect,0.087500X0.087500X-0.425000X0.087500X0.425000X-0.087500X0.425000X-0.087500X-0.425000X0*%
%ADD79RoundRect,0.075000X-0.075000X-0.075000X0.075000X-0.075000X0.075000X0.075000X-0.075000X0.075000X0*%
%ADD80R,0.800000X0.400000*%
%ADD81R,0.400000X0.800000*%
%ADD82Outline5P,-0.600000X0.204000X-0.204000X0.600000X0.600000X0.600000X0.600000X-0.600000X-0.600000X-0.600000X180.000000*%
%ADD83R,1.200000X1.200000*%
%ADD84R,0.800000X0.800000*%
%ADD85RoundRect,0.200000X0.275000X-0.200000X0.275000X0.200000X-0.275000X0.200000X-0.275000X-0.200000X0*%
%ADD86RoundRect,0.200000X-0.200000X-0.275000X0.200000X-0.275000X0.200000X0.275000X-0.200000X0.275000X0*%
%ADD87RoundRect,0.200000X-0.275000X0.200000X-0.275000X-0.200000X0.275000X-0.200000X0.275000X0.200000X0*%
%ADD88RoundRect,0.200000X0.200000X0.275000X-0.200000X0.275000X-0.200000X-0.275000X0.200000X-0.275000X0*%
%ADD89RoundRect,0.250000X-0.362500X-1.425000X0.362500X-1.425000X0.362500X1.425000X-0.362500X1.425000X0*%
%ADD90C,1.000000*%
G04 APERTURE END LIST*
D10*
%TO.C,M_SW1*%
X63275000Y-91500000D03*
X67725000Y-91500000D03*
%TD*%
%TO.C,M_SW2*%
X63275000Y-96000000D03*
X67725000Y-96000000D03*
%TD*%
D11*
%TO.C,W_C90*%
X94200000Y-28000000D03*
X99800000Y-28000000D03*
%TD*%
D12*
%TO.C,M_C27*%
X64225000Y-110000000D03*
X65775000Y-110000000D03*
%TD*%
%TO.C,M_C80*%
X43025000Y-59600000D03*
X44575000Y-59600000D03*
%TD*%
%TO.C,M_C83*%
X55025000Y-79820000D03*
X56575000Y-79820000D03*
%TD*%
D13*
%TO.C,M_C82*%
X33500000Y-76275000D03*
X33500000Y-74725000D03*
%TD*%
D14*
%TO.C,M_C29*%
X23775000Y-92400000D03*
X22225000Y-92400000D03*
%TD*%
D12*
%TO.C,M_C18*%
X66225000Y-48500000D03*
X67775000Y-48500000D03*
%TD*%
D13*
%TO.C,W_C48*%
X122000000Y-37275000D03*
X122000000Y-35725000D03*
%TD*%
%TO.C,W_C58*%
X115000000Y-19775000D03*
X115000000Y-18225000D03*
%TD*%
%TO.C,M_C89*%
X68000000Y-61775000D03*
X68000000Y-60225000D03*
%TD*%
D14*
%TO.C,W_C41*%
X112775000Y-36600000D03*
X111225000Y-36600000D03*
%TD*%
D13*
%TO.C,M_C7*%
X27000000Y-52775000D03*
X27000000Y-51225000D03*
%TD*%
D12*
%TO.C,M_C36*%
X60225000Y-56000000D03*
X61775000Y-56000000D03*
%TD*%
D14*
%TO.C,W_C59*%
X112775000Y-26500000D03*
X111225000Y-26500000D03*
%TD*%
D13*
%TO.C,W_C46*%
X109500000Y-33775000D03*
X109500000Y-32225000D03*
%TD*%
%TO.C,W_C47*%
X112000000Y-35025000D03*
X112000000Y-33475000D03*
%TD*%
D12*
%TO.C,M_C53*%
X53475000Y-60000000D03*
X55025000Y-60000000D03*
%TD*%
%TO.C,M_C85*%
X55025000Y-81600000D03*
X56575000Y-81600000D03*
%TD*%
D13*
%TO.C,W_C51*%
X124000000Y-41775000D03*
X124000000Y-40225000D03*
%TD*%
%TO.C,M_C6*%
X57000000Y-108775000D03*
X57000000Y-107225000D03*
%TD*%
D12*
%TO.C,M_C75*%
X68225000Y-24250000D03*
X69775000Y-24250000D03*
%TD*%
%TO.C,M_C34*%
X35975000Y-42250000D03*
X37525000Y-42250000D03*
%TD*%
%TO.C,M_C86*%
X55025000Y-78040000D03*
X56575000Y-78040000D03*
%TD*%
D13*
%TO.C,M_C25*%
X31250000Y-37025000D03*
X31250000Y-35475000D03*
%TD*%
D14*
%TO.C,W_C43*%
X112775000Y-40000000D03*
X111225000Y-40000000D03*
%TD*%
D13*
%TO.C,M_C72*%
X48750000Y-91525000D03*
X48750000Y-89975000D03*
%TD*%
%TO.C,M_C32*%
X28750000Y-52525000D03*
X28750000Y-50975000D03*
%TD*%
%TO.C,M_C4*%
X60000000Y-96775000D03*
X60000000Y-95225000D03*
%TD*%
%TO.C,M_C35*%
X60000000Y-48775000D03*
X60000000Y-47225000D03*
%TD*%
D12*
%TO.C,M_C87*%
X52725000Y-61800000D03*
X54275000Y-61800000D03*
%TD*%
D13*
%TO.C,M_C13*%
X73000000Y-52775000D03*
X73000000Y-51225000D03*
%TD*%
%TO.C,W_C67*%
X104000000Y-42575000D03*
X104000000Y-41025000D03*
%TD*%
%TO.C,M_C19*%
X54000000Y-53775000D03*
X54000000Y-52225000D03*
%TD*%
D12*
%TO.C,M_C16*%
X20225000Y-48500000D03*
X21775000Y-48500000D03*
%TD*%
D13*
%TO.C,M_C28*%
X68500000Y-108775000D03*
X68500000Y-107225000D03*
%TD*%
D12*
%TO.C,M_C81*%
X35475000Y-77250000D03*
X37025000Y-77250000D03*
%TD*%
D13*
%TO.C,M_C71*%
X56000000Y-93025000D03*
X56000000Y-91475000D03*
%TD*%
D14*
%TO.C,M_C21*%
X58275000Y-56500000D03*
X56725000Y-56500000D03*
%TD*%
D13*
%TO.C,W_C65*%
X106000000Y-42775000D03*
X106000000Y-41225000D03*
%TD*%
D14*
%TO.C,M_C55*%
X40025000Y-47000000D03*
X38475000Y-47000000D03*
%TD*%
D13*
%TO.C,M_C10*%
X27000000Y-61275000D03*
X27000000Y-59725000D03*
%TD*%
%TO.C,W_C57*%
X111000000Y-21275000D03*
X111000000Y-19725000D03*
%TD*%
%TO.C,M_C63*%
X27000000Y-48275000D03*
X27000000Y-46725000D03*
%TD*%
D12*
%TO.C,M_C15*%
X69225000Y-55000000D03*
X70775000Y-55000000D03*
%TD*%
%TO.C,M_C33*%
X55225000Y-49500000D03*
X56775000Y-49500000D03*
%TD*%
D13*
%TO.C,M_C76*%
X51250000Y-34025000D03*
X51250000Y-32475000D03*
%TD*%
D14*
%TO.C,W_C42*%
X112775000Y-38300000D03*
X111225000Y-38300000D03*
%TD*%
D13*
%TO.C,M_C22*%
X60700000Y-29575000D03*
X60700000Y-28025000D03*
%TD*%
D12*
%TO.C,M_C84*%
X55025000Y-83400000D03*
X56575000Y-83400000D03*
%TD*%
D15*
%TO.C,M_C24*%
X27950000Y-28975000D03*
X27950000Y-30525000D03*
%TD*%
D12*
%TO.C,M_C26*%
X69725000Y-67250000D03*
X71275000Y-67250000D03*
%TD*%
D13*
%TO.C,M_C70*%
X54250000Y-91525000D03*
X54250000Y-89975000D03*
%TD*%
D12*
%TO.C,M_C30*%
X22225000Y-100000000D03*
X23775000Y-100000000D03*
%TD*%
%TO.C,W_C60*%
X114225000Y-26500000D03*
X115775000Y-26500000D03*
%TD*%
%TO.C,W_C52*%
X133725000Y-26500000D03*
X135275000Y-26500000D03*
%TD*%
%TO.C,M_C79*%
X33725000Y-85000000D03*
X35275000Y-85000000D03*
%TD*%
%TO.C,M_C9*%
X23225000Y-55000000D03*
X24775000Y-55000000D03*
%TD*%
D13*
%TO.C,M_C64*%
X30000000Y-42525000D03*
X30000000Y-40975000D03*
%TD*%
D12*
%TO.C,W_C54*%
X130725000Y-16500000D03*
X132275000Y-16500000D03*
%TD*%
D13*
%TO.C,W_C49*%
X120400000Y-37275000D03*
X120400000Y-35725000D03*
%TD*%
%TO.C,E_C62*%
X98800000Y-82975000D03*
X98800000Y-81425000D03*
%TD*%
D12*
%TO.C,W_C61*%
X117225000Y-26500000D03*
X118775000Y-26500000D03*
%TD*%
%TO.C,M_C17*%
X30225000Y-70000000D03*
X31775000Y-70000000D03*
%TD*%
%TO.C,M_C12*%
X29725000Y-64000000D03*
X31275000Y-64000000D03*
%TD*%
D13*
%TO.C,M_C20*%
X61000000Y-53775000D03*
X61000000Y-52225000D03*
%TD*%
D12*
%TO.C,W_C66*%
X93725000Y-43500000D03*
X95275000Y-43500000D03*
%TD*%
D13*
%TO.C,W_C56*%
X111500000Y-24275000D03*
X111500000Y-22725000D03*
%TD*%
D12*
%TO.C,M_C31*%
X59725000Y-98500000D03*
X61275000Y-98500000D03*
%TD*%
D16*
%TO.C,M_C23*%
X67600000Y-36200000D03*
X65700000Y-36200000D03*
%TD*%
D17*
%TO.C,M_C78*%
X35300000Y-75000000D03*
X37200000Y-75000000D03*
%TD*%
%TO.C,M_C88*%
X32650000Y-29900000D03*
X34550000Y-29900000D03*
%TD*%
%TO.C,M_C77*%
X33800000Y-83000000D03*
X35700000Y-83000000D03*
%TD*%
D18*
%TO.C,W_C69*%
X106000000Y-49950000D03*
X106000000Y-48050000D03*
%TD*%
D17*
%TO.C,M_C40*%
X66250000Y-66900000D03*
X68150000Y-66900000D03*
%TD*%
D18*
%TO.C,W_C68*%
X95000000Y-48950000D03*
X95000000Y-47050000D03*
%TD*%
%TO.C,W_C45*%
X109000000Y-41450000D03*
X109000000Y-39550000D03*
%TD*%
D17*
%TO.C,M_C74*%
X57300000Y-29000000D03*
X59200000Y-29000000D03*
%TD*%
D19*
%TO.C,M_C2*%
X74850000Y-31550000D03*
X74850000Y-33450000D03*
%TD*%
D18*
%TO.C,W_C50*%
X108500000Y-30450000D03*
X108500000Y-28550000D03*
%TD*%
D17*
%TO.C,M_C73*%
X53550000Y-29000000D03*
X55450000Y-29000000D03*
%TD*%
%TO.C,M_C38*%
X23050000Y-72500000D03*
X24950000Y-72500000D03*
%TD*%
%TO.C,M_C39*%
X27050000Y-72500000D03*
X28950000Y-72500000D03*
%TD*%
D18*
%TO.C,M_C11*%
X30500000Y-61950000D03*
X30500000Y-60050000D03*
%TD*%
%TO.C,M_C5*%
X57000000Y-105450000D03*
X57000000Y-103550000D03*
%TD*%
%TO.C,W_C44*%
X106000000Y-35450000D03*
X106000000Y-33550000D03*
%TD*%
D17*
%TO.C,M_C3*%
X70550000Y-35700000D03*
X72450000Y-35700000D03*
%TD*%
D18*
%TO.C,M_C14*%
X73000000Y-56450000D03*
X73000000Y-54550000D03*
%TD*%
%TO.C,M_C8*%
X27000000Y-56450000D03*
X27000000Y-54550000D03*
%TD*%
D17*
%TO.C,M_C37*%
X19050000Y-72500000D03*
X20950000Y-72500000D03*
%TD*%
D18*
%TO.C,M_C1*%
X64900000Y-33450000D03*
X64900000Y-31550000D03*
%TD*%
D20*
%TO.C,M_J1*%
X49890000Y-13600000D03*
X44110000Y-13600000D03*
D21*
X50250000Y-15045000D03*
X49450000Y-15045000D03*
D22*
X48250000Y-15045000D03*
X47250000Y-15045000D03*
X46750000Y-15045000D03*
X45750000Y-15045000D03*
D21*
X44550000Y-15045000D03*
X43750000Y-15045000D03*
X43750000Y-15045000D03*
X44550000Y-15045000D03*
D22*
X45250000Y-15045000D03*
X46250000Y-15045000D03*
X47750000Y-15045000D03*
X48750000Y-15045000D03*
D21*
X49450000Y-15045000D03*
X50250000Y-15045000D03*
D23*
X51320000Y-14130000D03*
D24*
X51320000Y-9950000D03*
D23*
X42680000Y-14130000D03*
D24*
X42680000Y-9950000D03*
%TD*%
D25*
%TO.C,M_D1*%
X26150000Y-26000000D03*
X21850000Y-26000000D03*
%TD*%
D26*
%TO.C,M_D2*%
X21850000Y-76500000D03*
X26150000Y-76500000D03*
%TD*%
D27*
%TO.C,W_D6*%
X103000000Y-15150000D03*
X103000000Y-10850000D03*
%TD*%
D28*
%TO.C,E_U27*%
X98025000Y-85100000D03*
D29*
X98000000Y-85500000D03*
D30*
X98000000Y-85900000D03*
D31*
X98400000Y-86500000D03*
D32*
X98800000Y-86500000D03*
X99200000Y-86500000D03*
D33*
X99600000Y-86500000D03*
D34*
X100000000Y-85900000D03*
D29*
X100000000Y-85500000D03*
D35*
X100000000Y-85100000D03*
D36*
X99600000Y-84500000D03*
D32*
X99200000Y-84500000D03*
X98800000Y-84500000D03*
D37*
X98400000Y-84500000D03*
%TD*%
D38*
%TO.C,W_J5*%
X114460000Y-60000000D03*
D39*
X117000000Y-60000000D03*
X119540000Y-60000000D03*
%TD*%
D40*
%TO.C,M_D5*%
X48775000Y-34225000D03*
X49725000Y-34225000D03*
X49725000Y-33275000D03*
X48775000Y-33275000D03*
%TD*%
D41*
%TO.C,M_U35*%
X52850000Y-85160000D03*
D42*
X52850000Y-83380000D03*
X52850000Y-81600000D03*
X52850000Y-79820000D03*
X52850000Y-78040000D03*
X52850000Y-76260000D03*
X52850000Y-74480000D03*
X52850000Y-72700000D03*
X42150000Y-71810000D03*
X42150000Y-73590000D03*
X42150000Y-75370000D03*
X42150000Y-77150000D03*
X42150000Y-78930000D03*
X42150000Y-80710000D03*
X42150000Y-82490000D03*
X42150000Y-84270000D03*
%TD*%
D43*
%TO.C,W_U21*%
X114100000Y-32250000D03*
X114100000Y-32750000D03*
X114100000Y-33250000D03*
X114100000Y-33750000D03*
X114100000Y-34250000D03*
X114100000Y-34750000D03*
X114100000Y-35250000D03*
X114100000Y-35750000D03*
X114100000Y-36250000D03*
X114100000Y-36750000D03*
X114100000Y-37250000D03*
X114100000Y-37750000D03*
D44*
X114750000Y-38400000D03*
X115250000Y-38400000D03*
X115750000Y-38400000D03*
X116250000Y-38400000D03*
X116750000Y-38400000D03*
X117250000Y-38400000D03*
X117750000Y-38400000D03*
X118250000Y-38400000D03*
D43*
X118900000Y-37750000D03*
X118900000Y-37250000D03*
X118900000Y-36750000D03*
X118900000Y-36250000D03*
X118900000Y-35750000D03*
X118900000Y-35250000D03*
X118900000Y-34750000D03*
X118900000Y-34250000D03*
X118900000Y-33750000D03*
X118900000Y-33250000D03*
X118900000Y-32750000D03*
X118900000Y-32250000D03*
D44*
X118250000Y-31600000D03*
X117750000Y-31600000D03*
X117250000Y-31600000D03*
X116750000Y-31600000D03*
X116250000Y-31600000D03*
X115750000Y-31600000D03*
X115250000Y-31600000D03*
X114750000Y-31600000D03*
D45*
X116500000Y-35000000D03*
%TD*%
D46*
%TO.C,M_U13*%
X67100000Y-63300000D03*
D47*
X67275000Y-63125000D03*
D43*
X67100000Y-63775000D03*
X67100000Y-64225000D03*
D46*
X67100000Y-64700000D03*
D47*
X67275000Y-64875000D03*
D48*
X67750000Y-64000000D03*
X68250000Y-64000000D03*
D47*
X68725000Y-64875000D03*
D46*
X68900000Y-64700000D03*
D43*
X68900000Y-64225000D03*
X68900000Y-63775000D03*
D47*
X68725000Y-63125000D03*
D46*
X68900000Y-63300000D03*
%TD*%
%TO.C,M_U12*%
X29350000Y-31300000D03*
D47*
X29525000Y-31125000D03*
D43*
X29350000Y-31775000D03*
X29350000Y-32225000D03*
D46*
X29350000Y-32700000D03*
D47*
X29525000Y-32875000D03*
D48*
X30000000Y-32000000D03*
X30500000Y-32000000D03*
D47*
X30975000Y-32875000D03*
D46*
X31150000Y-32700000D03*
D43*
X31150000Y-32225000D03*
X31150000Y-31775000D03*
D47*
X30975000Y-31125000D03*
D46*
X31150000Y-31300000D03*
%TD*%
D49*
%TO.C,M_L1*%
X71450000Y-32300000D03*
X71450000Y-28600000D03*
%TD*%
D50*
%TO.C,M_J4*%
X68730000Y-42500000D03*
D51*
X71270000Y-42500000D03*
%TD*%
D50*
%TO.C,M_J3*%
X22730000Y-67500000D03*
D51*
X25270000Y-67500000D03*
%TD*%
D50*
%TO.C,M_J10*%
X79270000Y-49000000D03*
D51*
X76730000Y-49000000D03*
%TD*%
D50*
%TO.C,M_J2*%
X22730000Y-42500000D03*
D51*
X25270000Y-42500000D03*
%TD*%
D50*
%TO.C,W_J11*%
X98270000Y-17350000D03*
D51*
X95730000Y-17350000D03*
%TD*%
D52*
%TO.C,M_J6*%
X38810000Y-24270000D03*
D53*
X38810000Y-21730000D03*
X36270000Y-24270000D03*
X36270000Y-21730000D03*
X33730000Y-24270000D03*
X33730000Y-21730000D03*
X31190000Y-24270000D03*
X31190000Y-21730000D03*
%TD*%
D52*
%TO.C,E_J7*%
X95190000Y-93230000D03*
D53*
X95190000Y-95770000D03*
X97730000Y-93230000D03*
X97730000Y-95770000D03*
X100270000Y-93230000D03*
X100270000Y-95770000D03*
X102810000Y-93230000D03*
X102810000Y-95770000D03*
%TD*%
D52*
%TO.C,M_J8*%
X81770000Y-52720000D03*
D53*
X79230000Y-52720000D03*
X81770000Y-55260000D03*
X79230000Y-55260000D03*
X81770000Y-57800000D03*
X79230000Y-57800000D03*
X81770000Y-60340000D03*
X79230000Y-60340000D03*
X81770000Y-62880000D03*
X79230000Y-62880000D03*
X81770000Y-65420000D03*
X79230000Y-65420000D03*
X81770000Y-67960000D03*
X79230000Y-67960000D03*
X81770000Y-70500000D03*
X79230000Y-70500000D03*
X81770000Y-73040000D03*
X79230000Y-73040000D03*
X81770000Y-75580000D03*
X79230000Y-75580000D03*
X81770000Y-78120000D03*
X79230000Y-78120000D03*
X81770000Y-80660000D03*
X79230000Y-80660000D03*
X81770000Y-83200000D03*
X79230000Y-83200000D03*
X81770000Y-85740000D03*
X79230000Y-85740000D03*
X81770000Y-88280000D03*
X79230000Y-88280000D03*
%TD*%
D52*
%TO.C,W_J9*%
X142280000Y-12270000D03*
D53*
X142280000Y-9730000D03*
X139740000Y-12270000D03*
X139740000Y-9730000D03*
X137200000Y-12270000D03*
X137200000Y-9730000D03*
X134660000Y-12270000D03*
X134660000Y-9730000D03*
X132120000Y-12270000D03*
X132120000Y-9730000D03*
X129580000Y-12270000D03*
X129580000Y-9730000D03*
X127040000Y-12270000D03*
X127040000Y-9730000D03*
X124500000Y-12270000D03*
X124500000Y-9730000D03*
X121960000Y-12270000D03*
X121960000Y-9730000D03*
X119420000Y-12270000D03*
X119420000Y-9730000D03*
X116880000Y-12270000D03*
X116880000Y-9730000D03*
X114340000Y-12270000D03*
X114340000Y-9730000D03*
X111800000Y-12270000D03*
X111800000Y-9730000D03*
X109260000Y-12270000D03*
X109260000Y-9730000D03*
X106720000Y-12270000D03*
X106720000Y-9730000D03*
%TD*%
D54*
%TO.C,M_U11*%
X59275000Y-31800000D03*
X59275000Y-32200000D03*
D55*
X59400000Y-32825000D03*
X59800000Y-32825000D03*
X60200000Y-32825000D03*
X60600000Y-32825000D03*
D54*
X60725000Y-32200000D03*
X60725000Y-31800000D03*
D55*
X60600000Y-31175000D03*
X60200000Y-31175000D03*
X59800000Y-31175000D03*
X59400000Y-31175000D03*
%TD*%
D56*
%TO.C,W_U23*%
X116457500Y-23750000D03*
X116457500Y-23250000D03*
X116457500Y-22750000D03*
X116457500Y-22250000D03*
D57*
X115750000Y-21542500D03*
X115250000Y-21542500D03*
X114750000Y-21542500D03*
X114250000Y-21542500D03*
D56*
X113542500Y-22250000D03*
X113542500Y-22750000D03*
X113542500Y-23250000D03*
X113542500Y-23750000D03*
D57*
X114250000Y-24457500D03*
X114750000Y-24457500D03*
X115250000Y-24457500D03*
X115750000Y-24457500D03*
D58*
X115000000Y-23000000D03*
%TD*%
D59*
%TO.C,M_U10*%
X56042500Y-52250000D03*
X56042500Y-52750000D03*
X56042500Y-53250000D03*
X56042500Y-53750000D03*
D60*
X56750000Y-54457500D03*
X57250000Y-54457500D03*
X57750000Y-54457500D03*
X58250000Y-54457500D03*
D59*
X58957500Y-53750000D03*
X58957500Y-53250000D03*
X58957500Y-52750000D03*
X58957500Y-52250000D03*
D60*
X58250000Y-51542500D03*
X57750000Y-51542500D03*
X57250000Y-51542500D03*
X56750000Y-51542500D03*
D58*
X57500000Y-53000000D03*
%TD*%
D61*
%TO.C,M_U32*%
X50337500Y-90000000D03*
X50337500Y-90500000D03*
X50337500Y-91000000D03*
X50337500Y-91500000D03*
D62*
X51000000Y-91662500D03*
X51500000Y-91662500D03*
X52000000Y-91662500D03*
D61*
X52662500Y-91500000D03*
X52662500Y-91000000D03*
X52662500Y-90500000D03*
X52662500Y-90000000D03*
D62*
X52000000Y-89837500D03*
X51500000Y-89837500D03*
X51000000Y-89837500D03*
%TD*%
D63*
%TO.C,M_U25*%
X56800000Y-66862500D03*
X57450000Y-66862500D03*
X58100000Y-66862500D03*
X58750000Y-66862500D03*
X59400000Y-66862500D03*
X60050000Y-66862500D03*
X60700000Y-66862500D03*
X60700000Y-61137500D03*
X60050000Y-61137500D03*
X59400000Y-61137500D03*
X58750000Y-61137500D03*
X58100000Y-61137500D03*
X57450000Y-61137500D03*
X56800000Y-61137500D03*
%TD*%
D64*
%TO.C,M_U17*%
X20137500Y-102050000D03*
X20137500Y-102700000D03*
X20137500Y-103350000D03*
X20137500Y-104000000D03*
X20137500Y-104650000D03*
X20137500Y-105300000D03*
X20137500Y-105950000D03*
X25862500Y-105950000D03*
X25862500Y-105300000D03*
X25862500Y-104650000D03*
X25862500Y-104000000D03*
X25862500Y-103350000D03*
X25862500Y-102700000D03*
X25862500Y-102050000D03*
%TD*%
%TO.C,M_U16*%
X20137500Y-94050000D03*
X20137500Y-94700000D03*
X20137500Y-95350000D03*
X20137500Y-96000000D03*
X20137500Y-96650000D03*
X20137500Y-97300000D03*
X20137500Y-97950000D03*
X25862500Y-97950000D03*
X25862500Y-97300000D03*
X25862500Y-96650000D03*
X25862500Y-96000000D03*
X25862500Y-95350000D03*
X25862500Y-94700000D03*
X25862500Y-94050000D03*
%TD*%
D63*
%TO.C,W_U22*%
X127050000Y-47862500D03*
X127700000Y-47862500D03*
X128350000Y-47862500D03*
X129000000Y-47862500D03*
X129650000Y-47862500D03*
X130300000Y-47862500D03*
X130950000Y-47862500D03*
X130950000Y-42137500D03*
X130300000Y-42137500D03*
X129650000Y-42137500D03*
X129000000Y-42137500D03*
X128350000Y-42137500D03*
X127700000Y-42137500D03*
X127050000Y-42137500D03*
%TD*%
D64*
%TO.C,W_U26*%
X124137500Y-19050000D03*
X124137500Y-19700000D03*
X124137500Y-20350000D03*
X124137500Y-21000000D03*
X124137500Y-21650000D03*
X124137500Y-22300000D03*
X124137500Y-22950000D03*
X129862500Y-22950000D03*
X129862500Y-22300000D03*
X129862500Y-21650000D03*
X129862500Y-21000000D03*
X129862500Y-20350000D03*
X129862500Y-19700000D03*
X129862500Y-19050000D03*
%TD*%
%TO.C,W_U24*%
X126137500Y-29050000D03*
X126137500Y-29700000D03*
X126137500Y-30350000D03*
X126137500Y-31000000D03*
X126137500Y-31650000D03*
X126137500Y-32300000D03*
X126137500Y-32950000D03*
X131862500Y-32950000D03*
X131862500Y-32300000D03*
X131862500Y-31650000D03*
X131862500Y-31000000D03*
X131862500Y-30350000D03*
X131862500Y-29700000D03*
X131862500Y-29050000D03*
%TD*%
%TO.C,M_U37*%
X44637500Y-62050000D03*
X44637500Y-62700000D03*
X44637500Y-63350000D03*
X44637500Y-64000000D03*
X44637500Y-64650000D03*
X44637500Y-65300000D03*
X44637500Y-65950000D03*
X50362500Y-65950000D03*
X50362500Y-65300000D03*
X50362500Y-64650000D03*
X50362500Y-64000000D03*
X50362500Y-63350000D03*
X50362500Y-62700000D03*
X50362500Y-62050000D03*
%TD*%
%TO.C,M_U18*%
X62137500Y-100050000D03*
X62137500Y-100700000D03*
X62137500Y-101350000D03*
X62137500Y-102000000D03*
X62137500Y-102650000D03*
X62137500Y-103300000D03*
X62137500Y-103950000D03*
X67862500Y-103950000D03*
X67862500Y-103300000D03*
X67862500Y-102650000D03*
X67862500Y-102000000D03*
X67862500Y-101350000D03*
X67862500Y-100700000D03*
X67862500Y-100050000D03*
%TD*%
D63*
%TO.C,M_U29*%
X31050000Y-50112500D03*
X31700000Y-50112500D03*
X32350000Y-50112500D03*
X33000000Y-50112500D03*
X33650000Y-50112500D03*
X34300000Y-50112500D03*
X34950000Y-50112500D03*
X34950000Y-44387500D03*
X34300000Y-44387500D03*
X33650000Y-44387500D03*
X33000000Y-44387500D03*
X32350000Y-44387500D03*
X31700000Y-44387500D03*
X31050000Y-44387500D03*
%TD*%
D65*
%TO.C,M_U15*%
X63600000Y-107250000D03*
X63600000Y-107750000D03*
X63600000Y-108250000D03*
X63600000Y-108750000D03*
X66400000Y-108750000D03*
X66400000Y-108250000D03*
X66400000Y-107750000D03*
X66400000Y-107250000D03*
%TD*%
D66*
%TO.C,M_U5*%
X23050000Y-60250000D03*
X23050000Y-60750000D03*
X23050000Y-61250000D03*
X23050000Y-61750000D03*
X24950000Y-61750000D03*
X24950000Y-61250000D03*
X24950000Y-60750000D03*
X24950000Y-60250000D03*
D67*
X24000000Y-61000000D03*
%TD*%
D66*
%TO.C,M_U4*%
X23050000Y-51250000D03*
X23050000Y-51750000D03*
X23050000Y-52250000D03*
X23050000Y-52750000D03*
X24950000Y-52750000D03*
X24950000Y-52250000D03*
X24950000Y-51750000D03*
X24950000Y-51250000D03*
D67*
X24000000Y-52000000D03*
%TD*%
D66*
%TO.C,M_U2*%
X66550000Y-32250000D03*
X66550000Y-32750000D03*
X66550000Y-33250000D03*
X66550000Y-33750000D03*
X68450000Y-33750000D03*
X68450000Y-33250000D03*
X68450000Y-32750000D03*
X68450000Y-32250000D03*
D67*
X67500000Y-33000000D03*
%TD*%
D66*
%TO.C,M_U6*%
X69050000Y-51250000D03*
X69050000Y-51750000D03*
X69050000Y-52250000D03*
X69050000Y-52750000D03*
X70950000Y-52750000D03*
X70950000Y-52250000D03*
X70950000Y-51750000D03*
X70950000Y-51250000D03*
D67*
X70000000Y-52000000D03*
%TD*%
D68*
%TO.C,M_U7*%
X23750000Y-47725000D03*
X23750000Y-49275000D03*
X24250000Y-49275000D03*
X24250000Y-47725000D03*
D69*
X24000000Y-48500000D03*
%TD*%
D68*
%TO.C,M_U9*%
X69750000Y-47725000D03*
X69750000Y-49275000D03*
X70250000Y-49275000D03*
X70250000Y-47725000D03*
D69*
X70000000Y-48500000D03*
%TD*%
D68*
%TO.C,M_U8*%
X30750000Y-66225000D03*
X30750000Y-67775000D03*
X31250000Y-67775000D03*
X31250000Y-66225000D03*
D69*
X31000000Y-67000000D03*
%TD*%
D70*
%TO.C,M_Q3*%
X62062500Y-47050000D03*
X62062500Y-48950000D03*
X63937500Y-48000000D03*
%TD*%
%TO.C,W_Q5*%
X100062500Y-50050000D03*
X100062500Y-51950000D03*
X101937500Y-51000000D03*
%TD*%
%TO.C,M_D4*%
X59062500Y-68850000D03*
X59062500Y-70750000D03*
X60937500Y-69800000D03*
%TD*%
D71*
%TO.C,M_Q2*%
X38937500Y-40700000D03*
X38937500Y-38800000D03*
X37062500Y-39750000D03*
%TD*%
D70*
%TO.C,W_U31*%
X95062500Y-39050000D03*
X95062500Y-40950000D03*
X96937500Y-40000000D03*
%TD*%
D72*
%TO.C,M_D3*%
X72850000Y-68037500D03*
X74750000Y-68037500D03*
X73800000Y-66162500D03*
%TD*%
D70*
%TO.C,M_Q1*%
X33062500Y-36550000D03*
X33062500Y-38450000D03*
X34937500Y-37500000D03*
%TD*%
%TO.C,W_Q4*%
X120062500Y-46050000D03*
X120062500Y-47950000D03*
X121937500Y-47000000D03*
%TD*%
D73*
%TO.C,M_U34*%
X71550000Y-26637500D03*
X72500000Y-26637500D03*
X73450000Y-26637500D03*
X73450000Y-24362500D03*
X71550000Y-24362500D03*
%TD*%
D74*
%TO.C,M_U39*%
X39362500Y-61650000D03*
X39362500Y-62600000D03*
X39362500Y-63550000D03*
X41637500Y-63550000D03*
X41637500Y-61650000D03*
%TD*%
D73*
%TO.C,M_U33*%
X54050000Y-26637500D03*
X55000000Y-26637500D03*
X55950000Y-26637500D03*
X55950000Y-24362500D03*
X54050000Y-24362500D03*
%TD*%
D75*
%TO.C,M_U36*%
X36137500Y-72950000D03*
X36137500Y-72000000D03*
X36137500Y-71050000D03*
X33862500Y-71050000D03*
X33862500Y-72950000D03*
%TD*%
%TO.C,M_U19*%
X34137500Y-41950000D03*
X34137500Y-41000000D03*
X34137500Y-40050000D03*
X31862500Y-40050000D03*
X31862500Y-41950000D03*
%TD*%
%TO.C,W_U30*%
X102137500Y-43950000D03*
X102137500Y-43000000D03*
X102137500Y-42050000D03*
X99862500Y-42050000D03*
X99862500Y-43950000D03*
%TD*%
D74*
%TO.C,M_U38*%
X34112500Y-79050000D03*
X34112500Y-80000000D03*
X34112500Y-80950000D03*
X36387500Y-80950000D03*
X36387500Y-80000000D03*
X36387500Y-79050000D03*
%TD*%
D76*
%TO.C,M_U20*%
X57812500Y-25850000D03*
X57812500Y-27150000D03*
X59587500Y-26500000D03*
%TD*%
D77*
%TO.C,M_U14*%
X30412500Y-51850000D03*
X30412500Y-52500000D03*
X30412500Y-53150000D03*
X32087500Y-53150000D03*
X32087500Y-52500000D03*
X32087500Y-51850000D03*
%TD*%
D78*
%TO.C,M_U28*%
X28350000Y-48337500D03*
X29000000Y-48337500D03*
X29650000Y-48337500D03*
X29650000Y-46662500D03*
X29000000Y-46662500D03*
X28350000Y-46662500D03*
%TD*%
D79*
%TO.C,M_U1*%
X46650000Y-32425000D03*
X47350000Y-32425000D03*
X47000000Y-31575000D03*
%TD*%
D80*
%TO.C,M_U3*%
X54000000Y-109400000D03*
X54000000Y-108550000D03*
X54000000Y-107700000D03*
X54000000Y-106850000D03*
X54000000Y-106000000D03*
X54000000Y-105150000D03*
X54000000Y-104300000D03*
X54000000Y-103450000D03*
X54000000Y-102600000D03*
X54000000Y-101750000D03*
X54000000Y-100900000D03*
X54000000Y-100050000D03*
X54000000Y-99200000D03*
X54000000Y-98350000D03*
X54000000Y-97500000D03*
D81*
X52950000Y-96450000D03*
X52100000Y-96450000D03*
X51250000Y-96450000D03*
X50400000Y-96450000D03*
X49550000Y-96450000D03*
X48700000Y-96450000D03*
X47850000Y-96450000D03*
X47000000Y-96450000D03*
X46150000Y-96450000D03*
X45300000Y-96450000D03*
X44450000Y-96450000D03*
X43600000Y-96450000D03*
X42750000Y-96450000D03*
X41900000Y-96450000D03*
X41050000Y-96450000D03*
D80*
X40000000Y-97500000D03*
X40000000Y-98350000D03*
X40000000Y-99200000D03*
X40000000Y-100050000D03*
X40000000Y-100900000D03*
X40000000Y-101750000D03*
X40000000Y-102600000D03*
X40000000Y-103450000D03*
X40000000Y-104300000D03*
X40000000Y-105150000D03*
X40000000Y-106000000D03*
X40000000Y-106850000D03*
X40000000Y-107700000D03*
X40000000Y-108550000D03*
X40000000Y-109400000D03*
D81*
X41050000Y-110450000D03*
X41900000Y-110450000D03*
X42750000Y-110450000D03*
X43600000Y-110450000D03*
X44450000Y-110450000D03*
X45300000Y-110450000D03*
X46150000Y-110450000D03*
X47000000Y-110450000D03*
X47850000Y-110450000D03*
X48700000Y-110450000D03*
X49550000Y-110450000D03*
X50400000Y-110450000D03*
X51250000Y-110450000D03*
X52100000Y-110450000D03*
X52950000Y-110450000D03*
D82*
X48650000Y-105100000D03*
D83*
X48650000Y-103450000D03*
X48650000Y-101800000D03*
X47000000Y-105100000D03*
X47000000Y-103450000D03*
X47000000Y-101800000D03*
X45350000Y-105100000D03*
X45350000Y-103450000D03*
X45350000Y-101800000D03*
D84*
X54000000Y-110450000D03*
X54000000Y-96450000D03*
X40000000Y-96450000D03*
X40000000Y-110450000D03*
%TD*%
D85*
%TO.C,M_R24*%
X72000000Y-48325000D03*
X72000000Y-46675000D03*
%TD*%
%TO.C,M_R37*%
X64500000Y-60325000D03*
X64500000Y-58675000D03*
%TD*%
D86*
%TO.C,M_R16*%
X32425000Y-60000000D03*
X34075000Y-60000000D03*
%TD*%
D85*
%TO.C,M_R131*%
X39200000Y-66825000D03*
X39200000Y-65175000D03*
%TD*%
D86*
%TO.C,W_R106*%
X118675000Y-19500000D03*
X120325000Y-19500000D03*
%TD*%
%TO.C,M_R54*%
X68675000Y-105500000D03*
X70325000Y-105500000D03*
%TD*%
D85*
%TO.C,W_R95*%
X123000000Y-33325000D03*
X123000000Y-31675000D03*
%TD*%
D86*
%TO.C,M_R26*%
X61675000Y-38100000D03*
X63325000Y-38100000D03*
%TD*%
D85*
%TO.C,W_R84*%
X121000000Y-41825000D03*
X121000000Y-40175000D03*
%TD*%
D86*
%TO.C,M_R58*%
X38375000Y-31650000D03*
X40025000Y-31650000D03*
%TD*%
D85*
%TO.C,M_R5*%
X48050000Y-94575000D03*
X48050000Y-92925000D03*
%TD*%
D87*
%TO.C,M_R61*%
X39250000Y-35675000D03*
X39250000Y-37325000D03*
%TD*%
D85*
%TO.C,M_R6*%
X46400000Y-94575000D03*
X46400000Y-92925000D03*
%TD*%
D88*
%TO.C,M_R76*%
X44825000Y-94500000D03*
X43175000Y-94500000D03*
%TD*%
D85*
%TO.C,W_R108*%
X108000000Y-25825000D03*
X108000000Y-24175000D03*
%TD*%
D86*
%TO.C,M_R51*%
X22175000Y-109000000D03*
X23825000Y-109000000D03*
%TD*%
D85*
%TO.C,W_R86*%
X134000000Y-31325000D03*
X134000000Y-29675000D03*
%TD*%
%TO.C,M_R80*%
X54000000Y-94825000D03*
X54000000Y-93175000D03*
%TD*%
D88*
%TO.C,M_R70*%
X60325000Y-107000000D03*
X58675000Y-107000000D03*
%TD*%
D85*
%TO.C,W_R120*%
X103000000Y-47825000D03*
X103000000Y-46175000D03*
%TD*%
%TO.C,M_R67*%
X55000000Y-65825000D03*
X55000000Y-64175000D03*
%TD*%
%TO.C,M_R63*%
X39500000Y-43825000D03*
X39500000Y-42175000D03*
%TD*%
%TO.C,M_R45*%
X64000000Y-68575000D03*
X64000000Y-66925000D03*
%TD*%
D86*
%TO.C,W_R115*%
X105175000Y-44800000D03*
X106825000Y-44800000D03*
%TD*%
%TO.C,M_R48*%
X34675000Y-93000000D03*
X36325000Y-93000000D03*
%TD*%
%TO.C,M_R12*%
X29175000Y-57500000D03*
X30825000Y-57500000D03*
%TD*%
D85*
%TO.C,M_R20*%
X67000000Y-52825000D03*
X67000000Y-51175000D03*
%TD*%
D86*
%TO.C,M_R30*%
X22675000Y-31000000D03*
X24325000Y-31000000D03*
%TD*%
%TO.C,W_R140*%
X135175000Y-46000000D03*
X136825000Y-46000000D03*
%TD*%
D85*
%TO.C,M_R9*%
X21000000Y-56325000D03*
X21000000Y-54675000D03*
%TD*%
%TO.C,M_R79*%
X52000000Y-94825000D03*
X52000000Y-93175000D03*
%TD*%
D86*
%TO.C,M_R46*%
X68475000Y-110500000D03*
X70125000Y-110500000D03*
%TD*%
D85*
%TO.C,M_R18*%
X32500000Y-57825000D03*
X32500000Y-56175000D03*
%TD*%
D86*
%TO.C,W_R112*%
X98175000Y-36000000D03*
X99825000Y-36000000D03*
%TD*%
%TO.C,M_R73*%
X32175000Y-88000000D03*
X33825000Y-88000000D03*
%TD*%
D85*
%TO.C,W_R104*%
X116300000Y-29825000D03*
X116300000Y-28175000D03*
%TD*%
D86*
%TO.C,M_R56*%
X32625000Y-32150000D03*
X34275000Y-32150000D03*
%TD*%
%TO.C,M_R44*%
X27175000Y-36000000D03*
X28825000Y-36000000D03*
%TD*%
D85*
%TO.C,W_R83*%
X124000000Y-46825000D03*
X124000000Y-45175000D03*
%TD*%
%TO.C,M_R143*%
X76000000Y-71825000D03*
X76000000Y-70175000D03*
%TD*%
%TO.C,M_R15*%
X21500000Y-61325000D03*
X21500000Y-59675000D03*
%TD*%
%TO.C,W_R117*%
X106000000Y-39825000D03*
X106000000Y-38175000D03*
%TD*%
%TO.C,W_R103*%
X114500000Y-29825000D03*
X114500000Y-28175000D03*
%TD*%
%TO.C,M_R141*%
X71000000Y-71825000D03*
X71000000Y-70175000D03*
%TD*%
%TO.C,M_R130*%
X54000000Y-37325000D03*
X54000000Y-35675000D03*
%TD*%
%TO.C,W_R94*%
X122500000Y-30325000D03*
X122500000Y-28675000D03*
%TD*%
D86*
%TO.C,W_R97*%
X118175000Y-16500000D03*
X119825000Y-16500000D03*
%TD*%
D85*
%TO.C,W_R144*%
X136000000Y-30825000D03*
X136000000Y-29175000D03*
%TD*%
D86*
%TO.C,W_R116*%
X108675000Y-44800000D03*
X110325000Y-44800000D03*
%TD*%
%TO.C,M_R99*%
X39175000Y-30000000D03*
X40825000Y-30000000D03*
%TD*%
D85*
%TO.C,M_R36*%
X62500000Y-60325000D03*
X62500000Y-58675000D03*
%TD*%
%TO.C,M_R4*%
X37500000Y-89575000D03*
X37500000Y-87925000D03*
%TD*%
%TO.C,W_R114*%
X102500000Y-39825000D03*
X102500000Y-38175000D03*
%TD*%
D86*
%TO.C,M_R29*%
X19175000Y-31000000D03*
X20825000Y-31000000D03*
%TD*%
%TO.C,M_R11*%
X23675000Y-58500000D03*
X25325000Y-58500000D03*
%TD*%
D87*
%TO.C,M_R17*%
X33500000Y-62175000D03*
X33500000Y-63825000D03*
%TD*%
D86*
%TO.C,W_R113*%
X98175000Y-38500000D03*
X99825000Y-38500000D03*
%TD*%
D85*
%TO.C,M_R39*%
X70500000Y-61825000D03*
X70500000Y-60175000D03*
%TD*%
D86*
%TO.C,M_R110*%
X20675000Y-46750000D03*
X22325000Y-46750000D03*
%TD*%
%TO.C,M_R22*%
X66175000Y-58000000D03*
X67825000Y-58000000D03*
%TD*%
%TO.C,M_R68*%
X63175000Y-64000000D03*
X64825000Y-64000000D03*
%TD*%
%TO.C,W_R139*%
X135175000Y-44000000D03*
X136825000Y-44000000D03*
%TD*%
D88*
%TO.C,M_R77*%
X44825000Y-92000000D03*
X43175000Y-92000000D03*
%TD*%
D86*
%TO.C,M_R127*%
X39925000Y-93000000D03*
X41575000Y-93000000D03*
%TD*%
%TO.C,M_R10*%
X20175000Y-58000000D03*
X21825000Y-58000000D03*
%TD*%
D85*
%TO.C,M_R40*%
X75500000Y-61825000D03*
X75500000Y-60175000D03*
%TD*%
D86*
%TO.C,W_R82*%
X120175000Y-43800000D03*
X121825000Y-43800000D03*
%TD*%
D85*
%TO.C,W_R107*%
X108000000Y-22825000D03*
X108000000Y-21175000D03*
%TD*%
%TO.C,W_R111*%
X94000000Y-36825000D03*
X94000000Y-35175000D03*
%TD*%
%TO.C,M_R133*%
X39600000Y-73625000D03*
X39600000Y-71975000D03*
%TD*%
%TO.C,W_R92*%
X130000000Y-37825000D03*
X130000000Y-36175000D03*
%TD*%
D86*
%TO.C,M_R52*%
X25675000Y-109000000D03*
X27325000Y-109000000D03*
%TD*%
D85*
%TO.C,M_R72*%
X35750000Y-89575000D03*
X35750000Y-87925000D03*
%TD*%
%TO.C,M_R33*%
X23300000Y-34325000D03*
X23300000Y-32675000D03*
%TD*%
D86*
%TO.C,M_R101*%
X55425000Y-70750000D03*
X57075000Y-70750000D03*
%TD*%
%TO.C,M_R47*%
X31175000Y-93000000D03*
X32825000Y-93000000D03*
%TD*%
D85*
%TO.C,M_R132*%
X32350000Y-81275000D03*
X32350000Y-79625000D03*
%TD*%
D86*
%TO.C,W_R96*%
X121175000Y-16500000D03*
X122825000Y-16500000D03*
%TD*%
D85*
%TO.C,M_R126*%
X57750000Y-93075000D03*
X57750000Y-91425000D03*
%TD*%
D86*
%TO.C,W_R88*%
X135175000Y-35000000D03*
X136825000Y-35000000D03*
%TD*%
%TO.C,W_R119*%
X99175000Y-47500000D03*
X100825000Y-47500000D03*
%TD*%
D85*
%TO.C,M_R41*%
X70500000Y-65825000D03*
X70500000Y-64175000D03*
%TD*%
%TO.C,M_R62*%
X29500000Y-39325000D03*
X29500000Y-37675000D03*
%TD*%
D86*
%TO.C,M_R25*%
X59675000Y-35700000D03*
X61325000Y-35700000D03*
%TD*%
D85*
%TO.C,M_R136*%
X39600000Y-70325000D03*
X39600000Y-68675000D03*
%TD*%
%TO.C,W_R102*%
X112700000Y-29825000D03*
X112700000Y-28175000D03*
%TD*%
D86*
%TO.C,M_R50*%
X18675000Y-109000000D03*
X20325000Y-109000000D03*
%TD*%
D85*
%TO.C,M_R27*%
X63000000Y-35825000D03*
X63000000Y-34175000D03*
%TD*%
D86*
%TO.C,M_R55*%
X59675000Y-93500000D03*
X61325000Y-93500000D03*
%TD*%
D87*
%TO.C,M_R60*%
X37500000Y-33925000D03*
X37500000Y-35575000D03*
%TD*%
D86*
%TO.C,M_R125*%
X27675000Y-44500000D03*
X29325000Y-44500000D03*
%TD*%
D85*
%TO.C,W_R91*%
X128000000Y-37825000D03*
X128000000Y-36175000D03*
%TD*%
%TO.C,M_R78*%
X50000000Y-94825000D03*
X50000000Y-93175000D03*
%TD*%
%TO.C,M_R74*%
X34000000Y-91325000D03*
X34000000Y-89675000D03*
%TD*%
%TO.C,W_R87*%
X132500000Y-37825000D03*
X132500000Y-36175000D03*
%TD*%
%TO.C,W_R137*%
X133000000Y-51825000D03*
X133000000Y-50175000D03*
%TD*%
%TO.C,W_R90*%
X126000000Y-37825000D03*
X126000000Y-36175000D03*
%TD*%
%TO.C,W_R100*%
X120500000Y-25825000D03*
X120500000Y-24175000D03*
%TD*%
%TO.C,M_R134*%
X39600000Y-76925000D03*
X39600000Y-75275000D03*
%TD*%
D86*
%TO.C,W_R105*%
X118675000Y-21500000D03*
X120325000Y-21500000D03*
%TD*%
D85*
%TO.C,M_R34*%
X25200000Y-34325000D03*
X25200000Y-32675000D03*
%TD*%
%TO.C,M_R49*%
X59000000Y-101825000D03*
X59000000Y-100175000D03*
%TD*%
%TO.C,M_R32*%
X21400000Y-34325000D03*
X21400000Y-32675000D03*
%TD*%
D86*
%TO.C,W_R89*%
X136675000Y-33000000D03*
X138325000Y-33000000D03*
%TD*%
D85*
%TO.C,M_R75*%
X41000000Y-91325000D03*
X41000000Y-89675000D03*
%TD*%
D86*
%TO.C,M_R7*%
X36925000Y-86250000D03*
X38575000Y-86250000D03*
%TD*%
D85*
%TO.C,M_R65*%
X63000000Y-44825000D03*
X63000000Y-43175000D03*
%TD*%
%TO.C,W_R81*%
X111000000Y-30825000D03*
X111000000Y-29175000D03*
%TD*%
D86*
%TO.C,M_R23*%
X69675000Y-58500000D03*
X71325000Y-58500000D03*
%TD*%
D85*
%TO.C,M_R35*%
X27100000Y-34325000D03*
X27100000Y-32675000D03*
%TD*%
%TO.C,W_R145*%
X134000000Y-21825000D03*
X134000000Y-20175000D03*
%TD*%
D86*
%TO.C,M_R59*%
X34175000Y-34250000D03*
X35825000Y-34250000D03*
%TD*%
D85*
%TO.C,M_R21*%
X67000000Y-56325000D03*
X67000000Y-54675000D03*
%TD*%
%TO.C,M_R142*%
X73500000Y-71825000D03*
X73500000Y-70175000D03*
%TD*%
D86*
%TO.C,M_R64*%
X55175000Y-47500000D03*
X56825000Y-47500000D03*
%TD*%
D85*
%TO.C,M_R31*%
X19500000Y-34325000D03*
X19500000Y-32675000D03*
%TD*%
D86*
%TO.C,M_R42*%
X72175000Y-60100000D03*
X73825000Y-60100000D03*
%TD*%
D85*
%TO.C,M_R66*%
X63000000Y-52825000D03*
X63000000Y-51175000D03*
%TD*%
D86*
%TO.C,M_R69*%
X23175000Y-80000000D03*
X24825000Y-80000000D03*
%TD*%
%TO.C,W_R138*%
X135175000Y-42000000D03*
X136825000Y-42000000D03*
%TD*%
D85*
%TO.C,M_R129*%
X54750000Y-33325000D03*
X54750000Y-31675000D03*
%TD*%
%TO.C,W_R146*%
X103000000Y-28825000D03*
X103000000Y-27175000D03*
%TD*%
%TO.C,M_R135*%
X39600000Y-80225000D03*
X39600000Y-78575000D03*
%TD*%
%TO.C,M_R57*%
X36200000Y-32475000D03*
X36200000Y-30825000D03*
%TD*%
%TO.C,M_R8*%
X21000000Y-52825000D03*
X21000000Y-51175000D03*
%TD*%
%TO.C,M_R14*%
X18500000Y-60325000D03*
X18500000Y-58675000D03*
%TD*%
%TO.C,M_R28*%
X75250000Y-28325000D03*
X75250000Y-26675000D03*
%TD*%
D86*
%TO.C,M_R43*%
X72175000Y-64400000D03*
X73825000Y-64400000D03*
%TD*%
%TO.C,M_R53*%
X59175000Y-105500000D03*
X60825000Y-105500000D03*
%TD*%
D85*
%TO.C,M_R128*%
X57500000Y-32575000D03*
X57500000Y-30925000D03*
%TD*%
D86*
%TO.C,W_R109*%
X110175000Y-17000000D03*
X111825000Y-17000000D03*
%TD*%
D85*
%TO.C,M_R3*%
X57000000Y-96825000D03*
X57000000Y-95175000D03*
%TD*%
%TO.C,M_R71*%
X60000000Y-44825000D03*
X60000000Y-43175000D03*
%TD*%
%TO.C,M_R38*%
X66500000Y-61325000D03*
X66500000Y-59675000D03*
%TD*%
%TO.C,W_R98*%
X123000000Y-26325000D03*
X123000000Y-24675000D03*
%TD*%
D89*
%TO.C,W_R121*%
X93037500Y-56000000D03*
X98962500Y-56000000D03*
%TD*%
%TO.C,W_R122*%
X103037500Y-56000000D03*
X108962500Y-56000000D03*
%TD*%
%TO.C,W_R124*%
X103037500Y-62000000D03*
X108962500Y-62000000D03*
%TD*%
%TO.C,W_R123*%
X93037500Y-62000000D03*
X98962500Y-62000000D03*
%TD*%
D90*
%TO.C,M_TP38*%
X56000000Y-35250000D03*
%TD*%
%TO.C,W_TP34*%
X92000000Y-31000000D03*
%TD*%
%TO.C,W_TP35*%
X92000000Y-41000000D03*
%TD*%
%TO.C,M_TP39*%
X56000000Y-37750000D03*
%TD*%
%TO.C,W_TP36*%
X109000000Y-48000000D03*
%TD*%
%TO.C,W_TP37*%
X92000000Y-51000000D03*
%TD*%
M02*
