M48
; DRILL file KiCad 10.0.6 date 2026-09-12T01:24:20
; FORMAT={-:-/ absolute / metric / decimal}
; #@! TF.CreationDate,2026-09-12T01:24:20+02:00
; #@! TF.GenerationSoftware,Kicad,Pcbnew,10.0.6
; #@! TF.FileFunction,NonPlated,1,4,NPTH
FMAT,2
METRIC
; #@! TA.AperFunction,NonPlated,NPTH,ComponentDrill
T1C0.600
; #@! TA.AperFunction,NonPlated,NPTH,ComponentDrill
T2C0.650
; #@! TA.AperFunction,NonPlated,NPTH,ComponentDrill
T3C2.000
%
G90
G05
T1
X6.5Y-80.2
X6.5Y-81.1
X6.5Y-82.0
X6.5Y-82.9
X6.5Y-83.8
X29.2Y-6.5
X30.1Y-6.5
X31.0Y-6.5
X31.9Y-6.5
X32.8Y-6.5
X62.2Y-6.5
X63.1Y-6.5
X64.0Y-6.5
X64.9Y-6.5
X65.8Y-6.5
X87.5Y-91.2
X87.5Y-92.1
X87.5Y-93.0
X87.5Y-93.9
X87.5Y-94.8
X91.5Y-81.2
X91.5Y-82.1
X91.5Y-83.0
X91.5Y-83.9
X91.5Y-84.8
X100.2Y-67.5
X101.1Y-67.5
X102.0Y-67.5
X102.9Y-67.5
X103.8Y-67.5
X105.2Y-6.5
X106.1Y-6.5
X106.5Y-81.2
X106.5Y-82.1
X106.5Y-83.0
X106.5Y-83.9
X106.5Y-84.8
X107.0Y-6.5
X107.9Y-6.5
X108.8Y-6.5
X130.2Y-67.5
X131.1Y-67.5
X132.0Y-67.5
X132.9Y-67.5
X133.8Y-67.5
X144.5Y-8.2
X144.5Y-9.1
X144.5Y-10.0
X144.5Y-10.9
X144.5Y-11.8
T2
X44.11Y-13.6
X49.89Y-13.6
T3
X2.5Y-2.5
X2.5Y-136.5
X148.5Y-2.5
X148.5Y-136.5
M30
