M48
; DRILL file KiCad 10.0.6 date 2026-09-13T04:50:10
; FORMAT={-:-/ absolute / metric / decimal}
; #@! TF.CreationDate,2026-09-13T04:50:10+02:00
; #@! TF.GenerationSoftware,Kicad,Pcbnew,10.0.6
; #@! TF.FileFunction,NonPlated,1,4,NPTH
FMAT,2
METRIC
; #@! TA.AperFunction,NonPlated,NPTH,ComponentDrill
T1C0.600
; #@! TA.AperFunction,NonPlated,NPTH,ComponentDrill
T2C0.650
; #@! TA.AperFunction,NonPlated,NPTH,ComponentDrill
T3C2.000
%
G90
G05
T1
X6.5Y-80.2
X6.5Y-81.1
X6.5Y-82.0
X6.5Y-82.9
X6.5Y-83.8
X29.2Y-6.5
X30.1Y-6.5
X31.0Y-6.5
X31.9Y-6.5
X32.8Y-6.5
X62.2Y-6.5
X63.1Y-6.5
X64.0Y-6.5
X64.9Y-6.5
X65.8Y-6.5
X87.5Y-73.2
X87.5Y-74.1
X87.5Y-75.0
X87.5Y-75.9
X87.5Y-76.8
X93.2Y-79.5
X94.1Y-79.5
X95.0Y-79.5
X95.9Y-79.5
X96.2Y-6.5
X96.8Y-79.5
X97.1Y-6.5
X98.0Y-6.5
X98.9Y-6.5
X99.8Y-6.5
X100.2Y-67.5
X101.1Y-67.5
X102.0Y-67.5
X102.9Y-67.5
X103.8Y-67.5
X106.5Y-81.2
X106.5Y-82.1
X106.5Y-83.0
X106.5Y-83.9
X106.5Y-84.8
X130.2Y-67.5
X131.1Y-67.5
X132.0Y-67.5
X132.9Y-67.5
X133.8Y-67.5
X144.5Y-17.2
X144.5Y-18.1
X144.5Y-19.0
X144.5Y-19.9
X144.5Y-20.8
T2
X44.11Y-13.6
X49.89Y-13.6
T3
X2.5Y-2.5
X2.5Y-136.5
X148.5Y-2.5
X148.5Y-136.5
M30
