%TF.GenerationSoftware,KiCad,Pcbnew,10.0.6*%
%TF.CreationDate,2026-09-12T01:24:18+02:00*%
%TF.ProjectId,Panel,50616e65-6c2e-46b6-9963-61645f706362,rev?*%
%TF.SameCoordinates,Original*%
%TF.FileFunction,Soldermask,Bot*%
%TF.FilePolarity,Negative*%
%FSLAX46Y46*%
G04 Gerber Fmt 4.6, Leading zero omitted, Abs format (unit mm)*
G04 Created by KiCad (PCBNEW 10.0.6) date 2026-09-12 01:24:18*
%MOMM*%
%LPD*%
G01*
G04 APERTURE LIST*
%ADD10C,0.650000*%
%ADD11O,1.000000X2.100000*%
%ADD12O,1.000000X1.600000*%
%ADD13R,2.000000X2.000000*%
%ADD14C,2.000000*%
%ADD15R,1.300000X1.300000*%
%ADD16C,1.300000*%
%ADD17C,1.000000*%
G04 APERTURE END LIST*
D10*
%TO.C,M_J1*%
X49890000Y-13600000D03*
X44110000Y-13600000D03*
D11*
X51320000Y-14130000D03*
D12*
X51320000Y-9950000D03*
D11*
X42680000Y-14130000D03*
D12*
X42680000Y-9950000D03*
%TD*%
D13*
%TO.C,W_J5*%
X114460000Y-60000000D03*
D14*
X117000000Y-60000000D03*
X119540000Y-60000000D03*
%TD*%
D15*
%TO.C,M_U35*%
X52850000Y-85160000D03*
D16*
X52850000Y-83380000D03*
X52850000Y-81600000D03*
X52850000Y-79820000D03*
X52850000Y-78040000D03*
X52850000Y-76260000D03*
X52850000Y-74480000D03*
X52850000Y-72700000D03*
X42150000Y-71810000D03*
X42150000Y-73590000D03*
X42150000Y-75370000D03*
X42150000Y-77150000D03*
X42150000Y-78930000D03*
X42150000Y-80710000D03*
X42150000Y-82490000D03*
X42150000Y-84270000D03*
%TD*%
D17*
%TO.C,M_TP3*%
X34400000Y-91000000D03*
%TD*%
%TO.C,M_TP43*%
X60500000Y-67500000D03*
%TD*%
%TO.C,M_TP7*%
X51700000Y-107800000D03*
%TD*%
%TO.C,M_TP11*%
X68000000Y-91000000D03*
%TD*%
%TO.C,M_TP17*%
X64700000Y-85850000D03*
%TD*%
%TO.C,M_TP26*%
X38600000Y-99000000D03*
%TD*%
%TO.C,M_TP20*%
X59600000Y-95000000D03*
%TD*%
%TO.C,M_TP24*%
X39500000Y-61400000D03*
%TD*%
%TO.C,M_TP8*%
X59469700Y-102969700D03*
%TD*%
%TO.C,M_TP29*%
X51200000Y-99000000D03*
%TD*%
%TO.C,M_TP22*%
X68000000Y-95000000D03*
%TD*%
%TO.C,M_TP14*%
X33000000Y-35500000D03*
%TD*%
%TO.C,M_TP1*%
X77925000Y-69125000D03*
%TD*%
%TO.C,M_TP12*%
X26000000Y-95000000D03*
%TD*%
%TO.C,M_TP13*%
X60630300Y-100830300D03*
%TD*%
%TO.C,M_TP40*%
X68800000Y-82000000D03*
%TD*%
%TO.C,M_TP31*%
X59600000Y-99000000D03*
%TD*%
%TO.C,M_TP33*%
X68000000Y-99000000D03*
%TD*%
%TO.C,M_TP21*%
X63800000Y-95000000D03*
%TD*%
%TO.C,M_TP2*%
X69650000Y-87600000D03*
%TD*%
%TO.C,M_TP28*%
X47000000Y-99000000D03*
%TD*%
%TO.C,M_TP23*%
X41708300Y-93000000D03*
%TD*%
%TO.C,M_TP41*%
X64800000Y-82000000D03*
%TD*%
%TO.C,M_TP27*%
X42800000Y-99000000D03*
%TD*%
%TO.C,M_TP30*%
X55400000Y-99000000D03*
%TD*%
%TO.C,M_TP16*%
X35750000Y-87900000D03*
%TD*%
%TO.C,M_TP9*%
X59600000Y-91000000D03*
%TD*%
%TO.C,M_TP19*%
X55400000Y-95000000D03*
%TD*%
%TO.C,M_TP4*%
X37755300Y-103030300D03*
%TD*%
%TO.C,M_TP15*%
X38600000Y-95000000D03*
%TD*%
%TO.C,M_TP10*%
X63800000Y-91000000D03*
%TD*%
%TO.C,M_TP18*%
X47350000Y-96700000D03*
%TD*%
%TO.C,M_TP42*%
X59000000Y-86000000D03*
%TD*%
%TO.C,M_TP6*%
X69000000Y-102650000D03*
%TD*%
%TO.C,M_TP32*%
X63800000Y-99000000D03*
%TD*%
%TO.C,M_TP25*%
X34400000Y-99000000D03*
%TD*%
%TO.C,M_TP5*%
X42800000Y-91000000D03*
%TD*%
M02*
