%TF.GenerationSoftware,KiCad,Pcbnew,10.0.6*%
%TF.CreationDate,2026-09-12T15:14:29+02:00*%
%TF.ProjectId,Panel,50616e65-6c2e-46b6-9963-61645f706362,rev?*%
%TF.SameCoordinates,Original*%
%TF.FileFunction,Soldermask,Bot*%
%TF.FilePolarity,Negative*%
%FSLAX46Y46*%
G04 Gerber Fmt 4.6, Leading zero omitted, Abs format (unit mm)*
G04 Created by KiCad (PCBNEW 10.0.6) date 2026-09-12 15:14:29*
%MOMM*%
%LPD*%
G01*
G04 APERTURE LIST*
%ADD10C,0.650000*%
%ADD11O,1.000000X2.100000*%
%ADD12O,1.000000X1.600000*%
%ADD13R,2.000000X2.000000*%
%ADD14C,2.000000*%
%ADD15R,1.300000X1.300000*%
%ADD16C,1.300000*%
%ADD17R,2.200000X2.200000*%
%ADD18C,2.200000*%
%ADD19R,1.800000X1.800000*%
%ADD20C,1.800000*%
%ADD21C,1.000000*%
G04 APERTURE END LIST*
D10*
%TO.C,M_J1*%
X49890000Y-13600000D03*
X44110000Y-13600000D03*
D11*
X51320000Y-14130000D03*
D12*
X51320000Y-9950000D03*
D11*
X42680000Y-14130000D03*
D12*
X42680000Y-9950000D03*
%TD*%
D13*
%TO.C,W_J5*%
X114460000Y-60000000D03*
D14*
X117000000Y-60000000D03*
X119540000Y-60000000D03*
%TD*%
D15*
%TO.C,M_U35*%
X52850000Y-85160000D03*
D16*
X52850000Y-83380000D03*
X52850000Y-81600000D03*
X52850000Y-79820000D03*
X52850000Y-78040000D03*
X52850000Y-76260000D03*
X52850000Y-74480000D03*
X52850000Y-72700000D03*
X42150000Y-71810000D03*
X42150000Y-73590000D03*
X42150000Y-75370000D03*
X42150000Y-77150000D03*
X42150000Y-78930000D03*
X42150000Y-80710000D03*
X42150000Y-82490000D03*
X42150000Y-84270000D03*
%TD*%
D17*
%TO.C,M_J4*%
X68730000Y-42500000D03*
D18*
X71270000Y-42500000D03*
%TD*%
D17*
%TO.C,M_J3*%
X22730000Y-67500000D03*
D18*
X25270000Y-67500000D03*
%TD*%
D17*
%TO.C,M_J10*%
X79270000Y-49000000D03*
D18*
X76730000Y-49000000D03*
%TD*%
D17*
%TO.C,M_J2*%
X22730000Y-42500000D03*
D18*
X25270000Y-42500000D03*
%TD*%
D17*
%TO.C,W_J11*%
X98270000Y-17350000D03*
D18*
X95730000Y-17350000D03*
%TD*%
D19*
%TO.C,M_J6*%
X38810000Y-24270000D03*
D20*
X38810000Y-21730000D03*
X36270000Y-24270000D03*
X36270000Y-21730000D03*
X33730000Y-24270000D03*
X33730000Y-21730000D03*
X31190000Y-24270000D03*
X31190000Y-21730000D03*
%TD*%
D19*
%TO.C,E_J7*%
X95190000Y-93230000D03*
D20*
X95190000Y-95770000D03*
X97730000Y-93230000D03*
X97730000Y-95770000D03*
X100270000Y-93230000D03*
X100270000Y-95770000D03*
X102810000Y-93230000D03*
X102810000Y-95770000D03*
%TD*%
D19*
%TO.C,M_J8*%
X81770000Y-52720000D03*
D20*
X79230000Y-52720000D03*
X81770000Y-55260000D03*
X79230000Y-55260000D03*
X81770000Y-57800000D03*
X79230000Y-57800000D03*
X81770000Y-60340000D03*
X79230000Y-60340000D03*
X81770000Y-62880000D03*
X79230000Y-62880000D03*
X81770000Y-65420000D03*
X79230000Y-65420000D03*
X81770000Y-67960000D03*
X79230000Y-67960000D03*
X81770000Y-70500000D03*
X79230000Y-70500000D03*
X81770000Y-73040000D03*
X79230000Y-73040000D03*
X81770000Y-75580000D03*
X79230000Y-75580000D03*
X81770000Y-78120000D03*
X79230000Y-78120000D03*
X81770000Y-80660000D03*
X79230000Y-80660000D03*
X81770000Y-83200000D03*
X79230000Y-83200000D03*
X81770000Y-85740000D03*
X79230000Y-85740000D03*
X81770000Y-88280000D03*
X79230000Y-88280000D03*
%TD*%
D19*
%TO.C,W_J9*%
X142280000Y-12270000D03*
D20*
X142280000Y-9730000D03*
X139740000Y-12270000D03*
X139740000Y-9730000D03*
X137200000Y-12270000D03*
X137200000Y-9730000D03*
X134660000Y-12270000D03*
X134660000Y-9730000D03*
X132120000Y-12270000D03*
X132120000Y-9730000D03*
X129580000Y-12270000D03*
X129580000Y-9730000D03*
X127040000Y-12270000D03*
X127040000Y-9730000D03*
X124500000Y-12270000D03*
X124500000Y-9730000D03*
X121960000Y-12270000D03*
X121960000Y-9730000D03*
X119420000Y-12270000D03*
X119420000Y-9730000D03*
X116880000Y-12270000D03*
X116880000Y-9730000D03*
X114340000Y-12270000D03*
X114340000Y-9730000D03*
X111800000Y-12270000D03*
X111800000Y-9730000D03*
X109260000Y-12270000D03*
X109260000Y-9730000D03*
X106720000Y-12270000D03*
X106720000Y-9730000D03*
%TD*%
D21*
%TO.C,M_TP3*%
X34400000Y-91000000D03*
%TD*%
%TO.C,M_TP43*%
X60500000Y-67500000D03*
%TD*%
%TO.C,M_TP7*%
X51700000Y-107800000D03*
%TD*%
%TO.C,M_TP11*%
X68000000Y-91000000D03*
%TD*%
%TO.C,M_TP17*%
X64700000Y-85850000D03*
%TD*%
%TO.C,M_TP26*%
X38600000Y-99000000D03*
%TD*%
%TO.C,M_TP20*%
X59600000Y-95000000D03*
%TD*%
%TO.C,M_TP24*%
X39500000Y-61400000D03*
%TD*%
%TO.C,M_TP8*%
X59469700Y-102969700D03*
%TD*%
%TO.C,M_TP29*%
X51200000Y-99000000D03*
%TD*%
%TO.C,M_TP22*%
X68000000Y-95000000D03*
%TD*%
%TO.C,M_TP14*%
X33000000Y-35500000D03*
%TD*%
%TO.C,M_TP1*%
X76400000Y-69125000D03*
%TD*%
%TO.C,M_TP12*%
X26000000Y-95000000D03*
%TD*%
%TO.C,M_TP13*%
X60630300Y-100830300D03*
%TD*%
%TO.C,M_TP40*%
X68800000Y-82000000D03*
%TD*%
%TO.C,M_TP31*%
X59600000Y-99000000D03*
%TD*%
%TO.C,M_TP33*%
X68000000Y-99000000D03*
%TD*%
%TO.C,M_TP21*%
X63800000Y-95000000D03*
%TD*%
%TO.C,M_TP2*%
X69650000Y-87600000D03*
%TD*%
%TO.C,M_TP28*%
X47000000Y-99000000D03*
%TD*%
%TO.C,M_TP23*%
X41708300Y-93000000D03*
%TD*%
%TO.C,M_TP41*%
X64800000Y-82000000D03*
%TD*%
%TO.C,M_TP27*%
X42800000Y-99000000D03*
%TD*%
%TO.C,M_TP30*%
X55400000Y-99000000D03*
%TD*%
%TO.C,M_TP16*%
X35750000Y-87900000D03*
%TD*%
%TO.C,M_TP9*%
X59600000Y-91000000D03*
%TD*%
%TO.C,M_TP19*%
X55400000Y-95000000D03*
%TD*%
%TO.C,M_TP4*%
X37755300Y-103030300D03*
%TD*%
%TO.C,M_TP15*%
X38600000Y-95000000D03*
%TD*%
%TO.C,M_TP10*%
X59950000Y-36700000D03*
%TD*%
%TO.C,M_TP18*%
X47350000Y-96700000D03*
%TD*%
%TO.C,M_TP42*%
X59000000Y-86000000D03*
%TD*%
%TO.C,M_TP6*%
X69000000Y-102650000D03*
%TD*%
%TO.C,M_TP32*%
X63800000Y-99000000D03*
%TD*%
%TO.C,M_TP25*%
X34400000Y-99000000D03*
%TD*%
%TO.C,M_TP5*%
X42800000Y-91000000D03*
%TD*%
M02*
