<?xml version='1.0' encoding='utf-8'?>
<svg width="46.386718mm" height="26.777543mm" viewBox="-23.193359 -13.388772 46.386718 26.777543" version="1.1" xmlns="http://www.w3.org/2000/svg">
  <g transform="scale(1,-1)" stroke-linecap="round">
    <g fill="none" stroke="rgb(0,0,0)" stroke-width="0.09" id="visible">
      <line x1="-23.148359" y1="4.753127" x2="-23.148359" y2="8.035348" />
      <line x1="-23.148359" y1="8.035348" x2="-15.549506" y2="13.343772" />
      <line x1="-23.148359" y1="4.753127" x2="15.549506" y2="-13.343772" />
      <line x1="15.549506" y1="-13.343772" x2="15.549506" y2="-10.061551" />
      <line x1="-23.148359" y1="8.035348" x2="15.549506" y2="-10.061551" />
      <line x1="-15.549506" y1="13.343772" x2="23.148359" y2="-4.753127" />
      <line x1="15.549506" y1="-10.061551" x2="23.148359" y2="-4.753127" />
      <path d="M -14.163419,8.264575 A 1.7,0.9716643087759452 0.0 0,1 -13.779146,8.87987" />
      <path d="M -13.779146,8.87987 A 1.7,0.9716643087759452 0.0 0,1 -17.179146,8.87987" />
      <path d="M -17.179146,8.87987 A 1.7,0.9716643087759452 0.0 0,1 -14.163419,8.264575" />
      <path d="M -6.423846,4.645196 A 1.7,0.9716643087759452 0.0 0,1 -6.039573,5.26049" />
      <path d="M -6.039573,5.26049 A 1.7,0.9716643087759452 0.0 0,1 -9.439573,5.26049" />
      <path d="M -9.439573,5.26049 A 1.7,0.9716643087759452 0.0 0,1 -6.423846,4.645196" />
      <path d="M 9.0553,-2.593564 A 1.7,0.9716643087759452 0.0 0,1 9.439573,-1.978269" />
      <path d="M 9.439573,-1.978269 A 1.7,0.9716643087759452 0.0 0,1 6.039573,-1.978269" />
      <path d="M 6.039573,-1.978269 A 1.7,0.9716643087759452 0.0 0,1 9.0553,-2.593564" />
      <path d="M 16.794873,-6.212944 A 1.7,0.9716643087759452 0.0 0,1 17.179146,-5.597649" />
      <path d="M 17.179146,-5.597649 A 1.7,0.9716643087759452 0.0 0,1 13.779146,-5.597649" />
      <path d="M 13.779146,-5.597649 A 1.7,0.9716643087759452 0.0 0,1 16.794873,-6.212944" />
      <line x1="23.148359" y1="-8.035348" x2="23.148359" y2="-4.753127" />
      <line x1="15.549506" y1="-13.343772" x2="23.148359" y2="-8.035348" />
    </g>
  </g>
</svg>