M48
; DRILL file KiCad 10.0.6 date 2026-09-11T18:30:00
; FORMAT={-:-/ absolute / metric / decimal}
; #@! TF.CreationDate,2026-09-11T18:30:00+02:00
; #@! TF.GenerationSoftware,Kicad,Pcbnew,10.0.6
; #@! TF.FileFunction,Plated,1,4,PTH
FMAT,2
METRIC
; #@! TA.AperFunction,Plated,PTH,ViaDrill
T1C0.200
; #@! TA.AperFunction,Plated,PTH,ViaDrill
T2C0.300
; #@! TA.AperFunction,Plated,PTH,ComponentDrill
T3C0.600
; #@! TA.AperFunction,Plated,PTH,ComponentDrill
T4C0.700
%
G90
G05
T1
X11.5Y-51.65
X12.9Y-84.55
X12.95Y-65.3
X13.4Y-87.75
X13.9Y-86.45
X15.3Y-44.1
X15.65Y-90.5
X15.8Y-91.1
X15.95Y-52.7
X16.0Y-84.7
X17.75Y-40.35
X17.957Y-41.123
X19.2Y-83.05
X19.55Y-77.95
X20.4Y-85.6
X21.3Y-49.95
X21.3Y-83.7
X21.35Y-70.6
X21.35Y-87.25
X21.4Y-43.1
X21.4Y-78.45
X21.6Y-32.15
X21.85Y-77.05
X21.95Y-44.85
X22.45Y-45.35
X22.5Y-49.05
X22.5Y-69.45
X22.5Y-76.4
X22.7Y-57.9
X22.75Y-49.65
X22.8Y-89.9
X22.85Y-84.7
X22.95Y-51.65
X22.95Y-61.85
X23.0Y-56.1
X23.0Y-92.95
X23.2Y-40.35
X23.2Y-60.8
X23.3Y-91.1
X23.4Y-46.15
X23.6Y-89.9
X23.65Y-78.45
X23.653Y-42.04
X23.75Y-76.0
X24.1Y-49.95
X24.15Y-83.8
X24.5Y-92.1
X24.65Y-85.95
X24.7Y-51.95
X24.7Y-53.75
X24.7Y-61.25
X24.75Y-20.4
X24.75Y-45.55
X24.75Y-47.15
X24.8Y-60.0
X24.85Y-75.45
X24.85Y-79.25
X25.05Y-78.65
X25.05Y-94.2
X25.3Y-42.95
X25.4Y-70.15
X25.4Y-75.1
X25.5Y-20.5
X25.75Y-66.4
X25.75Y-68.55
X25.75Y-76.45
X25.85Y-53.8
X26.0Y-43.612
X26.15Y-86.0
X26.2Y-41.35
X26.25Y-40.35
X26.25Y-50.15
X26.25Y-82.0
X26.3Y-59.2
X26.4Y-49.15
X26.45Y-99.5
X26.6Y-84.975
X26.65Y-44.7
X26.7Y-92.832
X26.8Y-20.8
X26.85Y-35.65
X26.85Y-65.25
X26.9Y-75.3
X27.0Y-56.25
X27.0Y-76.6
X27.05Y-72.3
X27.1Y-38.55
X27.116Y-40.85
X27.15Y-86.5
X27.2Y-90.05
X27.25Y-68.45
X27.3Y-43.1
X27.3Y-51.75
X27.3Y-81.85
X27.35Y-45.65
X27.4Y-67.85
X27.5Y-20.5
X27.5Y-35.75
X27.55Y-92.9
X27.7Y-79.45
X27.7Y-91.1
X27.75Y-41.15
X27.75Y-81.4
X27.8Y-67.15
X27.866Y-82.416
X28.2Y-73.0
X28.3Y-72.05
X28.3Y-74.35
X28.35Y-89.4
X28.426Y-91.143
X28.5Y-71.15
X28.5Y-76.45
X28.55Y-92.75
X28.6Y-36.15
X28.7Y-43.1
X28.7Y-48.55
X28.75Y-51.6
X28.75Y-80.9
X28.75Y-83.05
X28.95Y-66.65
X29.0Y-21.6
X29.1Y-84.35
X29.1Y-87.55
X29.15Y-65.0
X29.15Y-78.0
X29.2Y-20.5
X29.3Y-86.0
X29.4Y-90.75
X29.4Y-93.0
X29.55Y-51.6
X30.0Y-71.15
X30.0Y-93.2
X30.0Y-101.5
X30.1Y-66.85
X30.2Y-86.45
X30.5Y-21.7
X30.55Y-71.9
X30.55Y-81.7
X30.6Y-40.0
X30.6Y-71.25
X30.7Y-52.6
X30.9Y-83.9
X30.95Y-56.4
X31.0Y-94.95
X31.034Y-78.334
X31.15Y-64.55
X31.15Y-68.4
X31.2Y-61.8
X31.35Y-23.25
X31.35Y-26.4
X31.35Y-65.375
X31.55Y-93.75
X31.55Y-96.05
X31.6Y-78.9
X31.65Y-90.3
X31.65Y-91.55
X32.0Y-88.0
X32.1Y-52.5
X32.2Y-93.85
X32.25Y-39.3
X32.25Y-90.15
X32.35Y-57.25
X32.35Y-83.05
X32.35Y-102.6
X32.4Y-64.15
X32.5Y-53.0
X32.6Y-65.375
X32.6Y-69.1
X32.65Y-76.3
X32.65Y-95.45
X32.8Y-72.4
X32.9Y-60.85
X33.0Y-23.25
X33.15Y-69.4
X33.3Y-22.134
X33.4Y-29.4
X33.4Y-59.1
X33.55Y-51.65
X33.637Y-55.7
X33.7Y-69.0
X33.7Y-70.6
X33.75Y-83.5
X33.75Y-85.5
X33.8Y-23.0
X33.8Y-92.35
X33.8Y-93.35
X34.0Y-88.5
X34.05Y-97.45
X34.1Y-72.15
X34.1Y-72.95
X34.15Y-61.8
X34.2Y-29.4
X34.25Y-89.85
X34.4Y-87.85
X34.55Y-92.6
X34.637Y-54.65
X34.65Y-59.1
X34.7Y-96.1
X34.9Y-87.5
X34.95Y-89.7
X34.95Y-91.3
X35.1Y-92.85
X35.15Y-62.95
X35.2Y-60.0
X35.25Y-58.265
X35.5Y-86.85
X35.7Y-56.2
X35.9Y-61.65
X36.45Y-51.65
X36.5Y-25.3
X36.5Y-56.1
X36.5Y-59.4
X36.6Y-93.35
X36.65Y-63.05
X36.8Y-53.3
X36.85Y-59.9
X36.85Y-96.35
X36.85Y-97.3
X37.0Y-85.5
X37.036Y-91.549
X37.05Y-84.1
X37.35Y-96.95
X37.45Y-89.45
X37.6Y-55.65
X37.65Y-56.4
X37.65Y-59.55
X37.75Y-62.95
X37.8Y-88.7
X37.95Y-91.15
X38.175Y-85.2
X38.2Y-55.7
X38.2Y-57.0
X38.35Y-10.0
X38.45Y-52.4
X38.7Y-57.4
X38.865Y-97.825
X38.9Y-63.05
X39.15Y-92.7
X39.3Y-60.1
X39.6Y-81.2
X39.75Y-54.45
X40.0Y-24.575
X40.15Y-55.3
X40.15Y-62.05
X40.15Y-86.9
X40.388Y-63.056
X40.45Y-56.413
X40.7Y-82.6
X41.1Y-60.4
X41.2Y-61.6
X41.5Y-88.65
X41.532Y-56.582
X41.7Y-89.75
X41.75Y-24.7
X41.75Y-82.975
X41.75Y-90.75
X41.85Y-52.35
X41.85Y-58.35
X42.0Y-60.7
X42.15Y-57.8
X42.15Y-86.75
X42.25Y-55.4
X42.35Y-62.9
X42.45Y-89.6
X42.65Y-61.35
X42.65Y-84.75
X42.9Y-94.45
X43.0Y-24.7
X43.0Y-85.375
X43.0Y-87.85
X43.05Y-52.35
X43.05Y-96.0
X43.15Y-59.65
X43.15Y-62.9
X43.2Y-99.25
X43.3Y-58.35
X43.35Y-57.65
X43.45Y-51.657
X43.6Y-99.943
X43.8Y-85.162
X43.85Y-94.5
X43.95Y-60.85
X44.05Y-89.85
X44.1Y-83.75
X44.2Y-92.0
X44.3Y-24.7
X44.35Y-85.8
X44.65Y-94.5
X44.7Y-82.037
X44.7Y-83.95
X44.85Y-90.4
X45.0Y-57.2
X45.134Y-80.216
X45.15Y-86.85
X45.4Y-93.8
X45.55Y-97.7
X45.6Y-60.35
X45.7Y-79.65
X45.75Y-84.6
X45.85Y-24.65
X45.85Y-101.4
X45.95Y-88.65
X45.95Y-98.393
X46.1Y-91.8
X46.15Y-89.45
X46.15Y-90.55
X46.2Y-91.2
X46.2Y-92.4
X46.2Y-100.8
X46.3Y-59.0
X46.3Y-60.5
X46.35Y-83.25
X46.35Y-85.05
X46.35Y-97.1
X46.5Y-24.7
X46.5Y-94.95
X46.6Y-46.775
X46.6Y-47.35
X46.6Y-49.95
X46.7Y-80.9
X46.75Y-57.8
X46.75Y-84.5
X46.95Y-23.5
X47.0Y-28.65
X47.0Y-30.3
X47.0Y-44.35
X47.0Y-85.525
X47.0Y-90.5
X47.0Y-93.05
X47.05Y-17.35
X47.05Y-22.0
X47.1Y-49.45
X47.25Y-55.7
X47.3Y-74.6
X47.3Y-88.2
X47.6Y-48.5
X47.6Y-60.35
X47.6Y-82.1
X47.65Y-67.616
X47.65Y-71.95
X47.7Y-44.45
X47.75Y-24.7
X47.95Y-28.325
X48.1Y-84.15
X48.15Y-66.75
X48.2Y-47.55
X48.2Y-81.05
X48.25Y-17.0
X48.25Y-18.8
X48.3Y-48.2
X48.45Y-22.35
X48.45Y-79.9
X48.65Y-41.6
X48.65Y-63.75
X48.7Y-28.55
X48.75Y-55.5
X48.75Y-90.15
X48.75Y-95.3
X48.8Y-85.35
X48.85Y-49.7
X48.85Y-56.7
X48.9Y-57.7
X48.9Y-61.85
X48.9Y-103.95
X49.2Y-47.25
X49.223Y-80.107
X49.25Y-23.65
X49.25Y-28.35
X49.25Y-58.75
X49.45Y-86.5
X49.5Y-62.75
X49.6Y-83.05
X49.65Y-41.4
X49.7Y-85.25
X49.8Y-48.6
X49.832Y-56.577
X49.85Y-75.5
X49.9Y-20.35
X49.9Y-65.35
X50.0Y-43.75
X50.0Y-83.75
X50.1Y-61.35
X50.15Y-98.35
X50.25Y-21.35
X50.25Y-23.15
X50.45Y-41.4
X50.45Y-43.3
X50.45Y-71.05
X50.45Y-76.4
X50.5Y-46.0
X50.5Y-62.043
X50.55Y-74.8
X50.55Y-75.45
X50.55Y-78.55
X50.75Y-48.107
X50.75Y-83.6
X50.85Y-70.4
X50.9Y-21.35
X50.95Y-64.15
X50.95Y-92.7
X51.0Y-64.85
X51.05Y-66.75
X51.05Y-73.0
X51.05Y-86.9
X51.1Y-54.137
X51.1Y-59.85
X51.3Y-44.6
X51.3Y-96.65
X51.5Y-52.25
X51.55Y-78.1
X51.6Y-88.55
X51.7Y-69.05
X51.7Y-87.95
X51.75Y-59.85
X51.75Y-94.65
X51.8Y-53.9
X51.95Y-45.2
X52.0Y-79.0
X52.0Y-83.1
X52.2Y-48.8
X52.3Y-68.85
X52.307Y-48.15
X52.35Y-76.1
X52.4Y-59.862
X52.6Y-84.0
X52.607Y-45.75
X52.758Y-46.45
X52.85Y-92.7
X52.9Y-57.3
X52.9Y-58.1
X52.95Y-29.7
X53.0Y-47.75
X53.0Y-98.75
X53.05Y-59.462
X53.1Y-93.3
X53.182Y-52.218
X53.361Y-69.911
X53.4Y-97.05
X53.45Y-28.15
X53.5Y-83.75
X53.65Y-61.4
X53.7Y-54.15
X53.75Y-46.25
X53.75Y-57.25
X53.9Y-66.95
X54.0Y-44.35
X54.0Y-64.6
X54.0Y-69.5
X54.05Y-24.7
X54.25Y-61.7
X54.323Y-65.807
X54.5Y-72.9
X54.5Y-73.7
X54.95Y-60.1
X55.016Y-49.466
X55.15Y-94.3
X55.25Y-22.7
X55.334Y-55.534
X55.35Y-57.45
X55.6Y-38.65
X55.6Y-82.45
X55.7Y-100.75
X55.9Y-50.35
X55.9Y-56.1
X56.05Y-22.45
X56.1Y-38.35
X56.15Y-90.95
X56.3Y-23.6
X56.45Y-90.4
X56.8Y-75.55
X56.9Y-67.1
X56.95Y-63.75
X56.95Y-83.1
X57.2Y-83.9
X57.2Y-96.55
X57.25Y-65.35
X57.3Y-88.55
X57.5Y-67.0
X57.5Y-76.1
X57.55Y-47.9
X57.55Y-48.7
X57.6Y-66.35
X57.7Y-62.451
X57.7Y-94.5
X57.75Y-88.1
X57.8Y-57.9
X58.15Y-93.4
X58.2Y-96.35
X58.5Y-95.3
X58.6Y-67.1
X58.65Y-91.15
X58.686Y-66.014
X58.75Y-65.4
X58.75Y-83.95
X58.891Y-86.959
X59.05Y-59.15
X59.2Y-87.75
X59.216Y-91.716
X59.25Y-67.1
X59.45Y-66.1
X59.6Y-88.8
X59.8Y-97.35
X59.95Y-67.1
X60.1Y-64.6
X60.2Y-78.6
X60.7Y-79.8
X60.775Y-41.5
X60.8Y-42.4
X60.8Y-43.35
X60.85Y-96.95
X60.95Y-67.1
X61.0Y-78.6
X61.1Y-50.1
X61.15Y-55.3
X61.15Y-84.9
X61.15Y-89.1
X61.2Y-17.25
X61.3Y-91.25
X61.35Y-44.0
X61.45Y-47.3
X61.6Y-81.95
X62.2Y-49.3
X62.35Y-41.5
X62.55Y-42.275
X62.8Y-17.25
X62.85Y-96.95
X63.2Y-80.05
X63.6Y-90.45
X63.606Y-66.388
X63.8Y-41.7
X64.15Y-40.3
X64.2Y-90.55
X64.25Y-68.95
X64.45Y-39.65
X64.8Y-66.05
X65.25Y-68.95
X65.65Y-67.1
X66.0Y-66.6
X66.1Y-65.3
X66.25Y-68.95
X66.45Y-19.65
X66.75Y-65.95
X67.25Y-69.15
X67.75Y-66.05
X67.75Y-74.25
X67.8Y-65.3
X67.8Y-67.1
X68.25Y-69.15
X68.85Y-61.65
X69.2Y-66.6
X69.3Y-66.0
X69.85Y-23.95
X70.25Y-69.15
X71.3Y-62.5
T2
X11.9Y-54.2
X12.0Y-87.05
X12.0Y-90.95
X12.0Y-95.7
X12.0Y-97.65
X12.175Y-22.8
X13.0Y-40.55
X13.1Y-99.6
X13.5Y-52.7
X13.8Y-42.5
X13.9Y-99.7
X14.0Y-20.7
X14.0Y-43.3
X14.0Y-46.8
X14.2Y-102.0
X14.4Y-85.4
X14.4Y-95.5
X14.6Y-63.3
X14.7Y-48.5
X14.8Y-43.2
X14.9Y-65.5
X15.0Y-20.7
X15.0Y-37.8
X15.0Y-49.3
X15.1Y-88.9
X15.3Y-44.8
X15.3Y-55.1
X16.0Y-20.7
X16.6Y-43.45
X16.6Y-46.55
X16.6Y-52.45
X16.6Y-55.55
X17.0Y-58.2
X17.2Y-99.0
X17.4Y-43.45
X17.4Y-46.55
X17.4Y-52.45
X17.4Y-55.55
X17.5Y-103.0
X17.6Y-95.0
X17.65Y-88.8
X17.7Y-93.4
X17.7Y-102.0
X17.9Y-86.3
X17.95Y-85.65
X18.0Y-24.0
X18.0Y-90.3
X18.6Y-99.6
X18.7Y-73.0
X18.8Y-47.4
X18.8Y-49.1
X18.9Y-45.05
X18.9Y-54.05
X18.9Y-65.5
X18.95Y-55.4
X19.0Y-58.2
X19.05Y-53.25
X19.1Y-41.6
X19.1Y-46.4
X19.2Y-67.9
X19.75Y-90.95
X20.0Y-23.525
X20.0Y-51.8
X20.0Y-88.8
X20.0Y-95.7
X20.0Y-97.65
X20.2Y-83.4
X20.5Y-95.1
X20.75Y-55.7
X20.8Y-42.05
X20.9Y-43.6
X21.05Y-48.6
X21.1Y-91.9
X21.2Y-25.675
X21.2Y-102.2
X21.35Y-79.3
X21.85Y-31.5
X22.15Y-22.25
X22.25Y-33.15
X22.4Y-81.2
X22.65Y-29.25
X22.7Y-27.45
X22.8Y-64.0
X22.9Y-47.2
X22.9Y-65.5
X23.0Y-22.25
X23.1Y-59.9
X23.25Y-33.1
X23.25Y-41.35
X23.4Y-30.75
X23.5Y-27.45
X23.5Y-52.1
X23.85Y-22.25
X24.2Y-44.35
X24.3Y-27.45
X24.35Y-74.85
X24.9Y-26.0
X25.25Y-39.45
X25.3Y-26.9
X25.6Y-89.1
X25.65Y-24.2
X25.95Y-35.05
X25.95Y-44.45
X26.0Y-33.45
X26.05Y-32.2
X26.05Y-45.25
X26.15Y-47.35
X26.45Y-36.2
X26.5Y-95.1
X26.55Y-30.35
X26.7Y-58.4
X27.4Y-63.2
X27.55Y-23.9
X27.8Y-41.85
X28.85Y-34.35
X30.1Y-43.4
X30.55Y-34.35
X31.3Y-30.25
X31.3Y-53.8
X31.3Y-99.1
X31.4Y-89.0
X31.5Y-27.1
X31.7Y-94.95
X31.95Y-32.55
X32.1Y-99.8
X32.1Y-103.4
X32.15Y-26.45
X33.0Y-25.55
X33.0Y-34.35
X33.0Y-88.6
X33.35Y-48.0
X33.8Y-100.3
X34.0Y-102.6
X34.6Y-100.4
X34.8Y-2.95
X34.8Y-7.13
X34.9Y-102.6
X35.1Y-24.0
X35.35Y-85.0
X35.8Y-97.8
X35.8Y-102.6
X36.45Y-24.5
X36.6Y-102.6
X36.75Y-9.3
X36.8Y-88.55
X37.4Y-102.6
X37.55Y-9.7
X37.55Y-10.5
X38.3Y-102.6
X38.35Y-93.3
X38.8Y-99.6
X39.2Y-102.6
X40.0Y-102.6
X40.8Y-102.6
X41.7Y-102.6
X42.45Y-9.7
X42.45Y-10.5
X42.5Y-102.6
X42.55Y-83.8
X43.0Y-97.6
X43.25Y-9.3
X43.4Y-102.6
X43.6Y-95.6
X44.2Y-102.6
X45.0Y-96.4
X45.1Y-102.6
X45.2Y-2.95
X45.2Y-7.13
X45.9Y-102.6
X46.1Y-93.9
X46.1Y-95.6
X46.1Y-96.4
X46.2Y-102.0
X46.4Y-55.7
X47.4Y-61.7
X47.8Y-20.8
X47.9Y-89.4
X47.9Y-103.4
X48.1Y-95.1
X48.35Y-98.55
X48.6Y-96.9
X48.7Y-25.2
X48.7Y-81.6
X49.0Y-53.0
X49.0Y-100.2
X49.3Y-31.85
X49.4Y-95.1
X49.8Y-92.55
X50.0Y-95.6
X50.1Y-64.7
X50.2Y-69.4
X50.2Y-91.75
X50.4Y-52.9
X51.0Y-92.0
X51.2Y-98.85
X51.6Y-28.5
X52.0Y-23.6
X52.4Y-100.75
X53.0Y-18.5
X53.0Y-23.5
X53.0Y-39.35
X53.0Y-96.5
X53.65Y-37.0
X53.7Y-20.2
X53.75Y-56.55
X54.0Y-88.225
X54.0Y-89.775
X54.0Y-93.7
X54.2Y-24.1
X54.3Y-85.5
X54.3Y-99.8
X54.4Y-59.7
X54.6Y-22.45
X54.6Y-25.2
X54.675Y-32.0
X54.7Y-98.5
X54.85Y-52.5
X55.05Y-41.2
X55.1Y-68.2
X55.1Y-97.6
X55.2Y-24.55
X55.2Y-91.5
X55.3Y-84.5
X55.75Y-69.8
X55.75Y-92.05
X56.0Y-43.35
X56.0Y-87.1
X56.15Y-58.15
X56.3Y-102.4
X56.325Y-30.3
X56.4Y-94.7
X56.6Y-99.6
X56.75Y-50.3
X56.75Y-69.8
X56.9Y-27.9
X57.05Y-24.55
X57.15Y-93.9
X57.35Y-90.35
X57.45Y-63.25
X57.45Y-78.85
X57.55Y-29.2
X57.6Y-45.2
X57.6Y-50.3
X57.7Y-101.2
X57.75Y-69.8
X57.9Y-27.9
X58.4Y-55.3
X58.7Y-27.9
X58.75Y-69.8
X59.1Y-57.3
X59.35Y-56.05
X59.4Y-63.7
X59.4Y-99.6
X59.5Y-23.8
X59.6Y-93.2
X59.65Y-102.35
X59.7Y-61.1
X59.7Y-94.0
X59.75Y-69.8
X60.1Y-43.3
X60.1Y-46.8
X60.5Y-24.65
X60.5Y-27.5
X60.5Y-61.9
X60.6Y-103.4
X60.75Y-69.8
X61.0Y-28.0
X61.15Y-52.4
X61.15Y-60.95
X61.3Y-61.9
X61.45Y-24.4
X61.75Y-69.8
X62.0Y-95.65
X62.4Y-54.825
X62.4Y-101.2
X62.5Y-62.4
X62.5Y-100.2
X62.5Y-101.9
X62.6Y-43.45
X62.6Y-46.55
X62.6Y-53.175
X62.7Y-57.2
X62.75Y-69.8
X63.0Y-37.8
X63.4Y-43.45
X63.4Y-46.55
X63.75Y-69.8
X64.2Y-98.5
X64.275Y-61.15
X64.6Y-58.825
X64.75Y-69.8
X64.8Y-49.9
X64.9Y-45.05
X65.0Y-37.8
X65.05Y-44.25
X65.1Y-65.4
X65.45Y-29.75
X65.75Y-69.8
X65.85Y-62.2
X66.0Y-43.3
X66.1Y-26.45
X66.7Y-70.7
X66.75Y-69.8
X67.0Y-54.05
X67.2Y-47.6
X67.45Y-70.8
X67.7Y-57.4
X68.25Y-22.4
X68.25Y-29.6
X68.5Y-55.7
X68.75Y-69.8
X68.9Y-24.55
X69.0Y-62.35
X69.35Y-53.175
X69.75Y-69.8
X70.2Y-94.5
X71.0Y-94.5
X71.8Y-94.5
X72.9Y-94.5
X73.7Y-94.5
X74.5Y-94.5
T4
X35.15Y-64.81
X35.15Y-66.59
X35.15Y-68.37
X35.15Y-70.15
X35.15Y-71.93
X35.15Y-73.71
X35.15Y-75.49
X35.15Y-77.27
X45.85Y-65.7
X45.85Y-67.48
X45.85Y-69.26
X45.85Y-71.04
X45.85Y-72.82
X45.85Y-74.6
X45.85Y-76.38
X45.85Y-78.16
T3
X35.68Y-3.25G85X35.68Y-2.65
G05
X35.68Y-7.68G85X35.68Y-6.58
G05
X44.32Y-3.25G85X44.32Y-2.65
G05
X44.32Y-7.68G85X44.32Y-6.58
G05
M30
