%TF.GenerationSoftware,KiCad,Pcbnew,10.0.6*%
%TF.CreationDate,2026-09-11T18:29:59+02:00*%
%TF.ProjectId,Main,4d61696e-2e6b-4696-9361-645f70636258,rev?*%
%TF.SameCoordinates,Original*%
%TF.FileFunction,Legend,Bot*%
%TF.FilePolarity,Positive*%
%FSLAX46Y46*%
G04 Gerber Fmt 4.6, Leading zero omitted, Abs format (unit mm)*
G04 Created by KiCad (PCBNEW 10.0.6) date 2026-09-11 18:29:59*
%MOMM*%
%LPD*%
G01*
G04 APERTURE LIST*
%ADD10C,0.120000*%
%ADD11C,0.650000*%
%ADD12O,1.000000X2.100000*%
%ADD13O,1.000000X1.600000*%
%ADD14R,1.300000X1.300000*%
%ADD15C,1.300000*%
%ADD16C,1.000000*%
G04 APERTURE END LIST*
%TO.C,TP19*%
D10*
X49100000Y-88000000D02*
G75*
G02*
X47700000Y-88000000I-700000J0D01*
G01*
X47700000Y-88000000D02*
G75*
G02*
X49100000Y-88000000I700000J0D01*
G01*
%TO.C,TP7*%
X45400000Y-100800000D02*
G75*
G02*
X44000000Y-100800000I-700000J0D01*
G01*
X44000000Y-100800000D02*
G75*
G02*
X45400000Y-100800000I700000J0D01*
G01*
%TO.C,TP15*%
X32300000Y-88000000D02*
G75*
G02*
X30900000Y-88000000I-700000J0D01*
G01*
X30900000Y-88000000D02*
G75*
G02*
X32300000Y-88000000I700000J0D01*
G01*
%TO.C,TP41*%
X58500000Y-75000000D02*
G75*
G02*
X57100000Y-75000000I-700000J0D01*
G01*
X57100000Y-75000000D02*
G75*
G02*
X58500000Y-75000000I700000J0D01*
G01*
%TO.C,TP1*%
X71625000Y-62125000D02*
G75*
G02*
X70225000Y-62125000I-700000J0D01*
G01*
X70225000Y-62125000D02*
G75*
G02*
X71625000Y-62125000I700000J0D01*
G01*
%TO.C,TP9*%
X53300000Y-84000000D02*
G75*
G02*
X51900000Y-84000000I-700000J0D01*
G01*
X51900000Y-84000000D02*
G75*
G02*
X53300000Y-84000000I700000J0D01*
G01*
%TO.C,TP17*%
X58400000Y-78850000D02*
G75*
G02*
X57000000Y-78850000I-700000J0D01*
G01*
X57000000Y-78850000D02*
G75*
G02*
X58400000Y-78850000I700000J0D01*
G01*
%TO.C,TP11*%
X61700000Y-84000000D02*
G75*
G02*
X60300000Y-84000000I-700000J0D01*
G01*
X60300000Y-84000000D02*
G75*
G02*
X61700000Y-84000000I700000J0D01*
G01*
%TO.C,TP16*%
X29450000Y-80900000D02*
G75*
G02*
X28050000Y-80900000I-700000J0D01*
G01*
X28050000Y-80900000D02*
G75*
G02*
X29450000Y-80900000I700000J0D01*
G01*
%TO.C,TP5*%
X36500000Y-84000000D02*
G75*
G02*
X35100000Y-84000000I-700000J0D01*
G01*
X35100000Y-84000000D02*
G75*
G02*
X36500000Y-84000000I700000J0D01*
G01*
%TO.C,TP3*%
X28100000Y-84000000D02*
G75*
G02*
X26700000Y-84000000I-700000J0D01*
G01*
X26700000Y-84000000D02*
G75*
G02*
X28100000Y-84000000I700000J0D01*
G01*
%TO.C,TP2*%
X63350000Y-80600000D02*
G75*
G02*
X61950000Y-80600000I-700000J0D01*
G01*
X61950000Y-80600000D02*
G75*
G02*
X63350000Y-80600000I700000J0D01*
G01*
%TO.C,TP8*%
X53169700Y-95969700D02*
G75*
G02*
X51769700Y-95969700I-700000J0D01*
G01*
X51769700Y-95969700D02*
G75*
G02*
X53169700Y-95969700I700000J0D01*
G01*
%TO.C,TP43*%
X54200000Y-60500000D02*
G75*
G02*
X52800000Y-60500000I-700000J0D01*
G01*
X52800000Y-60500000D02*
G75*
G02*
X54200000Y-60500000I700000J0D01*
G01*
%TO.C,TP20*%
X53300000Y-88000000D02*
G75*
G02*
X51900000Y-88000000I-700000J0D01*
G01*
X51900000Y-88000000D02*
G75*
G02*
X53300000Y-88000000I700000J0D01*
G01*
%TO.C,TP40*%
X62500000Y-75000000D02*
G75*
G02*
X61100000Y-75000000I-700000J0D01*
G01*
X61100000Y-75000000D02*
G75*
G02*
X62500000Y-75000000I700000J0D01*
G01*
%TO.C,TP22*%
X61700000Y-88000000D02*
G75*
G02*
X60300000Y-88000000I-700000J0D01*
G01*
X60300000Y-88000000D02*
G75*
G02*
X61700000Y-88000000I700000J0D01*
G01*
%TO.C,TP28*%
X40700000Y-92000000D02*
G75*
G02*
X39300000Y-92000000I-700000J0D01*
G01*
X39300000Y-92000000D02*
G75*
G02*
X40700000Y-92000000I700000J0D01*
G01*
%TO.C,TP29*%
X44900000Y-92000000D02*
G75*
G02*
X43500000Y-92000000I-700000J0D01*
G01*
X43500000Y-92000000D02*
G75*
G02*
X44900000Y-92000000I700000J0D01*
G01*
%TO.C,TP12*%
X19700000Y-88000000D02*
G75*
G02*
X18300000Y-88000000I-700000J0D01*
G01*
X18300000Y-88000000D02*
G75*
G02*
X19700000Y-88000000I700000J0D01*
G01*
%TO.C,TP24*%
X33200000Y-54400000D02*
G75*
G02*
X31800000Y-54400000I-700000J0D01*
G01*
X31800000Y-54400000D02*
G75*
G02*
X33200000Y-54400000I700000J0D01*
G01*
%TO.C,TP23*%
X35408300Y-86000000D02*
G75*
G02*
X34008300Y-86000000I-700000J0D01*
G01*
X34008300Y-86000000D02*
G75*
G02*
X35408300Y-86000000I700000J0D01*
G01*
%TO.C,TP6*%
X62700000Y-95650000D02*
G75*
G02*
X61300000Y-95650000I-700000J0D01*
G01*
X61300000Y-95650000D02*
G75*
G02*
X62700000Y-95650000I700000J0D01*
G01*
%TO.C,TP30*%
X49100000Y-92000000D02*
G75*
G02*
X47700000Y-92000000I-700000J0D01*
G01*
X47700000Y-92000000D02*
G75*
G02*
X49100000Y-92000000I700000J0D01*
G01*
%TO.C,TP25*%
X28100000Y-92000000D02*
G75*
G02*
X26700000Y-92000000I-700000J0D01*
G01*
X26700000Y-92000000D02*
G75*
G02*
X28100000Y-92000000I700000J0D01*
G01*
%TO.C,TP33*%
X61700000Y-92000000D02*
G75*
G02*
X60300000Y-92000000I-700000J0D01*
G01*
X60300000Y-92000000D02*
G75*
G02*
X61700000Y-92000000I700000J0D01*
G01*
%TO.C,TP13*%
X54330300Y-93830300D02*
G75*
G02*
X52930300Y-93830300I-700000J0D01*
G01*
X52930300Y-93830300D02*
G75*
G02*
X54330300Y-93830300I700000J0D01*
G01*
%TO.C,TP18*%
X41050000Y-89700000D02*
G75*
G02*
X39650000Y-89700000I-700000J0D01*
G01*
X39650000Y-89700000D02*
G75*
G02*
X41050000Y-89700000I700000J0D01*
G01*
%TO.C,TP21*%
X57500000Y-88000000D02*
G75*
G02*
X56100000Y-88000000I-700000J0D01*
G01*
X56100000Y-88000000D02*
G75*
G02*
X57500000Y-88000000I700000J0D01*
G01*
%TO.C,TP31*%
X53300000Y-92000000D02*
G75*
G02*
X51900000Y-92000000I-700000J0D01*
G01*
X51900000Y-92000000D02*
G75*
G02*
X53300000Y-92000000I700000J0D01*
G01*
%TO.C,TP10*%
X57500000Y-84000000D02*
G75*
G02*
X56100000Y-84000000I-700000J0D01*
G01*
X56100000Y-84000000D02*
G75*
G02*
X57500000Y-84000000I700000J0D01*
G01*
%TO.C,TP14*%
X26700000Y-28500000D02*
G75*
G02*
X25300000Y-28500000I-700000J0D01*
G01*
X25300000Y-28500000D02*
G75*
G02*
X26700000Y-28500000I700000J0D01*
G01*
%TO.C,TP4*%
X31455300Y-96030300D02*
G75*
G02*
X30055300Y-96030300I-700000J0D01*
G01*
X30055300Y-96030300D02*
G75*
G02*
X31455300Y-96030300I700000J0D01*
G01*
%TO.C,TP32*%
X57500000Y-92000000D02*
G75*
G02*
X56100000Y-92000000I-700000J0D01*
G01*
X56100000Y-92000000D02*
G75*
G02*
X57500000Y-92000000I700000J0D01*
G01*
%TO.C,TP42*%
X52700000Y-79000000D02*
G75*
G02*
X51300000Y-79000000I-700000J0D01*
G01*
X51300000Y-79000000D02*
G75*
G02*
X52700000Y-79000000I700000J0D01*
G01*
%TO.C,TP26*%
X32300000Y-92000000D02*
G75*
G02*
X30900000Y-92000000I-700000J0D01*
G01*
X30900000Y-92000000D02*
G75*
G02*
X32300000Y-92000000I700000J0D01*
G01*
%TO.C,TP27*%
X36500000Y-92000000D02*
G75*
G02*
X35100000Y-92000000I-700000J0D01*
G01*
X35100000Y-92000000D02*
G75*
G02*
X36500000Y-92000000I700000J0D01*
G01*
%TD*%
%LPC*%
D11*
%TO.C,J1*%
X42890000Y-6600000D03*
X37110000Y-6600000D03*
D12*
X44320000Y-7130000D03*
D13*
X44320000Y-2950000D03*
D12*
X35680000Y-7130000D03*
D13*
X35680000Y-2950000D03*
%TD*%
D14*
%TO.C,U35*%
X45850000Y-78160000D03*
D15*
X45850000Y-76380000D03*
X45850000Y-74600000D03*
X45850000Y-72820000D03*
X45850000Y-71040000D03*
X45850000Y-69260000D03*
X45850000Y-67480000D03*
X45850000Y-65700000D03*
X35150000Y-64810000D03*
X35150000Y-66590000D03*
X35150000Y-68370000D03*
X35150000Y-70150000D03*
X35150000Y-71930000D03*
X35150000Y-73710000D03*
X35150000Y-75490000D03*
X35150000Y-77270000D03*
%TD*%
D16*
%TO.C,TP19*%
X48400000Y-88000000D03*
%TD*%
%TO.C,TP7*%
X44700000Y-100800000D03*
%TD*%
%TO.C,TP15*%
X31600000Y-88000000D03*
%TD*%
%TO.C,TP41*%
X57800000Y-75000000D03*
%TD*%
%TO.C,TP1*%
X70925000Y-62125000D03*
%TD*%
%TO.C,TP9*%
X52600000Y-84000000D03*
%TD*%
%TO.C,TP17*%
X57700000Y-78850000D03*
%TD*%
%TO.C,TP11*%
X61000000Y-84000000D03*
%TD*%
%TO.C,TP16*%
X28750000Y-80900000D03*
%TD*%
%TO.C,TP5*%
X35800000Y-84000000D03*
%TD*%
%TO.C,TP3*%
X27400000Y-84000000D03*
%TD*%
%TO.C,TP2*%
X62650000Y-80600000D03*
%TD*%
%TO.C,TP8*%
X52469700Y-95969700D03*
%TD*%
%TO.C,TP43*%
X53500000Y-60500000D03*
%TD*%
%TO.C,TP20*%
X52600000Y-88000000D03*
%TD*%
%TO.C,TP40*%
X61800000Y-75000000D03*
%TD*%
%TO.C,TP22*%
X61000000Y-88000000D03*
%TD*%
%TO.C,TP28*%
X40000000Y-92000000D03*
%TD*%
%TO.C,TP29*%
X44200000Y-92000000D03*
%TD*%
%TO.C,TP12*%
X19000000Y-88000000D03*
%TD*%
%TO.C,TP24*%
X32500000Y-54400000D03*
%TD*%
%TO.C,TP23*%
X34708300Y-86000000D03*
%TD*%
%TO.C,TP6*%
X62000000Y-95650000D03*
%TD*%
%TO.C,TP30*%
X48400000Y-92000000D03*
%TD*%
%TO.C,TP25*%
X27400000Y-92000000D03*
%TD*%
%TO.C,TP33*%
X61000000Y-92000000D03*
%TD*%
%TO.C,TP13*%
X53630300Y-93830300D03*
%TD*%
%TO.C,TP18*%
X40350000Y-89700000D03*
%TD*%
%TO.C,TP21*%
X56800000Y-88000000D03*
%TD*%
%TO.C,TP31*%
X52600000Y-92000000D03*
%TD*%
%TO.C,TP10*%
X56800000Y-84000000D03*
%TD*%
%TO.C,TP14*%
X26000000Y-28500000D03*
%TD*%
%TO.C,TP4*%
X30755300Y-96030300D03*
%TD*%
%TO.C,TP32*%
X56800000Y-92000000D03*
%TD*%
%TO.C,TP42*%
X52000000Y-79000000D03*
%TD*%
%TO.C,TP26*%
X31600000Y-92000000D03*
%TD*%
%TO.C,TP27*%
X35800000Y-92000000D03*
%TD*%
%LPD*%
M02*
