%TF.GenerationSoftware,KiCad,Pcbnew,10.0.6*%
%TF.CreationDate,2026-09-11T18:29:59+02:00*%
%TF.ProjectId,Main,4d61696e-2e6b-4696-9361-645f70636258,rev?*%
%TF.SameCoordinates,Original*%
%TF.FileFunction,Soldermask,Bot*%
%TF.FilePolarity,Negative*%
%FSLAX46Y46*%
G04 Gerber Fmt 4.6, Leading zero omitted, Abs format (unit mm)*
G04 Created by KiCad (PCBNEW 10.0.6) date 2026-09-11 18:29:59*
%MOMM*%
%LPD*%
G01*
G04 APERTURE LIST*
%ADD10C,0.650000*%
%ADD11O,1.000000X2.100000*%
%ADD12O,1.000000X1.600000*%
%ADD13R,1.300000X1.300000*%
%ADD14C,1.300000*%
%ADD15C,1.000000*%
G04 APERTURE END LIST*
D10*
%TO.C,J1*%
X42890000Y-6600000D03*
X37110000Y-6600000D03*
D11*
X44320000Y-7130000D03*
D12*
X44320000Y-2950000D03*
D11*
X35680000Y-7130000D03*
D12*
X35680000Y-2950000D03*
%TD*%
D13*
%TO.C,U35*%
X45850000Y-78160000D03*
D14*
X45850000Y-76380000D03*
X45850000Y-74600000D03*
X45850000Y-72820000D03*
X45850000Y-71040000D03*
X45850000Y-69260000D03*
X45850000Y-67480000D03*
X45850000Y-65700000D03*
X35150000Y-64810000D03*
X35150000Y-66590000D03*
X35150000Y-68370000D03*
X35150000Y-70150000D03*
X35150000Y-71930000D03*
X35150000Y-73710000D03*
X35150000Y-75490000D03*
X35150000Y-77270000D03*
%TD*%
D15*
%TO.C,TP19*%
X48400000Y-88000000D03*
%TD*%
%TO.C,TP7*%
X44700000Y-100800000D03*
%TD*%
%TO.C,TP15*%
X31600000Y-88000000D03*
%TD*%
%TO.C,TP41*%
X57800000Y-75000000D03*
%TD*%
%TO.C,TP1*%
X70925000Y-62125000D03*
%TD*%
%TO.C,TP9*%
X52600000Y-84000000D03*
%TD*%
%TO.C,TP17*%
X57700000Y-78850000D03*
%TD*%
%TO.C,TP11*%
X61000000Y-84000000D03*
%TD*%
%TO.C,TP16*%
X28750000Y-80900000D03*
%TD*%
%TO.C,TP5*%
X35800000Y-84000000D03*
%TD*%
%TO.C,TP3*%
X27400000Y-84000000D03*
%TD*%
%TO.C,TP2*%
X62650000Y-80600000D03*
%TD*%
%TO.C,TP8*%
X52469700Y-95969700D03*
%TD*%
%TO.C,TP43*%
X53500000Y-60500000D03*
%TD*%
%TO.C,TP20*%
X52600000Y-88000000D03*
%TD*%
%TO.C,TP40*%
X61800000Y-75000000D03*
%TD*%
%TO.C,TP22*%
X61000000Y-88000000D03*
%TD*%
%TO.C,TP28*%
X40000000Y-92000000D03*
%TD*%
%TO.C,TP29*%
X44200000Y-92000000D03*
%TD*%
%TO.C,TP12*%
X19000000Y-88000000D03*
%TD*%
%TO.C,TP24*%
X32500000Y-54400000D03*
%TD*%
%TO.C,TP23*%
X34708300Y-86000000D03*
%TD*%
%TO.C,TP6*%
X62000000Y-95650000D03*
%TD*%
%TO.C,TP30*%
X48400000Y-92000000D03*
%TD*%
%TO.C,TP25*%
X27400000Y-92000000D03*
%TD*%
%TO.C,TP33*%
X61000000Y-92000000D03*
%TD*%
%TO.C,TP13*%
X53630300Y-93830300D03*
%TD*%
%TO.C,TP18*%
X40350000Y-89700000D03*
%TD*%
%TO.C,TP21*%
X56800000Y-88000000D03*
%TD*%
%TO.C,TP31*%
X52600000Y-92000000D03*
%TD*%
%TO.C,TP10*%
X56800000Y-84000000D03*
%TD*%
%TO.C,TP14*%
X26000000Y-28500000D03*
%TD*%
%TO.C,TP4*%
X30755300Y-96030300D03*
%TD*%
%TO.C,TP32*%
X56800000Y-92000000D03*
%TD*%
%TO.C,TP42*%
X52000000Y-79000000D03*
%TD*%
%TO.C,TP26*%
X31600000Y-92000000D03*
%TD*%
%TO.C,TP27*%
X35800000Y-92000000D03*
%TD*%
M02*
