%TF.GenerationSoftware,KiCad,Pcbnew,10.0.6*%
%TF.CreationDate,2026-09-11T18:30:17+02:00*%
%TF.ProjectId,Encoder,456e636f-6465-4722-9e6b-696361645f70,rev?*%
%TF.SameCoordinates,Original*%
%TF.FileFunction,Legend,Top*%
%TF.FilePolarity,Positive*%
%FSLAX46Y46*%
G04 Gerber Fmt 4.6, Leading zero omitted, Abs format (unit mm)*
G04 Created by KiCad (PCBNEW 10.0.6) date 2026-09-11 18:30:17*
%MOMM*%
%LPD*%
G01*
G04 APERTURE LIST*
G04 Aperture macros list*
%AMRoundRect*
0 Rectangle with rounded corners*
0 $1 Rounding radius*
0 $2 $3 $4 $5 $6 $7 $8 $9 X,Y pos of 4 corners*
0 Add a 4 corners polygon primitive as box body*
4,1,4,$2,$3,$4,$5,$6,$7,$8,$9,$2,$3,0*
0 Add four circle primitives for the rounded corners*
1,1,$1+$1,$2,$3*
1,1,$1+$1,$4,$5*
1,1,$1+$1,$6,$7*
1,1,$1+$1,$8,$9*
0 Add four rect primitives between the rounded corners*
20,1,$1+$1,$2,$3,$4,$5,0*
20,1,$1+$1,$4,$5,$6,$7,0*
20,1,$1+$1,$6,$7,$8,$9,0*
20,1,$1+$1,$8,$9,$2,$3,0*%
%AMOutline5P*
0 Free polygon, 5 corners , with rotation*
0 The origin of the aperture is its center*
0 number of corners: always 5*
0 $1 to $10 corner X, Y*
0 $11 Rotation angle, in degrees counterclockwise*
0 create outline with 5 corners*
4,1,5,$1,$2,$3,$4,$5,$6,$7,$8,$9,$10,$1,$2,$11*%
%AMOutline6P*
0 Free polygon, 6 corners , with rotation*
0 The origin of the aperture is its center*
0 number of corners: always 6*
0 $1 to $12 corner X, Y*
0 $13 Rotation angle, in degrees counterclockwise*
0 create outline with 6 corners*
4,1,6,$1,$2,$3,$4,$5,$6,$7,$8,$9,$10,$11,$12,$1,$2,$13*%
%AMOutline7P*
0 Free polygon, 7 corners , with rotation*
0 The origin of the aperture is its center*
0 number of corners: always 7*
0 $1 to $14 corner X, Y*
0 $15 Rotation angle, in degrees counterclockwise*
0 create outline with 7 corners*
4,1,7,$1,$2,$3,$4,$5,$6,$7,$8,$9,$10,$11,$12,$13,$14,$1,$2,$15*%
%AMOutline8P*
0 Free polygon, 8 corners , with rotation*
0 The origin of the aperture is its center*
0 number of corners: always 8*
0 $1 to $16 corner X, Y*
0 $17 Rotation angle, in degrees counterclockwise*
0 create outline with 8 corners*
4,1,8,$1,$2,$3,$4,$5,$6,$7,$8,$9,$10,$11,$12,$13,$14,$15,$16,$1,$2,$17*%
G04 Aperture macros list end*
%ADD10C,0.100000*%
%ADD11C,0.150000*%
%ADD12C,0.120000*%
%ADD13Outline5P,-0.375000X0.100000X0.275000X0.100000X0.375000X0.000000X0.375000X-0.100000X-0.375000X-0.100000X0.000000*%
%ADD14R,0.700000X0.200000*%
%ADD15Outline5P,-0.350000X0.100000X0.350000X0.100000X0.350000X0.000000X0.250000X-0.100000X-0.350000X-0.100000X0.000000*%
%ADD16Outline5P,-0.100000X0.250000X0.000000X0.350000X0.100000X0.350000X0.100000X-0.350000X-0.100000X-0.350000X0.000000*%
%ADD17R,0.200000X0.700000*%
%ADD18Outline5P,-0.100000X0.350000X0.000000X0.350000X0.100000X0.250000X0.100000X-0.350000X-0.100000X-0.350000X0.000000*%
%ADD19Outline5P,-0.350000X0.100000X0.350000X0.100000X0.350000X-0.100000X-0.250000X-0.100000X-0.350000X0.000000X0.000000*%
%ADD20Outline5P,-0.350000X0.000000X-0.250000X0.100000X0.350000X0.100000X0.350000X-0.100000X-0.350000X-0.100000X0.000000*%
%ADD21Outline5P,-0.100000X0.350000X0.100000X0.350000X0.100000X-0.250000X0.000000X-0.350000X-0.100000X-0.350000X0.000000*%
%ADD22Outline5P,-0.100000X0.350000X0.100000X0.350000X0.100000X-0.350000X0.000000X-0.350000X-0.100000X-0.250000X0.000000*%
%ADD23RoundRect,0.225000X0.250000X-0.225000X0.250000X0.225000X-0.250000X0.225000X-0.250000X-0.225000X0*%
%ADD24RoundRect,0.150000X-0.150000X-0.625000X0.150000X-0.625000X0.150000X0.625000X-0.150000X0.625000X0*%
%ADD25RoundRect,0.250000X-0.350000X-0.650000X0.350000X-0.650000X0.350000X0.650000X-0.350000X0.650000X0*%
G04 APERTURE END LIST*
D10*
X52228571Y-61164895D02*
X51771428Y-61164895D01*
X52000000Y-61164895D02*
X52000000Y-60364895D01*
X52000000Y-60364895D02*
X51923809Y-60479180D01*
X51923809Y-60479180D02*
X51847619Y-60555371D01*
X51847619Y-60555371D02*
X51771428Y-60593466D01*
X53304762Y-58364895D02*
X53304762Y-57564895D01*
X53304762Y-57564895D02*
X53571428Y-58136323D01*
X53571428Y-58136323D02*
X53838095Y-57564895D01*
X53838095Y-57564895D02*
X53838095Y-58364895D01*
X54180952Y-58136323D02*
X54561905Y-58136323D01*
X54104762Y-58364895D02*
X54371429Y-57564895D01*
X54371429Y-57564895D02*
X54638095Y-58364895D01*
X55323809Y-57602990D02*
X55247619Y-57564895D01*
X55247619Y-57564895D02*
X55133333Y-57564895D01*
X55133333Y-57564895D02*
X55019047Y-57602990D01*
X55019047Y-57602990D02*
X54942857Y-57679180D01*
X54942857Y-57679180D02*
X54904762Y-57755371D01*
X54904762Y-57755371D02*
X54866666Y-57907752D01*
X54866666Y-57907752D02*
X54866666Y-58022038D01*
X54866666Y-58022038D02*
X54904762Y-58174419D01*
X54904762Y-58174419D02*
X54942857Y-58250609D01*
X54942857Y-58250609D02*
X55019047Y-58326800D01*
X55019047Y-58326800D02*
X55133333Y-58364895D01*
X55133333Y-58364895D02*
X55209524Y-58364895D01*
X55209524Y-58364895D02*
X55323809Y-58326800D01*
X55323809Y-58326800D02*
X55361905Y-58288704D01*
X55361905Y-58288704D02*
X55361905Y-58022038D01*
X55361905Y-58022038D02*
X55209524Y-58022038D01*
X55704762Y-58364895D02*
X55704762Y-57564895D01*
X55704762Y-57564895D02*
X56161905Y-58364895D01*
X56161905Y-58364895D02*
X56161905Y-57564895D01*
X56542857Y-57945847D02*
X56809523Y-57945847D01*
X56923809Y-58364895D02*
X56542857Y-58364895D01*
X56542857Y-58364895D02*
X56542857Y-57564895D01*
X56542857Y-57564895D02*
X56923809Y-57564895D01*
X57152381Y-57564895D02*
X57609524Y-57564895D01*
X57380952Y-58364895D02*
X57380952Y-57564895D01*
X58447619Y-58136323D02*
X58828572Y-58136323D01*
X58371429Y-58364895D02*
X58638096Y-57564895D01*
X58638096Y-57564895D02*
X58904762Y-58364895D01*
X59095238Y-57564895D02*
X59628572Y-58364895D01*
X59628572Y-57564895D02*
X59095238Y-58364895D01*
X59933334Y-58364895D02*
X59933334Y-57564895D01*
X60276190Y-58326800D02*
X60390476Y-58364895D01*
X60390476Y-58364895D02*
X60580952Y-58364895D01*
X60580952Y-58364895D02*
X60657143Y-58326800D01*
X60657143Y-58326800D02*
X60695238Y-58288704D01*
X60695238Y-58288704D02*
X60733333Y-58212514D01*
X60733333Y-58212514D02*
X60733333Y-58136323D01*
X60733333Y-58136323D02*
X60695238Y-58060133D01*
X60695238Y-58060133D02*
X60657143Y-58022038D01*
X60657143Y-58022038D02*
X60580952Y-57983942D01*
X60580952Y-57983942D02*
X60428571Y-57945847D01*
X60428571Y-57945847D02*
X60352381Y-57907752D01*
X60352381Y-57907752D02*
X60314286Y-57869657D01*
X60314286Y-57869657D02*
X60276190Y-57793466D01*
X60276190Y-57793466D02*
X60276190Y-57717276D01*
X60276190Y-57717276D02*
X60314286Y-57641085D01*
X60314286Y-57641085D02*
X60352381Y-57602990D01*
X60352381Y-57602990D02*
X60428571Y-57564895D01*
X60428571Y-57564895D02*
X60619048Y-57564895D01*
X60619048Y-57564895D02*
X60733333Y-57602990D01*
X53552380Y-59945847D02*
X53819046Y-59945847D01*
X53933332Y-60364895D02*
X53552380Y-60364895D01*
X53552380Y-60364895D02*
X53552380Y-59564895D01*
X53552380Y-59564895D02*
X53933332Y-59564895D01*
X54276190Y-59831561D02*
X54276190Y-60364895D01*
X54276190Y-59907752D02*
X54314285Y-59869657D01*
X54314285Y-59869657D02*
X54390475Y-59831561D01*
X54390475Y-59831561D02*
X54504761Y-59831561D01*
X54504761Y-59831561D02*
X54580952Y-59869657D01*
X54580952Y-59869657D02*
X54619047Y-59945847D01*
X54619047Y-59945847D02*
X54619047Y-60364895D01*
X55342857Y-60326800D02*
X55266666Y-60364895D01*
X55266666Y-60364895D02*
X55114285Y-60364895D01*
X55114285Y-60364895D02*
X55038095Y-60326800D01*
X55038095Y-60326800D02*
X55000000Y-60288704D01*
X55000000Y-60288704D02*
X54961904Y-60212514D01*
X54961904Y-60212514D02*
X54961904Y-59983942D01*
X54961904Y-59983942D02*
X55000000Y-59907752D01*
X55000000Y-59907752D02*
X55038095Y-59869657D01*
X55038095Y-59869657D02*
X55114285Y-59831561D01*
X55114285Y-59831561D02*
X55266666Y-59831561D01*
X55266666Y-59831561D02*
X55342857Y-59869657D01*
X55799999Y-60364895D02*
X55723809Y-60326800D01*
X55723809Y-60326800D02*
X55685714Y-60288704D01*
X55685714Y-60288704D02*
X55647618Y-60212514D01*
X55647618Y-60212514D02*
X55647618Y-59983942D01*
X55647618Y-59983942D02*
X55685714Y-59907752D01*
X55685714Y-59907752D02*
X55723809Y-59869657D01*
X55723809Y-59869657D02*
X55799999Y-59831561D01*
X55799999Y-59831561D02*
X55914285Y-59831561D01*
X55914285Y-59831561D02*
X55990476Y-59869657D01*
X55990476Y-59869657D02*
X56028571Y-59907752D01*
X56028571Y-59907752D02*
X56066666Y-59983942D01*
X56066666Y-59983942D02*
X56066666Y-60212514D01*
X56066666Y-60212514D02*
X56028571Y-60288704D01*
X56028571Y-60288704D02*
X55990476Y-60326800D01*
X55990476Y-60326800D02*
X55914285Y-60364895D01*
X55914285Y-60364895D02*
X55799999Y-60364895D01*
X56752381Y-60364895D02*
X56752381Y-59564895D01*
X56752381Y-60326800D02*
X56676190Y-60364895D01*
X56676190Y-60364895D02*
X56523809Y-60364895D01*
X56523809Y-60364895D02*
X56447619Y-60326800D01*
X56447619Y-60326800D02*
X56409524Y-60288704D01*
X56409524Y-60288704D02*
X56371428Y-60212514D01*
X56371428Y-60212514D02*
X56371428Y-59983942D01*
X56371428Y-59983942D02*
X56409524Y-59907752D01*
X56409524Y-59907752D02*
X56447619Y-59869657D01*
X56447619Y-59869657D02*
X56523809Y-59831561D01*
X56523809Y-59831561D02*
X56676190Y-59831561D01*
X56676190Y-59831561D02*
X56752381Y-59869657D01*
X57438096Y-60326800D02*
X57361905Y-60364895D01*
X57361905Y-60364895D02*
X57209524Y-60364895D01*
X57209524Y-60364895D02*
X57133334Y-60326800D01*
X57133334Y-60326800D02*
X57095238Y-60250609D01*
X57095238Y-60250609D02*
X57095238Y-59945847D01*
X57095238Y-59945847D02*
X57133334Y-59869657D01*
X57133334Y-59869657D02*
X57209524Y-59831561D01*
X57209524Y-59831561D02*
X57361905Y-59831561D01*
X57361905Y-59831561D02*
X57438096Y-59869657D01*
X57438096Y-59869657D02*
X57476191Y-59945847D01*
X57476191Y-59945847D02*
X57476191Y-60022038D01*
X57476191Y-60022038D02*
X57095238Y-60098228D01*
X57819048Y-60364895D02*
X57819048Y-59831561D01*
X57819048Y-59983942D02*
X57857143Y-59907752D01*
X57857143Y-59907752D02*
X57895238Y-59869657D01*
X57895238Y-59869657D02*
X57971429Y-59831561D01*
X57971429Y-59831561D02*
X58047619Y-59831561D01*
X59076191Y-59564895D02*
X59152381Y-59564895D01*
X59152381Y-59564895D02*
X59228572Y-59602990D01*
X59228572Y-59602990D02*
X59266667Y-59641085D01*
X59266667Y-59641085D02*
X59304762Y-59717276D01*
X59304762Y-59717276D02*
X59342857Y-59869657D01*
X59342857Y-59869657D02*
X59342857Y-60060133D01*
X59342857Y-60060133D02*
X59304762Y-60212514D01*
X59304762Y-60212514D02*
X59266667Y-60288704D01*
X59266667Y-60288704D02*
X59228572Y-60326800D01*
X59228572Y-60326800D02*
X59152381Y-60364895D01*
X59152381Y-60364895D02*
X59076191Y-60364895D01*
X59076191Y-60364895D02*
X59000000Y-60326800D01*
X59000000Y-60326800D02*
X58961905Y-60288704D01*
X58961905Y-60288704D02*
X58923810Y-60212514D01*
X58923810Y-60212514D02*
X58885714Y-60060133D01*
X58885714Y-60060133D02*
X58885714Y-59869657D01*
X58885714Y-59869657D02*
X58923810Y-59717276D01*
X58923810Y-59717276D02*
X58961905Y-59641085D01*
X58961905Y-59641085D02*
X59000000Y-59602990D01*
X59000000Y-59602990D02*
X59076191Y-59564895D01*
X59685715Y-60288704D02*
X59723810Y-60326800D01*
X59723810Y-60326800D02*
X59685715Y-60364895D01*
X59685715Y-60364895D02*
X59647619Y-60326800D01*
X59647619Y-60326800D02*
X59685715Y-60288704D01*
X59685715Y-60288704D02*
X59685715Y-60364895D01*
X60485714Y-60364895D02*
X60028571Y-60364895D01*
X60257143Y-60364895D02*
X60257143Y-59564895D01*
X60257143Y-59564895D02*
X60180952Y-59679180D01*
X60180952Y-59679180D02*
X60104762Y-59755371D01*
X60104762Y-59755371D02*
X60028571Y-59793466D01*
%TO.C,U27*%
D11*
X55425000Y-55100000D02*
G75*
G02*
X55275000Y-55100000I-75000J0D01*
G01*
X55275000Y-55100000D02*
G75*
G02*
X55425000Y-55100000I75000J0D01*
G01*
%TO.C,C62*%
D12*
X56290000Y-52340580D02*
X56290000Y-52059420D01*
X57310000Y-52340580D02*
X57310000Y-52059420D01*
%TO.C,J7*%
X51890000Y-62715000D02*
X52940000Y-62715000D01*
X51890000Y-65215000D02*
X51890000Y-62715000D01*
X52940000Y-62715000D02*
X52940000Y-61725000D01*
X53060000Y-67185000D02*
X60940000Y-67185000D01*
X62110000Y-62715000D02*
X61060000Y-62715000D01*
X62110000Y-65215000D02*
X62110000Y-62715000D01*
%TD*%
%LPC*%
D13*
%TO.C,U27*%
X56025000Y-55100000D03*
D14*
X56000000Y-55500000D03*
D15*
X56000000Y-55900000D03*
D16*
X56400000Y-56500000D03*
D17*
X56800000Y-56500000D03*
X57200000Y-56500000D03*
D18*
X57600000Y-56500000D03*
D19*
X58000000Y-55900000D03*
D14*
X58000000Y-55500000D03*
D20*
X58000000Y-55100000D03*
D21*
X57600000Y-54500000D03*
D17*
X57200000Y-54500000D03*
X56800000Y-54500000D03*
D22*
X56400000Y-54500000D03*
%TD*%
D23*
%TO.C,C62*%
X56800000Y-52975000D03*
X56800000Y-51425000D03*
%TD*%
D24*
%TO.C,J7*%
X53500000Y-62500000D03*
X54500000Y-62500000D03*
X55500000Y-62500000D03*
X56500000Y-62500000D03*
X57500000Y-62500000D03*
X58500000Y-62500000D03*
X59500000Y-62500000D03*
X60500000Y-62500000D03*
D25*
X52200000Y-66375000D03*
X61800000Y-66375000D03*
%TD*%
%LPD*%
M02*
