%TF.GenerationSoftware,KiCad,Pcbnew,10.0.6*%
%TF.CreationDate,2026-09-11T18:30:17+02:00*%
%TF.ProjectId,Encoder,456e636f-6465-4722-9e6b-696361645f70,rev?*%
%TF.SameCoordinates,Original*%
%TF.FileFunction,Copper,L2,Bot*%
%TF.FilePolarity,Positive*%
%FSLAX46Y46*%
G04 Gerber Fmt 4.6, Leading zero omitted, Abs format (unit mm)*
G04 Created by KiCad (PCBNEW 10.0.6) date 2026-09-11 18:30:17*
%MOMM*%
%LPD*%
G01*
G04 APERTURE LIST*
%TA.AperFunction,ViaPad*%
%ADD10C,0.600000*%
%TD*%
%TA.AperFunction,Conductor*%
%ADD11C,0.150000*%
%TD*%
G04 APERTURE END LIST*
D10*
%TO.N,GND*%
X54000000Y-65500000D03*
X56500000Y-60800000D03*
X60000000Y-65500000D03*
X62000000Y-58000000D03*
X55800000Y-51425000D03*
X52000000Y-58000000D03*
X55800000Y-57600000D03*
X62000000Y-52000000D03*
X55250000Y-54000000D03*
X54500000Y-60800000D03*
X52000000Y-52000000D03*
X55000000Y-56200000D03*
X59500000Y-60800000D03*
%TO.N,ENC_MISO_LOCAL*%
X60500000Y-60800000D03*
X56800000Y-57800000D03*
%TO.N,ENC_MOSI_LOCAL*%
X59200000Y-58600000D03*
X57500000Y-60300000D03*
%TD*%
%TO.N,ENC_MISO_LOCAL*%
D11*
X56800000Y-57800000D02*
X60500000Y-57800000D01*
X60500000Y-57800000D02*
X60500000Y-60800000D01*
%TO.N,ENC_MOSI_LOCAL*%
X59200000Y-58600000D02*
X57500000Y-60300000D01*
%TD*%
%TA.AperFunction,Conductor*%
%TO.N,GND*%
G36*
X62478326Y-50522174D02*
G01*
X62500000Y-50574500D01*
X62500000Y-67425500D01*
X62478326Y-67477826D01*
X62426000Y-67499500D01*
X51574000Y-67499500D01*
X51521674Y-67477826D01*
X51500000Y-67425500D01*
X51500000Y-57734105D01*
X56299500Y-57734105D01*
X56299500Y-57865894D01*
X56333606Y-57993181D01*
X56333607Y-57993184D01*
X56333608Y-57993186D01*
X56399500Y-58107314D01*
X56492686Y-58200500D01*
X56606814Y-58266392D01*
X56734105Y-58300499D01*
X56734106Y-58300500D01*
X56734108Y-58300500D01*
X56865894Y-58300500D01*
X56865894Y-58300499D01*
X56993186Y-58266392D01*
X57107314Y-58200500D01*
X57200500Y-58107314D01*
X57200503Y-58107309D01*
X57202702Y-58104445D01*
X57251755Y-58076132D01*
X57261405Y-58075500D01*
X58838034Y-58075500D01*
X58890360Y-58097174D01*
X58912034Y-58149500D01*
X58890360Y-58201826D01*
X58799500Y-58292685D01*
X58733610Y-58406809D01*
X58733606Y-58406818D01*
X58699500Y-58534105D01*
X58699500Y-58665895D01*
X58699971Y-58669476D01*
X58685306Y-58724182D01*
X58678929Y-58731453D01*
X57631454Y-59778929D01*
X57579128Y-59800603D01*
X57569478Y-59799971D01*
X57565897Y-59799500D01*
X57565892Y-59799500D01*
X57434108Y-59799500D01*
X57434106Y-59799500D01*
X57306818Y-59833606D01*
X57306809Y-59833610D01*
X57192685Y-59899500D01*
X57099500Y-59992685D01*
X57033610Y-60106809D01*
X57033606Y-60106818D01*
X56999500Y-60234105D01*
X56999500Y-60365894D01*
X57033606Y-60493181D01*
X57033607Y-60493184D01*
X57033608Y-60493186D01*
X57099500Y-60607314D01*
X57192686Y-60700500D01*
X57306814Y-60766392D01*
X57434105Y-60800499D01*
X57434106Y-60800500D01*
X57434108Y-60800500D01*
X57565894Y-60800500D01*
X57565894Y-60800499D01*
X57693186Y-60766392D01*
X57807314Y-60700500D01*
X57900500Y-60607314D01*
X57966392Y-60493186D01*
X58000499Y-60365894D01*
X58000500Y-60365894D01*
X58000500Y-60234103D01*
X58000029Y-60230525D01*
X58014689Y-60175819D01*
X58021062Y-60168551D01*
X59068546Y-59121068D01*
X59120871Y-59099395D01*
X59130537Y-59100029D01*
X59134104Y-59100498D01*
X59134108Y-59100500D01*
X59134112Y-59100500D01*
X59265894Y-59100500D01*
X59265894Y-59100499D01*
X59393186Y-59066392D01*
X59507314Y-59000500D01*
X59600500Y-58907314D01*
X59666392Y-58793186D01*
X59700499Y-58665894D01*
X59700500Y-58665894D01*
X59700500Y-58534106D01*
X59700499Y-58534105D01*
X59666393Y-58406818D01*
X59666392Y-58406814D01*
X59600500Y-58292686D01*
X59509640Y-58201826D01*
X59487966Y-58149500D01*
X59509640Y-58097174D01*
X59561966Y-58075500D01*
X60150500Y-58075500D01*
X60202826Y-58097174D01*
X60224500Y-58149500D01*
X60224500Y-60338594D01*
X60202826Y-60390920D01*
X60195561Y-60397293D01*
X60192690Y-60399496D01*
X60099500Y-60492685D01*
X60033610Y-60606809D01*
X60033606Y-60606818D01*
X59999500Y-60734105D01*
X59999500Y-60865894D01*
X60033606Y-60993181D01*
X60033607Y-60993184D01*
X60033608Y-60993186D01*
X60099500Y-61107314D01*
X60192686Y-61200500D01*
X60306814Y-61266392D01*
X60434105Y-61300499D01*
X60434106Y-61300500D01*
X60434108Y-61300500D01*
X60565894Y-61300500D01*
X60565894Y-61300499D01*
X60693186Y-61266392D01*
X60807314Y-61200500D01*
X60900500Y-61107314D01*
X60966392Y-60993186D01*
X61000499Y-60865894D01*
X61000500Y-60865894D01*
X61000500Y-60734106D01*
X61000499Y-60734105D01*
X60991494Y-60700499D01*
X60966392Y-60606814D01*
X60900500Y-60492686D01*
X60807314Y-60399500D01*
X60807311Y-60399498D01*
X60807309Y-60399496D01*
X60804439Y-60397293D01*
X60776131Y-60348238D01*
X60775500Y-60338594D01*
X60775500Y-57745200D01*
X60733557Y-57643943D01*
X60733557Y-57643942D01*
X60656058Y-57566443D01*
X60554800Y-57524500D01*
X60554799Y-57524500D01*
X57261405Y-57524500D01*
X57209079Y-57502826D01*
X57202702Y-57495555D01*
X57200503Y-57492690D01*
X57200501Y-57492688D01*
X57200500Y-57492686D01*
X57107314Y-57399500D01*
X56993190Y-57333610D01*
X56993181Y-57333606D01*
X56865894Y-57299500D01*
X56865892Y-57299500D01*
X56734108Y-57299500D01*
X56734106Y-57299500D01*
X56606818Y-57333606D01*
X56606809Y-57333610D01*
X56492685Y-57399500D01*
X56399500Y-57492685D01*
X56333610Y-57606809D01*
X56333606Y-57606818D01*
X56299500Y-57734105D01*
X51500000Y-57734105D01*
X51500000Y-50574500D01*
X51521674Y-50522174D01*
X51574000Y-50500500D01*
X62426000Y-50500500D01*
X62478326Y-50522174D01*
G37*
%TD.AperFunction*%
%TD*%
M02*
