%TF.GenerationSoftware,KiCad,Pcbnew,10.0.6*%
%TF.CreationDate,2026-09-11T18:30:17+02:00*%
%TF.ProjectId,Encoder,456e636f-6465-4722-9e6b-696361645f70,rev?*%
%TF.SameCoordinates,Original*%
%TF.FileFunction,Copper,L1,Top*%
%TF.FilePolarity,Positive*%
%FSLAX46Y46*%
G04 Gerber Fmt 4.6, Leading zero omitted, Abs format (unit mm)*
G04 Created by KiCad (PCBNEW 10.0.6) date 2026-09-11 18:30:17*
%MOMM*%
%LPD*%
G01*
G04 APERTURE LIST*
G04 Aperture macros list*
%AMRoundRect*
0 Rectangle with rounded corners*
0 $1 Rounding radius*
0 $2 $3 $4 $5 $6 $7 $8 $9 X,Y pos of 4 corners*
0 Add a 4 corners polygon primitive as box body*
4,1,4,$2,$3,$4,$5,$6,$7,$8,$9,$2,$3,0*
0 Add four circle primitives for the rounded corners*
1,1,$1+$1,$2,$3*
1,1,$1+$1,$4,$5*
1,1,$1+$1,$6,$7*
1,1,$1+$1,$8,$9*
0 Add four rect primitives between the rounded corners*
20,1,$1+$1,$2,$3,$4,$5,0*
20,1,$1+$1,$4,$5,$6,$7,0*
20,1,$1+$1,$6,$7,$8,$9,0*
20,1,$1+$1,$8,$9,$2,$3,0*%
%AMOutline5P*
0 Free polygon, 5 corners , with rotation*
0 The origin of the aperture is its center*
0 number of corners: always 5*
0 $1 to $10 corner X, Y*
0 $11 Rotation angle, in degrees counterclockwise*
0 create outline with 5 corners*
4,1,5,$1,$2,$3,$4,$5,$6,$7,$8,$9,$10,$1,$2,$11*%
%AMOutline6P*
0 Free polygon, 6 corners , with rotation*
0 The origin of the aperture is its center*
0 number of corners: always 6*
0 $1 to $12 corner X, Y*
0 $13 Rotation angle, in degrees counterclockwise*
0 create outline with 6 corners*
4,1,6,$1,$2,$3,$4,$5,$6,$7,$8,$9,$10,$11,$12,$1,$2,$13*%
%AMOutline7P*
0 Free polygon, 7 corners , with rotation*
0 The origin of the aperture is its center*
0 number of corners: always 7*
0 $1 to $14 corner X, Y*
0 $15 Rotation angle, in degrees counterclockwise*
0 create outline with 7 corners*
4,1,7,$1,$2,$3,$4,$5,$6,$7,$8,$9,$10,$11,$12,$13,$14,$1,$2,$15*%
%AMOutline8P*
0 Free polygon, 8 corners , with rotation*
0 The origin of the aperture is its center*
0 number of corners: always 8*
0 $1 to $16 corner X, Y*
0 $17 Rotation angle, in degrees counterclockwise*
0 create outline with 8 corners*
4,1,8,$1,$2,$3,$4,$5,$6,$7,$8,$9,$10,$11,$12,$13,$14,$15,$16,$1,$2,$17*%
G04 Aperture macros list end*
%TA.AperFunction,SMDPad,CuDef*%
%ADD10Outline5P,-0.375000X0.100000X0.275000X0.100000X0.375000X0.000000X0.375000X-0.100000X-0.375000X-0.100000X0.000000*%
%TD*%
%TA.AperFunction,SMDPad,CuDef*%
%ADD11R,0.700000X0.200000*%
%TD*%
%TA.AperFunction,SMDPad,CuDef*%
%ADD12Outline5P,-0.350000X0.100000X0.350000X0.100000X0.350000X0.000000X0.250000X-0.100000X-0.350000X-0.100000X0.000000*%
%TD*%
%TA.AperFunction,SMDPad,CuDef*%
%ADD13Outline5P,-0.100000X0.250000X0.000000X0.350000X0.100000X0.350000X0.100000X-0.350000X-0.100000X-0.350000X0.000000*%
%TD*%
%TA.AperFunction,SMDPad,CuDef*%
%ADD14R,0.200000X0.700000*%
%TD*%
%TA.AperFunction,SMDPad,CuDef*%
%ADD15Outline5P,-0.100000X0.350000X0.000000X0.350000X0.100000X0.250000X0.100000X-0.350000X-0.100000X-0.350000X0.000000*%
%TD*%
%TA.AperFunction,SMDPad,CuDef*%
%ADD16Outline5P,-0.350000X0.100000X0.350000X0.100000X0.350000X-0.100000X-0.250000X-0.100000X-0.350000X0.000000X0.000000*%
%TD*%
%TA.AperFunction,SMDPad,CuDef*%
%ADD17Outline5P,-0.350000X0.000000X-0.250000X0.100000X0.350000X0.100000X0.350000X-0.100000X-0.350000X-0.100000X0.000000*%
%TD*%
%TA.AperFunction,SMDPad,CuDef*%
%ADD18Outline5P,-0.100000X0.350000X0.100000X0.350000X0.100000X-0.250000X0.000000X-0.350000X-0.100000X-0.350000X0.000000*%
%TD*%
%TA.AperFunction,SMDPad,CuDef*%
%ADD19Outline5P,-0.100000X0.350000X0.100000X0.350000X0.100000X-0.350000X0.000000X-0.350000X-0.100000X-0.250000X0.000000*%
%TD*%
%TA.AperFunction,SMDPad,CuDef*%
%ADD20RoundRect,0.225000X0.250000X-0.225000X0.250000X0.225000X-0.250000X0.225000X-0.250000X-0.225000X0*%
%TD*%
%TA.AperFunction,SMDPad,CuDef*%
%ADD21RoundRect,0.150000X-0.150000X-0.625000X0.150000X-0.625000X0.150000X0.625000X-0.150000X0.625000X0*%
%TD*%
%TA.AperFunction,SMDPad,CuDef*%
%ADD22RoundRect,0.250000X-0.350000X-0.650000X0.350000X-0.650000X0.350000X0.650000X-0.350000X0.650000X0*%
%TD*%
%TA.AperFunction,ViaPad*%
%ADD23C,0.600000*%
%TD*%
%TA.AperFunction,Conductor*%
%ADD24C,0.150000*%
%TD*%
%TA.AperFunction,Conductor*%
%ADD25C,0.250000*%
%TD*%
G04 APERTURE END LIST*
D10*
%TO.P,U27,1*%
%TO.N,ENC_SCLK_LOCAL*%
X56025000Y-55100000D03*
D11*
%TO.P,U27,2*%
%TO.N,GND*%
X56000000Y-55500000D03*
D12*
%TO.P,U27,3*%
%TO.N,unconnected-(U27-PWM-Pad3)*%
X56000000Y-55900000D03*
D13*
%TO.P,U27,4*%
%TO.N,GND*%
X56400000Y-56500000D03*
D14*
%TO.P,U27,5*%
%TO.N,ENC_MISO_LOCAL*%
X56800000Y-56500000D03*
%TO.P,U27,6*%
%TO.N,unconnected-(U27-B-Pad6)*%
X57200000Y-56500000D03*
D15*
%TO.P,U27,7*%
%TO.N,ENC_CS_LOCAL*%
X57600000Y-56500000D03*
D16*
%TO.P,U27,8*%
%TO.N,ENC_MOSI_LOCAL*%
X58000000Y-55900000D03*
D11*
%TO.P,U27,9*%
%TO.N,unconnected-(U27-Z-Pad9)*%
X58000000Y-55500000D03*
D17*
%TO.P,U27,10*%
%TO.N,unconnected-(U27-A-Pad10)*%
X58000000Y-55100000D03*
D18*
%TO.P,U27,11*%
%TO.N,unconnected-(U27-SSD-Pad11)*%
X57600000Y-54500000D03*
D14*
%TO.P,U27,12*%
%TO.N,unconnected-(U27-MGH-Pad12)*%
X57200000Y-54500000D03*
%TO.P,U27,13*%
%TO.N,ENC_3V3*%
X56800000Y-54500000D03*
D19*
%TO.P,U27,14*%
%TO.N,GND*%
X56400000Y-54500000D03*
%TD*%
D20*
%TO.P,C62,1*%
%TO.N,ENC_3V3*%
X56800000Y-52975000D03*
%TO.P,C62,2*%
%TO.N,GND*%
X56800000Y-51425000D03*
%TD*%
D21*
%TO.P,J7,1*%
%TO.N,ENC_3V3*%
X53500000Y-62500000D03*
%TO.P,J7,2*%
%TO.N,GND*%
X54500000Y-62500000D03*
%TO.P,J7,3*%
%TO.N,ENC_SCLK_LOCAL*%
X55500000Y-62500000D03*
%TO.P,J7,4*%
%TO.N,GND*%
X56500000Y-62500000D03*
%TO.P,J7,5*%
%TO.N,ENC_MOSI_LOCAL*%
X57500000Y-62500000D03*
%TO.P,J7,6*%
%TO.N,ENC_CS_LOCAL*%
X58500000Y-62500000D03*
%TO.P,J7,7*%
%TO.N,GND*%
X59500000Y-62500000D03*
%TO.P,J7,8*%
%TO.N,ENC_MISO_LOCAL*%
X60500000Y-62500000D03*
D22*
%TO.P,J7,MP*%
%TO.N,N/C*%
X52200000Y-66375000D03*
X61800000Y-66375000D03*
%TD*%
D23*
%TO.N,GND*%
X54000000Y-65500000D03*
X56500000Y-60800000D03*
X60000000Y-65500000D03*
X62000000Y-58000000D03*
X55800000Y-51425000D03*
X52000000Y-58000000D03*
X55800000Y-57600000D03*
X62000000Y-52000000D03*
X55250000Y-54000000D03*
X54500000Y-60800000D03*
X52000000Y-52000000D03*
X55000000Y-56200000D03*
X59500000Y-60800000D03*
%TO.N,ENC_MISO_LOCAL*%
X60500000Y-60800000D03*
X56800000Y-57800000D03*
%TO.N,ENC_MOSI_LOCAL*%
X59200000Y-58600000D03*
X57500000Y-60300000D03*
%TD*%
%TO.N,ENC_SCLK_LOCAL*%
D24*
X54300000Y-58600000D02*
X55500000Y-59800000D01*
X54300000Y-55100000D02*
X54300000Y-58600000D01*
X56025000Y-55100000D02*
X54300000Y-55100000D01*
X55500000Y-59800000D02*
X55500000Y-62500000D01*
%TO.N,GND*%
X56000000Y-55500000D02*
X55500000Y-55500000D01*
X56400000Y-57000000D02*
X55800000Y-57600000D01*
X55500000Y-55500000D02*
X55000000Y-56000000D01*
D25*
X54500000Y-62500000D02*
X54500000Y-60800000D01*
X56500000Y-62500000D02*
X56500000Y-60800000D01*
D24*
X55000000Y-56000000D02*
X55000000Y-56200000D01*
X56400000Y-54000000D02*
X55250000Y-54000000D01*
X56800000Y-51425000D02*
X55800000Y-51425000D01*
X56400000Y-54500000D02*
X56400000Y-54000000D01*
D25*
X59500000Y-62500000D02*
X59500000Y-60800000D01*
D24*
X56400000Y-56500000D02*
X56400000Y-57000000D01*
%TO.N,ENC_MISO_LOCAL*%
X56800000Y-56500000D02*
X56800000Y-57800000D01*
X60500000Y-60800000D02*
X60500000Y-62500000D01*
%TO.N,ENC_CS_LOCAL*%
X57600000Y-57300000D02*
X58500000Y-58200000D01*
X58500000Y-58200000D02*
X58500000Y-62500000D01*
X57600000Y-56500000D02*
X57600000Y-57300000D01*
%TO.N,ENC_MOSI_LOCAL*%
X59200000Y-55900000D02*
X59200000Y-58600000D01*
X58000000Y-55900000D02*
X59200000Y-55900000D01*
X57500000Y-60300000D02*
X57500000Y-62500000D01*
%TO.N,ENC_3V3*%
X56800000Y-52975000D02*
X56800000Y-54500000D01*
D25*
X53500000Y-62500000D02*
X53500000Y-53700000D01*
X54225000Y-52975000D02*
X56800000Y-52975000D01*
X53500000Y-53700000D02*
X54225000Y-52975000D01*
%TD*%
%TA.AperFunction,Conductor*%
%TO.N,GND*%
G36*
X62478326Y-50522174D02*
G01*
X62500000Y-50574500D01*
X62500000Y-65276818D01*
X62478326Y-65329144D01*
X62426000Y-65350818D01*
X62382059Y-65336359D01*
X62362882Y-65322206D01*
X62234704Y-65277355D01*
X62234705Y-65277355D01*
X62234700Y-65277354D01*
X62234699Y-65277354D01*
X62204266Y-65274500D01*
X61395734Y-65274500D01*
X61365301Y-65277354D01*
X61365299Y-65277354D01*
X61365295Y-65277355D01*
X61237118Y-65322206D01*
X61237116Y-65322207D01*
X61127853Y-65402846D01*
X61127846Y-65402853D01*
X61047207Y-65512116D01*
X61047206Y-65512118D01*
X61002355Y-65640295D01*
X61002354Y-65640299D01*
X61002354Y-65640301D01*
X60999500Y-65670734D01*
X60999500Y-67079266D01*
X61002354Y-67109699D01*
X61002354Y-67109701D01*
X61002355Y-67109704D01*
X61047206Y-67237881D01*
X61047207Y-67237883D01*
X61127846Y-67347146D01*
X61127849Y-67347149D01*
X61127850Y-67347150D01*
X61153336Y-67365959D01*
X61182567Y-67414470D01*
X61168935Y-67469442D01*
X61120424Y-67498673D01*
X61109394Y-67499500D01*
X52890606Y-67499500D01*
X52838280Y-67477826D01*
X52816606Y-67425500D01*
X52838280Y-67373174D01*
X52846660Y-67365961D01*
X52872150Y-67347150D01*
X52952793Y-67237882D01*
X52997646Y-67109699D01*
X53000500Y-67079266D01*
X53000500Y-65670734D01*
X52997646Y-65640301D01*
X52952793Y-65512118D01*
X52952792Y-65512116D01*
X52872153Y-65402853D01*
X52872146Y-65402846D01*
X52762883Y-65322207D01*
X52762881Y-65322206D01*
X52634704Y-65277355D01*
X52634705Y-65277355D01*
X52634700Y-65277354D01*
X52634699Y-65277354D01*
X52604266Y-65274500D01*
X51795734Y-65274500D01*
X51765301Y-65277354D01*
X51765299Y-65277354D01*
X51765295Y-65277355D01*
X51637118Y-65322206D01*
X51637117Y-65322206D01*
X51617941Y-65336359D01*
X51562969Y-65349991D01*
X51514459Y-65320759D01*
X51500000Y-65276818D01*
X51500000Y-61841735D01*
X52999500Y-61841735D01*
X52999500Y-63158264D01*
X53009427Y-63226393D01*
X53009427Y-63226394D01*
X53060801Y-63331482D01*
X53060802Y-63331483D01*
X53143517Y-63414198D01*
X53248607Y-63465573D01*
X53316740Y-63475500D01*
X53316746Y-63475500D01*
X53683254Y-63475500D01*
X53683260Y-63475500D01*
X53751393Y-63465573D01*
X53856483Y-63414198D01*
X53939198Y-63331483D01*
X53939203Y-63331470D01*
X53940077Y-63330249D01*
X53941022Y-63329658D01*
X53943534Y-63327147D01*
X53944114Y-63327727D01*
X53988117Y-63300249D01*
X54043299Y-63313005D01*
X54060534Y-63330237D01*
X54061213Y-63331188D01*
X54143810Y-63413785D01*
X54248750Y-63465087D01*
X54316781Y-63474999D01*
X54400000Y-63474999D01*
X54400000Y-61525000D01*
X54316788Y-61525000D01*
X54316776Y-61525001D01*
X54248749Y-61534912D01*
X54143811Y-61586213D01*
X54061209Y-61668815D01*
X54060530Y-61669767D01*
X54059806Y-61670218D01*
X54056878Y-61673147D01*
X54056200Y-61672469D01*
X54012482Y-61699753D01*
X53957304Y-61686981D01*
X53940081Y-61669754D01*
X53939197Y-61668516D01*
X53852147Y-61581466D01*
X53853155Y-61580457D01*
X53826509Y-61537766D01*
X53825500Y-61525589D01*
X53825500Y-54130302D01*
X56100000Y-54130302D01*
X56100000Y-54400000D01*
X56300000Y-54400000D01*
X56300000Y-53950000D01*
X56280303Y-53950000D01*
X56221964Y-53961603D01*
X56155808Y-54005807D01*
X56155807Y-54005808D01*
X56111603Y-54071964D01*
X56100000Y-54130302D01*
X53825500Y-54130302D01*
X53825500Y-53865478D01*
X53847174Y-53813152D01*
X54338152Y-53322174D01*
X54390478Y-53300500D01*
X56078310Y-53300500D01*
X56130636Y-53322174D01*
X56144244Y-53340904D01*
X56201472Y-53453220D01*
X56296780Y-53548528D01*
X56416874Y-53609719D01*
X56462076Y-53616878D01*
X56510367Y-53646471D01*
X56524500Y-53689967D01*
X56524500Y-53894848D01*
X56502826Y-53947174D01*
X56500000Y-53950000D01*
X56500000Y-54121536D01*
X56499644Y-54128783D01*
X56499500Y-54130246D01*
X56499500Y-54426000D01*
X56477826Y-54478326D01*
X56457653Y-54492650D01*
X56400000Y-54520462D01*
X56400000Y-54526000D01*
X56378326Y-54578326D01*
X56326000Y-54600000D01*
X56100001Y-54600000D01*
X56100001Y-54725500D01*
X56078327Y-54777826D01*
X56026001Y-54799500D01*
X55630252Y-54799500D01*
X55601010Y-54805316D01*
X55571767Y-54811133D01*
X55570427Y-54812029D01*
X55567356Y-54812960D01*
X55565035Y-54813922D01*
X55564940Y-54813693D01*
X55529316Y-54824500D01*
X54354800Y-54824500D01*
X54245200Y-54824500D01*
X54203258Y-54841873D01*
X54143943Y-54866442D01*
X54066442Y-54943943D01*
X54024500Y-55045200D01*
X54024500Y-58654800D01*
X54029093Y-58665887D01*
X54029094Y-58665892D01*
X54029095Y-58665892D01*
X54066442Y-58756057D01*
X55202826Y-59892441D01*
X55224500Y-59944767D01*
X55224500Y-61500018D01*
X55202826Y-61552344D01*
X55183001Y-61566498D01*
X55143520Y-61585799D01*
X55143517Y-61585801D01*
X55060802Y-61668516D01*
X55059914Y-61669761D01*
X55058966Y-61670352D01*
X55056466Y-61672853D01*
X55055887Y-61672274D01*
X55011869Y-61699752D01*
X54956689Y-61686986D01*
X54939464Y-61669760D01*
X54938787Y-61668812D01*
X54856189Y-61586214D01*
X54751249Y-61534912D01*
X54683223Y-61525000D01*
X54600000Y-61525000D01*
X54600000Y-63474999D01*
X54683211Y-63474999D01*
X54683224Y-63474998D01*
X54751250Y-63465087D01*
X54856188Y-63413786D01*
X54938783Y-63331191D01*
X54939460Y-63330244D01*
X54940181Y-63329793D01*
X54943122Y-63326853D01*
X54943802Y-63327533D01*
X54987503Y-63300248D01*
X55042683Y-63313009D01*
X55059917Y-63330243D01*
X55060802Y-63331483D01*
X55143517Y-63414198D01*
X55248607Y-63465573D01*
X55316740Y-63475500D01*
X55316746Y-63475500D01*
X55683254Y-63475500D01*
X55683260Y-63475500D01*
X55751393Y-63465573D01*
X55856483Y-63414198D01*
X55939198Y-63331483D01*
X55939203Y-63331470D01*
X55940077Y-63330249D01*
X55941022Y-63329658D01*
X55943534Y-63327147D01*
X55944114Y-63327727D01*
X55988117Y-63300249D01*
X56043299Y-63313005D01*
X56060534Y-63330237D01*
X56061213Y-63331188D01*
X56143810Y-63413785D01*
X56248750Y-63465087D01*
X56316781Y-63474999D01*
X56400000Y-63474999D01*
X56400000Y-61525000D01*
X56316788Y-61525000D01*
X56316776Y-61525001D01*
X56248749Y-61534912D01*
X56143811Y-61586213D01*
X56061209Y-61668815D01*
X56060530Y-61669767D01*
X56059806Y-61670218D01*
X56056878Y-61673147D01*
X56056200Y-61672469D01*
X56012482Y-61699753D01*
X55957304Y-61686981D01*
X55940081Y-61669754D01*
X55939197Y-61668516D01*
X55856482Y-61585801D01*
X55856479Y-61585799D01*
X55816999Y-61566498D01*
X55779509Y-61524045D01*
X55775500Y-61500018D01*
X55775500Y-59745200D01*
X55733557Y-59643942D01*
X55733556Y-59643940D01*
X54597174Y-58507558D01*
X54575500Y-58455232D01*
X54575500Y-56869697D01*
X56100000Y-56869697D01*
X56111603Y-56928035D01*
X56155807Y-56994191D01*
X56155808Y-56994192D01*
X56221964Y-57038396D01*
X56280303Y-57050000D01*
X56300000Y-57050000D01*
X56300000Y-56600000D01*
X56100000Y-56600000D01*
X56100000Y-56869697D01*
X54575500Y-56869697D01*
X54575500Y-55449500D01*
X54597174Y-55397174D01*
X54649500Y-55375500D01*
X55394848Y-55375500D01*
X55447174Y-55397174D01*
X55450000Y-55400000D01*
X55621536Y-55400000D01*
X55628783Y-55400356D01*
X55630246Y-55400500D01*
X55630252Y-55400500D01*
X56419754Y-55400500D01*
X56421217Y-55400356D01*
X56421692Y-55400500D01*
X56423383Y-55400500D01*
X56423383Y-55401013D01*
X56424177Y-55401254D01*
X56427013Y-55400014D01*
X56428464Y-55400000D01*
X56550000Y-55400000D01*
X56550000Y-55380305D01*
X56549250Y-55376535D01*
X56560297Y-55320987D01*
X56565098Y-55313804D01*
X56574321Y-55300000D01*
X56588867Y-55278231D01*
X56600500Y-55219748D01*
X56600500Y-55124289D01*
X56622174Y-55071965D01*
X56674500Y-55050291D01*
X56678744Y-55050500D01*
X56680252Y-55050500D01*
X56919746Y-55050500D01*
X56919748Y-55050500D01*
X56978231Y-55038867D01*
X56978231Y-55038866D01*
X56985379Y-55037445D01*
X56986211Y-55041628D01*
X57013808Y-55041527D01*
X57014621Y-55037445D01*
X57021768Y-55038866D01*
X57021769Y-55038867D01*
X57080252Y-55050500D01*
X57080254Y-55050500D01*
X57319745Y-55050500D01*
X57319748Y-55050500D01*
X57361064Y-55042281D01*
X57416611Y-55053330D01*
X57448078Y-55100421D01*
X57449500Y-55114859D01*
X57449500Y-55219746D01*
X57462555Y-55285379D01*
X57458448Y-55286195D01*
X57458448Y-55313804D01*
X57462555Y-55314621D01*
X57461133Y-55321768D01*
X57461133Y-55321769D01*
X57449500Y-55380252D01*
X57449500Y-55619748D01*
X57456601Y-55655448D01*
X57462555Y-55685379D01*
X57458448Y-55686195D01*
X57458448Y-55713804D01*
X57462555Y-55714621D01*
X57449499Y-55780253D01*
X57449499Y-55885141D01*
X57427824Y-55937466D01*
X57375498Y-55959140D01*
X57361063Y-55957718D01*
X57343633Y-55954251D01*
X57319748Y-55949500D01*
X57080252Y-55949500D01*
X57021769Y-55961133D01*
X57021768Y-55961133D01*
X57014621Y-55962555D01*
X57013804Y-55958448D01*
X56986196Y-55958448D01*
X56985379Y-55962555D01*
X56978231Y-55961133D01*
X56919748Y-55949500D01*
X56680252Y-55949500D01*
X56638936Y-55957718D01*
X56583387Y-55946668D01*
X56551922Y-55899576D01*
X56550500Y-55885140D01*
X56550500Y-55780253D01*
X56537445Y-55714621D01*
X56539940Y-55714124D01*
X56537051Y-55684796D01*
X56550000Y-55619696D01*
X56550000Y-55600000D01*
X56378464Y-55600000D01*
X56371217Y-55599644D01*
X56369754Y-55599500D01*
X56369748Y-55599500D01*
X55630252Y-55599500D01*
X55630246Y-55599500D01*
X55628783Y-55599644D01*
X55621536Y-55600000D01*
X55450000Y-55600000D01*
X55450000Y-55619697D01*
X55462948Y-55684797D01*
X55460071Y-55714126D01*
X55462555Y-55714621D01*
X55449500Y-55780253D01*
X55449500Y-56019746D01*
X55461133Y-56078232D01*
X55490608Y-56122343D01*
X55505448Y-56144552D01*
X55549560Y-56174027D01*
X55571767Y-56188866D01*
X55571768Y-56188866D01*
X55571769Y-56188867D01*
X55630252Y-56200500D01*
X56026001Y-56200500D01*
X56078326Y-56222174D01*
X56100000Y-56274500D01*
X56100000Y-56400000D01*
X56326000Y-56400000D01*
X56378326Y-56421674D01*
X56392713Y-56441978D01*
X56420564Y-56500000D01*
X56425500Y-56500000D01*
X56477826Y-56521674D01*
X56499500Y-56574000D01*
X56499500Y-56869751D01*
X56499643Y-56871203D01*
X56500000Y-56878459D01*
X56500000Y-57050000D01*
X56502826Y-57052826D01*
X56524500Y-57105152D01*
X56524500Y-57338594D01*
X56502826Y-57390920D01*
X56495561Y-57397293D01*
X56492690Y-57399496D01*
X56399500Y-57492685D01*
X56333610Y-57606809D01*
X56333606Y-57606818D01*
X56299500Y-57734105D01*
X56299500Y-57865894D01*
X56333606Y-57993181D01*
X56333610Y-57993190D01*
X56399500Y-58107314D01*
X56492686Y-58200500D01*
X56606814Y-58266392D01*
X56734105Y-58300499D01*
X56734106Y-58300500D01*
X56734108Y-58300500D01*
X56865894Y-58300500D01*
X56865894Y-58300499D01*
X56993186Y-58266392D01*
X57107314Y-58200500D01*
X57200500Y-58107314D01*
X57266392Y-57993186D01*
X57300499Y-57865894D01*
X57300500Y-57865894D01*
X57300500Y-57734106D01*
X57300499Y-57734105D01*
X57266393Y-57606818D01*
X57266392Y-57606814D01*
X57200500Y-57492686D01*
X57107314Y-57399500D01*
X57107311Y-57399498D01*
X57107309Y-57399496D01*
X57104439Y-57397293D01*
X57076131Y-57348238D01*
X57075500Y-57338594D01*
X57075500Y-57124500D01*
X57097174Y-57072174D01*
X57149500Y-57050500D01*
X57250500Y-57050500D01*
X57302826Y-57072174D01*
X57324500Y-57124500D01*
X57324500Y-57354800D01*
X57343016Y-57399500D01*
X57366442Y-57456057D01*
X58202826Y-58292441D01*
X58224500Y-58344767D01*
X58224500Y-61500018D01*
X58202826Y-61552344D01*
X58183001Y-61566498D01*
X58143520Y-61585799D01*
X58143517Y-61585801D01*
X58060799Y-61668519D01*
X58060223Y-61669327D01*
X58059608Y-61669710D01*
X58056466Y-61672853D01*
X58055738Y-61672125D01*
X58012177Y-61699316D01*
X57956998Y-61686548D01*
X57939777Y-61669327D01*
X57939200Y-61668519D01*
X57856482Y-61585801D01*
X57856479Y-61585799D01*
X57816999Y-61566498D01*
X57779509Y-61524045D01*
X57775500Y-61500018D01*
X57775500Y-60761404D01*
X57797174Y-60709078D01*
X57804456Y-60702693D01*
X57807312Y-60700501D01*
X57807311Y-60700501D01*
X57807314Y-60700500D01*
X57900500Y-60607314D01*
X57966392Y-60493186D01*
X58000499Y-60365894D01*
X58000500Y-60365894D01*
X58000500Y-60234106D01*
X58000499Y-60234105D01*
X57966393Y-60106818D01*
X57966392Y-60106814D01*
X57900500Y-59992686D01*
X57807314Y-59899500D01*
X57693190Y-59833610D01*
X57693181Y-59833606D01*
X57565894Y-59799500D01*
X57565892Y-59799500D01*
X57434108Y-59799500D01*
X57434106Y-59799500D01*
X57306818Y-59833606D01*
X57306809Y-59833610D01*
X57192685Y-59899500D01*
X57099500Y-59992685D01*
X57033610Y-60106809D01*
X57033606Y-60106818D01*
X56999500Y-60234105D01*
X56999500Y-60365894D01*
X57033606Y-60493181D01*
X57033610Y-60493190D01*
X57099500Y-60607314D01*
X57192687Y-60700501D01*
X57195544Y-60702693D01*
X57223866Y-60751740D01*
X57224500Y-60761404D01*
X57224500Y-61500018D01*
X57202826Y-61552344D01*
X57183001Y-61566498D01*
X57143520Y-61585799D01*
X57143517Y-61585801D01*
X57060802Y-61668516D01*
X57059914Y-61669761D01*
X57058966Y-61670352D01*
X57056466Y-61672853D01*
X57055887Y-61672274D01*
X57011869Y-61699752D01*
X56956689Y-61686986D01*
X56939464Y-61669760D01*
X56938787Y-61668812D01*
X56856189Y-61586214D01*
X56751249Y-61534912D01*
X56683223Y-61525000D01*
X56600000Y-61525000D01*
X56600000Y-63474999D01*
X56683211Y-63474999D01*
X56683224Y-63474998D01*
X56751250Y-63465087D01*
X56856188Y-63413786D01*
X56938783Y-63331191D01*
X56939460Y-63330244D01*
X56940181Y-63329793D01*
X56943122Y-63326853D01*
X56943802Y-63327533D01*
X56987503Y-63300248D01*
X57042683Y-63313009D01*
X57059917Y-63330243D01*
X57060802Y-63331483D01*
X57143517Y-63414198D01*
X57248607Y-63465573D01*
X57316740Y-63475500D01*
X57316746Y-63475500D01*
X57683254Y-63475500D01*
X57683260Y-63475500D01*
X57751393Y-63465573D01*
X57856483Y-63414198D01*
X57939198Y-63331483D01*
X57939200Y-63331477D01*
X57939773Y-63330677D01*
X57940387Y-63330293D01*
X57943534Y-63327147D01*
X57944261Y-63327874D01*
X57987817Y-63300684D01*
X58042997Y-63313447D01*
X58060227Y-63330677D01*
X58060801Y-63331481D01*
X58060802Y-63331483D01*
X58143517Y-63414198D01*
X58248607Y-63465573D01*
X58316740Y-63475500D01*
X58316746Y-63475500D01*
X58683254Y-63475500D01*
X58683260Y-63475500D01*
X58751393Y-63465573D01*
X58856483Y-63414198D01*
X58939198Y-63331483D01*
X58939203Y-63331470D01*
X58940077Y-63330249D01*
X58941022Y-63329658D01*
X58943534Y-63327147D01*
X58944114Y-63327727D01*
X58988117Y-63300249D01*
X59043299Y-63313005D01*
X59060534Y-63330237D01*
X59061213Y-63331188D01*
X59143810Y-63413785D01*
X59248750Y-63465087D01*
X59316781Y-63474999D01*
X59400000Y-63474999D01*
X59400000Y-61525000D01*
X59600000Y-61525000D01*
X59600000Y-63474999D01*
X59683211Y-63474999D01*
X59683224Y-63474998D01*
X59751250Y-63465087D01*
X59856188Y-63413786D01*
X59938783Y-63331191D01*
X59939460Y-63330244D01*
X59940181Y-63329793D01*
X59943122Y-63326853D01*
X59943802Y-63327533D01*
X59987503Y-63300248D01*
X60042683Y-63313009D01*
X60059917Y-63330243D01*
X60060802Y-63331483D01*
X60143517Y-63414198D01*
X60248607Y-63465573D01*
X60316740Y-63475500D01*
X60316746Y-63475500D01*
X60683254Y-63475500D01*
X60683260Y-63475500D01*
X60751393Y-63465573D01*
X60856483Y-63414198D01*
X60939198Y-63331483D01*
X60990573Y-63226393D01*
X61000500Y-63158260D01*
X61000500Y-61841740D01*
X60990573Y-61773607D01*
X60939198Y-61668517D01*
X60856483Y-61585802D01*
X60856482Y-61585801D01*
X60856479Y-61585799D01*
X60816999Y-61566498D01*
X60779509Y-61524045D01*
X60775500Y-61500018D01*
X60775500Y-61261404D01*
X60797174Y-61209078D01*
X60804456Y-61202693D01*
X60807312Y-61200501D01*
X60807311Y-61200501D01*
X60807314Y-61200500D01*
X60900500Y-61107314D01*
X60966392Y-60993186D01*
X61000499Y-60865894D01*
X61000500Y-60865894D01*
X61000500Y-60734106D01*
X61000499Y-60734105D01*
X60966393Y-60606818D01*
X60966392Y-60606814D01*
X60900500Y-60492686D01*
X60807314Y-60399500D01*
X60749107Y-60365894D01*
X60693190Y-60333610D01*
X60693181Y-60333606D01*
X60565894Y-60299500D01*
X60565892Y-60299500D01*
X60434108Y-60299500D01*
X60434106Y-60299500D01*
X60306818Y-60333606D01*
X60306809Y-60333610D01*
X60192685Y-60399500D01*
X60099500Y-60492685D01*
X60033610Y-60606809D01*
X60033606Y-60606818D01*
X59999500Y-60734105D01*
X59999500Y-60865894D01*
X60033606Y-60993181D01*
X60033610Y-60993190D01*
X60099500Y-61107314D01*
X60192687Y-61200501D01*
X60195544Y-61202693D01*
X60223866Y-61251740D01*
X60224500Y-61261404D01*
X60224500Y-61500018D01*
X60202826Y-61552344D01*
X60183001Y-61566498D01*
X60143520Y-61585799D01*
X60143517Y-61585801D01*
X60060802Y-61668516D01*
X60059914Y-61669761D01*
X60058966Y-61670352D01*
X60056466Y-61672853D01*
X60055887Y-61672274D01*
X60011869Y-61699752D01*
X59956689Y-61686986D01*
X59939464Y-61669760D01*
X59938787Y-61668812D01*
X59856189Y-61586214D01*
X59751249Y-61534912D01*
X59683223Y-61525000D01*
X59600000Y-61525000D01*
X59400000Y-61525000D01*
X59316788Y-61525000D01*
X59316776Y-61525001D01*
X59248749Y-61534912D01*
X59143811Y-61586213D01*
X59061209Y-61668815D01*
X59060530Y-61669767D01*
X59059806Y-61670218D01*
X59056878Y-61673147D01*
X59056200Y-61672469D01*
X59012482Y-61699753D01*
X58957304Y-61686981D01*
X58940081Y-61669754D01*
X58939197Y-61668516D01*
X58856482Y-61585801D01*
X58856479Y-61585799D01*
X58816999Y-61566498D01*
X58779509Y-61524045D01*
X58775500Y-61500018D01*
X58775500Y-59060637D01*
X58797174Y-59008311D01*
X58849500Y-58986637D01*
X58887618Y-58999577D01*
X58888486Y-58998075D01*
X58892685Y-59000499D01*
X58892686Y-59000500D01*
X59006814Y-59066392D01*
X59134105Y-59100499D01*
X59134106Y-59100500D01*
X59134108Y-59100500D01*
X59265894Y-59100500D01*
X59265894Y-59100499D01*
X59393186Y-59066392D01*
X59507314Y-59000500D01*
X59600500Y-58907314D01*
X59666392Y-58793186D01*
X59700500Y-58665892D01*
X59700500Y-58534108D01*
X59700500Y-58534106D01*
X59700499Y-58534105D01*
X59687578Y-58485884D01*
X59666392Y-58406814D01*
X59600500Y-58292686D01*
X59507314Y-58199500D01*
X59507311Y-58199498D01*
X59507309Y-58199496D01*
X59504439Y-58197293D01*
X59476131Y-58148238D01*
X59475500Y-58138594D01*
X59475500Y-55845200D01*
X59433557Y-55743942D01*
X59356058Y-55666443D01*
X59254800Y-55624500D01*
X59254799Y-55624500D01*
X58624500Y-55624500D01*
X58572174Y-55602826D01*
X58550500Y-55550500D01*
X58550500Y-55380253D01*
X58549760Y-55376535D01*
X58538867Y-55321769D01*
X58538866Y-55321768D01*
X58537445Y-55314621D01*
X58541628Y-55313788D01*
X58541527Y-55286191D01*
X58537445Y-55285379D01*
X58550500Y-55219746D01*
X58550500Y-54980253D01*
X58550500Y-54980252D01*
X58538867Y-54921769D01*
X58494552Y-54855448D01*
X58448236Y-54824500D01*
X58428232Y-54811133D01*
X58428233Y-54811133D01*
X58369743Y-54799499D01*
X57974500Y-54799499D01*
X57922174Y-54777825D01*
X57900500Y-54725499D01*
X57900500Y-54130253D01*
X57898766Y-54121536D01*
X57888867Y-54071769D01*
X57844552Y-54005448D01*
X57799999Y-53975678D01*
X57778232Y-53961133D01*
X57778233Y-53961133D01*
X57748989Y-53955316D01*
X57719748Y-53949500D01*
X57480252Y-53949500D01*
X57421769Y-53961133D01*
X57421768Y-53961133D01*
X57414621Y-53962555D01*
X57413804Y-53958448D01*
X57386196Y-53958448D01*
X57385379Y-53962555D01*
X57378231Y-53961133D01*
X57319748Y-53949500D01*
X57149500Y-53949500D01*
X57097174Y-53927826D01*
X57075500Y-53875500D01*
X57075500Y-53689967D01*
X57097174Y-53637641D01*
X57137923Y-53616878D01*
X57183126Y-53609719D01*
X57303220Y-53548528D01*
X57398528Y-53453220D01*
X57459719Y-53333126D01*
X57475500Y-53233488D01*
X57475500Y-52716512D01*
X57459719Y-52616874D01*
X57398528Y-52496780D01*
X57303220Y-52401472D01*
X57303219Y-52401471D01*
X57183126Y-52340281D01*
X57183125Y-52340280D01*
X57083489Y-52324500D01*
X57083488Y-52324500D01*
X56516512Y-52324500D01*
X56516511Y-52324500D01*
X56416874Y-52340280D01*
X56416873Y-52340281D01*
X56296780Y-52401471D01*
X56201473Y-52496778D01*
X56144244Y-52609096D01*
X56101177Y-52645878D01*
X56078310Y-52649500D01*
X54267853Y-52649500D01*
X54182147Y-52649500D01*
X54099361Y-52671682D01*
X54099360Y-52671682D01*
X54099358Y-52671683D01*
X54099356Y-52671684D01*
X54062249Y-52693107D01*
X54062250Y-52693108D01*
X54025140Y-52714533D01*
X54025137Y-52714535D01*
X53964534Y-52775137D01*
X53964535Y-52775138D01*
X53239532Y-53500141D01*
X53196681Y-53574361D01*
X53196682Y-53574362D01*
X53174500Y-53657147D01*
X53174500Y-61525589D01*
X53152826Y-61577915D01*
X53143534Y-61585784D01*
X53060801Y-61668517D01*
X53009427Y-61773605D01*
X53009427Y-61773606D01*
X52999500Y-61841735D01*
X51500000Y-61841735D01*
X51500000Y-51683451D01*
X56125001Y-51683451D01*
X56140761Y-51782969D01*
X56140762Y-51782971D01*
X56201882Y-51902923D01*
X56297078Y-51998119D01*
X56417030Y-52059237D01*
X56417031Y-52059238D01*
X56516548Y-52074999D01*
X56700000Y-52074999D01*
X56900000Y-52074999D01*
X57083451Y-52074999D01*
X57182969Y-52059238D01*
X57182971Y-52059237D01*
X57302923Y-51998117D01*
X57398119Y-51902921D01*
X57459237Y-51782969D01*
X57459238Y-51782968D01*
X57475000Y-51683451D01*
X57475000Y-51525000D01*
X56900000Y-51525000D01*
X56900000Y-52074999D01*
X56700000Y-52074999D01*
X56700000Y-51525000D01*
X56125001Y-51525000D01*
X56125001Y-51683451D01*
X51500000Y-51683451D01*
X51500000Y-51166548D01*
X56125000Y-51166548D01*
X56125000Y-51325000D01*
X56700000Y-51325000D01*
X56900000Y-51325000D01*
X57474999Y-51325000D01*
X57474999Y-51166548D01*
X57459238Y-51067030D01*
X57459237Y-51067028D01*
X57398117Y-50947076D01*
X57302921Y-50851880D01*
X57182969Y-50790762D01*
X57182968Y-50790761D01*
X57083452Y-50775000D01*
X56900000Y-50775000D01*
X56900000Y-51325000D01*
X56700000Y-51325000D01*
X56700000Y-50775000D01*
X56516548Y-50775000D01*
X56417030Y-50790761D01*
X56417028Y-50790762D01*
X56297076Y-50851882D01*
X56201880Y-50947078D01*
X56140762Y-51067030D01*
X56140761Y-51067031D01*
X56125000Y-51166548D01*
X51500000Y-51166548D01*
X51500000Y-50574500D01*
X51521674Y-50522174D01*
X51574000Y-50500500D01*
X62426000Y-50500500D01*
X62478326Y-50522174D01*
G37*
%TD.AperFunction*%
%TD*%
M02*
