<svg xmlns="http://www.w3.org/2000/svg" viewBox="32.2 88.64999999999999 15.599999999999994 15.600000000000009">
<rect x="32.2" y="88.64999999999999" width="15.599999999999994" height="15.600000000000009" fill="white"/>
<path fill-rule="evenodd" fill="#999999" stroke="#555555" stroke-width="0.01" opacity="0.6" d="M 47.4,102.6 L 46.6,102.6 L 46.6,102.2 L 47.4,102.2 L 47.4,102.6 z" />
<path fill-rule="evenodd" fill="#999999" stroke="#555555" stroke-width="0.01" opacity="0.6" d="M 47.4,101.75 L 46.6,101.75 L 46.6,101.35 L 47.4,101.35 L 47.4,101.75 z" />
<path fill-rule="evenodd" fill="#999999" stroke="#555555" stroke-width="0.01" opacity="0.6" d="M 47.4,100.9 L 46.6,100.9 L 46.6,100.5 L 47.4,100.5 L 47.4,100.9 z" />
<path fill-rule="evenodd" fill="#999999" stroke="#555555" stroke-width="0.01" opacity="0.6" d="M 47.4,100.05 L 46.6,100.05 L 46.6,99.65 L 47.4,99.65 L 47.4,100.05 z" />
<path fill-rule="evenodd" fill="#999999" stroke="#555555" stroke-width="0.01" opacity="0.6" d="M 47.4,99.2 L 46.6,99.2 L 46.6,98.8 L 47.4,98.8 L 47.4,99.2 z" />
<path fill-rule="evenodd" fill="#999999" stroke="#555555" stroke-width="0.01" opacity="0.6" d="M 47.4,98.35 L 46.6,98.35 L 46.6,97.95 L 47.4,97.95 L 47.4,98.35 z" />
<path fill-rule="evenodd" fill="#999999" stroke="#555555" stroke-width="0.01" opacity="0.6" d="M 47.4,97.5 L 46.6,97.5 L 46.6,97.1 L 47.4,97.1 L 47.4,97.5 z" />
<path fill-rule="evenodd" fill="#999999" stroke="#555555" stroke-width="0.01" opacity="0.6" d="M 47.4,96.65 L 46.6,96.65 L 46.6,96.25 L 47.4,96.25 L 47.4,96.65 z" />
<path fill-rule="evenodd" fill="#999999" stroke="#555555" stroke-width="0.01" opacity="0.6" d="M 47.4,95.8 L 46.6,95.8 L 46.6,95.4 L 47.4,95.4 L 47.4,95.8 z" />
<path fill-rule="evenodd" fill="#999999" stroke="#555555" stroke-width="0.01" opacity="0.6" d="M 47.4,94.95 L 46.6,94.95 L 46.6,94.55 L 47.4,94.55 L 47.4,94.95 z" />
<path fill-rule="evenodd" fill="#999999" stroke="#555555" stroke-width="0.01" opacity="0.6" d="M 47.4,94.1 L 46.6,94.1 L 46.6,93.7 L 47.4,93.7 L 47.4,94.1 z" />
<path fill-rule="evenodd" fill="#999999" stroke="#555555" stroke-width="0.01" opacity="0.6" d="M 47.4,93.25 L 46.6,93.25 L 46.6,92.85 L 47.4,92.85 L 47.4,93.25 z" />
<path fill-rule="evenodd" fill="#999999" stroke="#555555" stroke-width="0.01" opacity="0.6" d="M 47.4,92.4 L 46.6,92.4 L 46.6,92.0 L 47.4,92.0 L 47.4,92.4 z" />
<path fill-rule="evenodd" fill="#999999" stroke="#555555" stroke-width="0.01" opacity="0.6" d="M 47.4,91.55 L 46.6,91.55 L 46.6,91.15 L 47.4,91.15 L 47.4,91.55 z" />
<path fill-rule="evenodd" fill="#999999" stroke="#555555" stroke-width="0.01" opacity="0.6" d="M 47.4,90.7 L 46.6,90.7 L 46.6,90.3 L 47.4,90.3 L 47.4,90.7 z" />
<path fill-rule="evenodd" fill="#999999" stroke="#555555" stroke-width="0.01" opacity="0.6" d="M 46.15,89.05 L 46.15,89.85 L 45.75,89.85 L 45.75,89.05 L 46.15,89.05 z" />
<path fill-rule="evenodd" fill="#999999" stroke="#555555" stroke-width="0.01" opacity="0.6" d="M 45.3,89.05 L 45.3,89.85 L 44.9,89.85 L 44.9,89.05 L 45.3,89.05 z" />
<path fill-rule="evenodd" fill="#999999" stroke="#555555" stroke-width="0.01" opacity="0.6" d="M 44.45,89.05 L 44.45,89.85 L 44.05,89.85 L 44.05,89.05 L 44.45,89.05 z" />
<path fill-rule="evenodd" fill="#999999" stroke="#555555" stroke-width="0.01" opacity="0.6" d="M 43.6,89.05 L 43.6,89.85 L 43.2,89.85 L 43.2,89.05 L 43.6,89.05 z" />
<path fill-rule="evenodd" fill="#999999" stroke="#555555" stroke-width="0.01" opacity="0.6" d="M 42.75,89.05 L 42.75,89.85 L 42.35,89.85 L 42.35,89.05 L 42.75,89.05 z" />
<path fill-rule="evenodd" fill="#999999" stroke="#555555" stroke-width="0.01" opacity="0.6" d="M 41.9,89.05 L 41.9,89.85 L 41.5,89.85 L 41.5,89.05 L 41.9,89.05 z" />
<path fill-rule="evenodd" fill="#999999" stroke="#555555" stroke-width="0.01" opacity="0.6" d="M 41.05,89.05 L 41.05,89.85 L 40.65,89.85 L 40.65,89.05 L 41.05,89.05 z" />
<path fill-rule="evenodd" fill="#999999" stroke="#555555" stroke-width="0.01" opacity="0.6" d="M 40.2,89.05 L 40.2,89.85 L 39.8,89.85 L 39.8,89.05 L 40.2,89.05 z" />
<path fill-rule="evenodd" fill="#999999" stroke="#555555" stroke-width="0.01" opacity="0.6" d="M 39.35,89.05 L 39.35,89.85 L 38.95,89.85 L 38.95,89.05 L 39.35,89.05 z" />
<path fill-rule="evenodd" fill="#999999" stroke="#555555" stroke-width="0.01" opacity="0.6" d="M 38.5,89.05 L 38.5,89.85 L 38.1,89.85 L 38.1,89.05 L 38.5,89.05 z" />
<path fill-rule="evenodd" fill="#999999" stroke="#555555" stroke-width="0.01" opacity="0.6" d="M 37.65,89.05 L 37.65,89.85 L 37.25,89.85 L 37.25,89.05 L 37.65,89.05 z" />
<path fill-rule="evenodd" fill="#999999" stroke="#555555" stroke-width="0.01" opacity="0.6" d="M 36.8,89.05 L 36.8,89.85 L 36.4,89.85 L 36.4,89.05 L 36.8,89.05 z" />
<path fill-rule="evenodd" fill="#999999" stroke="#555555" stroke-width="0.01" opacity="0.6" d="M 35.95,89.05 L 35.95,89.85 L 35.55,89.85 L 35.55,89.05 L 35.95,89.05 z" />
<path fill-rule="evenodd" fill="#999999" stroke="#555555" stroke-width="0.01" opacity="0.6" d="M 35.1,89.05 L 35.1,89.85 L 34.7,89.85 L 34.7,89.05 L 35.1,89.05 z" />
<path fill-rule="evenodd" fill="#999999" stroke="#555555" stroke-width="0.01" opacity="0.6" d="M 34.25,89.05 L 34.25,89.85 L 33.85,89.85 L 33.85,89.05 L 34.25,89.05 z" />
<path fill-rule="evenodd" fill="#999999" stroke="#555555" stroke-width="0.01" opacity="0.6" d="M 33.4,90.7 L 32.6,90.7 L 32.6,90.3 L 33.4,90.3 L 33.4,90.7 z" />
<path fill-rule="evenodd" fill="#999999" stroke="#555555" stroke-width="0.01" opacity="0.6" d="M 33.4,91.55 L 32.6,91.55 L 32.6,91.15 L 33.4,91.15 L 33.4,91.55 z" />
<path fill-rule="evenodd" fill="#999999" stroke="#555555" stroke-width="0.01" opacity="0.6" d="M 33.4,92.4 L 32.6,92.4 L 32.6,92.0 L 33.4,92.0 L 33.4,92.4 z" />
<path fill-rule="evenodd" fill="#999999" stroke="#555555" stroke-width="0.01" opacity="0.6" d="M 33.4,93.25 L 32.6,93.25 L 32.6,92.85 L 33.4,92.85 L 33.4,93.25 z" />
<path fill-rule="evenodd" fill="#999999" stroke="#555555" stroke-width="0.01" opacity="0.6" d="M 33.4,94.1 L 32.6,94.1 L 32.6,93.7 L 33.4,93.7 L 33.4,94.1 z" />
<path fill-rule="evenodd" fill="#999999" stroke="#555555" stroke-width="0.01" opacity="0.6" d="M 33.4,94.95 L 32.6,94.95 L 32.6,94.55 L 33.4,94.55 L 33.4,94.95 z" />
<path fill-rule="evenodd" fill="#999999" stroke="#555555" stroke-width="0.01" opacity="0.6" d="M 33.4,95.8 L 32.6,95.8 L 32.6,95.4 L 33.4,95.4 L 33.4,95.8 z" />
<path fill-rule="evenodd" fill="#999999" stroke="#555555" stroke-width="0.01" opacity="0.6" d="M 33.4,96.65 L 32.6,96.65 L 32.6,96.25 L 33.4,96.25 L 33.4,96.65 z" />
<path fill-rule="evenodd" fill="#999999" stroke="#555555" stroke-width="0.01" opacity="0.6" d="M 33.4,97.5 L 32.6,97.5 L 32.6,97.1 L 33.4,97.1 L 33.4,97.5 z" />
<path fill-rule="evenodd" fill="#999999" stroke="#555555" stroke-width="0.01" opacity="0.6" d="M 33.4,98.35 L 32.6,98.35 L 32.6,97.95 L 33.4,97.95 L 33.4,98.35 z" />
<path fill-rule="evenodd" fill="#999999" stroke="#555555" stroke-width="0.01" opacity="0.6" d="M 33.4,99.2 L 32.6,99.2 L 32.6,98.8 L 33.4,98.8 L 33.4,99.2 z" />
<path fill-rule="evenodd" fill="#999999" stroke="#555555" stroke-width="0.01" opacity="0.6" d="M 33.4,100.05 L 32.6,100.05 L 32.6,99.65 L 33.4,99.65 L 33.4,100.05 z" />
<path fill-rule="evenodd" fill="#999999" stroke="#555555" stroke-width="0.01" opacity="0.6" d="M 33.4,100.9 L 32.6,100.9 L 32.6,100.5 L 33.4,100.5 L 33.4,100.9 z" />
<path fill-rule="evenodd" fill="#999999" stroke="#555555" stroke-width="0.01" opacity="0.6" d="M 33.4,101.75 L 32.6,101.75 L 32.6,101.35 L 33.4,101.35 L 33.4,101.75 z" />
<path fill-rule="evenodd" fill="#999999" stroke="#555555" stroke-width="0.01" opacity="0.6" d="M 33.4,102.6 L 32.6,102.6 L 32.6,102.2 L 33.4,102.2 L 33.4,102.6 z" />
<path fill-rule="evenodd" fill="#999999" stroke="#555555" stroke-width="0.01" opacity="0.6" d="M 34.25,103.05 L 34.25,103.85 L 33.85,103.85 L 33.85,103.05 L 34.25,103.05 z" />
<path fill-rule="evenodd" fill="#999999" stroke="#555555" stroke-width="0.01" opacity="0.6" d="M 35.1,103.05 L 35.1,103.85 L 34.7,103.85 L 34.7,103.05 L 35.1,103.05 z" />
<path fill-rule="evenodd" fill="#999999" stroke="#555555" stroke-width="0.01" opacity="0.6" d="M 35.95,103.05 L 35.95,103.85 L 35.55,103.85 L 35.55,103.05 L 35.95,103.05 z" />
<path fill-rule="evenodd" fill="#999999" stroke="#555555" stroke-width="0.01" opacity="0.6" d="M 36.8,103.05 L 36.8,103.85 L 36.4,103.85 L 36.4,103.05 L 36.8,103.05 z" />
<path fill-rule="evenodd" fill="#999999" stroke="#555555" stroke-width="0.01" opacity="0.6" d="M 37.65,103.05 L 37.65,103.85 L 37.25,103.85 L 37.25,103.05 L 37.65,103.05 z" />
<path fill-rule="evenodd" fill="#999999" stroke="#555555" stroke-width="0.01" opacity="0.6" d="M 38.5,103.05 L 38.5,103.85 L 38.1,103.85 L 38.1,103.05 L 38.5,103.05 z" />
<path fill-rule="evenodd" fill="#999999" stroke="#555555" stroke-width="0.01" opacity="0.6" d="M 39.35,103.05 L 39.35,103.85 L 38.95,103.85 L 38.95,103.05 L 39.35,103.05 z" />
<path fill-rule="evenodd" fill="#999999" stroke="#555555" stroke-width="0.01" opacity="0.6" d="M 40.2,103.05 L 40.2,103.85 L 39.8,103.85 L 39.8,103.05 L 40.2,103.05 z" />
<path fill-rule="evenodd" fill="#999999" stroke="#555555" stroke-width="0.01" opacity="0.6" d="M 41.05,103.05 L 41.05,103.85 L 40.65,103.85 L 40.65,103.05 L 41.05,103.05 z" />
<path fill-rule="evenodd" fill="#999999" stroke="#555555" stroke-width="0.01" opacity="0.6" d="M 41.9,103.05 L 41.9,103.85 L 41.5,103.85 L 41.5,103.05 L 41.9,103.05 z" />
<path fill-rule="evenodd" fill="#999999" stroke="#555555" stroke-width="0.01" opacity="0.6" d="M 42.75,103.05 L 42.75,103.85 L 42.35,103.85 L 42.35,103.05 L 42.75,103.05 z" />
<path fill-rule="evenodd" fill="#999999" stroke="#555555" stroke-width="0.01" opacity="0.6" d="M 43.6,103.05 L 43.6,103.85 L 43.2,103.85 L 43.2,103.05 L 43.6,103.05 z" />
<path fill-rule="evenodd" fill="#999999" stroke="#555555" stroke-width="0.01" opacity="0.6" d="M 44.45,103.05 L 44.45,103.85 L 44.05,103.85 L 44.05,103.05 L 44.45,103.05 z" />
<path fill-rule="evenodd" fill="#999999" stroke="#555555" stroke-width="0.01" opacity="0.6" d="M 45.3,103.05 L 45.3,103.85 L 44.9,103.85 L 44.9,103.05 L 45.3,103.05 z" />
<path fill-rule="evenodd" fill="#999999" stroke="#555555" stroke-width="0.01" opacity="0.6" d="M 46.15,103.05 L 46.15,103.85 L 45.75,103.85 L 45.75,103.05 L 46.15,103.05 z" />
<path fill-rule="evenodd" fill="#999999" stroke="#555555" stroke-width="0.01" opacity="0.6" d="M 42.25,98.304 L 41.854,98.7 L 41.05,98.7 L 41.05,97.5 L 42.25,97.5 L 42.25,98.304 z" />
<path fill-rule="evenodd" fill="#999999" stroke="#555555" stroke-width="0.01" opacity="0.6" d="M 42.25,97.05 L 41.05,97.05 L 41.05,95.85 L 42.25,95.85 L 42.25,97.05 z" />
<path fill-rule="evenodd" fill="#999999" stroke="#555555" stroke-width="0.01" opacity="0.6" d="M 42.25,95.4 L 41.05,95.4 L 41.05,94.2 L 42.25,94.2 L 42.25,95.4 z" />
<path fill-rule="evenodd" fill="#999999" stroke="#555555" stroke-width="0.01" opacity="0.6" d="M 40.6,98.7 L 39.4,98.7 L 39.4,97.5 L 40.6,97.5 L 40.6,98.7 z" />
<path fill-rule="evenodd" fill="#999999" stroke="#555555" stroke-width="0.01" opacity="0.6" d="M 40.6,97.05 L 39.4,97.05 L 39.4,95.85 L 40.6,95.85 L 40.6,97.05 z" />
<path fill-rule="evenodd" fill="#999999" stroke="#555555" stroke-width="0.01" opacity="0.6" d="M 40.6,95.4 L 39.4,95.4 L 39.4,94.2 L 40.6,94.2 L 40.6,95.4 z" />
<path fill-rule="evenodd" fill="#999999" stroke="#555555" stroke-width="0.01" opacity="0.6" d="M 38.95,98.7 L 37.75,98.7 L 37.75,97.5 L 38.95,97.5 L 38.95,98.7 z" />
<path fill-rule="evenodd" fill="#999999" stroke="#555555" stroke-width="0.01" opacity="0.6" d="M 38.95,97.05 L 37.75,97.05 L 37.75,95.85 L 38.95,95.85 L 38.95,97.05 z" />
<path fill-rule="evenodd" fill="#999999" stroke="#555555" stroke-width="0.01" opacity="0.6" d="M 38.95,95.4 L 37.75,95.4 L 37.75,94.2 L 38.95,94.2 L 38.95,95.4 z" />
<path fill-rule="evenodd" fill="#999999" stroke="#555555" stroke-width="0.01" opacity="0.6" d="M 47.4,103.85 L 46.6,103.85 L 46.6,103.05 L 47.4,103.05 L 47.4,103.85 z" />
<path fill-rule="evenodd" fill="#999999" stroke="#555555" stroke-width="0.01" opacity="0.6" d="M 47.4,89.85 L 46.6,89.85 L 46.6,89.05 L 47.4,89.05 L 47.4,89.85 z" />
<path fill-rule="evenodd" fill="#999999" stroke="#555555" stroke-width="0.01" opacity="0.6" d="M 33.4,89.85 L 32.6,89.85 L 32.6,89.05 L 33.4,89.05 L 33.4,89.85 z" />
<path fill-rule="evenodd" fill="#999999" stroke="#555555" stroke-width="0.01" opacity="0.6" d="M 33.4,103.85 L 32.6,103.85 L 32.6,103.05 L 33.4,103.05 L 33.4,103.85 z" />
<path fill-rule="evenodd" fill="#dd3333" stroke="#555555" stroke-width="0.01" opacity="0.6" d="M 47.4,102.6 L 46.6,102.6 L 46.6,102.2 L 47.4,102.2 L 47.4,102.6 z" />
<path fill-rule="evenodd" fill="#dd3333" stroke="#555555" stroke-width="0.01" opacity="0.6" d="M 47.4,101.75 L 46.6,101.75 L 46.6,101.35 L 47.4,101.35 L 47.4,101.75 z" />
<path fill-rule="evenodd" fill="#dd3333" stroke="#555555" stroke-width="0.01" opacity="0.6" d="M 47.4,100.9 L 46.6,100.9 L 46.6,100.5 L 47.4,100.5 L 47.4,100.9 z" />
<path fill-rule="evenodd" fill="#dd3333" stroke="#555555" stroke-width="0.01" opacity="0.6" d="M 47.4,100.05 L 46.6,100.05 L 46.6,99.65 L 47.4,99.65 L 47.4,100.05 z" />
<path fill-rule="evenodd" fill="#dd3333" stroke="#555555" stroke-width="0.01" opacity="0.6" d="M 47.4,99.2 L 46.6,99.2 L 46.6,98.8 L 47.4,98.8 L 47.4,99.2 z" />
<path fill-rule="evenodd" fill="#dd3333" stroke="#555555" stroke-width="0.01" opacity="0.6" d="M 47.4,98.35 L 46.6,98.35 L 46.6,97.95 L 47.4,97.95 L 47.4,98.35 z" />
<path fill-rule="evenodd" fill="#dd3333" stroke="#555555" stroke-width="0.01" opacity="0.6" d="M 47.4,97.5 L 46.6,97.5 L 46.6,97.1 L 47.4,97.1 L 47.4,97.5 z" />
<path fill-rule="evenodd" fill="#dd3333" stroke="#555555" stroke-width="0.01" opacity="0.6" d="M 47.4,96.65 L 46.6,96.65 L 46.6,96.25 L 47.4,96.25 L 47.4,96.65 z" />
<path fill-rule="evenodd" fill="#dd3333" stroke="#555555" stroke-width="0.01" opacity="0.6" d="M 47.4,95.8 L 46.6,95.8 L 46.6,95.4 L 47.4,95.4 L 47.4,95.8 z" />
<path fill-rule="evenodd" fill="#dd3333" stroke="#555555" stroke-width="0.01" opacity="0.6" d="M 47.4,94.95 L 46.6,94.95 L 46.6,94.55 L 47.4,94.55 L 47.4,94.95 z" />
<path fill-rule="evenodd" fill="#dd3333" stroke="#555555" stroke-width="0.01" opacity="0.6" d="M 47.4,94.1 L 46.6,94.1 L 46.6,93.7 L 47.4,93.7 L 47.4,94.1 z" />
<path fill-rule="evenodd" fill="#dd3333" stroke="#555555" stroke-width="0.01" opacity="0.6" d="M 47.4,93.25 L 46.6,93.25 L 46.6,92.85 L 47.4,92.85 L 47.4,93.25 z" />
<path fill-rule="evenodd" fill="#dd3333" stroke="#555555" stroke-width="0.01" opacity="0.6" d="M 47.4,92.4 L 46.6,92.4 L 46.6,92.0 L 47.4,92.0 L 47.4,92.4 z" />
<path fill-rule="evenodd" fill="#dd3333" stroke="#555555" stroke-width="0.01" opacity="0.6" d="M 47.4,91.55 L 46.6,91.55 L 46.6,91.15 L 47.4,91.15 L 47.4,91.55 z" />
<path fill-rule="evenodd" fill="#dd3333" stroke="#555555" stroke-width="0.01" opacity="0.6" d="M 47.4,90.7 L 46.6,90.7 L 46.6,90.3 L 47.4,90.3 L 47.4,90.7 z" />
<path fill-rule="evenodd" fill="#dd3333" stroke="#555555" stroke-width="0.01" opacity="0.6" d="M 46.15,89.05 L 46.15,89.85 L 45.75,89.85 L 45.75,89.05 L 46.15,89.05 z" />
<path fill-rule="evenodd" fill="#dd3333" stroke="#555555" stroke-width="0.01" opacity="0.6" d="M 45.3,89.05 L 45.3,89.85 L 44.9,89.85 L 44.9,89.05 L 45.3,89.05 z" />
<path fill-rule="evenodd" fill="#dd3333" stroke="#555555" stroke-width="0.01" opacity="0.6" d="M 44.45,89.05 L 44.45,89.85 L 44.05,89.85 L 44.05,89.05 L 44.45,89.05 z" />
<path fill-rule="evenodd" fill="#dd3333" stroke="#555555" stroke-width="0.01" opacity="0.6" d="M 43.6,89.05 L 43.6,89.85 L 43.2,89.85 L 43.2,89.05 L 43.6,89.05 z" />
<path fill-rule="evenodd" fill="#dd3333" stroke="#555555" stroke-width="0.01" opacity="0.6" d="M 42.75,89.05 L 42.75,89.85 L 42.35,89.85 L 42.35,89.05 L 42.75,89.05 z" />
<path fill-rule="evenodd" fill="#dd3333" stroke="#555555" stroke-width="0.01" opacity="0.6" d="M 41.9,89.05 L 41.9,89.85 L 41.5,89.85 L 41.5,89.05 L 41.9,89.05 z" />
<path fill-rule="evenodd" fill="#dd3333" stroke="#555555" stroke-width="0.01" opacity="0.6" d="M 41.05,89.05 L 41.05,89.85 L 40.65,89.85 L 40.65,89.05 L 41.05,89.05 z" />
<path fill-rule="evenodd" fill="#dd3333" stroke="#555555" stroke-width="0.01" opacity="0.6" d="M 40.2,89.05 L 40.2,89.85 L 39.8,89.85 L 39.8,89.05 L 40.2,89.05 z" />
<path fill-rule="evenodd" fill="#dd3333" stroke="#555555" stroke-width="0.01" opacity="0.6" d="M 39.35,89.05 L 39.35,89.85 L 38.95,89.85 L 38.95,89.05 L 39.35,89.05 z" />
<path fill-rule="evenodd" fill="#dd3333" stroke="#555555" stroke-width="0.01" opacity="0.6" d="M 38.5,89.05 L 38.5,89.85 L 38.1,89.85 L 38.1,89.05 L 38.5,89.05 z" />
<path fill-rule="evenodd" fill="#dd3333" stroke="#555555" stroke-width="0.01" opacity="0.6" d="M 37.65,89.05 L 37.65,89.85 L 37.25,89.85 L 37.25,89.05 L 37.65,89.05 z" />
<path fill-rule="evenodd" fill="#dd3333" stroke="#555555" stroke-width="0.01" opacity="0.6" d="M 36.8,89.05 L 36.8,89.85 L 36.4,89.85 L 36.4,89.05 L 36.8,89.05 z" />
<path fill-rule="evenodd" fill="#dd3333" stroke="#555555" stroke-width="0.01" opacity="0.6" d="M 35.95,89.05 L 35.95,89.85 L 35.55,89.85 L 35.55,89.05 L 35.95,89.05 z" />
<path fill-rule="evenodd" fill="#dd3333" stroke="#555555" stroke-width="0.01" opacity="0.6" d="M 35.1,89.05 L 35.1,89.85 L 34.7,89.85 L 34.7,89.05 L 35.1,89.05 z" />
<path fill-rule="evenodd" fill="#dd3333" stroke="#555555" stroke-width="0.01" opacity="0.6" d="M 34.25,89.05 L 34.25,89.85 L 33.85,89.85 L 33.85,89.05 L 34.25,89.05 z" />
<path fill-rule="evenodd" fill="#dd3333" stroke="#555555" stroke-width="0.01" opacity="0.6" d="M 33.4,90.7 L 32.6,90.7 L 32.6,90.3 L 33.4,90.3 L 33.4,90.7 z" />
<path fill-rule="evenodd" fill="#dd3333" stroke="#555555" stroke-width="0.01" opacity="0.6" d="M 33.4,91.55 L 32.6,91.55 L 32.6,91.15 L 33.4,91.15 L 33.4,91.55 z" />
<path fill-rule="evenodd" fill="#dd3333" stroke="#555555" stroke-width="0.01" opacity="0.6" d="M 33.4,92.4 L 32.6,92.4 L 32.6,92.0 L 33.4,92.0 L 33.4,92.4 z" />
<path fill-rule="evenodd" fill="#dd3333" stroke="#555555" stroke-width="0.01" opacity="0.6" d="M 33.4,93.25 L 32.6,93.25 L 32.6,92.85 L 33.4,92.85 L 33.4,93.25 z" />
<path fill-rule="evenodd" fill="#dd3333" stroke="#555555" stroke-width="0.01" opacity="0.6" d="M 33.4,94.1 L 32.6,94.1 L 32.6,93.7 L 33.4,93.7 L 33.4,94.1 z" />
<path fill-rule="evenodd" fill="#dd3333" stroke="#555555" stroke-width="0.01" opacity="0.6" d="M 33.4,94.95 L 32.6,94.95 L 32.6,94.55 L 33.4,94.55 L 33.4,94.95 z" />
<path fill-rule="evenodd" fill="#dd3333" stroke="#555555" stroke-width="0.01" opacity="0.6" d="M 33.4,95.8 L 32.6,95.8 L 32.6,95.4 L 33.4,95.4 L 33.4,95.8 z" />
<path fill-rule="evenodd" fill="#dd3333" stroke="#555555" stroke-width="0.01" opacity="0.6" d="M 33.4,96.65 L 32.6,96.65 L 32.6,96.25 L 33.4,96.25 L 33.4,96.65 z" />
<path fill-rule="evenodd" fill="#dd3333" stroke="#555555" stroke-width="0.01" opacity="0.6" d="M 33.4,97.5 L 32.6,97.5 L 32.6,97.1 L 33.4,97.1 L 33.4,97.5 z" />
<path fill-rule="evenodd" fill="#dd3333" stroke="#555555" stroke-width="0.01" opacity="0.6" d="M 33.4,98.35 L 32.6,98.35 L 32.6,97.95 L 33.4,97.95 L 33.4,98.35 z" />
<path fill-rule="evenodd" fill="#dd3333" stroke="#555555" stroke-width="0.01" opacity="0.6" d="M 33.4,99.2 L 32.6,99.2 L 32.6,98.8 L 33.4,98.8 L 33.4,99.2 z" />
<path fill-rule="evenodd" fill="#dd3333" stroke="#555555" stroke-width="0.01" opacity="0.6" d="M 33.4,100.05 L 32.6,100.05 L 32.6,99.65 L 33.4,99.65 L 33.4,100.05 z" />
<path fill-rule="evenodd" fill="#dd3333" stroke="#555555" stroke-width="0.01" opacity="0.6" d="M 33.4,100.9 L 32.6,100.9 L 32.6,100.5 L 33.4,100.5 L 33.4,100.9 z" />
<path fill-rule="evenodd" fill="#dd3333" stroke="#555555" stroke-width="0.01" opacity="0.6" d="M 33.4,101.75 L 32.6,101.75 L 32.6,101.35 L 33.4,101.35 L 33.4,101.75 z" />
<path fill-rule="evenodd" fill="#dd3333" stroke="#555555" stroke-width="0.01" opacity="0.6" d="M 33.4,102.6 L 32.6,102.6 L 32.6,102.2 L 33.4,102.2 L 33.4,102.6 z" />
<path fill-rule="evenodd" fill="#dd3333" stroke="#555555" stroke-width="0.01" opacity="0.6" d="M 34.25,103.05 L 34.25,103.85 L 33.85,103.85 L 33.85,103.05 L 34.25,103.05 z" />
<path fill-rule="evenodd" fill="#dd3333" stroke="#555555" stroke-width="0.01" opacity="0.6" d="M 35.1,103.05 L 35.1,103.85 L 34.7,103.85 L 34.7,103.05 L 35.1,103.05 z" />
<path fill-rule="evenodd" fill="#dd3333" stroke="#555555" stroke-width="0.01" opacity="0.6" d="M 35.95,103.05 L 35.95,103.85 L 35.55,103.85 L 35.55,103.05 L 35.95,103.05 z" />
<path fill-rule="evenodd" fill="#dd3333" stroke="#555555" stroke-width="0.01" opacity="0.6" d="M 36.8,103.05 L 36.8,103.85 L 36.4,103.85 L 36.4,103.05 L 36.8,103.05 z" />
<path fill-rule="evenodd" fill="#dd3333" stroke="#555555" stroke-width="0.01" opacity="0.6" d="M 37.65,103.05 L 37.65,103.85 L 37.25,103.85 L 37.25,103.05 L 37.65,103.05 z" />
<path fill-rule="evenodd" fill="#dd3333" stroke="#555555" stroke-width="0.01" opacity="0.6" d="M 38.5,103.05 L 38.5,103.85 L 38.1,103.85 L 38.1,103.05 L 38.5,103.05 z" />
<path fill-rule="evenodd" fill="#dd3333" stroke="#555555" stroke-width="0.01" opacity="0.6" d="M 39.35,103.05 L 39.35,103.85 L 38.95,103.85 L 38.95,103.05 L 39.35,103.05 z" />
<path fill-rule="evenodd" fill="#dd3333" stroke="#555555" stroke-width="0.01" opacity="0.6" d="M 40.2,103.05 L 40.2,103.85 L 39.8,103.85 L 39.8,103.05 L 40.2,103.05 z" />
<path fill-rule="evenodd" fill="#dd3333" stroke="#555555" stroke-width="0.01" opacity="0.6" d="M 41.05,103.05 L 41.05,103.85 L 40.65,103.85 L 40.65,103.05 L 41.05,103.05 z" />
<path fill-rule="evenodd" fill="#dd3333" stroke="#555555" stroke-width="0.01" opacity="0.6" d="M 41.9,103.05 L 41.9,103.85 L 41.5,103.85 L 41.5,103.05 L 41.9,103.05 z" />
<path fill-rule="evenodd" fill="#dd3333" stroke="#555555" stroke-width="0.01" opacity="0.6" d="M 42.75,103.05 L 42.75,103.85 L 42.35,103.85 L 42.35,103.05 L 42.75,103.05 z" />
<path fill-rule="evenodd" fill="#dd3333" stroke="#555555" stroke-width="0.01" opacity="0.6" d="M 43.6,103.05 L 43.6,103.85 L 43.2,103.85 L 43.2,103.05 L 43.6,103.05 z" />
<path fill-rule="evenodd" fill="#dd3333" stroke="#555555" stroke-width="0.01" opacity="0.6" d="M 44.45,103.05 L 44.45,103.85 L 44.05,103.85 L 44.05,103.05 L 44.45,103.05 z" />
<path fill-rule="evenodd" fill="#dd3333" stroke="#555555" stroke-width="0.01" opacity="0.6" d="M 45.3,103.05 L 45.3,103.85 L 44.9,103.85 L 44.9,103.05 L 45.3,103.05 z" />
<path fill-rule="evenodd" fill="#dd3333" stroke="#555555" stroke-width="0.01" opacity="0.6" d="M 46.15,103.05 L 46.15,103.85 L 45.75,103.85 L 45.75,103.05 L 46.15,103.05 z" />
<path fill-rule="evenodd" fill="#dd3333" stroke="#555555" stroke-width="0.01" opacity="0.6" d="M 42.25,98.304 L 41.854,98.7 L 41.05,98.7 L 41.05,97.5 L 42.25,97.5 L 42.25,98.304 z" />
<path fill-rule="evenodd" fill="#dd3333" stroke="#555555" stroke-width="0.01" opacity="0.6" d="M 42.25,97.05 L 41.05,97.05 L 41.05,95.85 L 42.25,95.85 L 42.25,97.05 z" />
<path fill-rule="evenodd" fill="#dd3333" stroke="#555555" stroke-width="0.01" opacity="0.6" d="M 42.25,95.4 L 41.05,95.4 L 41.05,94.2 L 42.25,94.2 L 42.25,95.4 z" />
<path fill-rule="evenodd" fill="#dd3333" stroke="#555555" stroke-width="0.01" opacity="0.6" d="M 40.6,98.7 L 39.4,98.7 L 39.4,97.5 L 40.6,97.5 L 40.6,98.7 z" />
<path fill-rule="evenodd" fill="#dd3333" stroke="#555555" stroke-width="0.01" opacity="0.6" d="M 40.6,97.05 L 39.4,97.05 L 39.4,95.85 L 40.6,95.85 L 40.6,97.05 z" />
<path fill-rule="evenodd" fill="#dd3333" stroke="#555555" stroke-width="0.01" opacity="0.6" d="M 40.6,95.4 L 39.4,95.4 L 39.4,94.2 L 40.6,94.2 L 40.6,95.4 z" />
<path fill-rule="evenodd" fill="#dd3333" stroke="#555555" stroke-width="0.01" opacity="0.6" d="M 38.95,98.7 L 37.75,98.7 L 37.75,97.5 L 38.95,97.5 L 38.95,98.7 z" />
<path fill-rule="evenodd" fill="#dd3333" stroke="#555555" stroke-width="0.01" opacity="0.6" d="M 38.95,97.05 L 37.75,97.05 L 37.75,95.85 L 38.95,95.85 L 38.95,97.05 z" />
<path fill-rule="evenodd" fill="#dd3333" stroke="#555555" stroke-width="0.01" opacity="0.6" d="M 38.95,95.4 L 37.75,95.4 L 37.75,94.2 L 38.95,94.2 L 38.95,95.4 z" />
<path fill-rule="evenodd" fill="#dd3333" stroke="#555555" stroke-width="0.01" opacity="0.6" d="M 47.4,103.85 L 46.6,103.85 L 46.6,103.05 L 47.4,103.05 L 47.4,103.85 z" />
<path fill-rule="evenodd" fill="#dd3333" stroke="#555555" stroke-width="0.01" opacity="0.6" d="M 47.4,89.85 L 46.6,89.85 L 46.6,89.05 L 47.4,89.05 L 47.4,89.85 z" />
<path fill-rule="evenodd" fill="#dd3333" stroke="#555555" stroke-width="0.01" opacity="0.6" d="M 33.4,89.85 L 32.6,89.85 L 32.6,89.05 L 33.4,89.05 L 33.4,89.85 z" />
<path fill-rule="evenodd" fill="#dd3333" stroke="#555555" stroke-width="0.01" opacity="0.6" d="M 33.4,103.85 L 32.6,103.85 L 32.6,103.05 L 33.4,103.05 L 33.4,103.85 z" />
</svg>