<svg xmlns="http://www.w3.org/2000/svg" viewBox="41.1 25.6 2.299999999999997 2.299999999999997">
<rect x="41.1" y="25.6" width="2.299999999999997" height="2.299999999999997" fill="white"/>
<path fill-rule="evenodd" fill="#999999" stroke="#555555" stroke-width="0.01" opacity="0.6" d="M 41.5,26.95 L 42.05,26.95 L 42.05,27.5 L 41.5,27.5 L 41.5,26.95 z" />
<path fill-rule="evenodd" fill="#999999" stroke="#555555" stroke-width="0.01" opacity="0.6" d="M 42.45,26.95 L 43.0,26.95 L 43.0,27.5 L 42.45,27.5 L 42.45,26.95 z" />
<path fill-rule="evenodd" fill="#999999" stroke="#555555" stroke-width="0.01" opacity="0.6" d="M 42.45,26.0 L 43.0,26.0 L 43.0,26.55 L 42.45,26.55 L 42.45,26.0 z" />
<path fill-rule="evenodd" fill="#999999" stroke="#555555" stroke-width="0.01" opacity="0.6" d="M 41.5,26.0 L 42.05,26.0 L 42.05,26.55 L 41.5,26.55 L 41.5,26.0 z" />
<path fill-rule="evenodd" fill="#dd3333" stroke="#555555" stroke-width="0.01" opacity="0.6" d="M 41.5,26.95 L 42.05,26.95 L 42.05,27.5 L 41.5,27.5 L 41.5,26.95 z" />
<path fill-rule="evenodd" fill="#dd3333" stroke="#555555" stroke-width="0.01" opacity="0.6" d="M 42.45,26.95 L 43.0,26.95 L 43.0,27.5 L 42.45,27.5 L 42.45,26.95 z" />
<path fill-rule="evenodd" fill="#dd3333" stroke="#555555" stroke-width="0.01" opacity="0.6" d="M 42.45,26.0 L 43.0,26.0 L 43.0,26.55 L 42.45,26.55 L 42.45,26.0 z" />
<path fill-rule="evenodd" fill="#dd3333" stroke="#555555" stroke-width="0.01" opacity="0.6" d="M 41.5,26.0 L 42.05,26.0 L 42.05,26.55 L 41.5,26.55 L 41.5,26.0 z" />
</svg>