<svg xmlns="http://www.w3.org/2000/svg" viewBox="15.35 52.725 3.299999999999999 2.549999999999997">
<rect x="15.35" y="52.725" width="3.299999999999999" height="2.549999999999997" fill="white"/>
<path fill-rule="evenodd" fill="#999999" stroke="#555555" stroke-width="0.01" opacity="0.6" d="M 15.75,53.1875 L 15.75213,53.171324 L 15.761303,53.151651 L 15.776651,53.136303 L 15.796324,53.12713 L 15.8125,53.125 L 16.2875,53.125 L 16.303676,53.12713 L 16.323349,53.136303 L 16.338697,53.151651 L 16.34787,53.171324 L 16.35,53.1875 L 16.35,53.3125 L 16.34787,53.328676 L 16.338697,53.348349 L 16.323349,53.363697 L 16.303676,53.37287 L 16.2875,53.375 L 15.8125,53.375 L 15.796324,53.37287 L 15.776651,53.363697 L 15.761303,53.348349 L 15.75213,53.328676 L 15.75,53.3125 L 15.75,53.1875 z" />
<path fill-rule="evenodd" fill="#999999" stroke="#555555" stroke-width="0.01" opacity="0.6" d="M 15.75,53.6875 L 15.75213,53.671324 L 15.761303,53.651651 L 15.776651,53.636303 L 15.796324,53.62713 L 15.8125,53.625 L 16.2875,53.625 L 16.303676,53.62713 L 16.323349,53.636303 L 16.338697,53.651651 L 16.34787,53.671324 L 16.35,53.6875 L 16.35,53.8125 L 16.34787,53.828676 L 16.338697,53.848349 L 16.323349,53.863697 L 16.303676,53.87287 L 16.2875,53.875 L 15.8125,53.875 L 15.796324,53.87287 L 15.776651,53.863697 L 15.761303,53.848349 L 15.75213,53.828676 L 15.75,53.8125 L 15.75,53.6875 z" />
<path fill-rule="evenodd" fill="#999999" stroke="#555555" stroke-width="0.01" opacity="0.6" d="M 15.75,54.1875 L 15.75213,54.171324 L 15.761303,54.151651 L 15.776651,54.136303 L 15.796324,54.12713 L 15.8125,54.125 L 16.2875,54.125 L 16.303676,54.12713 L 16.323349,54.136303 L 16.338697,54.151651 L 16.34787,54.171324 L 16.35,54.1875 L 16.35,54.3125 L 16.34787,54.328676 L 16.338697,54.348349 L 16.323349,54.363697 L 16.303676,54.37287 L 16.2875,54.375 L 15.8125,54.375 L 15.796324,54.37287 L 15.776651,54.363697 L 15.761303,54.348349 L 15.75213,54.328676 L 15.75,54.3125 L 15.75,54.1875 z" />
<path fill-rule="evenodd" fill="#999999" stroke="#555555" stroke-width="0.01" opacity="0.6" d="M 15.75,54.6875 L 15.75213,54.671324 L 15.761303,54.651651 L 15.776651,54.636303 L 15.796324,54.62713 L 15.8125,54.625 L 16.2875,54.625 L 16.303676,54.62713 L 16.323349,54.636303 L 16.338697,54.651651 L 16.34787,54.671324 L 16.35,54.6875 L 16.35,54.8125 L 16.34787,54.828676 L 16.338697,54.848349 L 16.323349,54.863697 L 16.303676,54.87287 L 16.2875,54.875 L 15.8125,54.875 L 15.796324,54.87287 L 15.776651,54.863697 L 15.761303,54.848349 L 15.75213,54.828676 L 15.75,54.8125 L 15.75,54.6875 z" />
<path fill-rule="evenodd" fill="#999999" stroke="#555555" stroke-width="0.01" opacity="0.6" d="M 17.65,54.6875 L 17.65213,54.671324 L 17.661303,54.651651 L 17.676651,54.636303 L 17.696324,54.62713 L 17.7125,54.625 L 18.1875,54.625 L 18.203676,54.62713 L 18.223349,54.636303 L 18.238697,54.651651 L 18.24787,54.671324 L 18.25,54.6875 L 18.25,54.8125 L 18.24787,54.828676 L 18.238697,54.848349 L 18.223349,54.863697 L 18.203676,54.87287 L 18.1875,54.875 L 17.7125,54.875 L 17.696324,54.87287 L 17.676651,54.863697 L 17.661303,54.848349 L 17.65213,54.828676 L 17.65,54.8125 L 17.65,54.6875 z" />
<path fill-rule="evenodd" fill="#999999" stroke="#555555" stroke-width="0.01" opacity="0.6" d="M 17.65,54.1875 L 17.65213,54.171324 L 17.661303,54.151651 L 17.676651,54.136303 L 17.696324,54.12713 L 17.7125,54.125 L 18.1875,54.125 L 18.203676,54.12713 L 18.223349,54.136303 L 18.238697,54.151651 L 18.24787,54.171324 L 18.25,54.1875 L 18.25,54.3125 L 18.24787,54.328676 L 18.238697,54.348349 L 18.223349,54.363697 L 18.203676,54.37287 L 18.1875,54.375 L 17.7125,54.375 L 17.696324,54.37287 L 17.676651,54.363697 L 17.661303,54.348349 L 17.65213,54.328676 L 17.65,54.3125 L 17.65,54.1875 z" />
<path fill-rule="evenodd" fill="#999999" stroke="#555555" stroke-width="0.01" opacity="0.6" d="M 17.65,53.6875 L 17.65213,53.671324 L 17.661303,53.651651 L 17.676651,53.636303 L 17.696324,53.62713 L 17.7125,53.625 L 18.1875,53.625 L 18.203676,53.62713 L 18.223349,53.636303 L 18.238697,53.651651 L 18.24787,53.671324 L 18.25,53.6875 L 18.25,53.8125 L 18.24787,53.828676 L 18.238697,53.848349 L 18.223349,53.863697 L 18.203676,53.87287 L 18.1875,53.875 L 17.7125,53.875 L 17.696324,53.87287 L 17.676651,53.863697 L 17.661303,53.848349 L 17.65213,53.828676 L 17.65,53.8125 L 17.65,53.6875 z" />
<path fill-rule="evenodd" fill="#999999" stroke="#555555" stroke-width="0.01" opacity="0.6" d="M 17.65,53.1875 L 17.65213,53.171324 L 17.661303,53.151651 L 17.676651,53.136303 L 17.696324,53.12713 L 17.7125,53.125 L 18.1875,53.125 L 18.203676,53.12713 L 18.223349,53.136303 L 18.238697,53.151651 L 18.24787,53.171324 L 18.25,53.1875 L 18.25,53.3125 L 18.24787,53.328676 L 18.238697,53.348349 L 18.223349,53.363697 L 18.203676,53.37287 L 18.1875,53.375 L 17.7125,53.375 L 17.696324,53.37287 L 17.676651,53.363697 L 17.661303,53.348349 L 17.65213,53.328676 L 17.65,53.3125 L 17.65,53.1875 z" />
<path fill-rule="evenodd" fill="#999999" stroke="#555555" stroke-width="0.01" opacity="0.6" d="M 16.55,53.2 L 17.45,53.2 L 17.45,54.8 L 16.55,54.8 L 16.55,53.2 z" />
<path fill-rule="evenodd" fill="#dd3333" stroke="#555555" stroke-width="0.01" opacity="0.6" d="M 16.55,53.25 L 16.553806,53.230866 L 16.564645,53.214645 L 16.580866,53.203806 L 16.6,53.2 L 17.4,53.2 L 17.419134,53.203806 L 17.435355,53.214645 L 17.446194,53.230866 L 17.45,53.25 L 17.45,53.85 L 17.446194,53.869134 L 17.435355,53.885355 L 17.419134,53.896194 L 17.4,53.9 L 16.6,53.9 L 16.580866,53.896194 L 16.564645,53.885355 L 16.553806,53.869134 L 16.55,53.85 L 16.55,53.25 z" />
<path fill-rule="evenodd" fill="#dd3333" stroke="#555555" stroke-width="0.01" opacity="0.6" d="M 16.55,54.15 L 16.553806,54.130866 L 16.564645,54.114645 L 16.580866,54.103806 L 16.6,54.1 L 17.4,54.1 L 17.419134,54.103806 L 17.435355,54.114645 L 17.446194,54.130866 L 17.45,54.15 L 17.45,54.75 L 17.446194,54.769134 L 17.435355,54.785355 L 17.419134,54.796194 L 17.4,54.8 L 16.6,54.8 L 16.580866,54.796194 L 16.564645,54.785355 L 16.553806,54.769134 L 16.55,54.75 L 16.55,54.15 z" />
<path fill-rule="evenodd" fill="#dd3333" stroke="#555555" stroke-width="0.01" opacity="0.6" d="M 15.75,53.1875 L 15.75213,53.171324 L 15.761303,53.151651 L 15.776651,53.136303 L 15.796324,53.12713 L 15.8125,53.125 L 16.2875,53.125 L 16.303676,53.12713 L 16.323349,53.136303 L 16.338697,53.151651 L 16.34787,53.171324 L 16.35,53.1875 L 16.35,53.3125 L 16.34787,53.328676 L 16.338697,53.348349 L 16.323349,53.363697 L 16.303676,53.37287 L 16.2875,53.375 L 15.8125,53.375 L 15.796324,53.37287 L 15.776651,53.363697 L 15.761303,53.348349 L 15.75213,53.328676 L 15.75,53.3125 L 15.75,53.1875 z" />
<path fill-rule="evenodd" fill="#dd3333" stroke="#555555" stroke-width="0.01" opacity="0.6" d="M 15.75,53.6875 L 15.75213,53.671324 L 15.761303,53.651651 L 15.776651,53.636303 L 15.796324,53.62713 L 15.8125,53.625 L 16.2875,53.625 L 16.303676,53.62713 L 16.323349,53.636303 L 16.338697,53.651651 L 16.34787,53.671324 L 16.35,53.6875 L 16.35,53.8125 L 16.34787,53.828676 L 16.338697,53.848349 L 16.323349,53.863697 L 16.303676,53.87287 L 16.2875,53.875 L 15.8125,53.875 L 15.796324,53.87287 L 15.776651,53.863697 L 15.761303,53.848349 L 15.75213,53.828676 L 15.75,53.8125 L 15.75,53.6875 z" />
<path fill-rule="evenodd" fill="#dd3333" stroke="#555555" stroke-width="0.01" opacity="0.6" d="M 15.75,54.1875 L 15.75213,54.171324 L 15.761303,54.151651 L 15.776651,54.136303 L 15.796324,54.12713 L 15.8125,54.125 L 16.2875,54.125 L 16.303676,54.12713 L 16.323349,54.136303 L 16.338697,54.151651 L 16.34787,54.171324 L 16.35,54.1875 L 16.35,54.3125 L 16.34787,54.328676 L 16.338697,54.348349 L 16.323349,54.363697 L 16.303676,54.37287 L 16.2875,54.375 L 15.8125,54.375 L 15.796324,54.37287 L 15.776651,54.363697 L 15.761303,54.348349 L 15.75213,54.328676 L 15.75,54.3125 L 15.75,54.1875 z" />
<path fill-rule="evenodd" fill="#dd3333" stroke="#555555" stroke-width="0.01" opacity="0.6" d="M 15.75,54.6875 L 15.75213,54.671324 L 15.761303,54.651651 L 15.776651,54.636303 L 15.796324,54.62713 L 15.8125,54.625 L 16.2875,54.625 L 16.303676,54.62713 L 16.323349,54.636303 L 16.338697,54.651651 L 16.34787,54.671324 L 16.35,54.6875 L 16.35,54.8125 L 16.34787,54.828676 L 16.338697,54.848349 L 16.323349,54.863697 L 16.303676,54.87287 L 16.2875,54.875 L 15.8125,54.875 L 15.796324,54.87287 L 15.776651,54.863697 L 15.761303,54.848349 L 15.75213,54.828676 L 15.75,54.8125 L 15.75,54.6875 z" />
<path fill-rule="evenodd" fill="#dd3333" stroke="#555555" stroke-width="0.01" opacity="0.6" d="M 17.65,54.6875 L 17.65213,54.671324 L 17.661303,54.651651 L 17.676651,54.636303 L 17.696324,54.62713 L 17.7125,54.625 L 18.1875,54.625 L 18.203676,54.62713 L 18.223349,54.636303 L 18.238697,54.651651 L 18.24787,54.671324 L 18.25,54.6875 L 18.25,54.8125 L 18.24787,54.828676 L 18.238697,54.848349 L 18.223349,54.863697 L 18.203676,54.87287 L 18.1875,54.875 L 17.7125,54.875 L 17.696324,54.87287 L 17.676651,54.863697 L 17.661303,54.848349 L 17.65213,54.828676 L 17.65,54.8125 L 17.65,54.6875 z" />
<path fill-rule="evenodd" fill="#dd3333" stroke="#555555" stroke-width="0.01" opacity="0.6" d="M 17.65,54.1875 L 17.65213,54.171324 L 17.661303,54.151651 L 17.676651,54.136303 L 17.696324,54.12713 L 17.7125,54.125 L 18.1875,54.125 L 18.203676,54.12713 L 18.223349,54.136303 L 18.238697,54.151651 L 18.24787,54.171324 L 18.25,54.1875 L 18.25,54.3125 L 18.24787,54.328676 L 18.238697,54.348349 L 18.223349,54.363697 L 18.203676,54.37287 L 18.1875,54.375 L 17.7125,54.375 L 17.696324,54.37287 L 17.676651,54.363697 L 17.661303,54.348349 L 17.65213,54.328676 L 17.65,54.3125 L 17.65,54.1875 z" />
<path fill-rule="evenodd" fill="#dd3333" stroke="#555555" stroke-width="0.01" opacity="0.6" d="M 17.65,53.6875 L 17.65213,53.671324 L 17.661303,53.651651 L 17.676651,53.636303 L 17.696324,53.62713 L 17.7125,53.625 L 18.1875,53.625 L 18.203676,53.62713 L 18.223349,53.636303 L 18.238697,53.651651 L 18.24787,53.671324 L 18.25,53.6875 L 18.25,53.8125 L 18.24787,53.828676 L 18.238697,53.848349 L 18.223349,53.863697 L 18.203676,53.87287 L 18.1875,53.875 L 17.7125,53.875 L 17.696324,53.87287 L 17.676651,53.863697 L 17.661303,53.848349 L 17.65213,53.828676 L 17.65,53.8125 L 17.65,53.6875 z" />
<path fill-rule="evenodd" fill="#dd3333" stroke="#555555" stroke-width="0.01" opacity="0.6" d="M 17.65,53.1875 L 17.65213,53.171324 L 17.661303,53.151651 L 17.676651,53.136303 L 17.696324,53.12713 L 17.7125,53.125 L 18.1875,53.125 L 18.203676,53.12713 L 18.223349,53.136303 L 18.238697,53.151651 L 18.24787,53.171324 L 18.25,53.1875 L 18.25,53.3125 L 18.24787,53.328676 L 18.238697,53.348349 L 18.223349,53.363697 L 18.203676,53.37287 L 18.1875,53.375 L 17.7125,53.375 L 17.696324,53.37287 L 17.676651,53.363697 L 17.661303,53.348349 L 17.65213,53.328676 L 17.65,53.3125 L 17.65,53.1875 z" />
</svg>