%TF.GenerationSoftware,KiCad,Pcbnew,10.0.6*%
%TF.CreationDate,2026-09-11T18:30:10+02:00*%
%TF.ProjectId,Wheel,57686565-6c2e-46b6-9963-61645f706362,rev?*%
%TF.SameCoordinates,Original*%
%TF.FileFunction,Legend,Top*%
%TF.FilePolarity,Positive*%
%FSLAX46Y46*%
G04 Gerber Fmt 4.6, Leading zero omitted, Abs format (unit mm)*
G04 Created by KiCad (PCBNEW 10.0.6) date 2026-09-11 18:30:10*
%MOMM*%
%LPD*%
G01*
G04 APERTURE LIST*
G04 Aperture macros list*
%AMRoundRect*
0 Rectangle with rounded corners*
0 $1 Rounding radius*
0 $2 $3 $4 $5 $6 $7 $8 $9 X,Y pos of 4 corners*
0 Add a 4 corners polygon primitive as box body*
4,1,4,$2,$3,$4,$5,$6,$7,$8,$9,$2,$3,0*
0 Add four circle primitives for the rounded corners*
1,1,$1+$1,$2,$3*
1,1,$1+$1,$4,$5*
1,1,$1+$1,$6,$7*
1,1,$1+$1,$8,$9*
0 Add four rect primitives between the rounded corners*
20,1,$1+$1,$2,$3,$4,$5,0*
20,1,$1+$1,$4,$5,$6,$7,0*
20,1,$1+$1,$6,$7,$8,$9,0*
20,1,$1+$1,$8,$9,$2,$3,0*%
G04 Aperture macros list end*
%ADD10C,0.120000*%
%ADD11C,0.150000*%
%ADD12C,1.000000*%
%ADD13RoundRect,0.250000X-0.362500X-1.425000X0.362500X-1.425000X0.362500X1.425000X-0.362500X1.425000X0*%
%ADD14RoundRect,0.200000X-0.200000X-0.275000X0.200000X-0.275000X0.200000X0.275000X-0.200000X0.275000X0*%
%ADD15R,2.000000X2.000000*%
%ADD16C,2.000000*%
%ADD17RoundRect,0.200000X0.275000X-0.200000X0.275000X0.200000X-0.275000X0.200000X-0.275000X-0.200000X0*%
%ADD18RoundRect,0.100000X0.100000X-0.637500X0.100000X0.637500X-0.100000X0.637500X-0.100000X-0.637500X0*%
%ADD19RoundRect,0.250000X0.475000X-0.250000X0.475000X0.250000X-0.475000X0.250000X-0.475000X-0.250000X0*%
%ADD20RoundRect,0.225000X0.250000X-0.225000X0.250000X0.225000X-0.250000X0.225000X-0.250000X-0.225000X0*%
%ADD21RoundRect,0.225000X-0.225000X-0.250000X0.225000X-0.250000X0.225000X0.250000X-0.225000X0.250000X0*%
%ADD22RoundRect,0.250000X0.900000X-1.000000X0.900000X1.000000X-0.900000X1.000000X-0.900000X-1.000000X0*%
%ADD23RoundRect,0.225000X0.225000X0.250000X-0.225000X0.250000X-0.225000X-0.250000X0.225000X-0.250000X0*%
%ADD24RoundRect,0.150000X0.512500X0.150000X-0.512500X0.150000X-0.512500X-0.150000X0.512500X-0.150000X0*%
%ADD25RoundRect,0.250000X-1.500000X-0.550000X1.500000X-0.550000X1.500000X0.550000X-1.500000X0.550000X0*%
%ADD26R,0.300000X1.300000*%
%ADD27R,1.800000X2.200000*%
%ADD28RoundRect,0.050000X-0.250000X-0.075000X0.250000X-0.075000X0.250000X0.075000X-0.250000X0.075000X0*%
%ADD29RoundRect,0.050000X-0.075000X-0.250000X0.075000X-0.250000X0.075000X0.250000X-0.075000X0.250000X0*%
%ADD30RoundRect,0.050000X-1.800000X-2.800000X1.800000X-2.800000X1.800000X2.800000X-1.800000X2.800000X0*%
%ADD31RoundRect,0.062500X0.355000X0.062500X-0.355000X0.062500X-0.355000X-0.062500X0.355000X-0.062500X0*%
%ADD32RoundRect,0.062500X0.062500X0.355000X-0.062500X0.355000X-0.062500X-0.355000X0.062500X-0.355000X0*%
%ADD33R,1.680000X1.680000*%
%ADD34RoundRect,0.150000X-0.587500X-0.150000X0.587500X-0.150000X0.587500X0.150000X-0.587500X0.150000X0*%
%ADD35R,1.800000X3.800000*%
%ADD36R,1.000000X2.700000*%
%ADD37RoundRect,0.100000X-0.637500X-0.100000X0.637500X-0.100000X0.637500X0.100000X-0.637500X0.100000X0*%
G04 APERTURE END LIST*
D10*
X41247619Y-56363855D02*
X41247619Y-55563855D01*
X41247619Y-55563855D02*
X41552381Y-55563855D01*
X41552381Y-55563855D02*
X41628571Y-55601950D01*
X41628571Y-55601950D02*
X41666666Y-55640045D01*
X41666666Y-55640045D02*
X41704762Y-55716236D01*
X41704762Y-55716236D02*
X41704762Y-55830521D01*
X41704762Y-55830521D02*
X41666666Y-55906712D01*
X41666666Y-55906712D02*
X41628571Y-55944807D01*
X41628571Y-55944807D02*
X41552381Y-55982902D01*
X41552381Y-55982902D02*
X41247619Y-55982902D01*
X42504762Y-56363855D02*
X42238095Y-55982902D01*
X42047619Y-56363855D02*
X42047619Y-55563855D01*
X42047619Y-55563855D02*
X42352381Y-55563855D01*
X42352381Y-55563855D02*
X42428571Y-55601950D01*
X42428571Y-55601950D02*
X42466666Y-55640045D01*
X42466666Y-55640045D02*
X42504762Y-55716236D01*
X42504762Y-55716236D02*
X42504762Y-55830521D01*
X42504762Y-55830521D02*
X42466666Y-55906712D01*
X42466666Y-55906712D02*
X42428571Y-55944807D01*
X42428571Y-55944807D02*
X42352381Y-55982902D01*
X42352381Y-55982902D02*
X42047619Y-55982902D01*
X43000000Y-55563855D02*
X43152381Y-55563855D01*
X43152381Y-55563855D02*
X43228571Y-55601950D01*
X43228571Y-55601950D02*
X43304762Y-55678140D01*
X43304762Y-55678140D02*
X43342857Y-55830521D01*
X43342857Y-55830521D02*
X43342857Y-56097188D01*
X43342857Y-56097188D02*
X43304762Y-56249569D01*
X43304762Y-56249569D02*
X43228571Y-56325760D01*
X43228571Y-56325760D02*
X43152381Y-56363855D01*
X43152381Y-56363855D02*
X43000000Y-56363855D01*
X43000000Y-56363855D02*
X42923809Y-56325760D01*
X42923809Y-56325760D02*
X42847619Y-56249569D01*
X42847619Y-56249569D02*
X42809523Y-56097188D01*
X42809523Y-56097188D02*
X42809523Y-55830521D01*
X42809523Y-55830521D02*
X42847619Y-55678140D01*
X42847619Y-55678140D02*
X42923809Y-55601950D01*
X42923809Y-55601950D02*
X43000000Y-55563855D01*
X43571428Y-55563855D02*
X44028571Y-55563855D01*
X43799999Y-56363855D02*
X43799999Y-55563855D01*
X44447619Y-55563855D02*
X44600000Y-55563855D01*
X44600000Y-55563855D02*
X44676190Y-55601950D01*
X44676190Y-55601950D02*
X44752381Y-55678140D01*
X44752381Y-55678140D02*
X44790476Y-55830521D01*
X44790476Y-55830521D02*
X44790476Y-56097188D01*
X44790476Y-56097188D02*
X44752381Y-56249569D01*
X44752381Y-56249569D02*
X44676190Y-56325760D01*
X44676190Y-56325760D02*
X44600000Y-56363855D01*
X44600000Y-56363855D02*
X44447619Y-56363855D01*
X44447619Y-56363855D02*
X44371428Y-56325760D01*
X44371428Y-56325760D02*
X44295238Y-56249569D01*
X44295238Y-56249569D02*
X44257142Y-56097188D01*
X44257142Y-56097188D02*
X44257142Y-55830521D01*
X44257142Y-55830521D02*
X44295238Y-55678140D01*
X44295238Y-55678140D02*
X44371428Y-55601950D01*
X44371428Y-55601950D02*
X44447619Y-55563855D01*
X39428571Y-53456379D02*
X39666666Y-54456379D01*
X39666666Y-54456379D02*
X39857142Y-53742093D01*
X39857142Y-53742093D02*
X40047618Y-54456379D01*
X40047618Y-54456379D02*
X40285714Y-53456379D01*
X40666666Y-54456379D02*
X40666666Y-53456379D01*
X41095237Y-54456379D02*
X41095237Y-53932569D01*
X41095237Y-53932569D02*
X41047618Y-53837331D01*
X41047618Y-53837331D02*
X40952380Y-53789712D01*
X40952380Y-53789712D02*
X40809523Y-53789712D01*
X40809523Y-53789712D02*
X40714285Y-53837331D01*
X40714285Y-53837331D02*
X40666666Y-53884950D01*
X41952380Y-54408760D02*
X41857142Y-54456379D01*
X41857142Y-54456379D02*
X41666666Y-54456379D01*
X41666666Y-54456379D02*
X41571428Y-54408760D01*
X41571428Y-54408760D02*
X41523809Y-54313521D01*
X41523809Y-54313521D02*
X41523809Y-53932569D01*
X41523809Y-53932569D02*
X41571428Y-53837331D01*
X41571428Y-53837331D02*
X41666666Y-53789712D01*
X41666666Y-53789712D02*
X41857142Y-53789712D01*
X41857142Y-53789712D02*
X41952380Y-53837331D01*
X41952380Y-53837331D02*
X41999999Y-53932569D01*
X41999999Y-53932569D02*
X41999999Y-54027807D01*
X41999999Y-54027807D02*
X41523809Y-54123045D01*
X42809523Y-54408760D02*
X42714285Y-54456379D01*
X42714285Y-54456379D02*
X42523809Y-54456379D01*
X42523809Y-54456379D02*
X42428571Y-54408760D01*
X42428571Y-54408760D02*
X42380952Y-54313521D01*
X42380952Y-54313521D02*
X42380952Y-53932569D01*
X42380952Y-53932569D02*
X42428571Y-53837331D01*
X42428571Y-53837331D02*
X42523809Y-53789712D01*
X42523809Y-53789712D02*
X42714285Y-53789712D01*
X42714285Y-53789712D02*
X42809523Y-53837331D01*
X42809523Y-53837331D02*
X42857142Y-53932569D01*
X42857142Y-53932569D02*
X42857142Y-54027807D01*
X42857142Y-54027807D02*
X42380952Y-54123045D01*
X43428571Y-54456379D02*
X43333333Y-54408760D01*
X43333333Y-54408760D02*
X43285714Y-54313521D01*
X43285714Y-54313521D02*
X43285714Y-53456379D01*
X44761905Y-53456379D02*
X44857143Y-53456379D01*
X44857143Y-53456379D02*
X44952381Y-53503998D01*
X44952381Y-53503998D02*
X45000000Y-53551617D01*
X45000000Y-53551617D02*
X45047619Y-53646855D01*
X45047619Y-53646855D02*
X45095238Y-53837331D01*
X45095238Y-53837331D02*
X45095238Y-54075426D01*
X45095238Y-54075426D02*
X45047619Y-54265902D01*
X45047619Y-54265902D02*
X45000000Y-54361140D01*
X45000000Y-54361140D02*
X44952381Y-54408760D01*
X44952381Y-54408760D02*
X44857143Y-54456379D01*
X44857143Y-54456379D02*
X44761905Y-54456379D01*
X44761905Y-54456379D02*
X44666667Y-54408760D01*
X44666667Y-54408760D02*
X44619048Y-54361140D01*
X44619048Y-54361140D02*
X44571429Y-54265902D01*
X44571429Y-54265902D02*
X44523810Y-54075426D01*
X44523810Y-54075426D02*
X44523810Y-53837331D01*
X44523810Y-53837331D02*
X44571429Y-53646855D01*
X44571429Y-53646855D02*
X44619048Y-53551617D01*
X44619048Y-53551617D02*
X44666667Y-53503998D01*
X44666667Y-53503998D02*
X44761905Y-53456379D01*
X45523810Y-54361140D02*
X45571429Y-54408760D01*
X45571429Y-54408760D02*
X45523810Y-54456379D01*
X45523810Y-54456379D02*
X45476191Y-54408760D01*
X45476191Y-54408760D02*
X45523810Y-54361140D01*
X45523810Y-54361140D02*
X45523810Y-54456379D01*
X45904762Y-53456379D02*
X46523809Y-53456379D01*
X46523809Y-53456379D02*
X46190476Y-53837331D01*
X46190476Y-53837331D02*
X46333333Y-53837331D01*
X46333333Y-53837331D02*
X46428571Y-53884950D01*
X46428571Y-53884950D02*
X46476190Y-53932569D01*
X46476190Y-53932569D02*
X46523809Y-54027807D01*
X46523809Y-54027807D02*
X46523809Y-54265902D01*
X46523809Y-54265902D02*
X46476190Y-54361140D01*
X46476190Y-54361140D02*
X46428571Y-54408760D01*
X46428571Y-54408760D02*
X46333333Y-54456379D01*
X46333333Y-54456379D02*
X46047619Y-54456379D01*
X46047619Y-54456379D02*
X45952381Y-54408760D01*
X45952381Y-54408760D02*
X45904762Y-54361140D01*
X9228571Y-12663855D02*
X8771428Y-12663855D01*
X9000000Y-12663855D02*
X9000000Y-11863855D01*
X9000000Y-11863855D02*
X8923809Y-11978140D01*
X8923809Y-11978140D02*
X8847619Y-12054331D01*
X8847619Y-12054331D02*
X8771428Y-12092426D01*
%TO.C,TP34*%
X3700000Y-24000000D02*
G75*
G02*
X2300000Y-24000000I-700000J0D01*
G01*
X2300000Y-24000000D02*
G75*
G02*
X3700000Y-24000000I700000J0D01*
G01*
%TO.C,R123*%
X4822936Y-53290000D02*
X9177064Y-53290000D01*
X4822936Y-56710000D02*
X9177064Y-56710000D01*
%TO.C,R139*%
X46762742Y-36477500D02*
X47237258Y-36477500D01*
X46762742Y-37522500D02*
X47237258Y-37522500D01*
%TO.C,R102*%
X23177500Y-22237258D02*
X23177500Y-21762742D01*
X24222500Y-22237258D02*
X24222500Y-21762742D01*
%TO.C,U22*%
X37390000Y-35690000D02*
X37590000Y-35690000D01*
X37390000Y-40310000D02*
X37390000Y-35690000D01*
X37590000Y-40310000D02*
X37390000Y-40310000D01*
X42410000Y-35690000D02*
X42610000Y-35690000D01*
X42610000Y-35690000D02*
X42610000Y-40310000D01*
X42610000Y-40310000D02*
X42410000Y-40310000D01*
X37590000Y-40950000D02*
X37120000Y-41290000D01*
X37120000Y-40610000D01*
X37590000Y-40950000D01*
G36*
X37590000Y-40950000D02*
G01*
X37120000Y-41290000D01*
X37120000Y-40610000D01*
X37590000Y-40950000D01*
G37*
%TO.C,C45*%
X19265000Y-33761252D02*
X19265000Y-33238748D01*
X20735000Y-33761252D02*
X20735000Y-33238748D01*
%TO.C,R138*%
X46762742Y-34477500D02*
X47237258Y-34477500D01*
X46762742Y-35522500D02*
X47237258Y-35522500D01*
%TO.C,TP35*%
X3700000Y-34000000D02*
G75*
G02*
X2300000Y-34000000I-700000J0D01*
G01*
X2300000Y-34000000D02*
G75*
G02*
X3700000Y-34000000I700000J0D01*
G01*
%TO.C,R97*%
X29762742Y-8977500D02*
X30237258Y-8977500D01*
X29762742Y-10022500D02*
X30237258Y-10022500D01*
%TO.C,TP37*%
X3700000Y-44000000D02*
G75*
G02*
X2300000Y-44000000I-700000J0D01*
G01*
X2300000Y-44000000D02*
G75*
G02*
X3700000Y-44000000I700000J0D01*
G01*
%TO.C,R144*%
X46477500Y-23237258D02*
X46477500Y-22762742D01*
X47522500Y-23237258D02*
X47522500Y-22762742D01*
%TO.C,R100*%
X30977500Y-18237258D02*
X30977500Y-17762742D01*
X32022500Y-18237258D02*
X32022500Y-17762742D01*
%TO.C,R107*%
X18477500Y-15237258D02*
X18477500Y-14762742D01*
X19522500Y-15237258D02*
X19522500Y-14762742D01*
%TO.C,R96*%
X32762742Y-8977500D02*
X33237258Y-8977500D01*
X32762742Y-10022500D02*
X33237258Y-10022500D01*
%TO.C,C46*%
X19990000Y-26140580D02*
X19990000Y-25859420D01*
X21010000Y-26140580D02*
X21010000Y-25859420D01*
%TO.C,R87*%
X42977500Y-30237258D02*
X42977500Y-29762742D01*
X44022500Y-30237258D02*
X44022500Y-29762742D01*
%TO.C,C60*%
X25859420Y-18990000D02*
X26140580Y-18990000D01*
X25859420Y-20010000D02*
X26140580Y-20010000D01*
%TO.C,D6*%
X14850000Y-11660000D02*
X14850000Y-5850000D01*
X14850000Y-11660000D02*
X19150000Y-11660000D01*
X19150000Y-11660000D02*
X19150000Y-5850000D01*
%TO.C,R113*%
X9762742Y-30977500D02*
X10237258Y-30977500D01*
X9762742Y-32022500D02*
X10237258Y-32022500D01*
%TO.C,C48*%
X32490000Y-29640580D02*
X32490000Y-29359420D01*
X33510000Y-29640580D02*
X33510000Y-29359420D01*
%TO.C,R89*%
X48262742Y-25477500D02*
X48737258Y-25477500D01*
X48262742Y-26522500D02*
X48737258Y-26522500D01*
%TO.C,C43*%
X23140580Y-32490000D02*
X22859420Y-32490000D01*
X23140580Y-33510000D02*
X22859420Y-33510000D01*
%TO.C,R115*%
X16762742Y-37277500D02*
X17237258Y-37277500D01*
X16762742Y-38322500D02*
X17237258Y-38322500D01*
%TO.C,R111*%
X4477500Y-29237258D02*
X4477500Y-28762742D01*
X5522500Y-29237258D02*
X5522500Y-28762742D01*
%TO.C,U30*%
X11090000Y-34440000D02*
X12910000Y-34440000D01*
X11090000Y-34490000D02*
X11090000Y-34440000D01*
X11090000Y-36390000D02*
X11090000Y-35610000D01*
X11090000Y-37560000D02*
X11090000Y-37510000D01*
X12910000Y-34440000D02*
X12910000Y-34490000D01*
X12910000Y-37510000D02*
X12910000Y-37560000D01*
X12910000Y-37560000D02*
X11090000Y-37560000D01*
X13450000Y-37510000D02*
X13690000Y-37840000D01*
X13210000Y-37840000D01*
X13450000Y-37510000D01*
G36*
X13690000Y-37840000D02*
G01*
X13210000Y-37840000D01*
X13450000Y-37510000D01*
X13690000Y-37840000D01*
G37*
%TO.C,R103*%
X24977500Y-22237258D02*
X24977500Y-21762742D01*
X26022500Y-22237258D02*
X26022500Y-21762742D01*
%TO.C,C61*%
X28859420Y-18990000D02*
X29140580Y-18990000D01*
X28859420Y-20010000D02*
X29140580Y-20010000D01*
%TO.C,C90*%
X3562500Y-19152500D02*
X4350000Y-19152500D01*
X3956250Y-18758750D02*
X3956250Y-19546250D01*
X4590000Y-18654437D02*
X4590000Y-19940000D01*
X4590000Y-18654437D02*
X5654437Y-17590000D01*
X4590000Y-23345563D02*
X4590000Y-22060000D01*
X4590000Y-23345563D02*
X5654437Y-24410000D01*
X5654437Y-17590000D02*
X11410000Y-17590000D01*
X5654437Y-24410000D02*
X11410000Y-24410000D01*
X11410000Y-17590000D02*
X11410000Y-19940000D01*
X11410000Y-24410000D02*
X11410000Y-22060000D01*
%TO.C,J9*%
X28850000Y-500000D02*
X28850000Y-2240000D01*
X28850000Y-6300000D02*
X28850000Y-4960000D01*
X30340000Y-6300000D02*
X28850000Y-6300000D01*
X45660000Y-6300000D02*
X45660000Y-7500000D01*
X45660000Y-6300000D02*
X47150000Y-6300000D01*
X47150000Y-500000D02*
X28850000Y-500000D01*
X47150000Y-2240000D02*
X47150000Y-500000D01*
X47150000Y-6300000D02*
X47150000Y-4960000D01*
%TO.C,R105*%
X30262742Y-13977500D02*
X30737258Y-13977500D01*
X30262742Y-15022500D02*
X30737258Y-15022500D01*
%TO.C,C47*%
X22490000Y-27390580D02*
X22490000Y-27109420D01*
X23510000Y-27390580D02*
X23510000Y-27109420D01*
%TO.C,C49*%
X30890000Y-29640580D02*
X30890000Y-29359420D01*
X31910000Y-29640580D02*
X31910000Y-29359420D01*
%TO.C,R82*%
X31762742Y-36277500D02*
X32237258Y-36277500D01*
X31762742Y-37322500D02*
X32237258Y-37322500D01*
%TO.C,R90*%
X36477500Y-30237258D02*
X36477500Y-29762742D01*
X37522500Y-30237258D02*
X37522500Y-29762742D01*
%TO.C,R121*%
X4822936Y-47290000D02*
X9177064Y-47290000D01*
X4822936Y-50710000D02*
X9177064Y-50710000D01*
%TO.C,R114*%
X12977500Y-32237258D02*
X12977500Y-31762742D01*
X14022500Y-32237258D02*
X14022500Y-31762742D01*
%TO.C,R106*%
X30262742Y-11977500D02*
X30737258Y-11977500D01*
X30262742Y-13022500D02*
X30737258Y-13022500D01*
%TO.C,R98*%
X33477500Y-18737258D02*
X33477500Y-18262742D01*
X34522500Y-18737258D02*
X34522500Y-18262742D01*
%TO.C,C59*%
X23140580Y-18990000D02*
X22859420Y-18990000D01*
X23140580Y-20010000D02*
X22859420Y-20010000D01*
%TO.C,R95*%
X33477500Y-25737258D02*
X33477500Y-25262742D01*
X34522500Y-25737258D02*
X34522500Y-25262742D01*
%TO.C,R112*%
X9762742Y-28477500D02*
X10237258Y-28477500D01*
X9762742Y-29522500D02*
X10237258Y-29522500D01*
%TO.C,U21*%
D11*
X24575000Y-25250000D02*
G75*
G02*
X24425000Y-25250000I-75000J0D01*
G01*
X24425000Y-25250000D02*
G75*
G02*
X24575000Y-25250000I75000J0D01*
G01*
%TO.C,C56*%
D10*
X21990000Y-16640580D02*
X21990000Y-16359420D01*
X23010000Y-16640580D02*
X23010000Y-16359420D01*
%TO.C,R92*%
X40477500Y-30237258D02*
X40477500Y-29762742D01*
X41522500Y-30237258D02*
X41522500Y-29762742D01*
%TO.C,U23*%
X24390000Y-14390000D02*
X24865000Y-14390000D01*
X24390000Y-14865000D02*
X24390000Y-14390000D01*
X24390000Y-17610000D02*
X24390000Y-17135000D01*
X24865000Y-17610000D02*
X24390000Y-17610000D01*
X27135000Y-14390000D02*
X27610000Y-14390000D01*
X27610000Y-14390000D02*
X27610000Y-14865000D01*
X27610000Y-17135000D02*
X27610000Y-17610000D01*
X27610000Y-17610000D02*
X27135000Y-17610000D01*
X28140000Y-16750000D02*
X28470000Y-16510000D01*
X28470000Y-16990000D01*
X28140000Y-16750000D01*
G36*
X28470000Y-16990000D02*
G01*
X28140000Y-16750000D01*
X28470000Y-16510000D01*
X28470000Y-16990000D01*
G37*
%TO.C,C67*%
X14490000Y-34940580D02*
X14490000Y-34659420D01*
X15510000Y-34940580D02*
X15510000Y-34659420D01*
%TO.C,Q5*%
X11240000Y-42440000D02*
X12760000Y-42440000D01*
X11240000Y-42490000D02*
X11240000Y-42440000D01*
X11240000Y-44390000D02*
X11240000Y-43610000D01*
X11240000Y-45560000D02*
X11240000Y-45510000D01*
X12760000Y-42440000D02*
X12760000Y-43440000D01*
X12760000Y-44560000D02*
X12760000Y-45560000D01*
X12760000Y-45560000D02*
X11240000Y-45560000D01*
X10700000Y-43620000D02*
X10940000Y-43950000D01*
X10460000Y-43950000D01*
X10700000Y-43620000D01*
G36*
X10940000Y-43950000D02*
G01*
X10460000Y-43950000D01*
X10700000Y-43620000D01*
X10940000Y-43950000D01*
G37*
%TO.C,J11*%
X3880000Y-930000D02*
X3880000Y-3500000D01*
X3880000Y-930000D02*
X12120000Y-930000D01*
X12120000Y-930000D02*
X12120000Y-3500000D01*
%TO.C,R120*%
X13477500Y-40237258D02*
X13477500Y-39762742D01*
X14522500Y-40237258D02*
X14522500Y-39762742D01*
%TO.C,C41*%
X23140580Y-29090000D02*
X22859420Y-29090000D01*
X23140580Y-30110000D02*
X22859420Y-30110000D01*
%TO.C,R81*%
X21477500Y-23237258D02*
X21477500Y-22762742D01*
X22522500Y-23237258D02*
X22522500Y-22762742D01*
%TO.C,C57*%
X21490000Y-13640580D02*
X21490000Y-13359420D01*
X22510000Y-13640580D02*
X22510000Y-13359420D01*
%TO.C,R86*%
X44477500Y-23737258D02*
X44477500Y-23262742D01*
X45522500Y-23737258D02*
X45522500Y-23262742D01*
%TO.C,R122*%
X14822936Y-47290000D02*
X19177064Y-47290000D01*
X14822936Y-50710000D02*
X19177064Y-50710000D01*
%TO.C,R83*%
X34477500Y-39237258D02*
X34477500Y-38762742D01*
X35522500Y-39237258D02*
X35522500Y-38762742D01*
%TO.C,C52*%
X45359420Y-18990000D02*
X45640580Y-18990000D01*
X45359420Y-20010000D02*
X45640580Y-20010000D01*
%TO.C,R104*%
X26777500Y-22237258D02*
X26777500Y-21762742D01*
X27822500Y-22237258D02*
X27822500Y-21762742D01*
%TO.C,C66*%
X5359420Y-35990000D02*
X5640580Y-35990000D01*
X5359420Y-37010000D02*
X5640580Y-37010000D01*
%TO.C,Q4*%
X31240000Y-38440000D02*
X32760000Y-38440000D01*
X31240000Y-38490000D02*
X31240000Y-38440000D01*
X31240000Y-40390000D02*
X31240000Y-39610000D01*
X31240000Y-41560000D02*
X31240000Y-41510000D01*
X32760000Y-38440000D02*
X32760000Y-39440000D01*
X32760000Y-40560000D02*
X32760000Y-41560000D01*
X32760000Y-41560000D02*
X31240000Y-41560000D01*
X30700000Y-39620000D02*
X30940000Y-39950000D01*
X30460000Y-39950000D01*
X30700000Y-39620000D01*
G36*
X30940000Y-39950000D02*
G01*
X30460000Y-39950000D01*
X30700000Y-39620000D01*
X30940000Y-39950000D01*
G37*
%TO.C,R140*%
X46762742Y-38477500D02*
X47237258Y-38477500D01*
X46762742Y-39522500D02*
X47237258Y-39522500D01*
%TO.C,R117*%
X16477500Y-32237258D02*
X16477500Y-31762742D01*
X17522500Y-32237258D02*
X17522500Y-31762742D01*
%TO.C,R88*%
X46762742Y-27477500D02*
X47237258Y-27477500D01*
X46762742Y-28522500D02*
X47237258Y-28522500D01*
%TO.C,R109*%
X21762742Y-9477500D02*
X22237258Y-9477500D01*
X21762742Y-10522500D02*
X22237258Y-10522500D01*
%TO.C,C54*%
X42359420Y-8990000D02*
X42640580Y-8990000D01*
X42359420Y-10010000D02*
X42640580Y-10010000D01*
%TO.C,R137*%
X43477500Y-44237258D02*
X43477500Y-43762742D01*
X44522500Y-44237258D02*
X44522500Y-43762742D01*
%TO.C,R145*%
X44477500Y-14237258D02*
X44477500Y-13762742D01*
X45522500Y-14237258D02*
X45522500Y-13762742D01*
%TO.C,R84*%
X31477500Y-34237258D02*
X31477500Y-33762742D01*
X32522500Y-34237258D02*
X32522500Y-33762742D01*
%TO.C,C69*%
X16265000Y-42261252D02*
X16265000Y-41738748D01*
X17735000Y-42261252D02*
X17735000Y-41738748D01*
%TO.C,C50*%
X18765000Y-22761252D02*
X18765000Y-22238748D01*
X20235000Y-22761252D02*
X20235000Y-22238748D01*
%TO.C,C58*%
X25490000Y-12140580D02*
X25490000Y-11859420D01*
X26510000Y-12140580D02*
X26510000Y-11859420D01*
%TO.C,R124*%
X14822936Y-53290000D02*
X19177064Y-53290000D01*
X14822936Y-56710000D02*
X19177064Y-56710000D01*
%TO.C,U26*%
X35690000Y-11390000D02*
X40310000Y-11390000D01*
X35690000Y-11590000D02*
X35690000Y-11390000D01*
X35690000Y-16610000D02*
X35690000Y-16410000D01*
X40310000Y-11390000D02*
X40310000Y-11590000D01*
X40310000Y-16410000D02*
X40310000Y-16610000D01*
X40310000Y-16610000D02*
X35690000Y-16610000D01*
X35050000Y-11590000D02*
X34710000Y-11120000D01*
X35390000Y-11120000D01*
X35050000Y-11590000D01*
G36*
X35050000Y-11590000D02*
G01*
X34710000Y-11120000D01*
X35390000Y-11120000D01*
X35050000Y-11590000D01*
G37*
%TO.C,R119*%
X10762742Y-39977500D02*
X11237258Y-39977500D01*
X10762742Y-41022500D02*
X11237258Y-41022500D01*
%TO.C,C51*%
X34490000Y-34140580D02*
X34490000Y-33859420D01*
X35510000Y-34140580D02*
X35510000Y-33859420D01*
%TO.C,TP36*%
X20700000Y-41000000D02*
G75*
G02*
X19300000Y-41000000I-700000J0D01*
G01*
X19300000Y-41000000D02*
G75*
G02*
X20700000Y-41000000I700000J0D01*
G01*
%TO.C,C65*%
X16490000Y-35140580D02*
X16490000Y-34859420D01*
X17510000Y-35140580D02*
X17510000Y-34859420D01*
%TO.C,C44*%
X16265000Y-27761252D02*
X16265000Y-27238748D01*
X17735000Y-27761252D02*
X17735000Y-27238748D01*
%TO.C,C68*%
X5265000Y-41261252D02*
X5265000Y-40738748D01*
X6735000Y-41261252D02*
X6735000Y-40738748D01*
%TO.C,R146*%
X13477500Y-21237258D02*
X13477500Y-20762742D01*
X14522500Y-21237258D02*
X14522500Y-20762742D01*
%TO.C,R94*%
X32977500Y-22737258D02*
X32977500Y-22262742D01*
X34022500Y-22737258D02*
X34022500Y-22262742D01*
%TO.C,U24*%
X37690000Y-21390000D02*
X42310000Y-21390000D01*
X37690000Y-21590000D02*
X37690000Y-21390000D01*
X37690000Y-26610000D02*
X37690000Y-26410000D01*
X42310000Y-21390000D02*
X42310000Y-21590000D01*
X42310000Y-26410000D02*
X42310000Y-26610000D01*
X42310000Y-26610000D02*
X37690000Y-26610000D01*
X37050000Y-21590000D02*
X36710000Y-21120000D01*
X37390000Y-21120000D01*
X37050000Y-21590000D01*
G36*
X37050000Y-21590000D02*
G01*
X36710000Y-21120000D01*
X37390000Y-21120000D01*
X37050000Y-21590000D01*
G37*
%TO.C,U31*%
X6240000Y-31440000D02*
X7760000Y-31440000D01*
X6240000Y-31490000D02*
X6240000Y-31440000D01*
X6240000Y-33390000D02*
X6240000Y-32610000D01*
X6240000Y-34560000D02*
X6240000Y-34510000D01*
X7760000Y-31440000D02*
X7760000Y-32440000D01*
X7760000Y-33560000D02*
X7760000Y-34560000D01*
X7760000Y-34560000D02*
X6240000Y-34560000D01*
X5700000Y-32620000D02*
X5940000Y-32950000D01*
X5460000Y-32950000D01*
X5700000Y-32620000D01*
G36*
X5940000Y-32950000D02*
G01*
X5460000Y-32950000D01*
X5700000Y-32620000D01*
X5940000Y-32950000D01*
G37*
%TO.C,R116*%
X20262742Y-37277500D02*
X20737258Y-37277500D01*
X20262742Y-38322500D02*
X20737258Y-38322500D01*
%TO.C,C42*%
X23140580Y-30790000D02*
X22859420Y-30790000D01*
X23140580Y-31810000D02*
X22859420Y-31810000D01*
%TO.C,R108*%
X18477500Y-18237258D02*
X18477500Y-17762742D01*
X19522500Y-18237258D02*
X19522500Y-17762742D01*
%TO.C,R91*%
X38477500Y-30237258D02*
X38477500Y-29762742D01*
X39522500Y-30237258D02*
X39522500Y-29762742D01*
%TD*%
%LPC*%
D12*
%TO.C,TP34*%
X3000000Y-24000000D03*
%TD*%
D13*
%TO.C,R123*%
X4037500Y-55000000D03*
X9962500Y-55000000D03*
%TD*%
D14*
%TO.C,R139*%
X46175000Y-37000000D03*
X47825000Y-37000000D03*
%TD*%
D15*
%TO.C,J5*%
X25460000Y-53000000D03*
D16*
X28000000Y-53000000D03*
X30540000Y-53000000D03*
%TD*%
D17*
%TO.C,R102*%
X23700000Y-22825000D03*
X23700000Y-21175000D03*
%TD*%
D18*
%TO.C,U22*%
X38050000Y-40862500D03*
X38700000Y-40862500D03*
X39350000Y-40862500D03*
X40000000Y-40862500D03*
X40650000Y-40862500D03*
X41300000Y-40862500D03*
X41950000Y-40862500D03*
X41950000Y-35137500D03*
X41300000Y-35137500D03*
X40650000Y-35137500D03*
X40000000Y-35137500D03*
X39350000Y-35137500D03*
X38700000Y-35137500D03*
X38050000Y-35137500D03*
%TD*%
D19*
%TO.C,C45*%
X20000000Y-34450000D03*
X20000000Y-32550000D03*
%TD*%
D14*
%TO.C,R138*%
X46175000Y-35000000D03*
X47825000Y-35000000D03*
%TD*%
D12*
%TO.C,TP35*%
X3000000Y-34000000D03*
%TD*%
D14*
%TO.C,R97*%
X29175000Y-9500000D03*
X30825000Y-9500000D03*
%TD*%
D12*
%TO.C,TP37*%
X3000000Y-44000000D03*
%TD*%
D17*
%TO.C,R144*%
X47000000Y-23825000D03*
X47000000Y-22175000D03*
%TD*%
%TO.C,R100*%
X31500000Y-18825000D03*
X31500000Y-17175000D03*
%TD*%
%TO.C,R107*%
X19000000Y-15825000D03*
X19000000Y-14175000D03*
%TD*%
D14*
%TO.C,R96*%
X32175000Y-9500000D03*
X33825000Y-9500000D03*
%TD*%
D20*
%TO.C,C46*%
X20500000Y-26775000D03*
X20500000Y-25225000D03*
%TD*%
D17*
%TO.C,R87*%
X43500000Y-30825000D03*
X43500000Y-29175000D03*
%TD*%
D21*
%TO.C,C60*%
X25225000Y-19500000D03*
X26775000Y-19500000D03*
%TD*%
D22*
%TO.C,D6*%
X17000000Y-10150000D03*
X17000000Y-5850000D03*
%TD*%
D14*
%TO.C,R113*%
X9175000Y-31500000D03*
X10825000Y-31500000D03*
%TD*%
D20*
%TO.C,C48*%
X33000000Y-30275000D03*
X33000000Y-28725000D03*
%TD*%
D14*
%TO.C,R89*%
X47675000Y-26000000D03*
X49325000Y-26000000D03*
%TD*%
D23*
%TO.C,C43*%
X23775000Y-33000000D03*
X22225000Y-33000000D03*
%TD*%
D14*
%TO.C,R115*%
X16175000Y-37800000D03*
X17825000Y-37800000D03*
%TD*%
D17*
%TO.C,R111*%
X5000000Y-29825000D03*
X5000000Y-28175000D03*
%TD*%
D24*
%TO.C,U30*%
X13137500Y-36950000D03*
X13137500Y-36000000D03*
X13137500Y-35050000D03*
X10862500Y-35050000D03*
X10862500Y-36950000D03*
%TD*%
D17*
%TO.C,R103*%
X25500000Y-22825000D03*
X25500000Y-21175000D03*
%TD*%
D21*
%TO.C,C61*%
X28225000Y-19500000D03*
X29775000Y-19500000D03*
%TD*%
D25*
%TO.C,C90*%
X5200000Y-21000000D03*
X10800000Y-21000000D03*
%TD*%
D26*
%TO.C,J9*%
X45250000Y-6850000D03*
X44750000Y-6850000D03*
X44250000Y-6850000D03*
X43750000Y-6850000D03*
X43250000Y-6850000D03*
X42750000Y-6850000D03*
X42250000Y-6850000D03*
X41750000Y-6850000D03*
X41250000Y-6850000D03*
X40750000Y-6850000D03*
X40250000Y-6850000D03*
X39750000Y-6850000D03*
X39250000Y-6850000D03*
X38750000Y-6850000D03*
X38250000Y-6850000D03*
X37750000Y-6850000D03*
X37250000Y-6850000D03*
X36750000Y-6850000D03*
X36250000Y-6850000D03*
X35750000Y-6850000D03*
X35250000Y-6850000D03*
X34750000Y-6850000D03*
X34250000Y-6850000D03*
X33750000Y-6850000D03*
X33250000Y-6850000D03*
X32750000Y-6850000D03*
X32250000Y-6850000D03*
X31750000Y-6850000D03*
X31250000Y-6850000D03*
X30750000Y-6850000D03*
D27*
X47150000Y-3600000D03*
X28850000Y-3600000D03*
%TD*%
D14*
%TO.C,R105*%
X29675000Y-14500000D03*
X31325000Y-14500000D03*
%TD*%
D20*
%TO.C,C47*%
X23000000Y-28025000D03*
X23000000Y-26475000D03*
%TD*%
%TO.C,C49*%
X31400000Y-30275000D03*
X31400000Y-28725000D03*
%TD*%
D14*
%TO.C,R82*%
X31175000Y-36800000D03*
X32825000Y-36800000D03*
%TD*%
D17*
%TO.C,R90*%
X37000000Y-30825000D03*
X37000000Y-29175000D03*
%TD*%
D13*
%TO.C,R121*%
X4037500Y-49000000D03*
X9962500Y-49000000D03*
%TD*%
D17*
%TO.C,R114*%
X13500000Y-32825000D03*
X13500000Y-31175000D03*
%TD*%
D14*
%TO.C,R106*%
X29675000Y-12500000D03*
X31325000Y-12500000D03*
%TD*%
D17*
%TO.C,R98*%
X34000000Y-19325000D03*
X34000000Y-17675000D03*
%TD*%
D23*
%TO.C,C59*%
X23775000Y-19500000D03*
X22225000Y-19500000D03*
%TD*%
D17*
%TO.C,R95*%
X34000000Y-26325000D03*
X34000000Y-24675000D03*
%TD*%
D14*
%TO.C,R112*%
X9175000Y-29000000D03*
X10825000Y-29000000D03*
%TD*%
D28*
%TO.C,U21*%
X25100000Y-25250000D03*
X25100000Y-25750000D03*
X25100000Y-26250000D03*
X25100000Y-26750000D03*
X25100000Y-27250000D03*
X25100000Y-27750000D03*
X25100000Y-28250000D03*
X25100000Y-28750000D03*
X25100000Y-29250000D03*
X25100000Y-29750000D03*
X25100000Y-30250000D03*
X25100000Y-30750000D03*
D29*
X25750000Y-31400000D03*
X26250000Y-31400000D03*
X26750000Y-31400000D03*
X27250000Y-31400000D03*
X27750000Y-31400000D03*
X28250000Y-31400000D03*
X28750000Y-31400000D03*
X29250000Y-31400000D03*
D28*
X29900000Y-30750000D03*
X29900000Y-30250000D03*
X29900000Y-29750000D03*
X29900000Y-29250000D03*
X29900000Y-28750000D03*
X29900000Y-28250000D03*
X29900000Y-27750000D03*
X29900000Y-27250000D03*
X29900000Y-26750000D03*
X29900000Y-26250000D03*
X29900000Y-25750000D03*
X29900000Y-25250000D03*
D29*
X29250000Y-24600000D03*
X28750000Y-24600000D03*
X28250000Y-24600000D03*
X27750000Y-24600000D03*
X27250000Y-24600000D03*
X26750000Y-24600000D03*
X26250000Y-24600000D03*
X25750000Y-24600000D03*
D30*
X27500000Y-28000000D03*
%TD*%
D20*
%TO.C,C56*%
X22500000Y-17275000D03*
X22500000Y-15725000D03*
%TD*%
D17*
%TO.C,R92*%
X41000000Y-30825000D03*
X41000000Y-29175000D03*
%TD*%
D31*
%TO.C,U23*%
X27457500Y-16750000D03*
X27457500Y-16250000D03*
X27457500Y-15750000D03*
X27457500Y-15250000D03*
D32*
X26750000Y-14542500D03*
X26250000Y-14542500D03*
X25750000Y-14542500D03*
X25250000Y-14542500D03*
D31*
X24542500Y-15250000D03*
X24542500Y-15750000D03*
X24542500Y-16250000D03*
X24542500Y-16750000D03*
D32*
X25250000Y-17457500D03*
X25750000Y-17457500D03*
X26250000Y-17457500D03*
X26750000Y-17457500D03*
D33*
X26000000Y-16000000D03*
%TD*%
D20*
%TO.C,C67*%
X15000000Y-35575000D03*
X15000000Y-34025000D03*
%TD*%
D34*
%TO.C,Q5*%
X11062500Y-43050000D03*
X11062500Y-44950000D03*
X12937500Y-44000000D03*
%TD*%
D35*
%TO.C,J11*%
X4650000Y-5750000D03*
X11350000Y-5750000D03*
D36*
X9000000Y-10350000D03*
X7000000Y-10350000D03*
%TD*%
D17*
%TO.C,R120*%
X14000000Y-40825000D03*
X14000000Y-39175000D03*
%TD*%
D23*
%TO.C,C41*%
X23775000Y-29600000D03*
X22225000Y-29600000D03*
%TD*%
D17*
%TO.C,R81*%
X22000000Y-23825000D03*
X22000000Y-22175000D03*
%TD*%
D20*
%TO.C,C57*%
X22000000Y-14275000D03*
X22000000Y-12725000D03*
%TD*%
D17*
%TO.C,R86*%
X45000000Y-24325000D03*
X45000000Y-22675000D03*
%TD*%
D13*
%TO.C,R122*%
X14037500Y-49000000D03*
X19962500Y-49000000D03*
%TD*%
D17*
%TO.C,R83*%
X35000000Y-39825000D03*
X35000000Y-38175000D03*
%TD*%
D21*
%TO.C,C52*%
X44725000Y-19500000D03*
X46275000Y-19500000D03*
%TD*%
D17*
%TO.C,R104*%
X27300000Y-22825000D03*
X27300000Y-21175000D03*
%TD*%
D21*
%TO.C,C66*%
X4725000Y-36500000D03*
X6275000Y-36500000D03*
%TD*%
D34*
%TO.C,Q4*%
X31062500Y-39050000D03*
X31062500Y-40950000D03*
X32937500Y-40000000D03*
%TD*%
D14*
%TO.C,R140*%
X46175000Y-39000000D03*
X47825000Y-39000000D03*
%TD*%
D17*
%TO.C,R117*%
X17000000Y-32825000D03*
X17000000Y-31175000D03*
%TD*%
D14*
%TO.C,R88*%
X46175000Y-28000000D03*
X47825000Y-28000000D03*
%TD*%
%TO.C,R109*%
X21175000Y-10000000D03*
X22825000Y-10000000D03*
%TD*%
D21*
%TO.C,C54*%
X41725000Y-9500000D03*
X43275000Y-9500000D03*
%TD*%
D17*
%TO.C,R137*%
X44000000Y-44825000D03*
X44000000Y-43175000D03*
%TD*%
%TO.C,R145*%
X45000000Y-14825000D03*
X45000000Y-13175000D03*
%TD*%
%TO.C,R84*%
X32000000Y-34825000D03*
X32000000Y-33175000D03*
%TD*%
D19*
%TO.C,C69*%
X17000000Y-42950000D03*
X17000000Y-41050000D03*
%TD*%
%TO.C,C50*%
X19500000Y-23450000D03*
X19500000Y-21550000D03*
%TD*%
D20*
%TO.C,C58*%
X26000000Y-12775000D03*
X26000000Y-11225000D03*
%TD*%
D13*
%TO.C,R124*%
X14037500Y-55000000D03*
X19962500Y-55000000D03*
%TD*%
D37*
%TO.C,U26*%
X35137500Y-12050000D03*
X35137500Y-12700000D03*
X35137500Y-13350000D03*
X35137500Y-14000000D03*
X35137500Y-14650000D03*
X35137500Y-15300000D03*
X35137500Y-15950000D03*
X40862500Y-15950000D03*
X40862500Y-15300000D03*
X40862500Y-14650000D03*
X40862500Y-14000000D03*
X40862500Y-13350000D03*
X40862500Y-12700000D03*
X40862500Y-12050000D03*
%TD*%
D14*
%TO.C,R119*%
X10175000Y-40500000D03*
X11825000Y-40500000D03*
%TD*%
D20*
%TO.C,C51*%
X35000000Y-34775000D03*
X35000000Y-33225000D03*
%TD*%
D12*
%TO.C,TP36*%
X20000000Y-41000000D03*
%TD*%
D20*
%TO.C,C65*%
X17000000Y-35775000D03*
X17000000Y-34225000D03*
%TD*%
D19*
%TO.C,C44*%
X17000000Y-28450000D03*
X17000000Y-26550000D03*
%TD*%
%TO.C,C68*%
X6000000Y-41950000D03*
X6000000Y-40050000D03*
%TD*%
D17*
%TO.C,R146*%
X14000000Y-21825000D03*
X14000000Y-20175000D03*
%TD*%
%TO.C,R94*%
X33500000Y-23325000D03*
X33500000Y-21675000D03*
%TD*%
D37*
%TO.C,U24*%
X37137500Y-22050000D03*
X37137500Y-22700000D03*
X37137500Y-23350000D03*
X37137500Y-24000000D03*
X37137500Y-24650000D03*
X37137500Y-25300000D03*
X37137500Y-25950000D03*
X42862500Y-25950000D03*
X42862500Y-25300000D03*
X42862500Y-24650000D03*
X42862500Y-24000000D03*
X42862500Y-23350000D03*
X42862500Y-22700000D03*
X42862500Y-22050000D03*
%TD*%
D34*
%TO.C,U31*%
X6062500Y-32050000D03*
X6062500Y-33950000D03*
X7937500Y-33000000D03*
%TD*%
D14*
%TO.C,R116*%
X19675000Y-37800000D03*
X21325000Y-37800000D03*
%TD*%
D23*
%TO.C,C42*%
X23775000Y-31300000D03*
X22225000Y-31300000D03*
%TD*%
D17*
%TO.C,R108*%
X19000000Y-18825000D03*
X19000000Y-17175000D03*
%TD*%
%TO.C,R91*%
X39000000Y-30825000D03*
X39000000Y-29175000D03*
%TD*%
%LPD*%
M02*
