M48
; DRILL file KiCad 10.0.6 date 2026-09-11T18:30:11
; FORMAT={-:-/ absolute / metric / decimal}
; #@! TF.CreationDate,2026-09-11T18:30:11+02:00
; #@! TF.GenerationSoftware,Kicad,Pcbnew,10.0.6
; #@! TF.FileFunction,Plated,1,4,PTH
FMAT,2
METRIC
; #@! TA.AperFunction,Plated,PTH,ViaDrill
T1C0.200
; #@! TA.AperFunction,Plated,PTH,ViaDrill
T2C0.300
; #@! TA.AperFunction,Plated,PTH,ComponentDrill
T3C1.000
%
G90
G05
T1
X23.6Y-16.75
X24.4Y-16.25
X24.775Y-15.75
X24.85Y-17.457
X25.75Y-17.25
X26.25Y-14.75
X26.75Y-14.1
X27.25Y-24.75
X27.7Y-15.25
X27.75Y-23.85
X28.25Y-23.0
X28.75Y-24.75
X29.25Y-23.8
X29.75Y-25.75
X29.75Y-26.75
X29.75Y-27.75
X29.75Y-28.75
X29.75Y-30.25
X30.1Y-6.05
X30.4Y-29.75
X30.5Y-8.6
X30.7Y-25.25
X30.7Y-26.25
X30.7Y-27.25
X30.75Y-5.5
X31.75Y-5.5
X32.75Y-5.5
X33.75Y-5.5
X34.25Y-7.8
X34.75Y-5.5
X35.137Y-12.05
X35.75Y-5.5
X35.9Y-34.3
X36.25Y-6.05
X36.75Y-5.5
X37.637Y-22.05
X37.75Y-5.5
X38.05Y-35.15
X38.75Y-5.5
X39.25Y-6.05
X39.75Y-5.5
X40.0Y-40.85
X40.3Y-29.0
X40.3Y-31.5
X40.75Y-5.5
X40.8Y-38.9
X41.7Y-14.6
X41.75Y-5.5
X42.75Y-5.5
X42.862Y-23.35
X42.862Y-24.65
X43.5Y-19.3
X43.75Y-5.5
X44.75Y-5.5
X45.25Y-7.8
X45.9Y-6.05
T2
X3.237Y-51.0
X3.237Y-57.0
X4.037Y-51.0
X4.037Y-57.0
X4.5Y-18.5
X4.837Y-51.0
X4.837Y-57.0
X5.3Y-18.5
X5.6Y-12.0
X6.0Y-39.1
X6.05Y-33.2
X6.1Y-18.5
X6.4Y-12.0
X7.15Y-36.5
X7.2Y-12.0
X7.4Y-43.7
X8.2Y-43.7
X9.0Y-12.0
X9.0Y-43.7
X9.8Y-12.0
X10.6Y-12.0
X11.5Y-21.0
X11.95Y-36.65
X12.3Y-21.0
X12.6Y-31.2
X13.1Y-21.0
X13.137Y-36.0
X13.237Y-51.0
X13.237Y-57.0
X14.0Y-38.35
X14.037Y-51.0
X14.037Y-57.0
X14.837Y-51.0
X14.837Y-57.0
X15.0Y-33.15
X15.6Y-47.45
X16.2Y-3.9
X16.2Y-12.5
X16.7Y-43.9
X17.0Y-3.9
X17.0Y-12.5
X17.0Y-25.6
X17.0Y-34.225
X17.0Y-40.1
X17.8Y-3.9
X17.8Y-12.5
X18.0Y-29.2
X18.8Y-29.2
X18.85Y-32.35
X18.85Y-33.85
X19.5Y-20.6
X19.85Y-18.2
X21.35Y-19.5
X21.35Y-29.6
X21.35Y-30.8
X21.6Y-15.7
X22.0Y-10.65
X22.0Y-11.85
X22.5Y-34.7
X22.8Y-18.15
X22.9Y-14.2
X22.95Y-32.2
X23.3Y-34.7
X23.65Y-15.0
X24.1Y-34.7
X24.35Y-25.05
X24.55Y-14.7
X25.1Y-31.3
X26.0Y-10.35
X26.0Y-16.0
X26.75Y-30.25
X26.8Y-27.3
X26.8Y-28.0
X26.8Y-28.7
X26.85Y-18.6
X27.15Y-13.05
X27.5Y-27.3
X27.5Y-28.0
X27.5Y-28.7
X28.2Y-27.3
X28.2Y-28.0
X28.2Y-28.7
X28.25Y-21.55
X28.25Y-30.25
X28.6Y-17.95
X29.1Y-28.25
X29.75Y-18.6
X31.05Y-35.9
X31.35Y-26.05
X31.35Y-27.05
X31.4Y-27.85
X31.45Y-31.15
X31.65Y-11.2
X31.75Y-32.25
X32.2Y-29.5
X32.25Y-8.55
X32.65Y-35.65
X32.75Y-22.45
X32.9Y-8.0
X33.0Y-12.85
X33.0Y-27.85
X33.1Y-17.95
X33.85Y-11.2
X33.95Y-13.7
X33.95Y-14.5
X33.95Y-15.65
X34.9Y-26.15
X35.25Y-11.35
X35.9Y-35.05
X35.95Y-23.0
X35.95Y-24.95
X37.15Y-7.95
X37.4Y-40.4
X37.95Y-33.7
X38.05Y-30.6
X38.35Y-23.45
X38.35Y-25.15
X39.2Y-17.05
X39.65Y-13.9
X40.3Y-7.95
X40.35Y-33.6
X40.4Y-36.7
X41.1Y-7.95
X41.7Y-25.7
X42.2Y-37.8
X42.25Y-7.95
X42.8Y-14.7
X42.8Y-16.1
X42.8Y-21.4
X43.3Y-35.7
X43.95Y-20.25
X44.5Y-7.95
X45.25Y-25.15
X45.35Y-35.5
X45.35Y-38.75
X45.85Y-27.0
X46.7Y-29.5
X46.85Y-26.0
X47.0Y-26.8
X48.5Y-27.2
T3
X25.46Y-53.0
X28.0Y-53.0
X30.54Y-53.0
M30
